<?xml version="1.0" encoding="utf-8"?>
<!-- Generator: Adobe Illustrator 24.0.2, SVG Export Plug-In . SVG Version: 6.00 Build 0)  -->
<svg version="1.1" id="Capa_1" xmlns="http://www.w3.org/2000/svg" xmlns:xlink="http://www.w3.org/1999/xlink" x="0px" y="0px"
	 viewBox="0 0 60 60" style="enable-background:new 0 0 60 60;" xml:space="preserve">
<style type="text/css">
	.st0{fill:#F8D9FF;}
	.st1{fill:#F3C0FF;}
	.st2{fill:#723B7F;}
	.st3{fill:#5C3066;}
</style>
<g>
	<path class="st0" d="M60,60H0V0h60V60z"/>
	<path class="st1" d="M60,60H30V0h30V60z"/>
	<path class="st2" d="M56.5,56.5h-53v-53h53V56.5z"/>
	<path class="st3" d="M56.5,56.5H30v-53h26.5V56.5z"/>
	<path class="st0" d="M20.3,21.3h3.4l7.6,20h-4l-1.9-5h-7l-1.8,5h-4L20.3,21.3z M24.7,33.5L22,25.7l-2.9,7.8H24.7z"/>
	<g>
		<path class="st1" d="M39.6,41.5c-4.7,0-7.8-3.5-7.8-7.6c0-3.7,2.5-7.7,7.8-7.7c3.7,0,7.7,2.5,7.7,7.6c0,0.2,0,1.1-0.1,1.3H35.8
			c0.1,0.6,0.7,3.7,3.9,3.7c2.1,0,3.2-1.4,3.5-2l3.2,0.9C45.9,38.8,44,41.5,39.6,41.5z M43.4,32.6c-0.2-2.4-1.9-3.7-3.9-3.7
			c-2,0-3.6,1.5-3.8,3.7H43.4z"/>
		<polygon class="st1" points="30,37.9 30,41.3 31.3,41.3 		"/>
	</g>
</g>
</svg>
