<?xml version="1.0" encoding="utf-8"?>
<!-- Generator: Adobe Illustrator 24.0.2, SVG Export Plug-In . SVG Version: 6.00 Build 0)  -->
<svg version="1.1" id="Layer_1" xmlns="http://www.w3.org/2000/svg" xmlns:xlink="http://www.w3.org/1999/xlink" x="0px" y="0px"
	 viewBox="0 0 60 60" style="enable-background:new 0 0 60 60;" xml:space="preserve">
<style type="text/css">
	.st0{fill:#FEC478;}
	.st1{fill:#FEA832;}
	.st2{fill:#994C0F;}
	.st3{fill:#713708;}
</style>
<g>
	<path class="st0" d="M60,60H0V0h60V60z"/>
	<path class="st1" d="M60,60H30V0h30V60z"/>
	<path class="st2" d="M56.5,56.5h-53v-53h53V56.5z"/>
	<path class="st3" d="M56.5,56.5H30v-53h26.5V56.5z"/>
	<path class="st0" d="M24.3,21.3h3.4l7.6,20h-4l-1.9-5h-7l-1.8,5h-4L24.3,21.3z M28.8,33.5L26,25.7l-2.9,7.8H28.8z"/>
	<g>
		<path class="st1" d="M37.2,24.5v-3.7h3.8v3.7H37.2z M37.2,41.3V26.5h3.8v14.7H37.2z"/>
		<polygon class="st1" points="30,27.2 30,37.6 31.3,41.3 35.3,41.3 		"/>
	</g>
</g>
</svg>
