<?xml version="1.0" encoding="utf-8"?>
<!-- Generator: Adobe Illustrator 24.0.2, SVG Export Plug-In . SVG Version: 6.00 Build 0)  -->
<svg version="1.1" id="Layer_1" xmlns="http://www.w3.org/2000/svg" xmlns:xlink="http://www.w3.org/1999/xlink" x="0px" y="0px"
	 viewBox="0 0 149 150" style="enable-background:new 0 0 149 150;" xml:space="preserve">
<style type="text/css">
	.st0{fill:url(#SVGID_1_);}
	.st1{fill:url(#SVGID_2_);}
	.st2{fill:url(#SVGID_3_);}
</style>
<g>
	<linearGradient id="SVGID_1_" gradientUnits="userSpaceOnUse" x1="-21.0343" y1="-4.5575" x2="138.4457" y2="148.8025">
		<stop  offset="0" style="stop-color:#072142"/>
		<stop  offset="0.5242" style="stop-color:#8C2B7A"/>
		<stop  offset="1" style="stop-color:#FF4D5A"/>
	</linearGradient>
	<path class="st0" d="M92,101.2c-1.6,0-2.9,1.3-2.9,2.9s1.3,2.9,2.9,2.9s2.9-1.3,2.9-2.9S93.6,101.2,92,101.2z"/>
	<linearGradient id="SVGID_2_" gradientUnits="userSpaceOnUse" x1="-7.1776" y1="-18.9671" x2="152.3024" y2="134.3929">
		<stop  offset="0" style="stop-color:#072142"/>
		<stop  offset="0.5242" style="stop-color:#8C2B7A"/>
		<stop  offset="1" style="stop-color:#FF4D5A"/>
	</linearGradient>
	<path class="st1" d="M134.4,0.5H14.6C6.5,0.5,0,7,0,15.1v89.1c0,8,6.5,14.6,14.6,14.6h45.4V132H57c-3.9,0-7.5,1.5-10.3,4.3
		c-2.7,2.7-4.3,6.4-4.3,10.3c0,1.6,1.3,2.9,2.9,2.9h58.2c1.6,0,2.9-1.3,2.9-2.9c0-8-6.5-14.6-14.6-14.6h-2.9v-13.4h45.4
		c8,0,14.6-6.5,14.6-14.6V15.1C149,7,142.5,0.5,134.4,0.5z M14.6,6.3h119.9c4.8,0,8.7,3.9,8.7,8.7v74.5h-13.4V22.6
		c0-1.6-1.3-2.9-2.9-2.9h-23.3c-1.6,0-2.9,1.3-2.9,2.9v66.9H86.1c0-3-0.1-6-0.2-8.9c-0.5-11.9-1.7-19.8-2.3-23.3
		c6-4.4,7.6-12.6,4-19L77.5,21C77,20.1,76,19.5,75,19.5c-1,0-2,0.6-2.5,1.5L62.4,38.4c-3.5,6-2.2,13.8,3.2,18.4
		c-0.6,3.5-1.9,11.7-2.5,23.9c-0.1,2.9-0.2,5.9-0.2,8.9H48.3V45.9c0-0.5-0.1-0.9-0.3-1.3c0,0,0,0,0,0L36.4,21.3
		c-0.5-1-1.5-1.6-2.6-1.6s-2.1,0.6-2.6,1.6L19.5,44.6c0,0,0,0,0,0c-0.2,0.4-0.3,0.8-0.3,1.3v43.7H5.8V15.1
		C5.8,10.2,9.7,6.3,14.6,6.3z M106.5,89.6v-64H124v5.8h-2.9c-1.6,0-2.9,1.3-2.9,2.9s1.3,2.9,2.9,2.9h2.9v8.7h-2.9
		c-1.6,0-2.9,1.3-2.9,2.9s1.3,2.9,2.9,2.9h2.9v8.7h-2.9c-1.6,0-2.9,1.3-2.9,2.9s1.3,2.9,2.9,2.9h2.9v11.6h-2.9
		c-1.6,0-2.9,1.3-2.9,2.9s1.3,2.9,2.9,2.9h2.9v5.8H106.5z M75,60.2c1.1,0,2.1-0.1,3.1-0.3c0.5,3.5,1.3,9.6,1.8,18H69.1
		c0.5-8.4,1.3-14.6,1.9-18.2C72.3,60.1,73.6,60.2,75,60.2z M75,54.4c-6.7,0-10.9-7.2-7.6-13.1L75,28.2l7.6,13.1
		C85.9,47.2,81.7,54.4,75,54.4z M68.8,83.7h11.4c0.1,1.9,0.1,3.9,0.1,5.8H68.7C68.7,87.6,68.8,85.7,68.8,83.7z M36.7,89.6V48.8h5.8
		v40.7H36.7z M25,89.6V48.8h5.8v40.7H25z M26.8,43l6.9-13.9L40.7,43H26.8z M100.2,143.7H48.8c0.4-1.2,1.1-2.3,2.1-3.3
		c1.7-1.6,3.8-2.6,6.2-2.6H92C95.8,137.9,99,140.3,100.2,143.7z M83.2,132H65.8v-13.4h17.5V132z M134.4,112.8H14.6
		c-4.8,0-8.7-3.9-8.7-8.7v-8.7h137.4v8.7C143.2,108.9,139.3,112.8,134.4,112.8z"/>
	<linearGradient id="SVGID_3_" gradientUnits="userSpaceOnUse" x1="-30.8215" y1="5.6203" x2="128.6585" y2="158.9803">
		<stop  offset="0" style="stop-color:#072142"/>
		<stop  offset="0.5242" style="stop-color:#8C2B7A"/>
		<stop  offset="1" style="stop-color:#FF4D5A"/>
	</linearGradient>
	<path class="st2" d="M80.3,101.2H62.9c-1.6,0-2.9,1.3-2.9,2.9s1.3,2.9,2.9,2.9h17.5c1.6,0,2.9-1.3,2.9-2.9S81.9,101.2,80.3,101.2z"
		/>
</g>
</svg>
