<?xml version="1.0" encoding="utf-8"?>
<!-- Generator: Adobe Illustrator 24.0.2, SVG Export Plug-In . SVG Version: 6.00 Build 0)  -->
<svg version="1.1" id="Capa_1" xmlns="http://www.w3.org/2000/svg" xmlns:xlink="http://www.w3.org/1999/xlink" x="0px" y="0px"
	 viewBox="0 0 60 60" style="enable-background:new 0 0 60 60;" xml:space="preserve">
<style type="text/css">
	.st0{fill:#DAFF73;}
	.st1{fill:#AFFC00;}
	.st2{fill:#5D7F00;}
	.st3{fill:#506600;}
</style>
<g>
	<path class="st0" d="M60,60H0V0h60V60z"/>
	<path class="st1" d="M60,60H30V0h30V60z"/>
	<path class="st2" d="M56.5,56.5h-53v-53h53V56.5z"/>
	<path class="st3" d="M56.5,56.5H30v-53h26.5V56.5z"/>
	<g>
		<path class="st0" d="M48.2,26.5h3.6l-6.2,14.7h-3.1L40,34.8l-2.5,6.5h-3.1l-6.1-14.7h3.5l4.4,11.2l1.8-4.8l-2.6-6.4h3l1.5,4.5
			l1.6-4.5h3L42,32.9l1.8,4.8L48.2,26.5z"/>
		<path class="st0" d="M10.1,41.3v-20h7.3c5.9,0,9.8,3.9,9.8,10c0,4.9-2.9,10-9.8,10H10.1z M23.3,31.2c0-4-2.4-6.6-5.9-6.6H14v13.2
			h3.4C20.9,37.8,23.3,35,23.3,31.2z"/>
	</g>
	<polygon class="st1" points="48.2,26.5 43.8,37.7 42,32.9 44.6,26.5 41.5,26.5 40,31.1 38.4,26.5 35.4,26.5 38,32.9 36.2,37.7 
		31.8,26.5 30,26.5 30,30.7 34.4,41.3 37.5,41.3 40,34.8 42.5,41.3 45.6,41.3 51.7,26.5 	"/>
</g>
</svg>
