<?xml version="1.0" encoding="utf-8"?>
<!-- Generator: Adobe Illustrator 24.0.2, SVG Export Plug-In . SVG Version: 6.00 Build 0)  -->
<svg version="1.1" id="Capa_1" xmlns="http://www.w3.org/2000/svg" xmlns:xlink="http://www.w3.org/1999/xlink" x="0px" y="0px"
	 viewBox="0 0 60 60" style="enable-background:new 0 0 60 60;" xml:space="preserve">
<style type="text/css">
	.st0{fill:#CCEFFF;}
	.st1{fill:#ACE3FC;}
	.st2{fill:#57565C;}
	.st3{fill:#3E3D42;}
</style>
<g>
	<path class="st0" d="M60,60H0V0h60V60z"/>
	<path class="st1" d="M60,60H30V0h30V60z"/>
	<path class="st2" d="M56.5,56.5h-53v-53h53V56.5z"/>
	<path class="st3" d="M56.5,56.5H30v-53h26.5V56.5z"/>
	<path class="st0" d="M18.9,41.3v-20h3.9v16.6H33v3.4H18.9z"/>
	<g>
		<path class="st1" d="M43.8,29.8c-3.3,0-4.6,1.7-5,2.6v8.9H35V26.5h3.5v3.1c0.3-0.5,1.9-3.7,5.3-3.3L43.8,29.8L43.8,29.8z"/>
		<rect x="30" y="37.8" class="st1" width="3" height="3.4"/>
	</g>
</g>
</svg>
