<?xml version="1.0" encoding="utf-8"?>
<!-- Generator: Adobe Illustrator 24.0.2, SVG Export Plug-In . SVG Version: 6.00 Build 0)  -->
<svg version="1.1" id="Capa_1" xmlns="http://www.w3.org/2000/svg" xmlns:xlink="http://www.w3.org/1999/xlink" x="0px" y="0px"
	 viewBox="0 0 60 67" style="enable-background:new 0 0 60 67;" xml:space="preserve">
<style type="text/css">
	.st0{fill:#539E43;}
</style>
<g>
	<path class="st0" d="M30,66.4c-0.9,0-1.8-0.2-2.5-0.7l-8-4.7c-1.2-0.7-0.7-0.9-0.2-1c1.7-0.6,2-0.7,3.6-1.7c0.2-0.1,0.4,0,0.7,0
		l6.2,3.7c0.2,0.1,0.6,0.1,0.8,0l24.1-14c0.2-0.1,0.3-0.3,0.3-0.7v-28c0-0.3-0.1-0.6-0.3-0.7L30.3,5c-0.2-0.1-0.6-0.1-0.8,0
		L5.4,18.9c-0.2,0.1-0.3,0.4-0.3,0.7v27.9c0,0.2,0.1,0.6,0.3,0.7l6.6,3.9c3.5,1.9,5.8-0.3,5.8-2.4V22c0-0.3,0.3-0.8,0.8-0.8h3.1
		c0.3,0,0.8,0.3,0.8,0.8v27.5c0,4.7-2.6,7.6-7.2,7.6c-1.4,0-2.4,0-5.5-1.5l-6.4-3.6c-1.5-0.9-2.5-2.6-2.5-4.4V19.6
		c0-1.9,1-3.5,2.5-4.4l24-14c1.5-0.9,3.5-0.9,5.1,0l24.1,14c1.5,0.9,2.5,2.6,2.5,4.4v27.9c0,1.9-1,3.5-2.5,4.4l-24.1,14
		C31.8,66.3,30.9,66.4,30,66.4z M37.5,47.3c-10.6,0-12.8-4.8-12.8-8.9c0-0.3,0.3-0.8,0.8-0.8h3.2c0.3,0,0.7,0.2,0.7,0.7
		c0.4,3.2,1.9,4.7,8.3,4.7c5.1,0,7.3-1.1,7.3-3.9c0-1.5-0.7-2.8-8.6-3.5c-6.6-0.7-10.7-2.1-10.7-7.4c0-5,4.1-7.8,11-7.8
		c7.7,0,11.6,2.6,12,8.5c0,0.2,0,0.3-0.2,0.6c-0.1,0.1-0.3,0.2-0.4,0.2h-3.2c-0.3,0-0.7-0.2-0.7-0.6c-0.8-3.3-2.6-4.4-7.6-4.4
		c-5.5,0-6.3,2-6.3,3.4c0,1.8,0.8,2.3,8.3,3.3s11,2.3,11,7.6C49.5,44.2,45.1,47.3,37.5,47.3z"/>
</g>
</svg>
