<?xml version="1.0" encoding="utf-8"?>
<!-- Generator: Adobe Illustrator 24.0.2, SVG Export Plug-In . SVG Version: 6.00 Build 0)  -->
<svg version="1.1" id="Layer_1" xmlns="http://www.w3.org/2000/svg" xmlns:xlink="http://www.w3.org/1999/xlink" x="0px" y="0px"
	 viewBox="0 0 60 60" style="enable-background:new 0 0 60 60;" xml:space="preserve">
<style type="text/css">
	.st0{fill:#CCEFFF;}
	.st1{fill:#ACE3FC;}
	.st2{fill:#0C61C6;}
	.st3{fill:#0A4EAF;}
</style>
<g>
	<path class="st0" d="M60,60H0V0h60V60z"/>
	<path class="st1" d="M60,60H30V0h30V60z"/>
	<path class="st2" d="M56.5,56.5h-53v-53h53V56.5z"/>
	<path class="st3" d="M56.5,56.5H30v-53h26.5V56.5z"/>
	<path class="st0" d="M16.5,41.3v-20H25c3.9,0,6.4,3.6,6.4,6.6c0,3.6-2.8,6.6-6.2,6.6h-4.7v6.7H16.5z M20.4,31.2h4.5
		c1.4,0,2.5-1.3,2.5-3.2c0-1.7-1-3.2-2.7-3.2h-4.3V31.2z"/>
	<g>
		<path class="st1" d="M39.2,41.5c-3.4,0-5.8-1.5-6.7-2.3l1.4-2.4c0.9,0.6,3,1.9,5.2,1.9c1.4,0,2.4-0.6,2.4-1.6c0-1.3-2.1-1.7-3.2-2
			c-1-0.3-5.3-0.9-5.3-4.1c0-3.1,2.7-4.9,5.8-4.9c3.2,0,5,1.3,5.8,2l-1.5,2.3c-0.8-0.6-2.4-1.6-4.3-1.6c-1.4,0-2.3,0.6-2.3,1.7
			c0,1.3,2.4,1.7,2.9,1.9c1,0.3,5.7,1,5.7,4.4C45.2,41,41.1,41.5,39.2,41.5z"/>
		<path class="st1" d="M30,23.9V32c0.8-1.1,1.3-2.6,1.3-4.1C31.3,26.6,30.9,25.1,30,23.9z"/>
	</g>
</g>
</svg>
