<svg xmlns="http://www.w3.org/2000/svg" id="Layer_1" viewBox="0 0 60 60">
  <style>
    .st0{fill:#efcca3}.st1{fill:#ccac8d}.st2{fill:#fff}.st3{fill:#56332b}.st4{fill:#442823}.st5{fill:#7f4a41}.st6{fill:#331712}
  </style>
  <path d="M50.2 23.1c-.1-2.1.2-3.9-.7-5.4-2.2-3.8-7.9-6.1-19.1-6.1v.3h-.2.2v-.3c-11.2 0-17.1 2.2-19.4 6.1-.9 1.6-.8 3.4-.9 5.4-.1 1.6-.8 3.4-.5 5.2.4 2.4.5 4.9.9 7.1.3 1.8 2.8 3.4 3 5.1.7 4.8 5.6 7 16.9 7v.4H30h.3v-.4c11.2 0 16-2.2 16.6-7 .2-1.8 2.6-3.3 2.9-5.1.4-2.2.5-4.7.9-7.1.3-1.8-.4-3.6-.5-5.2z" class="st0"/>
  <path d="M30.2 24.7c2 0 3.4 1.3 4.7 2.5 1.5 1.4 4.2 2.3 5.2 3.5 1.1 1.2 2.5 2.3 3 4.2.5 1.8.7 4.2.7 4.8 0 .6.3.5 1.3 0 2.2-1.1 4.6-4 4.6-4-.3 1.8-2.7 3.5-2.9 5.2-.6 4.8-5.2 7.1-16.7 7.1h.3" class="st1"/>
  <path d="M37.6 21.1c.4 1.5 1.9 6.4-1 4.7 0 0 1.2.7 2 3.4s2.7 3 2.7 3 3.1.6 5.5-1.4c2-1.7 2.3-4.7 1.5-7-.8-2.2-2.3-3-4.5-3.4-2.4-.5-6.8-.9-6.2.7z" class="st1"/>
  <circle cx="43.1" cy="26.4" r="4.1"/>
  <circle cx="42.1" cy="24.6" r="1.1" class="st2"/>
  <path d="M36.9 26.2s3.7 2.5 5.7 5 2 3 2 3l-1.5.7S41 31 38.5 29.6c-2.6-1.5-2.9-2.7-2.9-2.7l1.3-.7z" class="st0"/>
  <path d="M30.3 24.7c-2 0-3.5 1.3-4.9 2.5-1.5 1.4-4.3 2.3-5.3 3.5-1.1 1.2-2.5 2.3-3 4.2-.5 1.8-.7 4.2-.7 4.8 0 .6.1.7-1.3 0-2.2-1-4.6-4-4.6-4 .3 1.8 2.7 3.5 2.9 5.2.7 4.8 5.3 7.1 16.8 7.1h.2" class="st1"/>
  <path d="M41.2 32.7c-2.2-2.8-5.9-5.3-10.9-5.3s-8.6 2.6-10.9 5.3c-2.3 2.9-2.2 4-2.2 6.7 0 9.8 3.5 7 5.8 8.2 2.3 1.2 4.8.8 7.3.8s4.9.3 7.3-.8c2.3-1.2 5.8 1.7 5.8-8.1 0-2.8.1-4-2.2-6.8z" class="st3"/>
  <path d="M30.1 29.8s-.3 4.5-1 5.4l1.2-.3-.2-5.1z" class="st4"/>
  <path d="M30.4 29.8s.3 4.5 1 5.4l-1.2-.3.2-5.1z" class="st4"/>
  <path d="M26.5 28.7c-.5-1.1 1.2-2.8 3.9-2.9 2.7 0 4.4 1.7 3.9 2.9-.5 1.1-2.2 1.5-3.9 1.5-1.7-.1-3.5-.4-3.9-1.5z" class="st3"/>
  <path d="M30.4 29.8c0-.2 1.6-.2 2.4-.8 0 0-1.7.6-2.1.3-.4-.2-.5-.7-.5-.7s-.1.6-.4.7c-.3.2-2.3-.3-2.3-.3s2.6.7 2.6.8v.9c0 1.2 0 4.1.2 4.3.3.4.2-3.1.2-4.3-.1-.4-.1-.8-.1-.9z"/>
  <path d="M30.4 36c.8 0 2.2.6 3.5 1.5-1.2-1.4-2.7-2.3-3.5-2.3-.8 0-2.6 1-3.9 2.5 1.4-1 3.1-1.7 3.9-1.7z" class="st5"/>
  <path d="M30.1 44.3c-1.8 0-3.5-.6-5.1-1-.3-.1-.7.1-1 0-3-.9-5.3-2.5-6.8-4.5v.5c0 9.8 3.5 7.1 5.8 8.2 2.3 1.2 4.8.8 7.3.8s4.9.3 7.3-.8c2.3-1.2 5.8 1.7 5.8-8.1v-1.1c-1.4 2.2-3.8 3.9-6.9 5-.3.1-.9-.1-1.2-.1-1.8.5-3.3 1.1-5.2 1.1z" class="st4"/>
  <path d="M25.7 39s-1.2 3.5-.4 5.1l-1.1-.5s.8-3.5 1.5-4.6zm9.2 0s1.2 3.5.4 5.1l1.1-.5s-.9-3.5-1.5-4.6z" class="st4"/>
  <path d="M22.7 21.1c-.4 1.5-1.9 6.4 1 4.7 0 0-1.2.7-2 3.4-.7 2.7-2.7 3-2.7 3s-3.1.6-5.5-1.4c-2-1.7-2.3-4.7-1.5-7 .8-2.3 2.3-3 4.5-3.4 2.3-.5 6.6-.9 6.2.7z" class="st1"/>
  <path d="M30.3 35.2c1.3 0 5.2 2.7 5.2 6V41c0-3.5-3.2-6.2-5.2-6.2-2.1 0-5.2 2.8-5.2 6.2v.2c0-3.3 3.9-6 5.2-6z"/>
  <ellipse cx="31.2" cy="28" class="st6" rx=".4" ry=".7" transform="rotate(-14.465 31.149 28.032)"/>
  <ellipse cx="29.1" cy="28" class="st6" rx=".7" ry=".4" transform="rotate(-72.764 29.128 28.031)"/>
  <circle cx="17.3" cy="26.4" r="4.1"/>
  <circle cx="18.4" cy="24.6" r="1.1" class="st2"/>
  <path d="M31.5 26.5s-1.1.5-1.4.5c-.3 0-1.4-.6-1.4-.5h2.8z" class="st5"/>
  <path d="M23.3 26.2s-3.7 2.5-5.7 5-2 3-2 3l1.5.7s2.1-3.9 4.6-5.3c2.5-1.5 2.9-2.7 2.9-2.7l-1.3-.7z" class="st0"/>
  <path d="M15.2 18.8s-1.3 3.5-4.1 4.9c.1 0 4.5-.5 4.1-4.9zm29.6 0s1.3 3.5 4.1 4.9c-.1 0-4.5-.5-4.1-4.9zm-8 6.4s-2.8-2.9-6.5-3c0 0 .1 0 0 0-3.7.1-6.5 3-6.5 3 3.2-2.2 6-2.2 6.5-2.2.1 0 3.2 0 6.5 2.2zm-3.3-6.1s-1.4-2-3.3-2c-1.4 0-3.2 2-3.2 2 1.6-1.5 3.2-1.5 3.2-1.5s1.7 0 3.3 1.5zM17.3 33.5s-2.2 1.1-3.8.4c-1.4-.8-2.1-3.2-2.1-3.2s1.4 4.3 5.9 2.8zm25.7 0s2.2 1.1 3.8.4c1.9-.8 2.2-3.2 2.2-3.2s-1.5 4.3-6 2.8z" class="st1"/>
  <path d="M19.9 18.5c1.2-.2 3.2-.3 4.8.2 2 .7.4 3.3.8 3.4.4.1 1-1.8 4.7-1.6 3.8.2 4.2 1.9 4.7 1.6.5-.3-.5-4.7 5.2-3.7 0 0-5.9-1.6-5.7 2.7 0 0-3.4-2.6-8.2-.3.1.2 1.3-3.9-6.3-2.3zm20.7 0zm-22.4-5.7s-5.1 6.4-5.8 8.8c-.7 2.5-1.3 12.6-2 14.1l-2.3-10 4.3-10.4 5.8-2.5zm23.8 0s5.1 6.4 5.8 8.8c.7 2.5 1.3 12.6 2 14.1l2.3-10-4.3-10.4-5.8-2.5z" class="st1"/>
  <path d="M41.8 12.8s5.4 4.5 7 9.8c1.6 5.2.9 11.6 2.2 12.4 1.7 1.1 3.7-5.6 4.4-6.3 1-1.1 4.4-4 4.7-4.5.2-.5-6.9-8.3-10.1-9.9-3.9-1.8-8.6-1.9-8.2-1.5z" class="st3"/>
  <path d="M46.4 15.6s6.4 8.2 6.3 18.4l2.6-5.2c0-.1-2.3-6.8-8.9-13.2z" class="st4"/>
  <path d="M18.2 12.8s-5.4 4.5-7 9.8S10.3 34.2 9 35c-1.7 1.1-3.7-5.6-4.4-6.3-1-1.1-4.4-4-4.7-4.5s6.9-8.3 10.1-9.9c3.9-1.8 8.6-1.9 8.2-1.5z" class="st3"/>
  <path d="M13.6 15.6S7.2 23.8 7.3 34l-2.5-5.2c-.1-.1 2.2-6.8 8.8-13.2z" class="st4"/>
  <path d="M10.1 34.2s.5 2.5 1.2 3.3c.7.8.2-.6.2-.6s-.8-.4-.7-3.7c.3-3.2-.7 1-.7 1zm40 0s-.5 2.5-1.2 3.3c-.7.8-.2-.6-.2-.6s.8-.4.7-3.7c-.3-3.2.7 1 .7 1z" class="st1"/>
  <circle cx="25.4" cy="32.2" r=".4" class="st4"/>
  <circle cx="23.3" cy="34.5" r=".4" class="st4"/>
  <circle cx="22.6" cy="32.2" r=".4" class="st4"/>
  <circle cx="34.6" cy="32.2" r=".4" class="st4"/>
  <circle cx="36.7" cy="34.5" r=".4" class="st4"/>
  <circle cx="37.4" cy="32.2" r=".4" class="st4"/>
</svg>
