<?xml version="1.0" encoding="utf-8"?>
<!-- Generator: Adobe Illustrator 24.0.2, SVG Export Plug-In . SVG Version: 6.00 Build 0)  -->
<svg version="1.1" id="Capa_1" xmlns="http://www.w3.org/2000/svg" xmlns:xlink="http://www.w3.org/1999/xlink" x="0px" y="0px"
	 viewBox="0 0 60 60" style="enable-background:new 0 0 60 60;" xml:space="preserve">
<style type="text/css">
	.st0{fill:#FFFFFF;}
	.st1{fill:#53C1DE;}
</style>
<g>
	<path class="st0" d="M-3.4,29.9c0,5,4.9,9.7,12.7,12.4c-1.5,7.8-0.3,14.1,4,16.5c4.4,2.5,10.9,0.8,17-4.6c6,5.2,12.1,7.2,16.3,4.8
		c4.4-2.5,5.7-9.2,4.1-17.3C58.8,39,63.4,35,63.4,29.9c0-4.9-4.9-9.2-12.6-11.8C52.5,9.7,51,3.6,46.6,1c-4.3-2.5-10.4-0.3-16.5,5
		c-6.4-5.6-12.4-7.4-16.9-4.8C9,3.7,7.8,10.1,9.3,18C1.8,20.6-3.4,25-3.4,29.9z"/>
	<path class="st1" d="M49.2,20.7c-0.6-0.2-1.3-0.4-1.9-0.6c0.1-0.4,0.2-0.9,0.3-1.3c1.4-7,0.5-12.7-2.7-14.5
		c-3.1-1.8-8.1,0.1-13.3,4.5c-0.5,0.4-1,0.9-1.5,1.4c-0.3-0.3-0.6-0.6-1-0.9c-5.4-4.8-10.7-6.8-13.9-4.9c-3.1,1.8-4,7.1-2.7,13.7
		c0.1,0.7,0.3,1.3,0.4,2c-0.8,0.2-1.5,0.4-2.2,0.7c-6.3,2.2-10.3,5.6-10.3,9.2c0,3.7,4.3,7.4,10.8,9.6c0.5,0.2,1.1,0.3,1.6,0.5
		c-0.2,0.7-0.3,1.4-0.5,2.1c-1.2,6.5-0.3,11.7,2.8,13.5c3.2,1.8,8.5-0.1,13.7-4.6c0.4-0.4,0.8-0.7,1.2-1.1c0.5,0.5,1.1,1,1.6,1.5
		c5,4.3,10,6.1,13.1,4.3c3.2-1.8,4.2-7.4,2.9-14.2c-0.1-0.5-0.2-1-0.4-1.6c0.4-0.1,0.7-0.2,1.1-0.3c6.8-2.3,11.2-5.9,11.2-9.6
		C59.7,26.3,55.6,22.9,49.2,20.7L49.2,20.7z"/>
	<path class="st0" d="M47.7,37.1c-0.3,0.1-0.7,0.2-1,0.3c-0.8-2.4-1.8-4.9-3-7.5c1.2-2.5,2.2-5,2.9-7.4c0.6,0.2,1.2,0.4,1.8,0.6
		c5.5,1.9,8.8,4.7,8.8,6.8C57.2,32.2,53.6,35.2,47.7,37.1L47.7,37.1z M45.3,41.9c0.6,3,0.7,5.7,0.3,7.8c-0.4,1.9-1.1,3.2-1.9,3.7
		c-1.9,1.1-5.9-0.3-10.2-4c-0.5-0.4-1-0.9-1.5-1.4c1.7-1.8,3.3-4,5-6.3c2.9-0.3,5.6-0.7,8-1.2C45.1,41,45.2,41.5,45.3,41.9
		L45.3,41.9z M20.6,53.3c-1.8,0.6-3.3,0.7-4.2,0.2c-1.9-1.1-2.6-5.2-1.6-10.8c0.1-0.7,0.3-1.3,0.4-2c2.4,0.5,5.1,0.9,8,1.2
		c1.6,2.3,3.4,4.4,5.1,6.3c-0.4,0.4-0.7,0.7-1.1,1C25,51.1,22.7,52.5,20.6,53.3L20.6,53.3z M12.1,37.1c-2.9-1-5.3-2.3-6.9-3.7
		C3.7,32.2,3,30.9,3,29.9c0-2.2,3.2-4.9,8.6-6.8c0.7-0.2,1.4-0.4,2-0.6c0.7,2.4,1.7,4.9,2.9,7.5c-1.2,2.6-2.2,5.2-2.9,7.6
		C13.1,37.4,12.6,37.3,12.1,37.1z M15,17.6c-1.1-5.7-0.4-10,1.5-11.1c2-1.1,6.4,0.5,11,4.6c0.3,0.3,0.6,0.5,0.9,0.8
		c-1.7,1.8-3.4,4-5,6.2c-2.8,0.3-5.5,0.7-7.9,1.2C15.2,18.8,15.1,18.2,15,17.6L15,17.6z M40.5,23.9c-0.6-1-1.2-2-1.8-3
		c1.9,0.2,3.7,0.6,5.4,0.9c-0.5,1.6-1.1,3.3-1.9,5.1C41.7,26,41.1,24.9,40.5,23.9L40.5,23.9z M30.1,13.8c1.2,1.3,2.3,2.7,3.5,4.2
		c-2.3-0.1-4.7-0.1-7,0C27.7,16.5,28.9,15,30.1,13.8L30.1,13.8z M19.6,23.9c-0.6,1-1.1,2-1.7,3.1c-0.7-1.7-1.4-3.5-1.9-5.1
		c1.7-0.4,3.5-0.7,5.4-0.9C20.8,21.9,20.2,22.9,19.6,23.9z M21.5,39.1c-1.9-0.2-3.8-0.5-5.5-0.9c0.5-1.7,1.2-3.4,1.9-5.2
		c0.5,1,1.1,2.1,1.7,3.1C20.2,37.1,20.8,38.1,21.5,39.1z M30.2,46.2C29,45,27.8,43.5,26.6,42c1.1,0,2.3,0.1,3.5,0.1
		c1.2,0,2.4,0,3.6-0.1C32.5,43.5,31.3,45,30.2,46.2z M42.2,32.9c0.8,1.8,1.5,3.6,2,5.2c-1.7,0.4-3.6,0.7-5.5,0.9c0.6-1,1.2-2,1.8-3
		C41.1,35,41.7,33.9,42.2,32.9L42.2,32.9z M38.3,34.7c-0.9,1.6-1.8,3.1-2.8,4.6c-1.8,0.1-3.6,0.2-5.4,0.2c-1.8,0-3.6-0.1-5.4-0.2
		c-1-1.5-2-3-2.9-4.6c-0.9-1.6-1.7-3.2-2.5-4.8c0.8-1.6,1.6-3.2,2.5-4.8v0c0.9-1.6,1.9-3.1,2.9-4.6c1.8-0.1,3.6-0.2,5.4-0.2
		c1.8,0,3.6,0.1,5.4,0.2c1,1.5,2,3,2.9,4.6c0.9,1.6,1.8,3.1,2.6,4.8C40.1,31.6,39.2,33.2,38.3,34.7L38.3,34.7z M43.6,6.5
		c2,1.1,2.8,5.8,1.5,11.8c-0.1,0.4-0.2,0.8-0.3,1.2c-2.5-0.6-5.1-1-7.9-1.3c-1.6-2.3-3.3-4.4-5-6.3c0.4-0.4,0.9-0.8,1.4-1.3
		C37.6,6.9,41.7,5.4,43.6,6.5L43.6,6.5z"/>
	<path class="st1" d="M30.1,24.6c2.9,0,5.3,2.4,5.3,5.3c0,2.9-2.4,5.3-5.3,5.3c-2.9,0-5.3-2.4-5.3-5.3C24.8,27,27.1,24.6,30.1,24.6"
		/>
</g>
</svg>
