<?xml version="1.0" encoding="utf-8"?>
<!-- Generator: Adobe Illustrator 24.0.2, SVG Export Plug-In . SVG Version: 6.00 Build 0)  -->
<svg version="1.1" id="Capa_1" xmlns="http://www.w3.org/2000/svg" xmlns:xlink="http://www.w3.org/1999/xlink" x="0px" y="0px"
	 viewBox="0 0 60 60" style="enable-background:new 0 0 60 60;" xml:space="preserve">
<style type="text/css">
	.st0{fill:#FF80E4;}
	.st1{fill:#FF5AD4;}
	.st2{fill:#7F1363;}
	.st3{fill:#661054;}
</style>
<path class="st0" d="M60,60H0V0h60V60z"/>
<path class="st1" d="M60,60H30V0h30V60z"/>
<path class="st2" d="M56.5,56.5h-53v-53h53V56.5z"/>
<path class="st3" d="M56.5,56.5H30v-53h26.5V56.5z"/>
<path class="st0" d="M17.2,21.3l5,7.4l5-7.4h4.2l-7.1,10.1l6.9,9.8h-4.2l-4.7-7.1l-4.8,7.1h-4.2l6.9-9.8l-7.1-10.1H17.2z"/>
<g>
	<path class="st1" d="M38.2,41.5c-4.3,0-7-3.6-7-7.7c0-4.6,3.1-7.6,6.6-7.6c3,0,4.5,2,5,2.8v-8.4h3.8v16.2c0,0.4,0.6,1.1,0.9,1.1
		v3.2c-0.7,0.1-1.2,0.2-1.6,0.2c-2.7,0-2.5-2.8-2.5-2.8C42.7,39.6,41.1,41.5,38.2,41.5z M39.2,38.3c2.4,0,3.4-2.1,3.6-2.5v-3.5
		c-0.2-0.4-1.5-2.9-3.8-2.9c-2.6,0-3.9,2.5-3.9,4.5C35.1,36.1,36.7,38.3,39.2,38.3z"/>
	<polygon class="st1" points="30,21.3 30,23.1 31.3,21.3 	"/>
	<polygon class="st1" points="30,41.3 31.1,41.3 30,39.7 	"/>
</g>
</svg>
