<?xml version="1.0" encoding="utf-8"?>
<!-- Generator: Adobe Illustrator 25.0.0, SVG Export Plug-In . SVG Version: 6.00 Build 0)  -->
<svg version="1.1" id="Layer_1" xmlns="http://www.w3.org/2000/svg" xmlns:xlink="http://www.w3.org/1999/xlink" x="0px" y="0px"
	 viewBox="0 0 24 24" style="enable-background:new 0 0 24 24;" xml:space="preserve">
<style type="text/css">
	.st0{fill:#001D34;}
</style>
<path class="st0" d="M9.9,8.4C9.5,8.3,9.1,8.2,8.7,8.2c-0.3,0-0.5,0-0.7,0c-0.2,0-0.3,0-0.4,0v3.4c0.1,0,0.3,0,0.4,0h0.5
	c0.4,0,0.8-0.1,1.1-0.2c0.3-0.1,0.6-0.3,0.8-0.5c0.2-0.2,0.3-0.6,0.3-1c0-0.3-0.1-0.6-0.2-0.9C10.4,8.7,10.1,8.5,9.9,8.4z M19.8,0.3
	H4.2C1.9,0.3,0,2.2,0,4.6v14.9c0,2.4,1.9,4.2,4.2,4.2h15.5c2.4,0,4.2-1.9,4.2-4.2V4.6C24,2.2,22.1,0.3,19.8,0.3z M12.4,11.9
	c-0.4,0.6-1,1-1.6,1.2c-0.7,0.2-1.4,0.3-2.2,0.3c-0.2,0-0.4,0-0.5,0s-0.2,0-0.4,0v3.2c0,0.1,0,0.1-0.1,0.1H5.5c-0.1,0-0.1,0-0.1-0.1
	V6.4c0-0.1,0-0.1,0.1-0.1c0.2,0,0.3,0,0.6,0c0.2,0,0.5,0,0.8,0s0.6,0,0.9,0c0.3,0,0.6,0,0.9,0c0.8,0,1.5,0.1,2.1,0.3
	c0.5,0.2,1,0.4,1.3,0.8c0.3,0.3,0.6,0.7,0.7,1.1C12.9,8.9,13,9.4,13,9.8C13,10.7,12.8,11.4,12.4,11.9z M19.5,15.8
	c-0.3,0.4-0.7,0.7-1.1,0.9c-0.5,0.2-1.1,0.3-1.8,0.3c-0.5,0-0.9,0-1.4-0.1c-0.4-0.1-0.7-0.2-1-0.3c-0.1,0-0.1-0.1-0.1-0.2v-1.7
	c0,0,0-0.1,0-0.1c0,0,0.1,0,0.1,0c0.4,0.2,0.8,0.4,1.2,0.5c0.4,0.1,0.8,0.1,1.2,0.1c0.4,0,0.6-0.1,0.8-0.1c0.2-0.1,0.3-0.2,0.3-0.4
	c0-0.1-0.1-0.3-0.2-0.4c-0.2-0.1-0.5-0.3-1-0.5c-0.5-0.2-1-0.4-1.4-0.7c-0.3-0.2-0.6-0.5-0.8-0.9c-0.2-0.3-0.2-0.7-0.2-1
	c0-0.4,0.1-0.8,0.3-1.2c0.2-0.4,0.6-0.7,1-0.9c0.5-0.2,1.1-0.3,1.8-0.3c0.4,0,0.8,0,1.2,0.1c0.3,0,0.6,0.1,0.9,0.2
	c0,0,0.1,0.1,0.1,0.1c0,0,0,0.1,0,0.1v1.6c0,0,0,0.1,0,0.1c-0.1,0-0.1,0-0.2,0c-0.3-0.2-0.6-0.3-1-0.3c-0.4-0.1-0.7-0.1-1.1-0.1
	c-0.2,0-0.4,0-0.6,0.1c-0.1,0-0.2,0.1-0.3,0.2c0,0.1-0.1,0.2-0.1,0.3s0,0.2,0.1,0.3c0.1,0.1,0.2,0.2,0.3,0.3
	c0.2,0.1,0.5,0.2,0.7,0.3c0.5,0.2,1.1,0.4,1.5,0.7c0.3,0.2,0.6,0.5,0.8,0.8c0.2,0.3,0.2,0.7,0.2,1C19.9,15,19.7,15.4,19.5,15.8z"/>
</svg>
