<?xml version="1.0" encoding="utf-8"?>
<!-- Generator: Adobe Illustrator 25.0.0, SVG Export Plug-In . SVG Version: 6.00 Build 0)  -->
<svg version="1.1" id="Layer_1" xmlns="http://www.w3.org/2000/svg" xmlns:xlink="http://www.w3.org/1999/xlink" x="0px" y="0px"
	 viewBox="0 0 24 24" style="enable-background:new 0 0 24 24;" xml:space="preserve">
<style type="text/css">
	.st0{fill:#00005B;}
</style>
<path class="st0" d="M8.5,10.7c-0.1-0.3-0.2-0.6-0.3-0.9S8.1,9.2,8,8.9C7.9,8.6,7.8,8.4,7.8,8.1h0C7.7,8.6,7.5,9,7.4,9.4
	c-0.2,0.5-0.3,1-0.5,1.5c-0.1,0.5-0.3,1-0.4,1.4H9c-0.1-0.2-0.1-0.5-0.2-0.7C8.7,11.3,8.6,11,8.5,10.7z M17.1,10.4
	c-0.5,0-1.1,0.3-1.3,0.8c-0.1,0.2-0.2,0.5-0.2,0.7h2.1c0.3,0,0.5,0,0.6,0c0.1,0,0.2,0,0.2-0.1v-0.1c0-0.1,0-0.2-0.1-0.4
	C18.2,10.8,17.7,10.4,17.1,10.4z M19.8,0.3H4.2C1.9,0.3,0,2.2,0,4.6v14.9c0,2.4,1.9,4.2,4.2,4.2h15.5c2.4,0,4.2-1.9,4.2-4.2V4.6
	C24,2.2,22.1,0.3,19.8,0.3z M12.7,16.8h-2.1c-0.1,0-0.1,0-0.2-0.1l-0.8-2.4H5.9l-0.8,2.4c0,0.1-0.1,0.1-0.2,0.1H3.1
	c-0.1,0-0.1-0.1-0.1-0.2l3.2-9.2c0-0.1,0.1-0.2,0.1-0.3c0-0.2,0.1-0.4,0.1-0.7c0-0.1,0-0.1,0.1-0.1H9c0.1,0,0.1,0,0.1,0.1l3.6,10.2
	C12.8,16.8,12.8,16.8,12.7,16.8z M20.6,12.8c0,0.2,0,0.3,0,0.4c0,0.1-0.1,0.1-0.1,0.1c-0.1,0-0.2,0-0.3,0c-0.2,0-0.4,0-0.6,0
	c-0.2,0-0.5,0-0.7,0h-3.2c0,0.3,0.1,0.6,0.3,0.9c0.2,0.3,0.4,0.5,0.7,0.6c0.4,0.2,0.8,0.3,1.3,0.2c0.4,0,0.7,0,1-0.1
	c0.3,0,0.6-0.1,0.9-0.2c0,0,0.1,0,0.1,0.1v1.5c0,0,0,0.1,0,0.1c0,0,0,0.1-0.1,0.1c-0.3,0.1-0.6,0.2-1,0.3C18.3,17,17.9,17,17.4,17
	c-0.8,0-1.4-0.1-1.9-0.4c-0.5-0.2-0.9-0.5-1.3-0.9c-0.3-0.4-0.6-0.8-0.7-1.3c-0.1-0.5-0.2-1-0.2-1.5c0-0.5,0.1-1.1,0.2-1.6
	c0.2-0.5,0.4-1,0.8-1.4c0.3-0.4,0.7-0.7,1.2-0.9c0.5-0.2,1-0.3,1.7-0.3c0.5,0,1.1,0.1,1.5,0.3c0.4,0.2,0.8,0.4,1,0.8
	c0.3,0.3,0.5,0.7,0.6,1.1c0.1,0.4,0.2,0.8,0.2,1.2C20.6,12.4,20.6,12.6,20.6,12.8z"/>
</svg>
