<?xml version="1.0" encoding="utf-8"?>
<!-- Generator: Adobe Illustrator 25.0.0, SVG Export Plug-In . SVG Version: 6.00 Build 0)  -->
<svg version="1.1" id="Layer_1" xmlns="http://www.w3.org/2000/svg" xmlns:xlink="http://www.w3.org/1999/xlink" x="0px" y="0px"
	 viewBox="0 0 24 24" style="enable-background:new 0 0 24 24;" xml:space="preserve">
<style type="text/css">
	.st0{fill:#28371D;}
</style>
<path class="st0" d="M6.7,8.4C6.3,8.3,5.8,8.2,5.4,8.2c-0.2,0-0.4,0-0.5,0c-0.1,0-0.3,0-0.5,0v6.7c0.1,0,0.2,0,0.3,0
	c0.1,0,0.2,0,0.3,0c0.1,0,0.2,0,0.3,0c0.5,0,0.9-0.1,1.4-0.2c0.4-0.1,0.8-0.4,1.1-0.7c0.3-0.3,0.5-0.7,0.7-1.1
	c0.2-0.5,0.2-1,0.2-1.5c0-0.5-0.1-1-0.2-1.4C8.1,9.2,7.5,8.6,6.7,8.4z M19.8,0.3H4.2C1.9,0.3,0,2.2,0,4.6v14.9
	c0,2.4,1.9,4.2,4.2,4.2h15.5c2.4,0,4.2-1.9,4.2-4.2V4.6C24,2.2,22.1,0.3,19.8,0.3z M10.5,13.4C10.3,14,10,14.5,9.7,15
	c-0.4,0.4-0.8,0.8-1.2,1.1c-0.4,0.3-0.9,0.5-1.5,0.6c-0.5,0.1-1,0.2-1.5,0.2H4.3c-0.4,0-0.8,0-1.1,0c-0.3,0-0.6,0-0.8,0
	c-0.1,0-0.1-0.1-0.1-0.2V6.4c0-0.1,0-0.1,0.1-0.1h0c0.2,0,0.4,0,0.7,0c0.3,0,0.6,0,1,0s0.8,0,1.3,0c1.2,0,2.2,0.2,3,0.7
	c0.8,0.4,1.4,1,1.8,1.8c0.4,0.8,0.6,1.6,0.6,2.6C10.8,12.1,10.7,12.8,10.5,13.4z M19.9,16.7c0,0,0,0.1-0.1,0.1c0,0.1,0,0.1-0.1,0.1
	h-1.9c0,0-0.1,0-0.1,0c0,0,0-0.1-0.1-0.1c-0.2-0.8-0.4-1.5-0.5-2.1c-0.1-0.6-0.2-1.1-0.3-1.6c-0.1-0.4-0.1-0.8-0.2-1.1
	c-0.1-0.3-0.1-0.6-0.1-0.8h0c-0.1,0.4-0.2,0.9-0.3,1.3c-0.1,0.4-0.2,0.8-0.3,1.2s-0.2,0.9-0.3,1.4c-0.1,0.5-0.3,1.1-0.4,1.6
	c0,0.1-0.1,0.2-0.2,0.2h-1.9c-0.1,0-0.1,0-0.1,0c0,0-0.1-0.1-0.1-0.1L11.1,9c0-0.1,0-0.1,0.1-0.1h1.9c0.1,0,0.1,0,0.1,0.1
	c0.2,0.9,0.4,1.6,0.5,2.3c0.1,0.6,0.2,1.2,0.3,1.6c0.1,0.4,0.1,0.8,0.2,1.1c0.1,0.3,0.1,0.5,0.1,0.7h0c0-0.2,0-0.3,0.1-0.5
	c0-0.2,0.1-0.4,0.1-0.8c0.1-0.3,0.1-0.7,0.2-1.1s0.2-0.9,0.3-1.5c0.1-0.6,0.3-1.2,0.5-1.9c0,0,0-0.1,0-0.1c0,0,0,0,0.1,0h2
	c0.1,0,0.1,0,0.1,0.1c0.2,0.7,0.3,1.4,0.4,1.9c0.1,0.6,0.2,1,0.3,1.5c0.1,0.4,0.1,0.8,0.2,1.1c0,0.3,0.1,0.6,0.1,0.8
	c0,0.2,0.1,0.3,0.1,0.5h0c0-0.2,0.1-0.4,0.1-0.7c0-0.3,0.1-0.6,0.2-0.9c0.1-0.3,0.1-0.7,0.2-1.1c0.1-0.4,0.2-0.9,0.3-1.4
	c0.1-0.5,0.2-1.1,0.4-1.6c0-0.1,0.1-0.1,0.1-0.1H22c0.1,0,0.1,0.1,0.1,0.1C22.1,9,19.9,16.7,19.9,16.7z"/>
</svg>
