<?xml version="1.0" encoding="utf-8"?>
<!-- Generator: Adobe Illustrator 25.0.0, SVG Export Plug-In . SVG Version: 6.00 Build 0)  -->
<svg version="1.1" id="Layer_1" xmlns="http://www.w3.org/2000/svg" xmlns:xlink="http://www.w3.org/1999/xlink" x="0px" y="0px"
	 viewBox="0 0 24 24" style="enable-background:new 0 0 24 24;" xml:space="preserve">
<style type="text/css">
	.st0{fill:#310000;}
</style>
<path class="st0" d="M10.5,10.7c-0.1-0.3-0.2-0.6-0.3-0.9S10.1,9.2,10,8.9C9.9,8.6,9.8,8.4,9.7,8.1h0C9.6,8.6,9.5,9,9.4,9.4
	c-0.1,0.5-0.3,1-0.5,1.5c-0.1,0.5-0.3,1-0.4,1.4H11c-0.1-0.2-0.1-0.5-0.2-0.7C10.7,11.3,10.6,11,10.5,10.7z M19.8,0.3H4.2
	C1.9,0.3,0,2.2,0,4.6v14.9c0,2.4,1.9,4.2,4.2,4.2h15.5c2.4,0,4.2-1.9,4.2-4.2V4.6C24,2.2,22.1,0.3,19.8,0.3z M14.7,16.8h-2.1
	c-0.1,0-0.1,0-0.2-0.1l-0.8-2.4H7.9l-0.8,2.3c0,0.1-0.1,0.1-0.2,0.1H5.1c-0.1,0-0.1-0.1-0.1-0.2l3.2-9.3c0-0.1,0.1-0.2,0.1-0.3
	c0-0.2,0.1-0.4,0.1-0.7c0-0.1,0-0.1,0.1-0.1H11c0.1,0,0.1,0,0.1,0.1l3.7,10.3C14.8,16.8,14.8,16.8,14.7,16.8z M18.1,16.7
	c0,0.1,0,0.2-0.1,0.2h-2c-0.1,0-0.1-0.1-0.1-0.2V9c0-0.1,0-0.1,0.1-0.1h2c0.1,0,0.1,0.1,0.1,0.1V16.7z M17.9,7.7
	C17.7,7.9,17.3,8,17,8c-0.3,0-0.6-0.1-0.9-0.3c-0.2-0.2-0.4-0.6-0.3-0.9c0-0.3,0.1-0.7,0.4-0.9c0.2-0.2,0.6-0.3,0.9-0.3
	c0.4,0,0.7,0.1,0.9,0.3c0.2,0.2,0.3,0.6,0.3,0.9C18.2,7.1,18.1,7.4,17.9,7.7z"/>
</svg>
