<?xml version="1.0" encoding="utf-8"?>
<!-- Generator: Adobe Illustrator 25.0.0, SVG Export Plug-In . SVG Version: 6.00 Build 0)  -->
<svg version="1.1" id="Layer_1" xmlns="http://www.w3.org/2000/svg" xmlns:xlink="http://www.w3.org/1999/xlink" x="0px" y="0px"
	 viewBox="0 0 24 24" style="enable-background:new 0 0 24 24;" xml:space="preserve">
<style type="text/css">
	.st0{fill:#49021F;}
</style>
<path class="st0" d="M4.2,0.3C1.9,0.3,0,2.2,0,4.6v14.9c0,2.4,1.9,4.2,4.2,4.2h15.5c2.4,0,4.2-1.9,4.2-4.2V4.6
	c0-2.4-1.9-4.2-4.2-4.2H4.2z M15.6,5.4h2c0,0,0.1,0,0.1,0.1V15c0,0.2,0,0.4,0,0.6c0,0.2,0,0.4,0,0.6c0,0.1,0,0.1-0.1,0.2
	c-0.5,0.2-1.1,0.4-1.6,0.5C15.5,17,15,17,14.5,17c-0.7,0-1.5-0.1-2.2-0.5c-0.6-0.3-1.1-0.8-1.5-1.4c-0.4-0.6-0.6-1.4-0.6-2.3
	c0-0.7,0.2-1.5,0.6-2.1c0.4-0.6,0.9-1.2,1.6-1.6c0.7-0.4,1.5-0.6,2.5-0.6c0.1,0,0.1,0,0.2,0s0.2,0,0.3,0V5.5
	C15.5,5.5,15.5,5.4,15.6,5.4z M6.6,6.3h1.9c0.1,0,0.1,0,0.1,0.1c0,0,0,0,0,0v10.3c0,0.1-0.1,0.2-0.1,0.2h-2c-0.1,0-0.1,0-0.1-0.2
	V6.4C6.5,6.3,6.5,6.3,6.6,6.3z M14.9,10.5c-0.4,0-0.8,0.1-1.1,0.3c-0.3,0.2-0.6,0.4-0.9,0.7s-0.3,0.8-0.3,1.3c0,0.4,0.1,0.7,0.2,1
	c0.1,0.3,0.2,0.5,0.4,0.7c0.2,0.2,0.4,0.3,0.7,0.4c0.3,0.1,0.6,0.1,0.8,0.1c0.1,0,0.3,0,0.4,0c0.1,0,0.2,0,0.4-0.1v-4.4
	c-0.1,0-0.2,0-0.3-0.1C15.1,10.5,15,10.5,14.9,10.5z"/>
</svg>
