<?xml version="1.0" encoding="utf-8"?>
<!-- Generator: Adobe Illustrator 25.0.0, SVG Export Plug-In . SVG Version: 6.00 Build 0)  -->
<svg version="1.1" id="Layer_1" xmlns="http://www.w3.org/2000/svg" xmlns:xlink="http://www.w3.org/1999/xlink" x="0px" y="0px"
	 viewBox="0 0 24 24" style="enable-background:new 0 0 24 24;" xml:space="preserve">
<style type="text/css">
	.st0{fill:#001E36;}
</style>
<path class="st0" d="M19.8,0.3H4.2C1.9,0.3,0,2.2,0,4.6v14.9c0,2.4,1.9,4.2,4.2,4.2h15.5c2.4,0,4.2-1.9,4.2-4.2V4.6
	C24,2.2,22.1,0.3,19.8,0.3z M12.8,16.7c0,0.1,0,0.1-0.1,0.1c0,0-0.1,0-0.1,0H6.3c-0.1,0-0.2-0.1-0.2-0.2V6.4c0-0.1,0-0.1,0.1-0.1h2
	c0.1,0,0.1,0,0.1,0.1v8.4h4.6c0.1,0,0.1,0,0.1,0.1C13.1,15,12.8,16.7,12.8,16.7z M19,8.8v1.9c0,0.1,0,0.1-0.2,0.1
	c-0.6,0-1.3,0.1-1.9,0.3c-0.2,0.1-0.4,0.2-0.5,0.4v5.1c0,0.1,0,0.1-0.1,0.1h-1.9c-0.1,0-0.1,0-0.2-0.1v-5.6c0-0.2,0-0.5,0-0.8
	s0-0.5,0-0.8c0-0.2,0-0.4-0.1-0.7c0-0.1,0-0.1,0.1-0.1c0,0,0,0,0,0h1.8c0.1,0,0.2,0.1,0.2,0.2c0,0.1,0.1,0.1,0.1,0.2
	c0,0.1,0,0.2,0,0.3c0,0.1,0,0.2,0,0.4C16.6,9.6,17,9.3,17.4,9c0.5-0.2,1-0.4,1.5-0.4C18.9,8.7,19,8.7,19,8.8C19,8.8,19,8.8,19,8.8z"
	/>
</svg>
