<?xml version="1.0" encoding="utf-8"?>
<!-- Generator: Adobe Illustrator 25.0.0, SVG Export Plug-In . SVG Version: 6.00 Build 0)  -->
<svg version="1.1" id="Layer_1" xmlns="http://www.w3.org/2000/svg" xmlns:xlink="http://www.w3.org/1999/xlink" x="0px" y="0px"
	 viewBox="0 0 24 24" style="enable-background:new 0 0 24 24;" xml:space="preserve">
<style type="text/css">
	.st0{fill:#450135;}
</style>
<path class="st0" d="M18.8,0.3H5.2C2.3,0.3,0,2.6,0,5.5c0,0,0,0,0,0v13.1c0,2.9,2.3,5.2,5.2,5.2c0,0,0,0,0,0h13.7
	c2.9,0,5.2-2.3,5.2-5.2v0V5.5C24,2.6,21.7,0.3,18.8,0.3C18.8,0.3,18.8,0.3,18.8,0.3z M12.7,16.8h-2.3c-0.2,0-0.3,0-0.3-0.1
	c-0.2-0.4-0.4-0.8-0.6-1.2C9.2,15,9,14.6,8.8,14.2c-0.2-0.4-0.5-0.9-0.7-1.3h0c-0.2,0.4-0.4,0.9-0.7,1.3c-0.2,0.4-0.5,0.9-0.7,1.3
	c-0.2,0.4-0.5,0.8-0.7,1.3c0,0.1-0.1,0.1-0.2,0.1H3.6c0,0-0.1,0-0.1,0c0,0,0-0.1,0-0.1l3.1-5.1l-3-5.1c0,0,0-0.1,0-0.1
	c0,0,0.1,0,0.1,0H6c0,0,0.1,0,0.1,0c0,0,0.1,0.1,0.1,0.1c0.2,0.4,0.4,0.9,0.6,1.3C7.1,8.1,7.3,8.5,7.6,9S8,9.8,8.2,10.2h0
	c0.2-0.4,0.4-0.9,0.7-1.3s0.4-0.8,0.7-1.3c0.2-0.4,0.5-0.8,0.7-1.3c0,0,0-0.1,0.1-0.1c0,0,0.1,0,0.1,0h2.1c0,0,0.1,0,0.1,0.1
	c0,0,0,0.1,0,0.1l0,0l-3,4.9l3.2,5.2c0,0,0,0.1,0,0.1C12.8,16.8,12.8,16.8,12.7,16.8z M20.4,16.4c-0.5,0.2-1.1,0.4-1.6,0.5
	c-0.5,0.1-1,0.1-1.5,0.1c-0.7,0-1.5-0.1-2.1-0.5c-0.6-0.3-1.2-0.8-1.5-1.4c-0.4-0.7-0.6-1.5-0.5-2.3c0-0.7,0.2-1.5,0.5-2.1
	c0.4-0.7,0.9-1.2,1.6-1.5C16,8.8,17,8.6,17.9,8.7c0.1,0,0.2,0,0.3,0V5.5c0-0.1,0-0.1,0.1-0.1h2c0,0,0.1,0,0.1,0.1c0,0,0,0,0,0V15
	c0,0.2,0,0.4,0,0.6c0,0.2,0,0.4,0,0.6C20.5,16.3,20.5,16.3,20.4,16.4z M18,10.6c0.1,0,0.2,0,0.3,0V15c-0.1,0-0.2,0.1-0.4,0.1
	c-0.1,0-0.3,0-0.4,0c-0.3,0-0.6,0-0.8-0.1c-0.3-0.1-0.5-0.2-0.7-0.4c-0.2-0.2-0.4-0.4-0.5-0.7c-0.1-0.3-0.2-0.7-0.2-1
	c0-0.4,0.1-0.9,0.3-1.3c0.2-0.3,0.5-0.6,0.8-0.7c0.4-0.2,0.7-0.3,1.1-0.3C17.7,10.5,17.8,10.5,18,10.6z"/>
</svg>
