<?xml version="1.0" encoding="utf-8"?>
<!-- Generator: Adobe Illustrator 25.0.0, SVG Export Plug-In . SVG Version: 6.00 Build 0)  -->
<svg version="1.1" id="Layer_1" xmlns="http://www.w3.org/2000/svg" xmlns:xlink="http://www.w3.org/1999/xlink" x="0px" y="0px"
	 viewBox="0 0 1500 500" style="enable-background:new 0 0 1500 500;" xml:space="preserve">
<style type="text/css">
	.st0{clip-path:url(#SVGID_2_);}
	.st1{fill:#CBD6E3;}
	.st2{fill:#33475B;}
	.st3{fill:#45596D;}
</style>
<g>
	<defs>
		<rect id="SVGID_1_" width="1500" height="500"/>
	</defs>
	<clipPath id="SVGID_2_">
		<use xlink:href="#SVGID_1_"  style="overflow:visible;"/>
	</clipPath>
	<g class="st0">
		<rect class="st1" width="1500" height="500"/>
		<g>
			<path class="st2" d="M470.2,186.8h31.3v8.9c0,12.5,5.7,24.1,17,34.8l21.6,20.5c6.8,6.9,10.3,15.3,10.3,25.1
				c0,9.9-3.5,18.3-10.5,25.3c-7,7-15.4,10.5-25.3,10.5h-48.9v-31.3h48.9c1.3,0,2.3-0.4,3.2-1.3c0.9-0.9,1.3-1.9,1.3-3.2
				c0-1.2-0.4-2.2-1.2-3l-16.4-15.7c-20.9-19.1-31.3-39.6-31.3-61.7V186.8z"/>
			<path class="st2" d="M639.4,186.8V218h-85v-31.3H639.4z M585.7,280.6h53.7v31.3h-85v-80.4h85v31.3h-53.7V280.6z"/>
			<path class="st2" d="M737.7,186.8V218h-85v-31.3H737.7z M684,280.6h53.7v31.3h-85v-80.4h85v31.3H684V280.6z"/>
			<path class="st2" d="M836,280.6v31.3h-85V186.8h31.3v93.8H836z"/>
			<path class="st2" d="M908.2,280.6l-23.5-93.8h31.3l35.7,125.1H840l21.4-80.4h32.9L883,280.6H908.2z"/>
			<path class="st2" d="M941.3,222.5v-35.7h31.3v35.7c0,3.7,1.3,6.9,3.9,9.5c2.6,2.6,5.8,3.9,9.5,3.9c3.7,0,6.8-1.3,9.5-3.9
				c2.6-2.6,3.9-5.8,3.9-9.5v-35.7h31.3v35.7c0,12.3-4.4,22.9-13.1,31.6c-8.7,8.7-19.3,13.1-31.6,13.1s-22.9-4.4-31.6-13.1
				C945.7,245.4,941.3,234.8,941.3,222.5z M954.7,280.6h62.5v31.3h-62.5V280.6z"/>
		</g>
		<path class="st3" d="M466.5,383h-13.1v11.6h12.1v3.5h-12.1V413h-3.9v-33.6h17.1V383z M497,413h-4.7l-5.6-9.4
			c-0.5-0.9-1-1.6-1.5-2.2c-0.5-0.6-1-1.1-1.5-1.5c-0.5-0.4-1-0.7-1.6-0.8c-0.6-0.2-1.2-0.3-2-0.3h-3.2V413h-3.9v-33.6h10
			c1.5,0,2.8,0.2,4.1,0.6c1.2,0.4,2.3,0.9,3.2,1.7c0.9,0.8,1.6,1.7,2.2,2.8c0.5,1.1,0.8,2.4,0.8,3.9c0,1.2-0.2,2.2-0.5,3.2
			c-0.3,1-0.8,1.8-1.5,2.6c-0.6,0.8-1.4,1.4-2.3,2c-0.9,0.5-1.9,0.9-3.1,1.2v0.1c0.6,0.2,1,0.5,1.5,0.9c0.4,0.3,0.8,0.7,1.2,1.1
			c0.4,0.4,0.7,0.9,1.1,1.5c0.4,0.5,0.8,1.2,1.2,1.9L497,413z M476.8,383v12.2h5.3c1,0,1.9-0.1,2.7-0.4c0.8-0.3,1.6-0.7,2.2-1.3
			c0.6-0.6,1.1-1.2,1.4-2c0.3-0.8,0.5-1.7,0.5-2.7c0-1.8-0.6-3.2-1.8-4.2c-1.2-1-2.8-1.5-5-1.5H476.8z M514.7,413.6
			c-4.8,0-8.6-1.6-11.5-4.7c-2.9-3.1-4.3-7.2-4.3-12.3c0-5.4,1.5-9.7,4.4-12.9c2.9-3.2,6.9-4.8,11.9-4.8c4.6,0,8.4,1.6,11.2,4.7
			c2.8,3.1,4.3,7.2,4.3,12.3c0,5.5-1.5,9.8-4.4,13C523.5,412,519.6,413.6,514.7,413.6z M515,382.4c-3.5,0-6.4,1.3-8.6,3.8
			s-3.3,5.9-3.3,10c0,4.1,1.1,7.5,3.2,10c2.2,2.5,5,3.8,8.4,3.8c3.7,0,6.6-1.2,8.7-3.6s3.2-5.8,3.2-10.1c0-4.4-1-7.9-3.1-10.3
			C521.5,383.6,518.6,382.4,515,382.4z M564.4,413h-4.8l-17.3-26.8c-0.4-0.7-0.8-1.4-1.1-2.1h-0.1c0.1,0.7,0.2,2.3,0.2,4.6V413h-3.9
			v-33.6h5.1l16.8,26.4c0.7,1.1,1.2,1.8,1.4,2.2h0.1c-0.2-1-0.2-2.6-0.2-4.9v-23.7h3.9V413z M593.1,383h-9.7v30h-3.9v-30h-9.7v-3.6
			h23.3V383z M616.2,413h-17.8v-33.6h17.1v3.6h-13.1v11.2h12.1v3.5h-12.1v11.8h13.9V413z M649.8,413H645l-17.3-26.8
			c-0.4-0.7-0.8-1.4-1.1-2.1h-0.1c0.1,0.7,0.2,2.3,0.2,4.6V413h-3.9v-33.6h5.1l16.8,26.4c0.7,1.1,1.2,1.8,1.4,2.2h0.1
			c-0.2-1-0.2-2.6-0.2-4.9v-23.7h3.9V413z M658.6,413v-33.6h9.3c11.8,0,17.8,5.5,17.8,16.4c0,5.2-1.6,9.4-4.9,12.5
			c-3.3,3.1-7.7,4.7-13.2,4.7H658.6z M662.5,383v26.5h5c4.4,0,7.8-1.2,10.3-3.5c2.5-2.4,3.7-5.7,3.7-10c0-8.6-4.6-12.9-13.7-12.9
			H662.5z M745.3,379.4l-9.5,33.6h-4.6l-6.9-24.6c-0.3-1-0.5-2.2-0.5-3.4h-0.1c-0.1,1.2-0.3,2.3-0.6,3.4l-7,24.6h-4.6l-9.8-33.6h4.3
			l7.1,25.8c0.3,1.1,0.5,2.2,0.6,3.4h0.1c0.1-0.8,0.3-2,0.7-3.4l7.4-25.8h3.8l7.1,26c0.2,0.9,0.4,1.9,0.6,3.1h0.1
			c0.1-0.8,0.3-1.9,0.6-3.2l6.9-25.9H745.3z M768.1,413h-17.8v-33.6h17.1v3.6h-13.1v11.2h12.1v3.5h-12.1v11.8h13.9V413z M774.6,413
			v-33.6h9.6c2.9,0,5.2,0.7,6.9,2.1c1.7,1.4,2.6,3.3,2.6,5.6c0,1.9-0.5,3.6-1.5,5c-1,1.4-2.5,2.4-4.3,3v0.1c2.3,0.3,4.1,1.1,5.4,2.6
			c1.4,1.4,2,3.3,2,5.6c0,2.9-1,5.2-3.1,7c-2.1,1.8-4.7,2.7-7.8,2.7H774.6z M778.5,383v10.9h4c2.2,0,3.9-0.5,5.1-1.5
			c1.2-1,1.9-2.5,1.9-4.4c0-3.3-2.1-4.9-6.4-4.9H778.5z M778.5,397.3v12.1h5.3c2.3,0,4.1-0.5,5.4-1.6c1.3-1.1,1.9-2.6,1.9-4.5
			c0-4-2.7-6-8.1-6H778.5z M815.3,413v-33.6h9.3c11.8,0,17.8,5.5,17.8,16.4c0,5.2-1.6,9.4-4.9,12.5c-3.3,3.1-7.7,4.7-13.2,4.7H815.3
			z M819.2,383v26.5h5c4.4,0,7.8-1.2,10.3-3.5c2.5-2.4,3.7-5.7,3.7-10c0-8.6-4.6-12.9-13.7-12.9H819.2z M866.7,413h-17.8v-33.6H866
			v3.6h-13.1v11.2H865v3.5h-12.1v11.8h13.9V413z M898.2,379.4L885.7,413h-4.3l-12.2-33.6h4.4l9.3,26.6c0.3,0.9,0.5,1.9,0.7,3h0.1
			c0.1-0.9,0.4-1.9,0.8-3l9.5-26.6H898.2z M920.8,413H903v-33.6h17.1v3.6H907v11.2h12.1v3.5H907v11.8h13.9V413z M944.7,413h-17.4
			v-33.6h3.9v30h13.5V413z M961.8,413.6c-4.8,0-8.6-1.6-11.5-4.7c-2.9-3.1-4.3-7.2-4.3-12.3c0-5.4,1.5-9.7,4.4-12.9
			c2.9-3.2,6.9-4.8,11.9-4.8c4.6,0,8.4,1.6,11.2,4.7c2.8,3.1,4.3,7.2,4.3,12.3c0,5.5-1.5,9.8-4.4,13
			C970.6,412,966.7,413.6,961.8,413.6z M962.1,382.4c-3.5,0-6.4,1.3-8.6,3.8c-2.2,2.5-3.3,5.9-3.3,10c0,4.1,1.1,7.5,3.2,10
			c2.2,2.5,5,3.8,8.4,3.8c3.7,0,6.6-1.2,8.7-3.6s3.2-5.8,3.2-10.1c0-4.4-1-7.9-3.1-10.3C968.5,383.6,965.7,382.4,962.1,382.4z
			 M988.4,400.3V413h-3.9v-33.6h9.2c3.6,0,6.4,0.9,8.3,2.6c2,1.8,3,4.2,3,7.4c0,3.2-1.1,5.8-3.3,7.8c-2.2,2-5.2,3-8.9,3H988.4z
			 M988.4,383v13.8h4.1c2.7,0,4.8-0.6,6.2-1.9c1.4-1.2,2.2-3,2.2-5.3c0-4.4-2.6-6.7-7.9-6.7H988.4z M1029.2,413h-17.8v-33.6h17.1
			v3.6h-13.1v11.2h12.1v3.5h-12.1v11.8h13.9V413z M1059.7,413h-4.7l-5.6-9.4c-0.5-0.9-1-1.6-1.5-2.2c-0.5-0.6-1-1.1-1.5-1.5
			c-0.5-0.4-1.1-0.7-1.6-0.8c-0.6-0.2-1.2-0.3-2-0.3h-3.2V413h-3.9v-33.6h10c1.5,0,2.8,0.2,4,0.6c1.2,0.4,2.3,0.9,3.2,1.7
			c0.9,0.8,1.6,1.7,2.2,2.8c0.5,1.1,0.8,2.4,0.8,3.9c0,1.2-0.2,2.2-0.5,3.2c-0.3,1-0.8,1.8-1.5,2.6c-0.6,0.8-1.4,1.4-2.3,2
			c-0.9,0.5-1.9,0.9-3.1,1.2v0.1c0.6,0.2,1,0.5,1.5,0.9c0.4,0.3,0.8,0.7,1.2,1.1c0.4,0.4,0.7,0.9,1.1,1.5c0.4,0.5,0.8,1.2,1.2,1.9
			L1059.7,413z M1039.6,383v12.2h5.3c1,0,1.9-0.1,2.7-0.4c0.8-0.3,1.6-0.7,2.2-1.3c0.6-0.6,1.1-1.2,1.4-2c0.3-0.8,0.5-1.7,0.5-2.7
			c0-1.8-0.6-3.2-1.8-4.2c-1.2-1-2.8-1.5-5-1.5H1039.6z"/>
		<circle class="st2" cx="36" cy="475" r="75"/>
		<circle class="st2" cx="1464" cy="26" r="75"/>
	</g>
</g>
</svg>
