<?xml version="1.0" encoding="utf-8"?>
<!-- Generator: Adobe Illustrator 25.0.0, SVG Export Plug-In . SVG Version: 6.00 Build 0)  -->
<svg version="1.1" id="Layer_1" xmlns="http://www.w3.org/2000/svg" xmlns:xlink="http://www.w3.org/1999/xlink" x="0px" y="0px"
	 viewBox="0 0 1500 500" style="enable-background:new 0 0 1500 500;" xml:space="preserve">
<style type="text/css">
	.st0{clip-path:url(#SVGID_2_);}
	.st1{fill:#0D1117;}
	.st2{fill:#FF2222;}
	.st3{fill:none;}
	.st4{fill:#FF4848;}
	.st5{font-family:'Andea-Clean';}
	.st6{font-size:48px;}
	.st7{font-family:'MyriadPro-Regular';}
</style>
<g>
	<g>
		<defs>
			<rect id="SVGID_1_" width="1500" height="500"/>
		</defs>
		<clipPath id="SVGID_2_">
			<use xlink:href="#SVGID_1_"  style="overflow:visible;"/>
		</clipPath>
		<g class="st0">
			<rect class="st1" width="1500" height="500"/>
			<g>
				<path class="st2" d="M470.2,186.8h31.3v8.9c0,12.5,5.7,24.1,17,34.8l21.6,20.5c6.8,6.9,10.3,15.3,10.3,25.1
					c0,9.9-3.5,18.3-10.5,25.3s-15.4,10.5-25.3,10.5h-48.9v-31.3h48.9c1.3,0,2.3-0.4,3.2-1.3s1.3-1.9,1.3-3.2c0-1.2-0.4-2.2-1.2-3
					l-16.4-15.7c-20.9-19.1-31.3-39.6-31.3-61.7L470.2,186.8L470.2,186.8z"/>
				<path class="st2" d="M639.4,186.8V218h-85v-31.3h85V186.8z M585.7,280.6h53.7v31.3h-85v-80.4h85v31.3h-53.7V280.6z"/>
				<path class="st2" d="M737.7,186.8V218h-85v-31.3h85V186.8z M684,280.6h53.7v31.3h-85v-80.4h85v31.3H684V280.6z"/>
				<path class="st2" d="M836,280.6v31.3h-85V186.8h31.3v93.8H836z"/>
				<path class="st2" d="M908.2,280.6l-23.5-93.8H916l35.7,125.1H840l21.4-80.4h32.9L883,280.6H908.2z"/>
				<path class="st2" d="M941.3,222.5v-35.7h31.3v35.7c0,3.7,1.3,6.9,3.9,9.5c2.6,2.6,5.8,3.9,9.5,3.9s6.8-1.3,9.5-3.9
					c2.6-2.6,3.9-5.8,3.9-9.5v-35.7h31.3v35.7c0,12.3-4.4,22.9-13.1,31.6c-8.7,8.7-19.3,13.1-31.6,13.1s-22.9-4.4-31.6-13.1
					C945.7,245.4,941.3,234.8,941.3,222.5z M954.7,280.6h62.5v31.3h-62.5V280.6z"/>
			</g>
			<rect x="297.8" y="360.6" class="st3" width="904.5" height="34.1"/>
			<text transform="matrix(1 0 0 1 352.3002 394.6797)"><tspan x="0" y="0" class="st4 st5 st6">DESIGNER </tspan><tspan x="244.7" y="0" class="st4 st7 st6">•</tspan><tspan x="258.2" y="0" class="st4 st5 st6"> DEVELOPER </tspan><tspan x="572.1" y="0" class="st4 st7 st6">•</tspan><tspan x="585.6" y="0" class="st4 st5 st6"> DIGITAL </tspan></text>
			<circle class="st2" cx="36" cy="475" r="75"/>
			<circle class="st2" cx="1464" cy="26" r="75"/>
		</g>
	</g>
</g>
</svg>
