<?xml version="1.0" encoding="utf-8"?>
<!-- Generator: Adobe Illustrator 27.7.0, SVG Export Plug-In . SVG Version: 6.00 Build 0)  -->
<svg version="1.1" id="Layer_1" xmlns="http://www.w3.org/2000/svg" xmlns:xlink="http://www.w3.org/1999/xlink" x="0px" y="0px"
	 viewBox="0 0 1200 348" style="enable-background:new 0 0 1200 348;" xml:space="preserve">
<style type="text/css">
	.st0{fill:#FF2222;}
</style>
<g>
	<g>
		<g id="Seelay">
			<path class="st0" d="M281.7,104h34.9v9.7c0,13.8,6.4,27.2,18.9,39.1l24.4,23c7.9,7.9,11.6,17.1,11.6,28.1
				c0,11-3.7,20.7-11.6,28.5c-7.9,7.9-17.1,11.6-28.5,11.6h-54.8v-34.9h54.8c1.4,0,2.8-0.5,3.7-1.4c0.9-0.9,1.4-2.4,1.4-3.7
				c0-1.4-0.5-2.4-1.4-3.3l-18.4-17.5c-23.5-21.1-34.9-44.1-34.9-69.1L281.7,104L281.7,104z"/>
			<path class="st0" d="M471.3,104v34.9H376V104H471.3z M411,208.9h60.3v34.9H376v-90.2h95.3v34.9H411V208.9L411,208.9z"/>
			<path class="st0" d="M581.4,104v34.9H486V104H581.4z M520.9,208.9h60.3v34.9H486v-90.2h95.3v34.9h-60.3v20.4L520.9,208.9
				L520.9,208.9z"/>
			<path class="st0" d="M691.3,208.9v34.9h-95.3V104h34.9v104.9C631,208.9,691.3,208.9,691.3,208.9z"/>
			<path class="st0" d="M771.9,208.9L745.6,104h34.9l40.1,140H695.5l23.9-90.2h36.8l-12.5,55.3C743.8,208.9,771.9,208.9,771.9,208.9
				z"/>
			<path class="st0" d="M809.2,144.1V104h34.9v40.1c0,4.2,1.4,7.9,4.6,10.6c2.8,2.8,6.4,4.6,10.6,4.6c4.2,0,7.9-1.4,10.6-4.6
				c2.8-3.3,4.6-6.4,4.6-10.6V104h34.9v40.1c0,13.8-5.1,25.7-14.7,35.5c-9.7,9.7-21.7,14.7-35.5,14.7s-25.7-5.1-35.5-14.7
				C814.2,169.8,809.2,157.8,809.2,144.1L809.2,144.1z M824.3,208.9h70v34.9h-70V208.9z"/>
		</g>
	</g>
	<g>
		<path class="st0" d="M937.3,114.4c0,2.9-1,5.3-3.1,7.4c-2,2-4.5,3-7.3,3c-2.9,0-5.4-1-7.4-3c-2-2-3-4.5-3-7.4c0-2.9,1-5.3,3-7.3
			c2.1-2.1,4.5-3.1,7.4-3.1c2.8,0,5.3,1,7.3,3.1C936.2,109.1,937.3,111.6,937.3,114.4z M918.6,114.4c0,2.2,0.8,4.2,2.4,5.8
			c1.6,1.6,3.6,2.4,5.8,2.4c2.3,0,4.2-0.8,5.8-2.4c1.6-1.6,2.4-3.6,2.4-5.8c0-2.3-0.8-4.2-2.4-5.8c-1.6-1.6-3.5-2.4-5.8-2.4
			c-2.3,0-4.2,0.8-5.8,2.4C919.4,110.2,918.6,112.1,918.6,114.4z M929,119.5l-2.5-3.8h-1.1v3.8h-2.1v-10.2h4.3
			c0.9,0,1.7,0.3,2.3,0.9c0.6,0.6,1,1.4,1,2.3c0,0.7-0.2,1.3-0.6,1.9c-0.4,0.6-1,0.9-1.6,1.1l-0.1,0.1l2.7,3.8v0.1H929z
			 M925.5,113.8h2.1c0.4,0,0.7-0.1,1-0.4c0.3-0.2,0.4-0.5,0.4-0.9c0-0.8-0.6-1.3-1.7-1.3h-1.8V113.8z"/>
	</g>
</g>
</svg>
