<?xml version="1.0" encoding="utf-8"?>
<!-- Generator: Adobe Illustrator 26.2.1, SVG Export Plug-In . SVG Version: 6.00 Build 0)  -->
<svg version="1.1" id="Layer_1" xmlns="http://www.w3.org/2000/svg" xmlns:xlink="http://www.w3.org/1999/xlink" x="0px" y="0px"
	 viewBox="0 0 1200 348" style="enable-background:new 0 0 1200 348;" xml:space="preserve">
<style type="text/css">
	.st0{fill:#FF2222;}
	.st1{fill:#FF4949;}
	.st2{fill:#232323;}
	.st3{fill:url(#SVGID_1_);}
	.st4{fill:#303030;}
	.st5{fill:#F8F8F8;}
</style>
<path class="st0" d="M1199.9,348c-2.1-0.1-3-1.9-4.2-3.2c-66.5-66.4-132.9-132.8-199.3-199.3c-8.4-8.4-8.3-16.5,0.1-25.1
	c2.7-2.7,5.9-4.9,7.8-8.4c6-5.7,12.2-11.3,18-17.1c30.3-30.1,60.4-60.3,90.6-90.6c1.2-1.2,3.1-2.2,3.1-4.3c26.7,0,53.3,0.1,80-0.1
	c3.4,0,4.1,0.7,4.1,4.1C1199.9,118.7,1199.9,233.3,1199.9,348z"/>
<path class="st1" d="M1115.9,0.1c0,2.1-1.8,3.1-3.1,4.3c-30.2,30.2-60.4,60.4-90.6,90.6c-5.9,5.8-12,11.4-18,17.1
	c-2.1,0.1-3.2-1.6-4.5-2.8c-4.7-4.7-9.5-9.4-14.1-14.1c-7.3-7.4-7.3-16.8,0.1-24.2c22.2-22.3,44.5-44.5,66.7-66.7
	c1.3-1.3,2.4-2.7,3.6-4.1C1075.9,0.1,1095.9,0.1,1115.9,0.1z"/>
<g>
	<path class="st0" d="M0.1,0c2.2,0,3,2,4.2,3.2c69.8,71,139.6,142,209.4,213c8.3,8.5,8.4,16.7,0.2,25.2c-6.8,7-13.5,14-20.2,21
		c-27.4,27.6-54.8,55.3-82.3,82.9c-0.7,0.7-1.4,1.4-1.3,2.6c-35.3,0-70.7-0.1-106,0.1c-3.4,0-4.1-0.7-4.1-4.2
		C0.1,229.2,0.1,114.6,0.1,0z"/>
	<path class="st1" d="M110.1,347.9c-0.1-1.2,0.6-1.9,1.3-2.6c27.4-27.6,54.8-55.3,82.3-82.9c8.4,6.9,16,14.8,23,23.1
		c5.4,6.5,4.1,15.3-2,21.5c-12,12.3-24,24.4-36,36.7c-1.3,1.3-2.4,2.8-3.6,4.2C153.4,347.9,131.7,347.9,110.1,347.9z"/>
</g>
<g>
	<g>
		<path class="st0" d="M337.3,202.7c-1.5,0-2.8-0.3-3.8-0.9c-1.1-0.6-1.9-1.5-2.4-2.6c-0.6-1.1-0.9-2.5-0.9-4s0.3-2.9,0.9-4
			c0.6-1.1,1.4-2,2.4-2.6c1.1-0.6,2.3-0.9,3.8-0.9c0.8,0,1.6,0.1,2.4,0.3c0.8,0.2,1.4,0.5,2,1c0.3,0.2,0.5,0.4,0.5,0.7
			c0,0.3,0,0.5-0.1,0.7c-0.1,0.2-0.3,0.4-0.6,0.4c-0.3,0.1-0.5,0-0.8-0.2c-0.5-0.3-1-0.6-1.5-0.8s-1.1-0.3-1.8-0.3
			c-1.6,0-2.8,0.5-3.7,1.5c-0.8,1-1.3,2.4-1.3,4.2s0.4,3.2,1.3,4.2c0.8,1,2.1,1.5,3.7,1.5c0.6,0,1.2-0.1,1.8-0.3
			c0.6-0.2,1.1-0.4,1.6-0.8c0.3-0.2,0.6-0.3,0.8-0.2c0.2,0.1,0.4,0.2,0.5,0.4s0.2,0.4,0.1,0.7c0,0.3-0.2,0.5-0.4,0.7
			c-0.6,0.5-1.3,0.8-2,1C339,202.6,338.2,202.7,337.3,202.7z"/>
		<path class="st0" d="M345.7,202.6c-0.7,0-1.1-0.4-1.1-1.1v-8.4c0-0.7,0.3-1.1,1-1.1c0.7,0,1,0.4,1,1.1v0.9
			c0.3-0.6,0.7-1.1,1.3-1.4c0.6-0.3,1.3-0.5,2.1-0.6c0.5,0,0.8,0.2,0.8,0.8c0.1,0.6-0.2,1-0.9,1l-0.4,0c-1.9,0.2-2.8,1.1-2.8,2.9
			v4.8C346.8,202.3,346.4,202.6,345.7,202.6z"/>
		<path class="st0" d="M357.1,202.7c-1.7,0-3-0.5-4-1.4s-1.4-2.2-1.4-3.9c0-1.1,0.2-2,0.6-2.8c0.4-0.8,1-1.4,1.8-1.9
			c0.8-0.4,1.6-0.7,2.6-0.7c1.4,0,2.5,0.5,3.3,1.4c0.8,0.9,1.2,2.1,1.2,3.7c0,0.5-0.3,0.7-0.8,0.7h-6.7c0.2,2.1,1.3,3.2,3.4,3.2
			c0.4,0,0.9-0.1,1.3-0.2c0.5-0.1,0.9-0.3,1.3-0.6c0.3-0.2,0.5-0.2,0.8-0.2c0.2,0,0.4,0.2,0.5,0.4c0.1,0.2,0.1,0.4,0.1,0.6
			c-0.1,0.2-0.2,0.4-0.5,0.6c-0.5,0.3-1,0.6-1.7,0.7C358.3,202.6,357.7,202.7,357.1,202.7z M356.8,193.6c-0.9,0-1.6,0.3-2.1,0.8
			s-0.8,1.3-0.9,2.2h5.7c0-1-0.3-1.7-0.8-2.2C358.3,193.8,357.7,193.6,356.8,193.6z"/>
		<path class="st0" d="M366.9,202.7c-0.7,0-1.4-0.1-1.9-0.4c-0.6-0.3-1-0.7-1.3-1.1c-0.3-0.5-0.5-1-0.5-1.6c0-0.8,0.2-1.4,0.6-1.8
			c0.4-0.4,1-0.7,1.9-0.9c0.9-0.2,2.1-0.3,3.6-0.3h0.7V196c0-0.8-0.2-1.4-0.5-1.7c-0.3-0.3-0.9-0.5-1.7-0.5c-0.4,0-0.9,0.1-1.4,0.2
			s-1,0.3-1.5,0.6c-0.3,0.1-0.5,0.2-0.7,0.1s-0.3-0.3-0.4-0.5c-0.1-0.2-0.1-0.4,0-0.7c0.1-0.2,0.3-0.4,0.5-0.5
			c0.6-0.3,1.2-0.5,1.8-0.6c0.6-0.1,1.2-0.2,1.7-0.2c1.4,0,2.4,0.3,3.1,1c0.7,0.7,1,1.7,1,3.1v5.4c0,0.7-0.3,1.1-1,1.1
			c-0.7,0-1-0.4-1-1.1v-0.8c-0.3,0.6-0.6,1-1.2,1.4C368.3,202.5,367.6,202.7,366.9,202.7z M367.3,201.2c0.8,0,1.4-0.3,1.9-0.8
			s0.8-1.2,0.8-2v-0.6h-0.7c-1,0-1.8,0-2.4,0.1s-1,0.3-1.2,0.5c-0.2,0.2-0.4,0.5-0.4,1c0,0.5,0.2,1,0.5,1.3S366.7,201.2,367.3,201.2
			z"/>
		<path class="st0" d="M379.3,202.7c-1.3,0-2.2-0.3-2.9-1s-0.9-1.6-0.9-2.9v-5h-1.3c-0.6,0-0.9-0.3-0.9-0.8s0.3-0.8,0.9-0.8h1.3
			v-2.2c0-0.7,0.4-1.1,1.1-1.1c0.7,0,1.1,0.4,1.1,1.1v2.2h2.5c0.6,0,0.9,0.3,0.9,0.8s-0.3,0.8-0.9,0.8h-2.5v4.8
			c0,0.7,0.2,1.3,0.5,1.7s0.8,0.6,1.5,0.6c0.3,0,0.5,0,0.7-0.1c0.2,0,0.3-0.1,0.5-0.1c0.2,0,0.3,0.1,0.4,0.2
			c0.1,0.1,0.1,0.3,0.1,0.6c0,0.2,0,0.4-0.1,0.6c-0.1,0.2-0.2,0.3-0.4,0.3c-0.2,0.1-0.4,0.1-0.7,0.2
			C379.7,202.7,379.5,202.7,379.3,202.7z"/>
		<path class="st0" d="M383.8,190c-0.4,0-0.7-0.1-1-0.3s-0.3-0.5-0.3-0.9c0-0.8,0.4-1.2,1.3-1.2s1.3,0.4,1.3,1.2
			C385.1,189.6,384.7,190,383.8,190z M383.8,202.6c-0.7,0-1-0.4-1-1.2v-8.2c0-0.8,0.3-1.1,1-1.1c0.7,0,1.1,0.4,1.1,1.1v8.2
			C384.9,202.2,384.5,202.6,383.8,202.6z"/>
		<path class="st0" d="M391.8,202.6c-0.6,0-1-0.3-1.3-0.9l-3.5-8.1c-0.2-0.4-0.2-0.7,0-1c0.2-0.3,0.5-0.4,0.9-0.4
			c0.3,0,0.5,0.1,0.6,0.2s0.3,0.3,0.4,0.7l2.9,7.1l2.9-7.1c0.1-0.3,0.3-0.5,0.4-0.7c0.2-0.1,0.4-0.2,0.7-0.2c0.4,0,0.6,0.1,0.8,0.4
			c0.1,0.3,0.1,0.6,0,1l-3.5,8.2C392.9,202.3,392.4,202.6,391.8,202.6z"/>
		<path class="st0" d="M403.4,202.7c-1.7,0-3-0.5-4-1.4s-1.4-2.2-1.4-3.9c0-1.1,0.2-2,0.6-2.8c0.4-0.8,1-1.4,1.8-1.9
			c0.8-0.4,1.6-0.7,2.6-0.7c1.4,0,2.5,0.5,3.3,1.4c0.8,0.9,1.2,2.1,1.2,3.7c0,0.5-0.3,0.7-0.8,0.7H400c0.2,2.1,1.3,3.2,3.4,3.2
			c0.4,0,0.9-0.1,1.3-0.2c0.5-0.1,0.9-0.3,1.3-0.6c0.3-0.2,0.5-0.2,0.8-0.2c0.2,0,0.4,0.2,0.5,0.4c0.1,0.2,0.1,0.4,0.1,0.6
			c-0.1,0.2-0.2,0.4-0.5,0.6c-0.5,0.3-1,0.6-1.7,0.7C404.6,202.6,404,202.7,403.4,202.7z M403.1,193.6c-0.9,0-1.6,0.3-2.1,0.8
			s-0.8,1.3-0.9,2.2h5.7c0-1-0.3-1.7-0.8-2.2C404.5,193.8,403.9,193.6,403.1,193.6z"/>
		<path class="st0" d="M416.8,202.5c-0.8,0-1.2-0.4-1.2-1.2v-12.5c0-0.8,0.4-1.2,1.2-1.2h4.1c2.4,0,4.3,0.6,5.6,1.9
			c1.3,1.3,2,3.1,2,5.5s-0.7,4.2-2,5.5c-1.3,1.3-3.2,1.9-5.6,1.9H416.8z M417.8,200.7h2.9c3.7,0,5.5-1.9,5.5-5.6
			c0-3.7-1.8-5.6-5.5-5.6h-2.9V200.7z"/>
		<path class="st0" d="M436,202.7c-1.7,0-3-0.5-4-1.4s-1.4-2.2-1.4-3.9c0-1.1,0.2-2,0.6-2.8c0.4-0.8,1-1.4,1.8-1.9
			c0.8-0.4,1.6-0.7,2.6-0.7c1.4,0,2.5,0.5,3.3,1.4c0.8,0.9,1.2,2.1,1.2,3.7c0,0.5-0.3,0.7-0.8,0.7h-6.7c0.2,2.1,1.3,3.2,3.4,3.2
			c0.4,0,0.9-0.1,1.3-0.2c0.5-0.1,0.9-0.3,1.3-0.6c0.3-0.2,0.5-0.2,0.8-0.2c0.2,0,0.4,0.2,0.5,0.4c0.1,0.2,0.1,0.4,0.1,0.6
			c-0.1,0.2-0.2,0.4-0.5,0.6c-0.5,0.3-1,0.6-1.7,0.7C437.2,202.6,436.6,202.7,436,202.7z M435.7,193.6c-0.9,0-1.6,0.3-2.1,0.8
			s-0.8,1.3-0.9,2.2h5.7c0-1-0.3-1.7-0.8-2.2C437.1,193.8,436.5,193.6,435.7,193.6z"/>
		<path class="st0" d="M446,202.7c-0.6,0-1.3-0.1-1.9-0.2c-0.7-0.1-1.3-0.4-1.8-0.7c-0.2-0.1-0.4-0.3-0.4-0.5s0-0.4,0-0.6
			s0.2-0.3,0.4-0.4s0.4-0.1,0.6,0.1c0.5,0.3,1.1,0.5,1.6,0.6c0.5,0.1,1,0.2,1.5,0.2c0.7,0,1.3-0.1,1.7-0.4c0.4-0.3,0.6-0.6,0.6-1.1
			c0-0.4-0.1-0.6-0.4-0.8s-0.6-0.4-1.1-0.5l-2-0.4c-1.8-0.4-2.6-1.3-2.6-2.7c0-1,0.4-1.7,1.2-2.3c0.8-0.6,1.8-0.9,3-0.9
			c1.3,0,2.3,0.3,3.3,0.9c0.2,0.1,0.4,0.3,0.4,0.5s0,0.4-0.1,0.6c-0.1,0.2-0.2,0.3-0.4,0.4c-0.2,0.1-0.4,0-0.7-0.1
			c-0.4-0.3-0.8-0.4-1.3-0.6c-0.4-0.1-0.8-0.2-1.2-0.2c-0.7,0-1.3,0.1-1.7,0.4c-0.4,0.3-0.6,0.6-0.6,1.1c0,0.7,0.5,1.1,1.4,1.3
			l2,0.4c0.9,0.2,1.6,0.5,2.1,0.9c0.5,0.4,0.7,1,0.7,1.8c0,1-0.4,1.7-1.2,2.3C448.3,202.4,447.3,202.7,446,202.7z"/>
		<path class="st0" d="M453.7,190c-0.4,0-0.7-0.1-1-0.3s-0.3-0.5-0.3-0.9c0-0.8,0.4-1.2,1.3-1.2s1.3,0.4,1.3,1.2
			C455,189.6,454.5,190,453.7,190z M453.7,202.6c-0.7,0-1-0.4-1-1.2v-8.2c0-0.8,0.3-1.1,1-1.1c0.7,0,1.1,0.4,1.1,1.1v8.2
			C454.7,202.2,454.4,202.6,453.7,202.6z"/>
		<path class="st0" d="M462.4,206.5c-0.8,0-1.5-0.1-2.2-0.2c-0.7-0.2-1.3-0.4-1.9-0.8c-0.3-0.1-0.4-0.3-0.5-0.5
			c-0.1-0.2,0-0.4,0.1-0.6s0.3-0.3,0.4-0.4c0.2-0.1,0.4-0.1,0.6,0.1c0.6,0.3,1.2,0.6,1.8,0.7s1.1,0.2,1.5,0.2c2,0,2.9-1,2.9-2.9
			v-1.6c-0.3,0.6-0.8,1.1-1.4,1.4c-0.6,0.4-1.3,0.5-2.1,0.5c-0.9,0-1.7-0.2-2.4-0.6c-0.7-0.4-1.2-1-1.6-1.8
			c-0.4-0.8-0.6-1.7-0.6-2.7c0-1,0.2-1.9,0.6-2.7c0.4-0.8,0.9-1.4,1.6-1.8c0.7-0.4,1.5-0.6,2.4-0.6c0.8,0,1.5,0.2,2.1,0.5
			c0.6,0.3,1.1,0.8,1.4,1.4v-0.8c0-0.7,0.4-1.1,1.1-1.1c0.7,0,1,0.4,1,1.1v8.5c0,1.6-0.4,2.8-1.2,3.6
			C465.1,206.1,463.9,206.5,462.4,206.5z M462.2,200.6c0.9,0,1.6-0.3,2.1-0.9c0.5-0.6,0.8-1.5,0.8-2.5c0-1.1-0.3-1.9-0.8-2.5
			c-0.5-0.6-1.2-0.9-2.1-0.9s-1.6,0.3-2.1,0.9c-0.5,0.6-0.8,1.4-0.8,2.5c0,1.1,0.3,1.9,0.8,2.5S461.3,200.6,462.2,200.6z"/>
		<path class="st0" d="M471.2,202.6c-0.7,0-1-0.4-1-1.1v-8.4c0-0.7,0.3-1.1,1-1.1c0.7,0,1,0.4,1,1.1v0.8c0.4-0.6,0.8-1.1,1.4-1.4
			c0.6-0.3,1.3-0.5,2-0.5c2.4,0,3.6,1.4,3.6,4.1v5.4c0,0.7-0.4,1.1-1,1.1c-0.7,0-1.1-0.4-1.1-1.1v-5.3c0-0.9-0.2-1.5-0.5-1.9
			c-0.3-0.4-0.9-0.6-1.6-0.6c-0.9,0-1.5,0.3-2,0.8c-0.5,0.5-0.8,1.2-0.8,2.1v4.9C472.3,202.3,472,202.6,471.2,202.6z"/>
		<path class="st0" d="M487.1,202.7c-1.7,0-3-0.5-4-1.4s-1.4-2.2-1.4-3.9c0-1.1,0.2-2,0.6-2.8c0.4-0.8,1-1.4,1.8-1.9
			c0.8-0.4,1.6-0.7,2.6-0.7c1.4,0,2.5,0.5,3.3,1.4c0.8,0.9,1.2,2.1,1.2,3.7c0,0.5-0.3,0.7-0.8,0.7h-6.7c0.2,2.1,1.3,3.2,3.4,3.2
			c0.4,0,0.9-0.1,1.3-0.2c0.5-0.1,0.9-0.3,1.3-0.6c0.3-0.2,0.5-0.2,0.8-0.2c0.2,0,0.4,0.2,0.5,0.4c0.1,0.2,0.1,0.4,0.1,0.6
			c-0.1,0.2-0.2,0.4-0.5,0.6c-0.5,0.3-1,0.6-1.7,0.7C488.3,202.6,487.7,202.7,487.1,202.7z M486.8,193.6c-0.9,0-1.6,0.3-2.1,0.8
			s-0.8,1.3-0.9,2.2h5.7c0-1-0.3-1.7-0.8-2.2C488.3,193.8,487.6,193.6,486.8,193.6z"/>
		<path class="st0" d="M494.6,202.6c-0.7,0-1.1-0.4-1.1-1.1v-8.4c0-0.7,0.3-1.1,1-1.1c0.7,0,1,0.4,1,1.1v0.9
			c0.3-0.6,0.7-1.1,1.3-1.4c0.6-0.3,1.3-0.5,2.1-0.6c0.5,0,0.8,0.2,0.8,0.8c0.1,0.6-0.2,1-0.9,1l-0.4,0c-1.9,0.2-2.8,1.1-2.8,2.9
			v4.8C495.7,202.3,495.3,202.6,494.6,202.6z"/>
		<path class="st0" d="M516.5,200.7c-0.7,0-1.3-0.2-1.9-0.5c-0.6-0.3-1-0.8-1.4-1.3c-0.4-0.6-0.5-1.2-0.5-1.9c0-0.6,0.2-1.2,0.5-1.8
			c0.3-0.6,0.8-1,1.4-1.4c0.6-0.4,1.2-0.5,2-0.5c0.7,0,1.3,0.2,1.9,0.5c0.6,0.3,1,0.8,1.4,1.3c0.4,0.6,0.5,1.2,0.5,1.9
			c0,0.7-0.2,1.3-0.5,1.9c-0.3,0.6-0.8,1-1.4,1.3C517.8,200.5,517.2,200.7,516.5,200.7z"/>
		<path class="st0" d="M530.4,202.6c-0.8,0-1.2-0.4-1.2-1.2v-12.6c0-0.8,0.4-1.2,1.2-1.2h7.5c0.6,0,0.9,0.3,0.9,0.9
			c0,0.6-0.3,0.9-0.9,0.9h-6.5v4.7h6c0.6,0,0.9,0.3,0.9,0.9c0,0.6-0.3,0.9-0.9,0.9h-6v5.5C531.4,202.3,531.1,202.6,530.4,202.6z"/>
		<path class="st0" d="M541.5,202.6c-0.7,0-1.1-0.4-1.1-1.1v-8.4c0-0.7,0.3-1.1,1-1.1c0.7,0,1,0.4,1,1.1v0.9
			c0.3-0.6,0.7-1.1,1.3-1.4c0.6-0.3,1.3-0.5,2.1-0.6c0.5,0,0.8,0.2,0.8,0.8c0.1,0.6-0.2,1-0.9,1l-0.4,0c-1.9,0.2-2.8,1.1-2.8,2.9
			v4.8C542.6,202.3,542.2,202.6,541.5,202.6z"/>
		<path class="st0" d="M552.6,202.7c-1,0-1.9-0.2-2.7-0.7s-1.3-1-1.8-1.8c-0.4-0.8-0.6-1.7-0.6-2.8s0.2-2,0.6-2.8
			c0.4-0.8,1-1.4,1.8-1.8c0.8-0.4,1.7-0.7,2.7-0.7c1,0,1.9,0.2,2.6,0.7c0.8,0.4,1.3,1,1.8,1.8c0.4,0.8,0.6,1.7,0.6,2.8
			s-0.2,2-0.6,2.8c-0.4,0.8-1,1.4-1.8,1.8S553.6,202.7,552.6,202.7z M552.6,201.1c0.9,0,1.6-0.3,2.1-0.9c0.5-0.6,0.8-1.5,0.8-2.7
			c0-1.2-0.3-2.1-0.8-2.7c-0.5-0.6-1.2-0.9-2.1-0.9c-0.9,0-1.6,0.3-2.1,0.9c-0.5,0.6-0.8,1.5-0.8,2.7c0,1.2,0.3,2.1,0.8,2.7
			C551,200.7,551.7,201.1,552.6,201.1z"/>
		<path class="st0" d="M561.1,202.6c-0.7,0-1-0.4-1-1.1v-8.4c0-0.7,0.3-1.1,1-1.1c0.7,0,1,0.4,1,1.1v0.8c0.3-0.6,0.8-1.1,1.4-1.4
			c0.6-0.3,1.3-0.5,2-0.5c2.4,0,3.6,1.4,3.6,4.1v5.4c0,0.7-0.3,1.1-1,1.1c-0.7,0-1.1-0.4-1.1-1.1v-5.3c0-0.9-0.2-1.5-0.5-1.9
			s-0.9-0.6-1.6-0.6c-0.9,0-1.5,0.3-2,0.8c-0.5,0.5-0.8,1.2-0.8,2.1v4.9C562.1,202.3,561.8,202.6,561.1,202.6z"/>
		<path class="st0" d="M576.5,202.7c-1.3,0-2.2-0.3-2.9-1c-0.6-0.7-0.9-1.6-0.9-2.9v-5h-1.3c-0.6,0-0.9-0.3-0.9-0.8s0.3-0.8,0.9-0.8
			h1.3v-2.2c0-0.7,0.4-1.1,1.1-1.1c0.7,0,1,0.4,1,1.1v2.2h2.5c0.6,0,0.9,0.3,0.9,0.8s-0.3,0.8-0.9,0.8h-2.5v4.8
			c0,0.7,0.2,1.3,0.5,1.7c0.3,0.4,0.8,0.6,1.5,0.6c0.3,0,0.5,0,0.7-0.1c0.2,0,0.3-0.1,0.5-0.1c0.2,0,0.3,0.1,0.4,0.2
			c0.1,0.1,0.1,0.3,0.1,0.6c0,0.2,0,0.4-0.1,0.6c-0.1,0.2-0.2,0.3-0.4,0.3c-0.2,0.1-0.4,0.1-0.7,0.2
			C577,202.7,576.7,202.7,576.5,202.7z"/>
		<path class="st0" d="M584.5,202.7c-1.7,0-3-0.5-4-1.4s-1.4-2.2-1.4-3.9c0-1.1,0.2-2,0.6-2.8c0.4-0.8,1-1.4,1.8-1.9
			s1.6-0.7,2.6-0.7c1.4,0,2.5,0.5,3.3,1.4c0.8,0.9,1.2,2.1,1.2,3.7c0,0.5-0.3,0.7-0.8,0.7h-6.7c0.2,2.1,1.3,3.2,3.4,3.2
			c0.4,0,0.9-0.1,1.3-0.2c0.5-0.1,0.9-0.3,1.3-0.6c0.3-0.2,0.5-0.2,0.8-0.2c0.2,0,0.4,0.2,0.5,0.4c0.1,0.2,0.1,0.4,0.1,0.6
			c-0.1,0.2-0.2,0.4-0.5,0.6c-0.5,0.3-1,0.6-1.7,0.7C585.7,202.6,585,202.7,584.5,202.7z M584.2,193.6c-0.9,0-1.6,0.3-2.1,0.8
			s-0.8,1.3-0.9,2.2h5.7c0-1-0.3-1.7-0.8-2.2C585.6,193.8,585,193.6,584.2,193.6z"/>
		<path class="st0" d="M592,202.6c-0.7,0-1-0.4-1-1.1v-8.4c0-0.7,0.3-1.1,1-1.1c0.7,0,1,0.4,1,1.1v0.8c0.3-0.6,0.8-1.1,1.4-1.4
			c0.6-0.3,1.3-0.5,2-0.5c2.4,0,3.6,1.4,3.6,4.1v5.4c0,0.7-0.3,1.1-1,1.1c-0.7,0-1.1-0.4-1.1-1.1v-5.3c0-0.9-0.2-1.5-0.5-1.9
			s-0.9-0.6-1.6-0.6c-0.9,0-1.5,0.3-2,0.8c-0.5,0.5-0.8,1.2-0.8,2.1v4.9C593.1,202.3,592.7,202.6,592,202.6z"/>
		<path class="st0" d="M606.9,202.7c-0.9,0-1.7-0.2-2.4-0.6c-0.7-0.4-1.2-1-1.6-1.8s-0.6-1.7-0.6-2.8s0.2-2,0.6-2.8s0.9-1.4,1.6-1.8
			c0.7-0.4,1.5-0.7,2.4-0.7c0.8,0,1.5,0.2,2.1,0.5c0.6,0.3,1,0.8,1.3,1.4v-5.3c0-0.7,0.3-1.1,1-1.1c0.7,0,1.1,0.4,1.1,1.1v13
			c0,0.7-0.3,1.1-1,1.1s-1-0.4-1-1.1v-0.8c-0.3,0.6-0.8,1.1-1.4,1.4C608.4,202.5,607.7,202.7,606.9,202.7z M607.5,201.1
			c0.9,0,1.6-0.3,2.1-0.9c0.5-0.6,0.8-1.5,0.8-2.7c0-1.2-0.3-2.1-0.8-2.7c-0.5-0.6-1.2-0.9-2.1-0.9c-0.9,0-1.6,0.3-2.1,0.9
			c-0.5,0.6-0.8,1.5-0.8,2.7c0,1.2,0.3,2.1,0.8,2.7C605.9,200.7,606.6,201.1,607.5,201.1z"/>
		<path class="st0" d="M622.4,202.5c-0.8,0-1.2-0.4-1.2-1.2v-12.5c0-0.8,0.4-1.2,1.2-1.2h4.1c2.4,0,4.3,0.6,5.6,1.9
			c1.3,1.3,2,3.1,2,5.5s-0.7,4.2-2,5.5c-1.3,1.3-3.2,1.9-5.6,1.9H622.4z M623.4,200.7h2.9c3.7,0,5.5-1.9,5.5-5.6
			c0-3.7-1.8-5.6-5.5-5.6h-2.9V200.7z"/>
		<path class="st0" d="M641.6,202.7c-1.7,0-3-0.5-4-1.4s-1.4-2.2-1.4-3.9c0-1.1,0.2-2,0.6-2.8c0.4-0.8,1-1.4,1.8-1.9
			s1.6-0.7,2.6-0.7c1.4,0,2.5,0.5,3.3,1.4c0.8,0.9,1.2,2.1,1.2,3.7c0,0.5-0.3,0.7-0.8,0.7h-6.7c0.2,2.1,1.3,3.2,3.4,3.2
			c0.4,0,0.9-0.1,1.3-0.2c0.5-0.1,0.9-0.3,1.3-0.6c0.3-0.2,0.5-0.2,0.8-0.2c0.2,0,0.4,0.2,0.5,0.4c0.1,0.2,0.1,0.4,0.1,0.6
			c-0.1,0.2-0.2,0.4-0.5,0.6c-0.5,0.3-1,0.6-1.7,0.7C642.7,202.6,642.1,202.7,641.6,202.7z M641.3,193.6c-0.9,0-1.6,0.3-2.1,0.8
			s-0.8,1.3-0.9,2.2h5.7c0-1-0.3-1.7-0.8-2.2C642.7,193.8,642.1,193.6,641.3,193.6z"/>
		<path class="st0" d="M651.9,202.6c-0.6,0-1-0.3-1.3-0.9l-3.5-8.1c-0.2-0.4-0.2-0.7,0-1s0.5-0.4,0.9-0.4c0.3,0,0.5,0.1,0.6,0.2
			s0.3,0.3,0.4,0.7l2.9,7.1l2.9-7.1c0.1-0.3,0.3-0.5,0.4-0.7s0.4-0.2,0.7-0.2c0.4,0,0.6,0.1,0.8,0.4c0.1,0.3,0.1,0.6,0,1l-3.5,8.2
			C652.9,202.3,652.5,202.6,651.9,202.6z"/>
		<path class="st0" d="M663.4,202.7c-1.7,0-3-0.5-4-1.4s-1.4-2.2-1.4-3.9c0-1.1,0.2-2,0.6-2.8c0.4-0.8,1-1.4,1.8-1.9
			s1.6-0.7,2.6-0.7c1.4,0,2.5,0.5,3.3,1.4c0.8,0.9,1.2,2.1,1.2,3.7c0,0.5-0.3,0.7-0.8,0.7h-6.7c0.2,2.1,1.3,3.2,3.4,3.2
			c0.4,0,0.9-0.1,1.3-0.2c0.5-0.1,0.9-0.3,1.3-0.6c0.3-0.2,0.5-0.2,0.8-0.2c0.2,0,0.4,0.2,0.5,0.4c0.1,0.2,0.1,0.4,0.1,0.6
			c-0.1,0.2-0.2,0.4-0.5,0.6c-0.5,0.3-1,0.6-1.7,0.7C664.6,202.6,664,202.7,663.4,202.7z M663.1,193.6c-0.9,0-1.6,0.3-2.1,0.8
			s-0.8,1.3-0.9,2.2h5.7c0-1-0.3-1.7-0.8-2.2C664.6,193.8,663.9,193.6,663.1,193.6z"/>
		<path class="st0" d="M673.2,202.7c-1.1,0-1.9-0.3-2.5-0.9s-0.8-1.6-0.8-2.8v-10.4c0-0.7,0.3-1.1,1-1.1c0.7,0,1.1,0.4,1.1,1.1v10.2
			c0,1.4,0.6,2.1,1.7,2.1c0.1,0,0.2,0,0.3,0s0.2,0,0.3,0c0.2,0,0.3,0,0.4,0.1c0.1,0.1,0.1,0.3,0.1,0.6c0,0.6-0.3,0.9-0.8,1
			c-0.1,0-0.3,0-0.4,0C673.5,202.7,673.3,202.7,673.2,202.7z"/>
		<path class="st0" d="M680.7,202.7c-1,0-1.9-0.2-2.7-0.7s-1.3-1-1.8-1.8c-0.4-0.8-0.6-1.7-0.6-2.8s0.2-2,0.6-2.8
			c0.4-0.8,1-1.4,1.8-1.8c0.8-0.4,1.7-0.7,2.7-0.7c1,0,1.9,0.2,2.6,0.7c0.8,0.4,1.3,1,1.8,1.8c0.4,0.8,0.6,1.7,0.6,2.8
			s-0.2,2-0.6,2.8c-0.4,0.8-1,1.4-1.8,1.8S681.7,202.7,680.7,202.7z M680.7,201.1c0.9,0,1.6-0.3,2.1-0.9c0.5-0.6,0.8-1.5,0.8-2.7
			c0-1.2-0.3-2.1-0.8-2.7c-0.5-0.6-1.2-0.9-2.1-0.9c-0.9,0-1.6,0.3-2.1,0.9c-0.5,0.6-0.8,1.5-0.8,2.7c0,1.2,0.3,2.1,0.8,2.7
			C679.1,200.7,679.8,201.1,680.7,201.1z"/>
		<path class="st0" d="M689.1,206.4c-0.7,0-1-0.4-1-1.1v-12.2c0-0.7,0.3-1.1,1-1.1c0.7,0,1.1,0.4,1.1,1.1v0.8
			c0.3-0.6,0.8-1.1,1.4-1.4c0.6-0.3,1.3-0.5,2.1-0.5c0.9,0,1.7,0.2,2.4,0.7c0.7,0.4,1.2,1,1.6,1.8s0.6,1.7,0.6,2.8s-0.2,2-0.6,2.8
			s-0.9,1.4-1.6,1.8c-0.7,0.4-1.5,0.6-2.4,0.6c-0.8,0-1.4-0.2-2-0.5c-0.6-0.3-1-0.8-1.4-1.4v4.5
			C690.2,206.1,689.8,206.4,689.1,206.4z M693.1,201.1c0.9,0,1.6-0.3,2.1-0.9c0.5-0.6,0.8-1.5,0.8-2.7c0-1.2-0.3-2.1-0.8-2.7
			c-0.5-0.6-1.2-0.9-2.1-0.9s-1.6,0.3-2.1,0.9c-0.5,0.6-0.8,1.5-0.8,2.7c0,1.2,0.3,2.1,0.8,2.7C691.5,200.7,692.2,201.1,693.1,201.1
			z"/>
		<path class="st0" d="M705.3,202.7c-1.7,0-3-0.5-4-1.4s-1.4-2.2-1.4-3.9c0-1.1,0.2-2,0.6-2.8c0.4-0.8,1-1.4,1.8-1.9
			s1.6-0.7,2.6-0.7c1.4,0,2.5,0.5,3.3,1.4c0.8,0.9,1.2,2.1,1.2,3.7c0,0.5-0.3,0.7-0.8,0.7h-6.7c0.2,2.1,1.3,3.2,3.4,3.2
			c0.4,0,0.9-0.1,1.3-0.2c0.5-0.1,0.9-0.3,1.3-0.6c0.3-0.2,0.5-0.2,0.8-0.2c0.2,0,0.4,0.2,0.5,0.4c0.1,0.2,0.1,0.4,0.1,0.6
			c-0.1,0.2-0.2,0.4-0.5,0.6c-0.5,0.3-1,0.6-1.7,0.7C706.5,202.6,705.9,202.7,705.3,202.7z M705,193.6c-0.9,0-1.6,0.3-2.1,0.8
			s-0.8,1.3-0.9,2.2h5.7c0-1-0.3-1.7-0.8-2.2C706.5,193.8,705.8,193.6,705,193.6z"/>
		<path class="st0" d="M712.8,202.6c-0.7,0-1.1-0.4-1.1-1.1v-8.4c0-0.7,0.3-1.1,1-1.1c0.7,0,1,0.4,1,1.1v0.9
			c0.3-0.6,0.7-1.1,1.3-1.4c0.6-0.3,1.3-0.5,2.1-0.6c0.5,0,0.8,0.2,0.8,0.8c0.1,0.6-0.2,1-0.9,1l-0.4,0c-1.9,0.2-2.8,1.1-2.8,2.9
			v4.8C713.9,202.3,713.6,202.6,712.8,202.6z"/>
		<path class="st0" d="M734.7,200.7c-0.7,0-1.3-0.2-1.9-0.5c-0.6-0.3-1-0.8-1.4-1.3c-0.3-0.6-0.5-1.2-0.5-1.9c0-0.6,0.2-1.2,0.5-1.8
			c0.3-0.6,0.8-1,1.4-1.4c0.6-0.4,1.2-0.5,2-0.5c0.7,0,1.3,0.2,1.9,0.5c0.6,0.3,1,0.8,1.4,1.3c0.3,0.6,0.5,1.2,0.5,1.9
			c0,0.7-0.2,1.3-0.5,1.9c-0.3,0.6-0.8,1-1.4,1.3C736,200.5,735.4,200.7,734.7,200.7z"/>
		<path class="st0" d="M748.6,202.5c-0.8,0-1.2-0.4-1.2-1.2v-12.5c0-0.8,0.4-1.2,1.2-1.2h4.1c2.4,0,4.3,0.6,5.6,1.9
			c1.3,1.3,2,3.1,2,5.5s-0.7,4.2-2,5.5c-1.3,1.3-3.2,1.9-5.6,1.9H748.6z M749.7,200.7h2.9c3.7,0,5.5-1.9,5.5-5.6
			c0-3.7-1.8-5.6-5.5-5.6h-2.9V200.7z"/>
		<path class="st0" d="M764.1,190c-0.4,0-0.7-0.1-1-0.3c-0.2-0.2-0.3-0.5-0.3-0.9c0-0.8,0.4-1.2,1.3-1.2s1.3,0.4,1.3,1.2
			C765.4,189.6,764.9,190,764.1,190z M764.1,202.6c-0.7,0-1-0.4-1-1.2v-8.2c0-0.8,0.3-1.1,1-1.1c0.7,0,1.1,0.4,1.1,1.1v8.2
			C765.1,202.2,764.8,202.6,764.1,202.6z"/>
		<path class="st0" d="M772.8,206.5c-0.8,0-1.5-0.1-2.2-0.2c-0.7-0.2-1.3-0.4-1.9-0.8c-0.3-0.1-0.4-0.3-0.5-0.5s0-0.4,0.1-0.6
			c0.1-0.2,0.3-0.3,0.4-0.4c0.2-0.1,0.4-0.1,0.6,0.1c0.6,0.3,1.2,0.6,1.8,0.7s1.1,0.2,1.5,0.2c2,0,2.9-1,2.9-2.9v-1.6
			c-0.3,0.6-0.8,1.1-1.4,1.4c-0.6,0.4-1.3,0.5-2.1,0.5c-0.9,0-1.7-0.2-2.4-0.6c-0.7-0.4-1.2-1-1.6-1.8c-0.4-0.8-0.6-1.7-0.6-2.7
			c0-1,0.2-1.9,0.6-2.7c0.4-0.8,0.9-1.4,1.6-1.8c0.7-0.4,1.5-0.6,2.4-0.6c0.8,0,1.5,0.2,2.1,0.5c0.6,0.3,1.1,0.8,1.4,1.4v-0.8
			c0-0.7,0.3-1.1,1-1.1s1.1,0.4,1.1,1.1v8.5c0,1.6-0.4,2.8-1.2,3.6C775.5,206.1,774.3,206.5,772.8,206.5z M772.6,200.6
			c0.9,0,1.6-0.3,2.1-0.9c0.5-0.6,0.8-1.5,0.8-2.5c0-1.1-0.3-1.9-0.8-2.5c-0.5-0.6-1.2-0.9-2.1-0.9s-1.6,0.3-2.1,0.9
			c-0.5,0.6-0.8,1.4-0.8,2.5c0,1.1,0.3,1.9,0.8,2.5C771,200.3,771.7,200.6,772.6,200.6z"/>
		<path class="st0" d="M781.6,190c-0.4,0-0.7-0.1-1-0.3c-0.2-0.2-0.3-0.5-0.3-0.9c0-0.8,0.4-1.2,1.3-1.2s1.3,0.4,1.3,1.2
			C783,189.6,782.5,190,781.6,190z M781.6,202.6c-0.7,0-1-0.4-1-1.2v-8.2c0-0.8,0.3-1.1,1-1.1c0.7,0,1.1,0.4,1.1,1.1v8.2
			C782.7,202.2,782.3,202.6,781.6,202.6z"/>
		<path class="st0" d="M790.1,202.7c-1.3,0-2.2-0.3-2.9-1c-0.6-0.7-0.9-1.6-0.9-2.9v-5H785c-0.6,0-0.9-0.3-0.9-0.8s0.3-0.8,0.9-0.8
			h1.3v-2.2c0-0.7,0.4-1.1,1.1-1.1c0.7,0,1,0.4,1,1.1v2.2h2.5c0.6,0,0.9,0.3,0.9,0.8s-0.3,0.8-0.9,0.8h-2.5v4.8
			c0,0.7,0.2,1.3,0.5,1.7c0.3,0.4,0.8,0.6,1.5,0.6c0.3,0,0.5,0,0.7-0.1c0.2,0,0.3-0.1,0.5-0.1c0.2,0,0.3,0.1,0.4,0.2
			c0.1,0.1,0.1,0.3,0.1,0.6c0,0.2,0,0.4-0.1,0.6c-0.1,0.2-0.2,0.3-0.4,0.3c-0.2,0.1-0.4,0.1-0.7,0.2
			C790.5,202.7,790.3,202.7,790.1,202.7z"/>
		<path class="st0" d="M796.6,202.7c-0.7,0-1.4-0.1-1.9-0.4c-0.6-0.3-1-0.7-1.3-1.1c-0.3-0.5-0.5-1-0.5-1.6c0-0.8,0.2-1.4,0.6-1.8
			c0.4-0.4,1-0.7,1.9-0.9c0.9-0.2,2.1-0.3,3.6-0.3h0.7V196c0-0.8-0.2-1.4-0.5-1.7c-0.3-0.3-0.9-0.5-1.7-0.5c-0.4,0-0.9,0.1-1.4,0.2
			s-1,0.3-1.5,0.6c-0.3,0.1-0.5,0.2-0.7,0.1c-0.2-0.1-0.3-0.3-0.4-0.5c-0.1-0.2-0.1-0.4,0-0.7c0.1-0.2,0.3-0.4,0.5-0.5
			c0.6-0.3,1.2-0.5,1.8-0.6c0.6-0.1,1.2-0.2,1.7-0.2c1.4,0,2.4,0.3,3.1,1s1,1.7,1,3.1v5.4c0,0.7-0.3,1.1-1,1.1c-0.7,0-1-0.4-1-1.1
			v-0.8c-0.3,0.6-0.6,1-1.2,1.4C798,202.5,797.4,202.7,796.6,202.7z M797,201.2c0.8,0,1.4-0.3,1.9-0.8s0.8-1.2,0.8-2v-0.6H799
			c-1,0-1.8,0-2.4,0.1s-1,0.3-1.2,0.5s-0.4,0.5-0.4,1c0,0.5,0.2,1,0.5,1.3S796.4,201.2,797,201.2z"/>
		<path class="st0" d="M807.9,202.7c-1.1,0-1.9-0.3-2.5-0.9s-0.8-1.6-0.8-2.8v-10.4c0-0.7,0.3-1.1,1-1.1c0.7,0,1.1,0.4,1.1,1.1v10.2
			c0,1.4,0.6,2.1,1.7,2.1c0.1,0,0.2,0,0.3,0s0.2,0,0.3,0c0.2,0,0.3,0,0.4,0.1c0.1,0.1,0.1,0.3,0.1,0.6c0,0.6-0.3,0.9-0.8,1
			c-0.1,0-0.3,0-0.4,0C808.2,202.7,808.1,202.7,807.9,202.7z"/>
		<path class="st0" d="M816.7,202.6c-0.4,0-0.7-0.1-0.9-0.4c-0.2-0.3-0.2-0.6,0-1l5.7-12.8c0.1-0.3,0.3-0.6,0.5-0.7
			c0.2-0.1,0.5-0.2,0.7-0.2c0.3,0,0.5,0.1,0.7,0.2c0.2,0.1,0.4,0.4,0.5,0.7l5.7,12.8c0.2,0.4,0.2,0.7,0.1,1
			c-0.1,0.3-0.4,0.4-0.8,0.4c-0.3,0-0.6-0.1-0.7-0.2s-0.3-0.4-0.5-0.7l-1.2-2.8h-7.5l-1.2,2.8c-0.1,0.3-0.3,0.6-0.5,0.7
			C817.2,202.6,817,202.6,816.7,202.6z M822.8,190.1l-3,7h6L822.8,190.1L822.8,190.1z"/>
		<path class="st0" d="M833.1,202.6c-0.7,0-1.1-0.4-1.1-1.1v-8.4c0-0.7,0.3-1.1,1-1.1c0.7,0,1,0.4,1,1.1v0.9
			c0.3-0.6,0.7-1.1,1.3-1.4c0.6-0.3,1.3-0.5,2.1-0.6c0.5,0,0.8,0.2,0.8,0.8c0.1,0.6-0.2,1-0.9,1l-0.4,0c-1.9,0.2-2.8,1.1-2.8,2.9
			v4.8C834.2,202.3,833.8,202.6,833.1,202.6z"/>
		<path class="st0" d="M844.8,202.7c-1.3,0-2.2-0.3-2.9-1c-0.6-0.7-0.9-1.6-0.9-2.9v-5h-1.3c-0.6,0-0.9-0.3-0.9-0.8s0.3-0.8,0.9-0.8
			h1.3v-2.2c0-0.7,0.4-1.1,1.1-1.1c0.7,0,1,0.4,1,1.1v2.2h2.5c0.6,0,0.9,0.3,0.9,0.8s-0.3,0.8-0.9,0.8h-2.5v4.8
			c0,0.7,0.2,1.3,0.5,1.7c0.3,0.4,0.8,0.6,1.5,0.6c0.3,0,0.5,0,0.7-0.1c0.2,0,0.3-0.1,0.5-0.1c0.2,0,0.3,0.1,0.4,0.2
			c0.1,0.1,0.1,0.3,0.1,0.6c0,0.2,0,0.4-0.1,0.6c-0.1,0.2-0.2,0.3-0.4,0.3c-0.2,0.1-0.4,0.1-0.7,0.2
			C845.3,202.7,845,202.7,844.8,202.7z"/>
		<path class="st0" d="M849.4,190c-0.4,0-0.7-0.1-1-0.3c-0.2-0.2-0.3-0.5-0.3-0.9c0-0.8,0.4-1.2,1.3-1.2s1.3,0.4,1.3,1.2
			C850.7,189.6,850.2,190,849.4,190z M849.4,202.6c-0.7,0-1-0.4-1-1.2v-8.2c0-0.8,0.3-1.1,1-1.1c0.7,0,1.1,0.4,1.1,1.1v8.2
			C850.4,202.2,850.1,202.6,849.4,202.6z"/>
		<path class="st0" d="M857,202.7c-0.6,0-1.3-0.1-1.9-0.2c-0.7-0.1-1.3-0.4-1.8-0.7c-0.2-0.1-0.4-0.3-0.4-0.5c-0.1-0.2,0-0.4,0-0.6
			s0.2-0.3,0.4-0.4s0.4-0.1,0.6,0.1c0.5,0.3,1.1,0.5,1.6,0.6s1,0.2,1.5,0.2c0.7,0,1.3-0.1,1.7-0.4c0.4-0.3,0.6-0.6,0.6-1.1
			c0-0.4-0.1-0.6-0.4-0.8s-0.6-0.4-1.1-0.5l-2-0.4c-1.8-0.4-2.6-1.3-2.6-2.7c0-1,0.4-1.7,1.2-2.3c0.8-0.6,1.8-0.9,3-0.9
			c1.3,0,2.3,0.3,3.3,0.9c0.2,0.1,0.4,0.3,0.4,0.5s0,0.4-0.1,0.6c-0.1,0.2-0.2,0.3-0.4,0.4c-0.2,0.1-0.4,0-0.7-0.1
			c-0.4-0.3-0.8-0.4-1.3-0.6s-0.8-0.2-1.2-0.2c-0.7,0-1.3,0.1-1.7,0.4c-0.4,0.3-0.6,0.6-0.6,1.1c0,0.7,0.5,1.1,1.4,1.3l2,0.4
			c0.9,0.2,1.6,0.5,2.1,0.9c0.5,0.4,0.7,1,0.7,1.8c0,1-0.4,1.7-1.2,2.3C859.3,202.4,858.3,202.7,857,202.7z"/>
		<path class="st0" d="M867.8,202.7c-1.3,0-2.2-0.3-2.9-1c-0.6-0.7-0.9-1.6-0.9-2.9v-5h-1.3c-0.6,0-0.9-0.3-0.9-0.8s0.3-0.8,0.9-0.8
			h1.3v-2.2c0-0.7,0.4-1.1,1.1-1.1c0.7,0,1,0.4,1,1.1v2.2h2.5c0.6,0,0.9,0.3,0.9,0.8s-0.3,0.8-0.9,0.8h-2.5v4.8
			c0,0.7,0.2,1.3,0.5,1.7c0.3,0.4,0.8,0.6,1.5,0.6c0.3,0,0.5,0,0.7-0.1c0.2,0,0.3-0.1,0.5-0.1c0.2,0,0.3,0.1,0.4,0.2
			c0.1,0.1,0.1,0.3,0.1,0.6c0,0.2,0,0.4-0.1,0.6c-0.1,0.2-0.2,0.3-0.4,0.3c-0.2,0.1-0.4,0.1-0.7,0.2
			C868.3,202.7,868.1,202.7,867.8,202.7z"/>
	</g>
	<path class="st2" d="M480.5,232.8h237.6c5.4,0,9.8,4.4,9.8,9.8v36.5c0,5.4-4.4,9.8-9.8,9.8H480.5c-5.4,0-9.8-4.4-9.8-9.8v-36.5
		C470.7,237.2,475.1,232.8,480.5,232.8z"/>
	<g>
		<path class="st0" d="M566.5,282.4h-34.3c-2.5,0-4.5-2-4.5-4.5v-34.3c0-2.5,2-4.5,4.5-4.5h34.3c2.5,0,4.5,2,4.5,4.5v34.3
			C571,280.4,569,282.4,566.5,282.4z"/>
		<linearGradient id="SVGID_1_" gradientUnits="userSpaceOnUse" x1="619.3102" y1="281.4328" x2="579.408" y2="240.1129">
			<stop  offset="5.586592e-03" style="stop-color:#FF2222"/>
			<stop  offset="1" style="stop-color:#FF4949"/>
		</linearGradient>
		<path class="st3" d="M616.5,282.4h-34.3c-2.5,0-4.5-2-4.5-4.5v-34.3c0-2.5,2-4.5,4.5-4.5h34.3c2.5,0,4.5,2,4.5,4.5v34.3
			C621,280.4,619,282.4,616.5,282.4z"/>
		<path class="st1" d="M516.4,282.4h-34.3c-2.5,0-4.5-2-4.5-4.5v-34.3c0-2.5,2-4.5,4.5-4.5h34.3c2.5,0,4.5,2,4.5,4.5v34.3
			C520.9,280.4,518.9,282.4,516.4,282.4z"/>
		<path class="st4" d="M716.4,282.4h-34.3c-2.5,0-4.5-2-4.5-4.5v-34.3c0-2.5,2-4.5,4.5-4.5h34.3c2.5,0,4.5,2,4.5,4.5v34.3
			C720.9,280.4,718.9,282.4,716.4,282.4z"/>
		<path class="st5" d="M666.4,282.4h-34.3c-2.5,0-4.5-2-4.5-4.5v-34.3c0-2.5,2-4.5,4.5-4.5h34.3c2.5,0,4.5,2,4.5,4.5v34.3
			C670.9,280.4,668.9,282.4,666.4,282.4z"/>
	</g>
	<g>
		<path class="st0" d="M403.9,59.1h21.7v6.2c0,8.7,4,16.7,11.8,24.2l15,14.2c4.7,4.8,7.1,10.6,7.1,17.4c0,6.9-2.4,12.7-7.3,17.6
			c-4.9,4.9-10.7,7.3-17.6,7.3h-33.9v-21.7h33.9c0.9,0,1.6-0.3,2.2-0.9c0.6-0.6,0.9-1.3,0.9-2.2c0-0.8-0.3-1.5-0.8-2.1l-11.4-10.9
			c-14.5-13.3-21.7-27.5-21.7-42.8L403.9,59.1L403.9,59.1z"/>
		<path class="st0" d="M521.4,59.1v21.7h-59V59L521.4,59.1L521.4,59.1z M484.1,124.2h37.3v21.7h-59V90.1h59v21.7h-37.3V124.2z"/>
		<path class="st0" d="M589.6,59.1v21.7h-59V59L589.6,59.1L589.6,59.1z M552.3,124.2h37.3v21.7h-59V90.1h59v21.7h-37.3V124.2z"/>
		<path class="st0" d="M657.8,124.2v21.7h-59V59.1h21.7v65.1H657.8z"/>
		<path class="st0" d="M707.9,124.2l-16.3-65.1h21.7l24.8,86.8h-77.5l14.9-55.8h22.8l-7.8,34.1H707.9z"/>
		<path class="st0" d="M730.9,83.8V59.1h21.7v24.8c0,2.6,0.9,4.8,2.7,6.6c1.8,1.8,4,2.7,6.6,2.7s4.7-0.9,6.6-2.7
			c1.8-1.8,2.7-4,2.7-6.6V59.1H793v24.8c0,8.5-3.1,15.9-9.1,21.9c-6,6-13.4,9.1-21.9,9.1c-8.5,0-15.9-3.1-21.9-9.1
			C734,99.7,730.9,92.4,730.9,83.8z M740.2,124.2h43.4v21.7h-43.4V124.2z"/>
	</g>
</g>
</svg>
