<?xml version="1.0" encoding="utf-8"?>
<!-- Generator: Adobe Illustrator 27.7.0, SVG Export Plug-In . SVG Version: 6.00 Build 0)  -->
<svg version="1.1" id="Layer_1" xmlns="http://www.w3.org/2000/svg" xmlns:xlink="http://www.w3.org/1999/xlink" x="0px" y="0px"
	 viewBox="0 0 1200 348" style="enable-background:new 0 0 1200 348;" xml:space="preserve">
<style type="text/css">
	.st0{fill:#FF2222;}
	.st1{fill:#FF4949;}
</style>
<path class="st0" d="M1199.9,348c-2.1-0.1-3-1.9-4.2-3.2c-66.5-66.4-132.9-132.8-199.3-199.3c-8.4-8.4-8.3-16.5,0.1-25.1
	c2.7-2.7,5.9-4.9,7.8-8.4c6-5.7,12.2-11.3,18-17.1c30.3-30.1,60.4-60.3,90.6-90.6c1.2-1.2,3.1-2.2,3.1-4.3c26.7,0,53.3,0.1,80-0.1
	c3.4,0,4.1,0.7,4.1,4.1C1199.9,118.7,1199.9,233.3,1199.9,348z"/>
<path class="st1" d="M1115.9,0.1c0,2.1-1.8,3.1-3.1,4.3c-30.2,30.2-60.4,60.4-90.6,90.6c-5.9,5.8-12,11.4-18,17.1
	c-2.1,0.1-3.2-1.6-4.5-2.8c-4.7-4.7-9.5-9.4-14.1-14.1c-7.3-7.4-7.3-16.8,0.1-24.2c22.2-22.3,44.5-44.5,66.7-66.7
	c1.3-1.3,2.4-2.7,3.6-4.1C1075.9,0.1,1095.9,0.1,1115.9,0.1z"/>
<g>
	<path class="st0" d="M0.1,0c2.2,0,3,2,4.2,3.2c69.8,71,139.6,142,209.4,213c8.3,8.5,8.4,16.7,0.2,25.2c-6.8,7-13.5,14-20.2,21
		c-27.4,27.6-54.8,55.3-82.3,82.9c-0.7,0.7-1.4,1.4-1.3,2.6c-35.3,0-70.7-0.1-106,0.1c-3.4,0-4.1-0.7-4.1-4.2
		C0.1,229.2,0.1,114.6,0.1,0z"/>
	<path class="st1" d="M110.1,347.9c-0.1-1.2,0.6-1.9,1.3-2.6c27.4-27.6,54.8-55.3,82.3-82.9c8.4,6.9,16,14.8,23,23.1
		c5.4,6.5,4.1,15.3-2,21.5c-12,12.3-24,24.4-36,36.7c-1.3,1.3-2.4,2.8-3.6,4.2C153.4,347.9,131.7,347.9,110.1,347.9z"/>
</g>
<g>
	<g>
		<g id="Seelay_00000062160176308050073650000011441721155046446509_">
			<path class="st0" d="M403.3,130.6H425v6c0,8.6,4,16.9,11.7,24.3l15.2,14.3c4.9,4.9,7.2,10.6,7.2,17.4c0,6.8-2.3,12.9-7.2,17.7
				c-4.9,4.9-10.6,7.2-17.7,7.2h-34v-21.7h34c0.9,0,1.7-0.3,2.3-0.9c0.6-0.6,0.9-1.5,0.9-2.3c0-0.9-0.3-1.5-0.9-2l-11.4-10.8
				c-14.6-13.1-21.7-27.4-21.7-42.9L403.3,130.6L403.3,130.6z"/>
			<path class="st0" d="M521,130.6v21.7h-59.2v-21.7H521z M483.6,195.7H521v21.7h-59.2v-56H521V183h-37.4V195.7L483.6,195.7z"/>
			<path class="st0" d="M589.3,130.6v21.7h-59.2v-21.7H589.3z M551.8,195.7h37.4v21.7h-59.1v-56h59.2V183h-37.4L551.8,195.7
				L551.8,195.7L551.8,195.7z"/>
			<path class="st0" d="M657.6,195.7v21.7h-59.2v-86.8h21.7v65.1C620.1,195.7,657.6,195.7,657.6,195.7z"/>
			<path class="st0" d="M707.6,195.7l-16.3-65.1H713l24.9,86.9h-77.7l14.8-56h22.8l-7.7,34.3C690.2,195.7,707.6,195.7,707.6,195.7z"
				/>
			<path class="st0" d="M730.8,155.4v-24.9h21.7v24.9c0,2.6,0.9,4.9,2.9,6.6c1.7,1.7,4,2.9,6.6,2.9s4.9-0.9,6.6-2.9
				c1.7-2,2.9-4,2.9-6.6v-24.9H793v24.9c0,8.6-3.2,16-9.1,22c-6,6-13.5,9.1-22,9.1s-16-3.2-22-9.1
				C733.9,171.4,730.8,164,730.8,155.4L730.8,155.4z M740.1,195.7h43.4v21.7h-43.4V195.7z"/>
		</g>
	</g>
	<g>
		<path class="st0" d="M804.5,134.9c0,1.2-0.4,2.2-1.3,3.1c-0.8,0.8-1.8,1.3-3,1.3c-1.2,0-2.2-0.4-3.1-1.3c-0.8-0.8-1.3-1.9-1.3-3.1
			c0-1.2,0.4-2.2,1.3-3c0.8-0.8,1.9-1.3,3.1-1.3c1.2,0,2.2,0.4,3,1.3C804.1,132.7,804.5,133.7,804.5,134.9z M796.8,134.9
			c0,0.9,0.3,1.7,1,2.4c0.7,0.7,1.5,1,2.4,1c0.9,0,1.7-0.3,2.4-1c0.7-0.7,1-1.5,1-2.4c0-0.9-0.3-1.8-1-2.4c-0.7-0.7-1.5-1-2.4-1
			c-0.9,0-1.7,0.3-2.4,1C797.1,133.1,796.8,133.9,796.8,134.9z M801.1,137l-1-1.6h-0.4v1.6h-0.9v-4.2h1.8c0.4,0,0.7,0.1,1,0.4
			c0.3,0.3,0.4,0.6,0.4,1c0,0.3-0.1,0.5-0.3,0.8c-0.2,0.2-0.4,0.4-0.7,0.5l0,0l1.1,1.6v0H801.1z M799.6,134.6h0.9
			c0.2,0,0.3,0,0.4-0.1c0.1-0.1,0.2-0.2,0.2-0.4c0-0.3-0.2-0.5-0.7-0.5h-0.7V134.6z"/>
	</g>
</g>
</svg>
