<?xml version="1.0" encoding="utf-8"?>
<!-- Generator: Adobe Illustrator 26.2.1, SVG Export Plug-In . SVG Version: 6.00 Build 0)  -->
<svg version="1.1" id="Layer_1" xmlns="http://www.w3.org/2000/svg" xmlns:xlink="http://www.w3.org/1999/xlink" x="0px" y="0px"
	 viewBox="0 0 1200 348" style="enable-background:new 0 0 1200 348;" xml:space="preserve">
<style type="text/css">
	.st0{fill:#FF2222;}
	.st1{fill:#FF4949;}
	.st2{fill:#232323;}
	.st3{fill:url(#SVGID_1_);}
	.st4{fill:#303030;}
	.st5{fill:#F8F8F8;}
</style>
<path class="st0" d="M1199.9,348c-2.1-0.1-3-1.9-4.2-3.2c-66.5-66.4-132.9-132.8-199.3-199.3c-8.4-8.4-8.3-16.5,0.1-25.1
	c2.7-2.7,5.9-4.9,7.8-8.4c6-5.7,12.2-11.3,18-17.1c30.3-30.1,60.4-60.3,90.6-90.6c1.2-1.2,3.1-2.2,3.1-4.3c26.7,0,53.3,0.1,80-0.1
	c3.4,0,4.1,0.7,4.1,4.1C1199.9,118.7,1199.9,233.3,1199.9,348z"/>
<path class="st1" d="M1115.9,0.1c0,2.1-1.8,3.1-3.1,4.3c-30.2,30.2-60.4,60.4-90.6,90.6c-5.9,5.8-12,11.4-18,17.1
	c-2.1,0.1-3.2-1.6-4.5-2.8c-4.7-4.7-9.5-9.4-14.1-14.1c-7.3-7.4-7.3-16.8,0.1-24.2c22.2-22.3,44.5-44.5,66.7-66.7
	c1.3-1.3,2.4-2.7,3.6-4.1C1075.9,0.1,1095.9,0.1,1115.9,0.1z"/>
<g>
	<path class="st0" d="M0.1,0c2.2,0,3,2,4.2,3.2c69.8,71,139.6,142,209.4,213c8.3,8.5,8.4,16.7,0.2,25.2c-6.8,7-13.5,14-20.2,21
		c-27.4,27.6-54.8,55.3-82.3,82.9c-0.7,0.7-1.4,1.4-1.3,2.6c-35.3,0-70.7-0.1-106,0.1c-3.4,0-4.1-0.7-4.1-4.2
		C0.1,229.2,0.1,114.6,0.1,0z"/>
	<path class="st1" d="M110.1,347.9c-0.1-1.2,0.6-1.9,1.3-2.6c27.4-27.6,54.8-55.3,82.3-82.9c8.4,6.9,16,14.8,23,23.1
		c5.4,6.5,4.1,15.3-2,21.5c-12,12.3-24,24.4-36,36.7c-1.3,1.3-2.4,2.8-3.6,4.2C153.4,347.9,131.7,347.9,110.1,347.9z"/>
</g>
<g>
	<g>
		<path class="st0" d="M340.4,228.7c-1.5,0-2.8-0.3-3.8-0.9c-1.1-0.6-1.9-1.5-2.4-2.6c-0.6-1.1-0.9-2.5-0.9-4s0.3-2.9,0.9-4
			c0.6-1.1,1.4-2,2.4-2.6c1.1-0.6,2.3-0.9,3.8-0.9c0.8,0,1.6,0.1,2.4,0.3c0.8,0.2,1.4,0.5,2,1c0.3,0.2,0.5,0.4,0.5,0.7
			c0,0.3,0,0.5-0.1,0.7c-0.1,0.2-0.3,0.4-0.6,0.4c-0.3,0.1-0.5,0-0.8-0.2c-0.5-0.3-1-0.6-1.5-0.8s-1.1-0.3-1.8-0.3
			c-1.6,0-2.8,0.5-3.7,1.5c-0.8,1-1.3,2.4-1.3,4.2s0.4,3.2,1.3,4.2c0.8,1,2.1,1.5,3.7,1.5c0.6,0,1.2-0.1,1.8-0.3
			c0.6-0.2,1.1-0.4,1.6-0.8c0.3-0.2,0.6-0.3,0.8-0.2c0.2,0.1,0.4,0.2,0.5,0.4s0.2,0.4,0.1,0.7c0,0.3-0.2,0.5-0.4,0.7
			c-0.6,0.5-1.3,0.8-2,1C342.1,228.6,341.3,228.7,340.4,228.7z"/>
		<path class="st0" d="M348.8,228.7c-0.7,0-1.1-0.4-1.1-1.1v-8.4c0-0.7,0.3-1.1,1-1.1c0.7,0,1,0.4,1,1.1v0.9
			c0.3-0.6,0.7-1.1,1.3-1.4c0.6-0.3,1.3-0.5,2.1-0.6c0.5,0,0.8,0.2,0.8,0.8c0.1,0.6-0.2,1-0.9,1l-0.4,0c-1.9,0.2-2.8,1.1-2.8,2.9
			v4.8C349.9,228.3,349.6,228.7,348.8,228.7z"/>
		<path class="st0" d="M360.3,228.7c-1.7,0-3-0.5-4-1.4s-1.4-2.2-1.4-3.9c0-1.1,0.2-2,0.6-2.8c0.4-0.8,1-1.4,1.8-1.9
			c0.8-0.4,1.6-0.7,2.6-0.7c1.4,0,2.5,0.5,3.3,1.4c0.8,0.9,1.2,2.1,1.2,3.7c0,0.5-0.3,0.7-0.8,0.7h-6.7c0.2,2.1,1.3,3.2,3.4,3.2
			c0.4,0,0.9-0.1,1.3-0.2c0.5-0.1,0.9-0.3,1.3-0.6c0.3-0.2,0.5-0.2,0.8-0.2c0.2,0,0.4,0.2,0.5,0.4c0.1,0.2,0.1,0.4,0.1,0.6
			c-0.1,0.2-0.2,0.4-0.5,0.6c-0.5,0.3-1,0.6-1.7,0.7C361.4,228.6,360.8,228.7,360.3,228.7z M360,219.6c-0.9,0-1.6,0.3-2.1,0.8
			s-0.8,1.3-0.9,2.2h5.7c0-1-0.3-1.7-0.8-2.2C361.4,219.8,360.8,219.6,360,219.6z"/>
		<path class="st0" d="M370,228.7c-0.7,0-1.4-0.1-1.9-0.4c-0.6-0.3-1-0.7-1.3-1.1c-0.3-0.5-0.5-1-0.5-1.6c0-0.8,0.2-1.4,0.6-1.8
			c0.4-0.4,1-0.7,1.9-0.9c0.9-0.2,2.1-0.3,3.6-0.3h0.7V222c0-0.8-0.2-1.4-0.5-1.7c-0.3-0.3-0.9-0.5-1.7-0.5c-0.4,0-0.9,0.1-1.4,0.2
			s-1,0.3-1.5,0.6c-0.3,0.1-0.5,0.2-0.7,0.1s-0.3-0.3-0.4-0.5c-0.1-0.2-0.1-0.4,0-0.7c0.1-0.2,0.3-0.4,0.5-0.5
			c0.6-0.3,1.2-0.5,1.8-0.6c0.6-0.1,1.2-0.2,1.7-0.2c1.4,0,2.4,0.3,3.1,1c0.7,0.7,1,1.7,1,3.1v5.4c0,0.7-0.3,1.1-1,1.1
			c-0.7,0-1-0.4-1-1.1v-0.8c-0.3,0.6-0.6,1-1.2,1.4C371.4,228.5,370.8,228.7,370,228.7z M370.4,227.2c0.8,0,1.4-0.3,1.9-0.8
			s0.8-1.2,0.8-2v-0.6h-0.7c-1,0-1.8,0-2.4,0.1s-1,0.3-1.2,0.5c-0.2,0.2-0.4,0.5-0.4,1c0,0.5,0.2,1,0.5,1.3S369.8,227.2,370.4,227.2
			z"/>
		<path class="st0" d="M382.4,228.7c-1.3,0-2.2-0.3-2.9-1s-0.9-1.6-0.9-2.9v-5h-1.3c-0.6,0-0.9-0.3-0.9-0.8s0.3-0.8,0.9-0.8h1.3
			v-2.2c0-0.7,0.4-1.1,1.1-1.1c0.7,0,1.1,0.4,1.1,1.1v2.2h2.5c0.6,0,0.9,0.3,0.9,0.8s-0.3,0.8-0.9,0.8h-2.5v4.8
			c0,0.7,0.2,1.3,0.5,1.7s0.8,0.6,1.5,0.6c0.3,0,0.5,0,0.7-0.1c0.2,0,0.3-0.1,0.5-0.1c0.2,0,0.3,0.1,0.4,0.2
			c0.1,0.1,0.1,0.3,0.1,0.6c0,0.2,0,0.4-0.1,0.6c-0.1,0.2-0.2,0.3-0.4,0.3c-0.2,0.1-0.4,0.1-0.7,0.2
			C382.9,228.7,382.6,228.7,382.4,228.7z"/>
		<path class="st0" d="M386.9,216c-0.4,0-0.7-0.1-1-0.3s-0.3-0.5-0.3-0.9c0-0.8,0.4-1.2,1.3-1.2s1.3,0.4,1.3,1.2
			C388.2,215.6,387.8,216,386.9,216z M386.9,228.6c-0.7,0-1-0.4-1-1.2v-8.2c0-0.8,0.3-1.1,1-1.1c0.7,0,1.1,0.4,1.1,1.1v8.2
			C388,228.3,387.6,228.6,386.9,228.6z"/>
		<path class="st0" d="M394.9,228.7c-0.6,0-1-0.3-1.3-0.9l-3.5-8.1c-0.2-0.4-0.2-0.7,0-1c0.2-0.3,0.5-0.4,0.9-0.4
			c0.3,0,0.5,0.1,0.6,0.2s0.3,0.3,0.4,0.7l2.9,7.1l2.9-7.1c0.1-0.3,0.3-0.5,0.4-0.7c0.2-0.1,0.4-0.2,0.7-0.2c0.4,0,0.6,0.1,0.8,0.4
			c0.1,0.3,0.1,0.6,0,1l-3.5,8.2C396,228.3,395.5,228.7,394.9,228.7z"/>
		<path class="st0" d="M406.5,228.7c-1.7,0-3-0.5-4-1.4s-1.4-2.2-1.4-3.9c0-1.1,0.2-2,0.6-2.8c0.4-0.8,1-1.4,1.8-1.9
			c0.8-0.4,1.6-0.7,2.6-0.7c1.4,0,2.5,0.5,3.3,1.4c0.8,0.9,1.2,2.1,1.2,3.7c0,0.5-0.3,0.7-0.8,0.7h-6.7c0.2,2.1,1.3,3.2,3.4,3.2
			c0.4,0,0.9-0.1,1.3-0.2c0.5-0.1,0.9-0.3,1.3-0.6c0.3-0.2,0.5-0.2,0.8-0.2c0.2,0,0.4,0.2,0.5,0.4c0.1,0.2,0.1,0.4,0.1,0.6
			c-0.1,0.2-0.2,0.4-0.5,0.6c-0.5,0.3-1,0.6-1.7,0.7C407.7,228.6,407.1,228.7,406.5,228.7z M406.2,219.6c-0.9,0-1.6,0.3-2.1,0.8
			s-0.8,1.3-0.9,2.2h5.7c0-1-0.3-1.7-0.8-2.2C407.7,219.8,407,219.6,406.2,219.6z"/>
		<path class="st0" d="M419.9,228.5c-0.8,0-1.2-0.4-1.2-1.2v-12.5c0-0.8,0.4-1.2,1.2-1.2h4.1c2.4,0,4.3,0.6,5.6,1.9
			c1.3,1.3,2,3.1,2,5.5s-0.7,4.2-2,5.5c-1.3,1.3-3.2,1.9-5.6,1.9H419.9z M420.9,226.7h2.9c3.7,0,5.5-1.9,5.5-5.6
			c0-3.7-1.8-5.6-5.5-5.6h-2.9V226.7z"/>
		<path class="st0" d="M439.1,228.7c-1.7,0-3-0.5-4-1.4s-1.4-2.2-1.4-3.9c0-1.1,0.2-2,0.6-2.8c0.4-0.8,1-1.4,1.8-1.9
			c0.8-0.4,1.6-0.7,2.6-0.7c1.4,0,2.5,0.5,3.3,1.4c0.8,0.9,1.2,2.1,1.2,3.7c0,0.5-0.3,0.7-0.8,0.7h-6.7c0.2,2.1,1.3,3.2,3.4,3.2
			c0.4,0,0.9-0.1,1.3-0.2c0.5-0.1,0.9-0.3,1.3-0.6c0.3-0.2,0.5-0.2,0.8-0.2c0.2,0,0.4,0.2,0.5,0.4c0.1,0.2,0.1,0.4,0.1,0.6
			c-0.1,0.2-0.2,0.4-0.5,0.6c-0.5,0.3-1,0.6-1.7,0.7C440.3,228.6,439.7,228.7,439.1,228.7z M438.8,219.6c-0.9,0-1.6,0.3-2.1,0.8
			s-0.8,1.3-0.9,2.2h5.7c0-1-0.3-1.7-0.8-2.2C440.3,219.8,439.6,219.6,438.8,219.6z"/>
		<path class="st0" d="M449.2,228.7c-0.6,0-1.3-0.1-1.9-0.2c-0.7-0.1-1.3-0.4-1.8-0.7c-0.2-0.1-0.4-0.3-0.4-0.5s0-0.4,0-0.6
			s0.2-0.3,0.4-0.4s0.4-0.1,0.6,0.1c0.5,0.3,1.1,0.5,1.6,0.6c0.5,0.1,1,0.2,1.5,0.2c0.7,0,1.3-0.1,1.7-0.4c0.4-0.3,0.6-0.6,0.6-1.1
			c0-0.4-0.1-0.6-0.4-0.8s-0.6-0.4-1.1-0.5l-2-0.4c-1.8-0.4-2.6-1.3-2.6-2.7c0-1,0.4-1.7,1.2-2.3c0.8-0.6,1.8-0.9,3-0.9
			c1.3,0,2.3,0.3,3.3,0.9c0.2,0.1,0.4,0.3,0.4,0.5s0,0.4-0.1,0.6c-0.1,0.2-0.2,0.3-0.4,0.4c-0.2,0.1-0.4,0-0.7-0.1
			c-0.4-0.3-0.8-0.4-1.3-0.6c-0.4-0.1-0.8-0.2-1.2-0.2c-0.7,0-1.3,0.1-1.7,0.4c-0.4,0.3-0.6,0.6-0.6,1.1c0,0.7,0.5,1.1,1.4,1.3
			l2,0.4c0.9,0.2,1.6,0.5,2.1,0.9c0.5,0.4,0.7,1,0.7,1.8c0,1-0.4,1.7-1.2,2.3C451.5,228.4,450.4,228.7,449.2,228.7z"/>
		<path class="st0" d="M456.8,216c-0.4,0-0.7-0.1-1-0.3s-0.3-0.5-0.3-0.9c0-0.8,0.4-1.2,1.3-1.2s1.3,0.4,1.3,1.2
			C458.1,215.6,457.7,216,456.8,216z M456.8,228.6c-0.7,0-1-0.4-1-1.2v-8.2c0-0.8,0.3-1.1,1-1.1c0.7,0,1.1,0.4,1.1,1.1v8.2
			C457.9,228.3,457.5,228.6,456.8,228.6z"/>
		<path class="st0" d="M465.5,232.5c-0.8,0-1.5-0.1-2.2-0.2c-0.7-0.2-1.3-0.4-1.9-0.8c-0.3-0.1-0.4-0.3-0.5-0.5
			c-0.1-0.2,0-0.4,0.1-0.6s0.3-0.3,0.4-0.4c0.2-0.1,0.4-0.1,0.6,0.1c0.6,0.3,1.2,0.6,1.8,0.7s1.1,0.2,1.5,0.2c2,0,2.9-1,2.9-2.9
			v-1.6c-0.3,0.6-0.8,1.1-1.4,1.4c-0.6,0.4-1.3,0.5-2.1,0.5c-0.9,0-1.7-0.2-2.4-0.6c-0.7-0.4-1.2-1-1.6-1.8
			c-0.4-0.8-0.6-1.7-0.6-2.7c0-1,0.2-1.9,0.6-2.7c0.4-0.8,0.9-1.4,1.6-1.8c0.7-0.4,1.5-0.6,2.4-0.6c0.8,0,1.5,0.2,2.1,0.5
			c0.6,0.3,1.1,0.8,1.4,1.4v-0.8c0-0.7,0.4-1.1,1.1-1.1c0.7,0,1,0.4,1,1.1v8.5c0,1.6-0.4,2.8-1.2,3.6
			C468.3,232.1,467.1,232.5,465.5,232.5z M465.3,226.6c0.9,0,1.6-0.3,2.1-0.9c0.5-0.6,0.8-1.5,0.8-2.5c0-1.1-0.3-1.9-0.8-2.5
			c-0.5-0.6-1.2-0.9-2.1-0.9s-1.6,0.3-2.1,0.9c-0.5,0.6-0.8,1.4-0.8,2.5c0,1.1,0.3,1.9,0.8,2.5S464.4,226.6,465.3,226.6z"/>
		<path class="st0" d="M474.4,228.7c-0.7,0-1-0.4-1-1.1v-8.4c0-0.7,0.3-1.1,1-1.1c0.7,0,1,0.4,1,1.1v0.8c0.4-0.6,0.8-1.1,1.4-1.4
			c0.6-0.3,1.3-0.5,2-0.5c2.4,0,3.6,1.4,3.6,4.1v5.4c0,0.7-0.4,1.1-1,1.1c-0.7,0-1.1-0.4-1.1-1.1v-5.3c0-0.9-0.2-1.5-0.5-1.9
			c-0.3-0.4-0.9-0.6-1.6-0.6c-0.9,0-1.5,0.3-2,0.8c-0.5,0.5-0.8,1.2-0.8,2.1v4.9C475.4,228.3,475.1,228.7,474.4,228.7z"/>
		<path class="st0" d="M490.2,228.7c-1.7,0-3-0.5-4-1.4s-1.4-2.2-1.4-3.9c0-1.1,0.2-2,0.6-2.8c0.4-0.8,1-1.4,1.8-1.9
			c0.8-0.4,1.6-0.7,2.6-0.7c1.4,0,2.5,0.5,3.3,1.4c0.8,0.9,1.2,2.1,1.2,3.7c0,0.5-0.3,0.7-0.8,0.7h-6.7c0.2,2.1,1.3,3.2,3.4,3.2
			c0.4,0,0.9-0.1,1.3-0.2c0.5-0.1,0.9-0.3,1.3-0.6c0.3-0.2,0.5-0.2,0.8-0.2c0.2,0,0.4,0.2,0.5,0.4c0.1,0.2,0.1,0.4,0.1,0.6
			c-0.1,0.2-0.2,0.4-0.5,0.6c-0.5,0.3-1,0.6-1.7,0.7C491.4,228.6,490.8,228.7,490.2,228.7z M489.9,219.6c-0.9,0-1.6,0.3-2.1,0.8
			s-0.8,1.3-0.9,2.2h5.7c0-1-0.3-1.7-0.8-2.2C491.4,219.8,490.7,219.6,489.9,219.6z"/>
		<path class="st0" d="M497.8,228.7c-0.7,0-1.1-0.4-1.1-1.1v-8.4c0-0.7,0.3-1.1,1-1.1c0.7,0,1,0.4,1,1.1v0.9
			c0.3-0.6,0.7-1.1,1.3-1.4c0.6-0.3,1.3-0.5,2.1-0.6c0.5,0,0.8,0.2,0.8,0.8c0.1,0.6-0.2,1-0.9,1l-0.4,0c-1.9,0.2-2.8,1.1-2.8,2.9
			v4.8C498.8,228.3,498.5,228.7,497.8,228.7z"/>
		<path class="st0" d="M519.6,226.7c-0.7,0-1.3-0.2-1.9-0.5c-0.6-0.3-1-0.8-1.4-1.3c-0.4-0.6-0.5-1.2-0.5-1.9c0-0.6,0.2-1.2,0.5-1.8
			c0.3-0.6,0.8-1,1.4-1.4c0.6-0.4,1.2-0.5,2-0.5c0.7,0,1.3,0.2,1.9,0.5c0.6,0.3,1,0.8,1.4,1.3c0.4,0.6,0.5,1.2,0.5,1.9
			c0,0.7-0.2,1.3-0.5,1.9c-0.3,0.6-0.8,1-1.4,1.3C521,226.5,520.3,226.7,519.6,226.7z"/>
		<path class="st0" d="M533.5,228.7c-0.8,0-1.2-0.4-1.2-1.2v-12.6c0-0.8,0.4-1.2,1.2-1.2h7.5c0.6,0,0.9,0.3,0.9,0.9
			c0,0.6-0.3,0.9-0.9,0.9h-6.5v4.7h6c0.6,0,0.9,0.3,0.9,0.9c0,0.6-0.3,0.9-0.9,0.9h-6v5.5C534.6,228.3,534.2,228.7,533.5,228.7z"/>
		<path class="st0" d="M544.6,228.7c-0.7,0-1.1-0.4-1.1-1.1v-8.4c0-0.7,0.3-1.1,1-1.1c0.7,0,1,0.4,1,1.1v0.9
			c0.3-0.6,0.7-1.1,1.3-1.4c0.6-0.3,1.3-0.5,2.1-0.6c0.5,0,0.8,0.2,0.8,0.8c0.1,0.6-0.2,1-0.9,1l-0.4,0c-1.9,0.2-2.8,1.1-2.8,2.9
			v4.8C545.7,228.3,545.4,228.7,544.6,228.7z"/>
		<path class="st0" d="M555.7,228.7c-1,0-1.9-0.2-2.7-0.7s-1.3-1-1.8-1.8c-0.4-0.8-0.6-1.7-0.6-2.8s0.2-2,0.6-2.8
			c0.4-0.8,1-1.4,1.8-1.8c0.8-0.4,1.7-0.7,2.7-0.7c1,0,1.9,0.2,2.6,0.7c0.8,0.4,1.3,1,1.8,1.8c0.4,0.8,0.6,1.7,0.6,2.8
			s-0.2,2-0.6,2.8c-0.4,0.8-1,1.4-1.8,1.8S556.7,228.7,555.7,228.7z M555.7,227.1c0.9,0,1.6-0.3,2.1-0.9c0.5-0.6,0.8-1.5,0.8-2.7
			c0-1.2-0.3-2.1-0.8-2.7c-0.5-0.6-1.2-0.9-2.1-0.9c-0.9,0-1.6,0.3-2.1,0.9c-0.5,0.6-0.8,1.5-0.8,2.7c0,1.2,0.3,2.1,0.8,2.7
			C554.1,226.8,554.8,227.1,555.7,227.1z"/>
		<path class="st0" d="M564.2,228.7c-0.7,0-1-0.4-1-1.1v-8.4c0-0.7,0.3-1.1,1-1.1c0.7,0,1,0.4,1,1.1v0.8c0.3-0.6,0.8-1.1,1.4-1.4
			c0.6-0.3,1.3-0.5,2-0.5c2.4,0,3.6,1.4,3.6,4.1v5.4c0,0.7-0.3,1.1-1,1.1c-0.7,0-1.1-0.4-1.1-1.1v-5.3c0-0.9-0.2-1.5-0.5-1.9
			s-0.9-0.6-1.6-0.6c-0.9,0-1.5,0.3-2,0.8c-0.5,0.5-0.8,1.2-0.8,2.1v4.9C565.2,228.3,564.9,228.7,564.2,228.7z"/>
		<path class="st0" d="M579.6,228.7c-1.3,0-2.2-0.3-2.9-1c-0.6-0.7-0.9-1.6-0.9-2.9v-5h-1.3c-0.6,0-0.9-0.3-0.9-0.8s0.3-0.8,0.9-0.8
			h1.3v-2.2c0-0.7,0.4-1.1,1.1-1.1c0.7,0,1,0.4,1,1.1v2.2h2.5c0.6,0,0.9,0.3,0.9,0.8s-0.3,0.8-0.9,0.8h-2.5v4.8
			c0,0.7,0.2,1.3,0.5,1.7c0.3,0.4,0.8,0.6,1.5,0.6c0.3,0,0.5,0,0.7-0.1c0.2,0,0.3-0.1,0.5-0.1c0.2,0,0.3,0.1,0.4,0.2
			c0.1,0.1,0.1,0.3,0.1,0.6c0,0.2,0,0.4-0.1,0.6c-0.1,0.2-0.2,0.3-0.4,0.3c-0.2,0.1-0.4,0.1-0.7,0.2
			C580.1,228.7,579.8,228.7,579.6,228.7z"/>
		<path class="st0" d="M587.6,228.7c-1.7,0-3-0.5-4-1.4s-1.4-2.2-1.4-3.9c0-1.1,0.2-2,0.6-2.8c0.4-0.8,1-1.4,1.8-1.9
			s1.6-0.7,2.6-0.7c1.4,0,2.5,0.5,3.3,1.4c0.8,0.9,1.2,2.1,1.2,3.7c0,0.5-0.3,0.7-0.8,0.7h-6.7c0.2,2.1,1.3,3.2,3.4,3.2
			c0.4,0,0.9-0.1,1.3-0.2c0.5-0.1,0.9-0.3,1.3-0.6c0.3-0.2,0.5-0.2,0.8-0.2c0.2,0,0.4,0.2,0.5,0.4c0.1,0.2,0.1,0.4,0.1,0.6
			c-0.1,0.2-0.2,0.4-0.5,0.6c-0.5,0.3-1,0.6-1.7,0.7C588.8,228.6,588.2,228.7,587.6,228.7z M587.3,219.6c-0.9,0-1.6,0.3-2.1,0.8
			s-0.8,1.3-0.9,2.2h5.7c0-1-0.3-1.7-0.8-2.2C588.7,219.8,588.1,219.6,587.3,219.6z"/>
		<path class="st0" d="M595.1,228.7c-0.7,0-1-0.4-1-1.1v-8.4c0-0.7,0.3-1.1,1-1.1c0.7,0,1,0.4,1,1.1v0.8c0.3-0.6,0.8-1.1,1.4-1.4
			c0.6-0.3,1.3-0.5,2-0.5c2.4,0,3.6,1.4,3.6,4.1v5.4c0,0.7-0.3,1.1-1,1.1c-0.7,0-1.1-0.4-1.1-1.1v-5.3c0-0.9-0.2-1.5-0.5-1.9
			s-0.9-0.6-1.6-0.6c-0.9,0-1.5,0.3-2,0.8c-0.5,0.5-0.8,1.2-0.8,2.1v4.9C596.2,228.3,595.8,228.7,595.1,228.7z"/>
		<path class="st0" d="M610.1,228.7c-0.9,0-1.7-0.2-2.4-0.6c-0.7-0.4-1.2-1-1.6-1.8s-0.6-1.7-0.6-2.8s0.2-2,0.6-2.8s0.9-1.4,1.6-1.8
			c0.7-0.4,1.5-0.7,2.4-0.7c0.8,0,1.5,0.2,2.1,0.5c0.6,0.3,1,0.8,1.3,1.4v-5.3c0-0.7,0.3-1.1,1-1.1c0.7,0,1.1,0.4,1.1,1.1v13
			c0,0.7-0.3,1.1-1,1.1s-1-0.4-1-1.1v-0.8c-0.3,0.6-0.8,1.1-1.4,1.4C611.5,228.5,610.8,228.7,610.1,228.7z M610.6,227.1
			c0.9,0,1.6-0.3,2.1-0.9c0.5-0.6,0.8-1.5,0.8-2.7c0-1.2-0.3-2.1-0.8-2.7c-0.5-0.6-1.2-0.9-2.1-0.9c-0.9,0-1.6,0.3-2.1,0.9
			c-0.5,0.6-0.8,1.5-0.8,2.7c0,1.2,0.3,2.1,0.8,2.7C609,226.8,609.7,227.1,610.6,227.1z"/>
		<path class="st0" d="M625.5,228.5c-0.8,0-1.2-0.4-1.2-1.2v-12.5c0-0.8,0.4-1.2,1.2-1.2h4.1c2.4,0,4.3,0.6,5.6,1.9
			c1.3,1.3,2,3.1,2,5.5s-0.7,4.2-2,5.5c-1.3,1.3-3.2,1.9-5.6,1.9H625.5z M626.5,226.7h2.9c3.7,0,5.5-1.9,5.5-5.6
			c0-3.7-1.8-5.6-5.5-5.6h-2.9V226.7z"/>
		<path class="st0" d="M644.7,228.7c-1.7,0-3-0.5-4-1.4s-1.4-2.2-1.4-3.9c0-1.1,0.2-2,0.6-2.8c0.4-0.8,1-1.4,1.8-1.9
			s1.6-0.7,2.6-0.7c1.4,0,2.5,0.5,3.3,1.4c0.8,0.9,1.2,2.1,1.2,3.7c0,0.5-0.3,0.7-0.8,0.7h-6.7c0.2,2.1,1.3,3.2,3.4,3.2
			c0.4,0,0.9-0.1,1.3-0.2c0.5-0.1,0.9-0.3,1.3-0.6c0.3-0.2,0.5-0.2,0.8-0.2c0.2,0,0.4,0.2,0.5,0.4c0.1,0.2,0.1,0.4,0.1,0.6
			c-0.1,0.2-0.2,0.4-0.5,0.6c-0.5,0.3-1,0.6-1.7,0.7C645.9,228.6,645.3,228.7,644.7,228.7z M644.4,219.6c-0.9,0-1.6,0.3-2.1,0.8
			s-0.8,1.3-0.9,2.2h5.7c0-1-0.3-1.7-0.8-2.2C645.8,219.8,645.2,219.6,644.4,219.6z"/>
		<path class="st0" d="M655,228.7c-0.6,0-1-0.3-1.3-0.9l-3.5-8.1c-0.2-0.4-0.2-0.7,0-1s0.5-0.4,0.9-0.4c0.3,0,0.5,0.1,0.6,0.2
			s0.3,0.3,0.4,0.7l2.9,7.1l2.9-7.1c0.1-0.3,0.3-0.5,0.4-0.7s0.4-0.2,0.7-0.2c0.4,0,0.6,0.1,0.8,0.4c0.1,0.3,0.1,0.6,0,1l-3.5,8.2
			C656,228.3,655.6,228.7,655,228.7z"/>
		<path class="st0" d="M666.5,228.7c-1.7,0-3-0.5-4-1.4s-1.4-2.2-1.4-3.9c0-1.1,0.2-2,0.6-2.8c0.4-0.8,1-1.4,1.8-1.9
			s1.6-0.7,2.6-0.7c1.4,0,2.5,0.5,3.3,1.4c0.8,0.9,1.2,2.1,1.2,3.7c0,0.5-0.3,0.7-0.8,0.7h-6.7c0.2,2.1,1.3,3.2,3.4,3.2
			c0.4,0,0.9-0.1,1.3-0.2c0.5-0.1,0.9-0.3,1.3-0.6c0.3-0.2,0.5-0.2,0.8-0.2c0.2,0,0.4,0.2,0.5,0.4c0.1,0.2,0.1,0.4,0.1,0.6
			c-0.1,0.2-0.2,0.4-0.5,0.6c-0.5,0.3-1,0.6-1.7,0.7C667.7,228.6,667.1,228.7,666.5,228.7z M666.2,219.6c-0.9,0-1.6,0.3-2.1,0.8
			s-0.8,1.3-0.9,2.2h5.7c0-1-0.3-1.7-0.8-2.2C667.7,219.8,667.1,219.6,666.2,219.6z"/>
		<path class="st0" d="M676.3,228.7c-1.1,0-1.9-0.3-2.5-0.9s-0.8-1.6-0.8-2.8v-10.4c0-0.7,0.3-1.1,1-1.1c0.7,0,1.1,0.4,1.1,1.1v10.2
			c0,1.4,0.6,2.1,1.7,2.1c0.1,0,0.2,0,0.3,0s0.2,0,0.3,0c0.2,0,0.3,0,0.4,0.1c0.1,0.1,0.1,0.3,0.1,0.6c0,0.6-0.3,0.9-0.8,1
			c-0.1,0-0.3,0-0.4,0C676.6,228.7,676.4,228.7,676.3,228.7z"/>
		<path class="st0" d="M683.8,228.7c-1,0-1.9-0.2-2.7-0.7s-1.3-1-1.8-1.8c-0.4-0.8-0.6-1.7-0.6-2.8s0.2-2,0.6-2.8
			c0.4-0.8,1-1.4,1.8-1.8c0.8-0.4,1.7-0.7,2.7-0.7c1,0,1.9,0.2,2.6,0.7c0.8,0.4,1.3,1,1.8,1.8c0.4,0.8,0.6,1.7,0.6,2.8
			s-0.2,2-0.6,2.8c-0.4,0.8-1,1.4-1.8,1.8S684.8,228.7,683.8,228.7z M683.8,227.1c0.9,0,1.6-0.3,2.1-0.9c0.5-0.6,0.8-1.5,0.8-2.7
			c0-1.2-0.3-2.1-0.8-2.7c-0.5-0.6-1.2-0.9-2.1-0.9c-0.9,0-1.6,0.3-2.1,0.9c-0.5,0.6-0.8,1.5-0.8,2.7c0,1.2,0.3,2.1,0.8,2.7
			C682.2,226.8,682.9,227.1,683.8,227.1z"/>
		<path class="st0" d="M692.3,232.4c-0.7,0-1-0.4-1-1.1v-12.2c0-0.7,0.3-1.1,1-1.1c0.7,0,1.1,0.4,1.1,1.1v0.8
			c0.3-0.6,0.8-1.1,1.4-1.4c0.6-0.3,1.3-0.5,2.1-0.5c0.9,0,1.7,0.2,2.4,0.7c0.7,0.4,1.2,1,1.6,1.8s0.6,1.7,0.6,2.8s-0.2,2-0.6,2.8
			s-0.9,1.4-1.6,1.8c-0.7,0.4-1.5,0.6-2.4,0.6c-0.8,0-1.4-0.2-2-0.5c-0.6-0.3-1-0.8-1.4-1.4v4.5C693.3,232.1,693,232.4,692.3,232.4z
			 M696.2,227.1c0.9,0,1.6-0.3,2.1-0.9c0.5-0.6,0.8-1.5,0.8-2.7c0-1.2-0.3-2.1-0.8-2.7c-0.5-0.6-1.2-0.9-2.1-0.9s-1.6,0.3-2.1,0.9
			c-0.5,0.6-0.8,1.5-0.8,2.7c0,1.2,0.3,2.1,0.8,2.7C694.6,226.8,695.3,227.1,696.2,227.1z"/>
		<path class="st0" d="M708.4,228.7c-1.7,0-3-0.5-4-1.4s-1.4-2.2-1.4-3.9c0-1.1,0.2-2,0.6-2.8c0.4-0.8,1-1.4,1.8-1.9
			s1.6-0.7,2.6-0.7c1.4,0,2.5,0.5,3.3,1.4c0.8,0.9,1.2,2.1,1.2,3.7c0,0.5-0.3,0.7-0.8,0.7h-6.7c0.2,2.1,1.3,3.2,3.4,3.2
			c0.4,0,0.9-0.1,1.3-0.2c0.5-0.1,0.9-0.3,1.3-0.6c0.3-0.2,0.5-0.2,0.8-0.2c0.2,0,0.4,0.2,0.5,0.4c0.1,0.2,0.1,0.4,0.1,0.6
			c-0.1,0.2-0.2,0.4-0.5,0.6c-0.5,0.3-1,0.6-1.7,0.7C709.6,228.6,709,228.7,708.4,228.7z M708.1,219.6c-0.9,0-1.6,0.3-2.1,0.8
			s-0.8,1.3-0.9,2.2h5.7c0-1-0.3-1.7-0.8-2.2C709.6,219.8,708.9,219.6,708.1,219.6z"/>
		<path class="st0" d="M716,228.7c-0.7,0-1.1-0.4-1.1-1.1v-8.4c0-0.7,0.3-1.1,1-1.1c0.7,0,1,0.4,1,1.1v0.9c0.3-0.6,0.7-1.1,1.3-1.4
			c0.6-0.3,1.3-0.5,2.1-0.6c0.5,0,0.8,0.2,0.8,0.8c0.1,0.6-0.2,1-0.9,1l-0.4,0c-1.9,0.2-2.8,1.1-2.8,2.9v4.8
			C717,228.3,716.7,228.7,716,228.7z"/>
		<path class="st0" d="M737.8,226.7c-0.7,0-1.3-0.2-1.9-0.5c-0.6-0.3-1-0.8-1.4-1.3c-0.3-0.6-0.5-1.2-0.5-1.9c0-0.6,0.2-1.2,0.5-1.8
			c0.3-0.6,0.8-1,1.4-1.4c0.6-0.4,1.2-0.5,2-0.5c0.7,0,1.3,0.2,1.9,0.5c0.6,0.3,1,0.8,1.4,1.3c0.3,0.6,0.5,1.2,0.5,1.9
			c0,0.7-0.2,1.3-0.5,1.9c-0.3,0.6-0.8,1-1.4,1.3C739.2,226.5,738.5,226.7,737.8,226.7z"/>
		<path class="st0" d="M751.8,228.5c-0.8,0-1.2-0.4-1.2-1.2v-12.5c0-0.8,0.4-1.2,1.2-1.2h4.1c2.4,0,4.3,0.6,5.6,1.9
			c1.3,1.3,2,3.1,2,5.5s-0.7,4.2-2,5.5c-1.3,1.3-3.2,1.9-5.6,1.9H751.8z M752.8,226.7h2.9c3.7,0,5.5-1.9,5.5-5.6
			c0-3.7-1.8-5.6-5.5-5.6h-2.9V226.7z"/>
		<path class="st0" d="M767.2,216c-0.4,0-0.7-0.1-1-0.3c-0.2-0.2-0.3-0.5-0.3-0.9c0-0.8,0.4-1.2,1.3-1.2s1.3,0.4,1.3,1.2
			C768.5,215.6,768.1,216,767.2,216z M767.2,228.6c-0.7,0-1-0.4-1-1.2v-8.2c0-0.8,0.3-1.1,1-1.1c0.7,0,1.1,0.4,1.1,1.1v8.2
			C768.2,228.3,767.9,228.6,767.2,228.6z"/>
		<path class="st0" d="M775.9,232.5c-0.8,0-1.5-0.1-2.2-0.2c-0.7-0.2-1.3-0.4-1.9-0.8c-0.3-0.1-0.4-0.3-0.5-0.5s0-0.4,0.1-0.6
			c0.1-0.2,0.3-0.3,0.4-0.4c0.2-0.1,0.4-0.1,0.6,0.1c0.6,0.3,1.2,0.6,1.8,0.7s1.1,0.2,1.5,0.2c2,0,2.9-1,2.9-2.9v-1.6
			c-0.3,0.6-0.8,1.1-1.4,1.4c-0.6,0.4-1.3,0.5-2.1,0.5c-0.9,0-1.7-0.2-2.4-0.6c-0.7-0.4-1.2-1-1.6-1.8c-0.4-0.8-0.6-1.7-0.6-2.7
			c0-1,0.2-1.9,0.6-2.7c0.4-0.8,0.9-1.4,1.6-1.8c0.7-0.4,1.5-0.6,2.4-0.6c0.8,0,1.5,0.2,2.1,0.5c0.6,0.3,1.1,0.8,1.4,1.4v-0.8
			c0-0.7,0.3-1.1,1-1.1s1.1,0.4,1.1,1.1v8.5c0,1.6-0.4,2.8-1.2,3.6C778.7,232.1,777.5,232.5,775.9,232.5z M775.7,226.6
			c0.9,0,1.6-0.3,2.1-0.9c0.5-0.6,0.8-1.5,0.8-2.5c0-1.1-0.3-1.9-0.8-2.5c-0.5-0.6-1.2-0.9-2.1-0.9s-1.6,0.3-2.1,0.9
			c-0.5,0.6-0.8,1.4-0.8,2.5c0,1.1,0.3,1.9,0.8,2.5C774.1,226.3,774.8,226.6,775.7,226.6z"/>
		<path class="st0" d="M784.8,216c-0.4,0-0.7-0.1-1-0.3c-0.2-0.2-0.3-0.5-0.3-0.9c0-0.8,0.4-1.2,1.3-1.2s1.3,0.4,1.3,1.2
			C786.1,215.6,785.6,216,784.8,216z M784.8,228.6c-0.7,0-1-0.4-1-1.2v-8.2c0-0.8,0.3-1.1,1-1.1c0.7,0,1.1,0.4,1.1,1.1v8.2
			C785.8,228.3,785.5,228.6,784.8,228.6z"/>
		<path class="st0" d="M793.2,228.7c-1.3,0-2.2-0.3-2.9-1c-0.6-0.7-0.9-1.6-0.9-2.9v-5h-1.3c-0.6,0-0.9-0.3-0.9-0.8s0.3-0.8,0.9-0.8
			h1.3v-2.2c0-0.7,0.4-1.1,1.1-1.1c0.7,0,1,0.4,1,1.1v2.2h2.5c0.6,0,0.9,0.3,0.9,0.8s-0.3,0.8-0.9,0.8h-2.5v4.8
			c0,0.7,0.2,1.3,0.5,1.7c0.3,0.4,0.8,0.6,1.5,0.6c0.3,0,0.5,0,0.7-0.1c0.2,0,0.3-0.1,0.5-0.1c0.2,0,0.3,0.1,0.4,0.2
			c0.1,0.1,0.1,0.3,0.1,0.6c0,0.2,0,0.4-0.1,0.6c-0.1,0.2-0.2,0.3-0.4,0.3c-0.2,0.1-0.4,0.1-0.7,0.2
			C793.7,228.7,793.4,228.7,793.2,228.7z"/>
		<path class="st0" d="M799.7,228.7c-0.7,0-1.4-0.1-1.9-0.4c-0.6-0.3-1-0.7-1.3-1.1c-0.3-0.5-0.5-1-0.5-1.6c0-0.8,0.2-1.4,0.6-1.8
			c0.4-0.4,1-0.7,1.9-0.9c0.9-0.2,2.1-0.3,3.6-0.3h0.7V222c0-0.8-0.2-1.4-0.5-1.7c-0.3-0.3-0.9-0.5-1.7-0.5c-0.4,0-0.9,0.1-1.4,0.2
			s-1,0.3-1.5,0.6c-0.3,0.1-0.5,0.2-0.7,0.1c-0.2-0.1-0.3-0.3-0.4-0.5c-0.1-0.2-0.1-0.4,0-0.7c0.1-0.2,0.3-0.4,0.5-0.5
			c0.6-0.3,1.2-0.5,1.8-0.6c0.6-0.1,1.2-0.2,1.7-0.2c1.4,0,2.4,0.3,3.1,1s1,1.7,1,3.1v5.4c0,0.7-0.3,1.1-1,1.1c-0.7,0-1-0.4-1-1.1
			v-0.8c-0.3,0.6-0.6,1-1.2,1.4C801.1,228.5,800.5,228.7,799.7,228.7z M800.2,227.2c0.8,0,1.4-0.3,1.9-0.8s0.8-1.2,0.8-2v-0.6h-0.7
			c-1,0-1.8,0-2.4,0.1s-1,0.3-1.2,0.5s-0.4,0.5-0.4,1c0,0.5,0.2,1,0.5,1.3S799.5,227.2,800.2,227.2z"/>
		<path class="st0" d="M811,228.7c-1.1,0-1.9-0.3-2.5-0.9s-0.8-1.6-0.8-2.8v-10.4c0-0.7,0.3-1.1,1-1.1c0.7,0,1.1,0.4,1.1,1.1v10.2
			c0,1.4,0.6,2.1,1.7,2.1c0.1,0,0.2,0,0.3,0s0.2,0,0.3,0c0.2,0,0.3,0,0.4,0.1c0.1,0.1,0.1,0.3,0.1,0.6c0,0.6-0.3,0.9-0.8,1
			c-0.1,0-0.3,0-0.4,0C811.3,228.7,811.2,228.7,811,228.7z"/>
		<path class="st0" d="M819.9,228.7c-0.4,0-0.7-0.1-0.9-0.4c-0.2-0.3-0.2-0.6,0-1l5.7-12.8c0.1-0.3,0.3-0.6,0.5-0.7
			c0.2-0.1,0.5-0.2,0.7-0.2c0.3,0,0.5,0.1,0.7,0.2c0.2,0.1,0.4,0.4,0.5,0.7l5.7,12.8c0.2,0.4,0.2,0.7,0.1,1
			c-0.1,0.3-0.4,0.4-0.8,0.4c-0.3,0-0.6-0.1-0.7-0.2s-0.3-0.4-0.5-0.7l-1.2-2.8h-7.5l-1.2,2.8c-0.1,0.3-0.3,0.6-0.5,0.7
			C820.4,228.6,820.1,228.7,819.9,228.7z M825.9,216.1l-3,7h6L825.9,216.1L825.9,216.1z"/>
		<path class="st0" d="M836.2,228.7c-0.7,0-1.1-0.4-1.1-1.1v-8.4c0-0.7,0.3-1.1,1-1.1c0.7,0,1,0.4,1,1.1v0.9
			c0.3-0.6,0.7-1.1,1.3-1.4c0.6-0.3,1.3-0.5,2.1-0.6c0.5,0,0.8,0.2,0.8,0.8c0.1,0.6-0.2,1-0.9,1l-0.4,0c-1.9,0.2-2.8,1.1-2.8,2.9
			v4.8C837.3,228.3,837,228.7,836.2,228.7z"/>
		<path class="st0" d="M847.9,228.7c-1.3,0-2.2-0.3-2.9-1c-0.6-0.7-0.9-1.6-0.9-2.9v-5h-1.3c-0.6,0-0.9-0.3-0.9-0.8s0.3-0.8,0.9-0.8
			h1.3v-2.2c0-0.7,0.4-1.1,1.1-1.1c0.7,0,1,0.4,1,1.1v2.2h2.5c0.6,0,0.9,0.3,0.9,0.8s-0.3,0.8-0.9,0.8h-2.5v4.8
			c0,0.7,0.2,1.3,0.5,1.7c0.3,0.4,0.8,0.6,1.5,0.6c0.3,0,0.5,0,0.7-0.1c0.2,0,0.3-0.1,0.5-0.1c0.2,0,0.3,0.1,0.4,0.2
			c0.1,0.1,0.1,0.3,0.1,0.6c0,0.2,0,0.4-0.1,0.6c-0.1,0.2-0.2,0.3-0.4,0.3c-0.2,0.1-0.4,0.1-0.7,0.2
			C848.4,228.7,848.2,228.7,847.9,228.7z"/>
		<path class="st0" d="M852.5,216c-0.4,0-0.7-0.1-1-0.3c-0.2-0.2-0.3-0.5-0.3-0.9c0-0.8,0.4-1.2,1.3-1.2s1.3,0.4,1.3,1.2
			C853.8,215.6,853.4,216,852.5,216z M852.5,228.6c-0.7,0-1-0.4-1-1.2v-8.2c0-0.8,0.3-1.1,1-1.1c0.7,0,1.1,0.4,1.1,1.1v8.2
			C853.5,228.3,853.2,228.6,852.5,228.6z"/>
		<path class="st0" d="M860.1,228.7c-0.6,0-1.3-0.1-1.9-0.2c-0.7-0.1-1.3-0.4-1.8-0.7c-0.2-0.1-0.4-0.3-0.4-0.5
			c-0.1-0.2,0-0.4,0-0.6s0.2-0.3,0.4-0.4s0.4-0.1,0.6,0.1c0.5,0.3,1.1,0.5,1.6,0.6s1,0.2,1.5,0.2c0.7,0,1.3-0.1,1.7-0.4
			c0.4-0.3,0.6-0.6,0.6-1.1c0-0.4-0.1-0.6-0.4-0.8s-0.6-0.4-1.1-0.5l-2-0.4c-1.8-0.4-2.6-1.3-2.6-2.7c0-1,0.4-1.7,1.2-2.3
			c0.8-0.6,1.8-0.9,3-0.9c1.3,0,2.3,0.3,3.3,0.9c0.2,0.1,0.4,0.3,0.4,0.5s0,0.4-0.1,0.6c-0.1,0.2-0.2,0.3-0.4,0.4
			c-0.2,0.1-0.4,0-0.7-0.1c-0.4-0.3-0.8-0.4-1.3-0.6s-0.8-0.2-1.2-0.2c-0.7,0-1.3,0.1-1.7,0.4c-0.4,0.3-0.6,0.6-0.6,1.1
			c0,0.7,0.5,1.1,1.4,1.3l2,0.4c0.9,0.2,1.6,0.5,2.1,0.9c0.5,0.4,0.7,1,0.7,1.8c0,1-0.4,1.7-1.2,2.3
			C862.4,228.4,861.4,228.7,860.1,228.7z"/>
		<path class="st0" d="M871,228.7c-1.3,0-2.2-0.3-2.9-1c-0.6-0.7-0.9-1.6-0.9-2.9v-5h-1.3c-0.6,0-0.9-0.3-0.9-0.8s0.3-0.8,0.9-0.8
			h1.3v-2.2c0-0.7,0.4-1.1,1.1-1.1c0.7,0,1,0.4,1,1.1v2.2h2.5c0.6,0,0.9,0.3,0.9,0.8s-0.3,0.8-0.9,0.8h-2.5v4.8
			c0,0.7,0.2,1.3,0.5,1.7c0.3,0.4,0.8,0.6,1.5,0.6c0.3,0,0.5,0,0.7-0.1c0.2,0,0.3-0.1,0.5-0.1c0.2,0,0.3,0.1,0.4,0.2
			c0.1,0.1,0.1,0.3,0.1,0.6c0,0.2,0,0.4-0.1,0.6c-0.1,0.2-0.2,0.3-0.4,0.3c-0.2,0.1-0.4,0.1-0.7,0.2
			C871.4,228.7,871.2,228.7,871,228.7z"/>
	</g>
	<path class="st2" d="M483.6,258.8h237.6c5.4,0,9.8,4.4,9.8,9.8v36.5c0,5.4-4.4,9.8-9.8,9.8H483.6c-5.4,0-9.8-4.4-9.8-9.8v-36.5
		C473.8,263.2,478.2,258.8,483.6,258.8z"/>
	<g>
		<path class="st0" d="M569.6,308.4h-34.3c-2.5,0-4.5-2-4.5-4.5v-34.3c0-2.5,2-4.5,4.5-4.5h34.3c2.5,0,4.5,2,4.5,4.5v34.3
			C574.1,306.4,572.1,308.4,569.6,308.4z"/>
		<linearGradient id="SVGID_1_" gradientUnits="userSpaceOnUse" x1="622.4293" y1="307.4487" x2="582.5272" y2="266.1288">
			<stop  offset="5.586592e-03" style="stop-color:#FF2222"/>
			<stop  offset="1" style="stop-color:#FF4949"/>
		</linearGradient>
		<path class="st3" d="M619.6,308.4h-34.3c-2.5,0-4.5-2-4.5-4.5v-34.3c0-2.5,2-4.5,4.5-4.5h34.3c2.5,0,4.5,2,4.5,4.5v34.3
			C624.1,306.4,622.1,308.4,619.6,308.4z"/>
		<path class="st1" d="M519.5,308.4h-34.3c-2.5,0-4.5-2-4.5-4.5v-34.3c0-2.5,2-4.5,4.5-4.5h34.3c2.5,0,4.5,2,4.5,4.5v34.3
			C524,306.4,522,308.4,519.5,308.4z"/>
		<path class="st4" d="M719.5,308.4h-34.3c-2.5,0-4.5-2-4.5-4.5v-34.3c0-2.5,2-4.5,4.5-4.5h34.3c2.5,0,4.5,2,4.5,4.5v34.3
			C724,306.4,722,308.4,719.5,308.4z"/>
		<path class="st5" d="M669.5,308.4h-34.3c-2.5,0-4.5-2-4.5-4.5v-34.3c0-2.5,2-4.5,4.5-4.5h34.3c2.5,0,4.5,2,4.5,4.5v34.3
			C674,306.4,672,308.4,669.5,308.4z"/>
	</g>
	<g>
		<path class="st0" d="M407,85.1h21.7v6.2c0,8.7,4,16.7,11.8,24.2l15,14.2c4.7,4.8,7.1,10.6,7.1,17.4c0,6.9-2.4,12.7-7.3,17.6
			s-10.7,7.3-17.6,7.3h-33.9v-21.7h33.9c0.9,0,1.6-0.3,2.2-0.9s0.9-1.3,0.9-2.2c0-0.8-0.3-1.5-0.8-2.1l-11.4-10.9
			c-14.5-13.3-21.7-27.5-21.7-42.8V85.1L407,85.1z"/>
		<path class="st0" d="M524.5,85.1v21.7h-59V85L524.5,85.1L524.5,85.1z M487.2,150.2h37.3v21.7h-59v-55.8h59v21.7h-37.3V150.2z"/>
		<path class="st0" d="M592.7,85.1v21.7h-59V85L592.7,85.1L592.7,85.1z M555.4,150.2h37.3v21.7h-59v-55.8h59v21.7h-37.3V150.2z"/>
		<path class="st0" d="M660.9,150.2v21.7h-59V85.1h21.7v65.1H660.9z"/>
		<path class="st0" d="M711.1,150.2l-16.3-65.1h21.7l24.8,86.8h-77.5l14.9-55.8h22.8l-7.8,34.1H711.1z"/>
		<path class="st0" d="M734,109.9V85.1h21.7v24.8c0,2.6,0.9,4.8,2.7,6.6c1.8,1.8,4,2.7,6.6,2.7s4.7-0.9,6.6-2.7
			c1.8-1.8,2.7-4,2.7-6.6V85.1h21.7v24.8c0,8.5-3.1,15.9-9.1,21.9c-6,6-13.4,9.1-21.9,9.1s-15.9-3.1-21.9-9.1
			C737.1,125.7,734,118.4,734,109.9z M743.3,150.2h43.4v21.7h-43.4V150.2z"/>
	</g>
</g>
</svg>
