<?xml version="1.0" encoding="utf-8"?>
<!-- Generator: Adobe Illustrator 25.0.0, SVG Export Plug-In . SVG Version: 6.00 Build 0)  -->
<svg version="1.1" id="Layer_1" xmlns="http://www.w3.org/2000/svg" xmlns:xlink="http://www.w3.org/1999/xlink" x="0px" y="0px"
	 viewBox="0 0 1500 500" style="enable-background:new 0 0 1500 500;" xml:space="preserve">
<style type="text/css">
	.st0{clip-path:url(#SVGID_2_);}
	.st1{fill:#0D1117;}
	.st2{fill:#FF2222;}
	.st3{fill:#FF4848;}
</style>
<g>
	<g>
		<defs>
			<rect id="SVGID_1_" width="1500" height="500"/>
		</defs>
		<clipPath id="SVGID_2_">
			<use xlink:href="#SVGID_1_"  style="overflow:visible;"/>
		</clipPath>
		<g class="st0">
			<rect class="st1" width="1500" height="500"/>
			<g>
				<path class="st2" d="M470.2,186.8h31.3v8.9c0,12.5,5.7,24.1,17,34.8l21.6,20.5c6.8,6.9,10.3,15.3,10.3,25.1
					c0,9.9-3.5,18.3-10.5,25.3s-15.4,10.5-25.3,10.5h-48.9v-31.3h48.9c1.3,0,2.3-0.4,3.2-1.3s1.3-1.9,1.3-3.2c0-1.2-0.4-2.2-1.2-3
					l-16.4-15.7c-20.9-19.1-31.3-39.6-31.3-61.7L470.2,186.8L470.2,186.8z"/>
				<path class="st2" d="M639.4,186.8V218h-85v-31.3h85V186.8z M585.7,280.6h53.7v31.3h-85v-80.4h85v31.3h-53.7V280.6z"/>
				<path class="st2" d="M737.7,186.8V218h-85v-31.3h85V186.8z M684,280.6h53.7v31.3h-85v-80.4h85v31.3H684V280.6z"/>
				<path class="st2" d="M836,280.6v31.3h-85V186.8h31.3v93.8H836z"/>
				<path class="st2" d="M908.2,280.6l-23.5-93.8H916l35.7,125.1H840l21.4-80.4h32.9L883,280.6H908.2z"/>
				<path class="st2" d="M941.3,222.5v-35.7h31.3v35.7c0,3.7,1.3,6.9,3.9,9.5c2.6,2.6,5.8,3.9,9.5,3.9s6.8-1.3,9.5-3.9
					c2.6-2.6,3.9-5.8,3.9-9.5v-35.7h31.3v35.7c0,12.3-4.4,22.9-13.1,31.6c-8.7,8.7-19.3,13.1-31.6,13.1s-22.9-4.4-31.6-13.1
					C945.7,245.4,941.3,234.8,941.3,222.5z M954.7,280.6h62.5v31.3h-62.5V280.6z"/>
			</g>
			<g>
				<path class="st3" d="M284.2,361c9.7,0,17.6,7.9,17.6,17.6s-8.9,17.6-18.5,17.6c-6.7,0-12.6,0-12.6,0V361H284.2z M276.7,367v23.1
					h6.6c3.2,0,6.4-1.3,8.8-3.6c1.2-1.1,2.1-2.3,2.8-3.8c0.6-1.3,1-2.8,1-4.2c0-3.1-1.1-6-3.4-8.2s-5.1-3.4-8.2-3.4h-7.6V367z"/>
				<path class="st3" d="M329.8,367.2h-17.5v7.8h14.4v6h-14.4v9h17.5v6h-23.5v-34.9h23.5V367.2z"/>
				<path class="st3" d="M337.9,395c-1.9-0.8-3.8-1.8-5.6-3.3l3.9-4.6c2.7,2.2,5.4,3.2,9,3.2c2.2,0,4.2-0.5,5.6-1.4
					c1.3-0.8,1.9-1.9,1.9-3.3c0-1-0.5-1.9-1.5-2.6c-0.9-0.8-2.7-1.7-6-2c-4.3-0.4-7.4-1.5-9.4-3.5c-1.6-1.7-2.5-3.8-2.5-6.4
					c0-0.2,0-0.3,0-0.5c0.1-2.5,1.5-5,3.6-6.8c1.7-1.3,4.6-3,9.1-3c3.1,0,6.2,0.8,8.9,2.2c2.1,1.1,3.3,2.2,3.4,2.4l-4.1,4.3
					c0,0-0.8-0.8-2.3-1.5c-1.9-0.9-3.8-1.4-5.9-1.4c-1.5,0-3.6,0.3-5.2,1.6c-1,0.9-1.4,1.8-1.5,2.4c0,0.1,0,0.1,0,0.2
					c0,1.2,0.4,1.7,0.7,2.1c0.6,0.7,2.1,1.5,5.6,1.8c3.8,0.3,6.9,1.5,9.2,3.2c2.4,1.9,3.8,4.5,3.8,7.4c0,3.5-1.6,6.5-4.6,8.3
					c-2.4,1.5-5.5,2.4-8.8,2.4C342.4,396.3,340.1,395.9,337.9,395z"/>
				<path class="st3" d="M362.9,396.1v-35h6v35H362.9z"/>
				<path class="st3" d="M389.4,381.1v-6h13.2v6v11c-3.1,2.6-7.1,4.2-11.5,4.2c-9.8,0-17.7-7.9-17.7-17.7c0-9.8,8-17.7,17.7-17.7
					c4.4,0,8.4,1.6,11.5,4.2l-4.1,4.4c-0.7-0.5-1.4-1-2.2-1.4c-1.6-0.8-3.5-1.2-5.3-1.2c-3.1,0-6,1.2-8.3,3.5s-3.5,5.2-3.5,8.3
					c0,3.2,1.2,6,3.5,8.3c2.2,2.2,5.2,3.4,8.3,3.4c1.4,0,2.8-0.2,4.1-0.7c0.4-0.1,0.9-0.4,1.3-0.6v-7.9L389.4,381.1L389.4,381.1z"/>
				<path class="st3" d="M406.9,396.1V361l21,20.6V361h6v35.1l-21-20.8V396L406.9,396.1L406.9,396.1z"/>
				<path class="st3" d="M462.7,367.2h-17.5v7.8h14.4v6h-14.4v9h17.5v6h-23.5v-34.9h23.5V367.2z"/>
				<path class="st3" d="M472.3,396h-6v-35h6h9.5c5.6,0,10,4.5,10,10c0,4.8-3.4,8.8-7.8,9.8l7.8,15.2H485l-7.7-15h-5V396z
					 M472.3,367.1v8h9.5c1,0,2.1-0.4,2.9-1.2c0.8-0.8,1.1-1.8,1.1-2.9c0-1-0.4-2-1.1-2.8c-0.8-0.8-1.8-1.2-2.9-1.2h-9.5V367.1z"/>
				<path class="st3" d="M513,383c-0.1-3,2.4-5.2,5.2-5.2c2.9,0,5.3,2.3,5.3,5.2c0,3-2.3,5.2-5.3,5.2C515.4,388.2,513,386,513,383z"
					/>
				<path class="st3" d="M558.3,361c9.7,0,17.6,7.9,17.6,17.6s-8.9,17.6-18.5,17.6c-6.7,0-12.6,0-12.6,0V361H558.3z M550.8,367v23.1
					h6.6c3.2,0,6.4-1.3,8.8-3.6c1.2-1.1,2.1-2.3,2.8-3.8c0.6-1.3,1-2.8,1-4.2c0-3.1-1.1-6-3.4-8.2s-5.1-3.4-8.2-3.4h-7.6V367z"/>
				<path class="st3" d="M603.9,367.2h-17.5v7.8h14.4v6h-14.4v9h17.5v6h-23.5v-34.9h23.5V367.2z"/>
				<path class="st3" d="M631,361.1h6.6l-15.8,35.4L606,361.1h6.6l9.2,20.7L631,361.1z"/>
				<path class="st3" d="M664.8,367.2h-17.5v7.8h14.4v6h-14.4v9h17.5v6h-23.5v-34.9h23.5V367.2z"/>
				<path class="st3" d="M668.4,396v-34.9h6V390h17.5v6H668.4z"/>
				<path class="st3" d="M725.8,378.6c0,9.8-7.9,17.7-17.7,17.7s-17.7-8-17.7-17.7c0-9.8,8-17.7,17.7-17.7
					C717.9,360.9,725.8,368.8,725.8,378.6z M699.8,370.3c-2.3,2.2-3.5,5.2-3.5,8.3c0,3.1,1.2,6,3.5,8.2c2.2,2.3,5.1,3.5,8.2,3.5
					c3.2,0,6.1-1.2,8.3-3.5c2.2-2.2,3.4-5.1,3.4-8.2c0-3.2-1.2-6.1-3.4-8.3s-5.2-3.4-8.3-3.4C705,366.9,702,368.1,699.8,370.3z"/>
				<path class="st3" d="M745.8,361.1c5.6,0,10,4.5,10,10s-4.5,10-10,10h-9.5v15h-6v-15v-20h6H745.8z M749.8,371.1
					c0-1-0.4-2-1.1-2.8c-0.8-0.8-1.8-1.2-2.9-1.2h-9.5v8h9.5c1,0,2.1-0.4,2.9-1.2C749.4,373.1,749.8,372.1,749.8,371.1z"/>
				<path class="st3" d="M782.7,367.2h-17.5v7.8h14.4v6h-14.4v9h17.5v6h-23.5v-34.9h23.5V367.2z"/>
				<path class="st3" d="M792.3,396h-6v-35h6h9.5c5.6,0,10,4.5,10,10c0,4.8-3.4,8.8-7.8,9.8l7.8,15.2H805l-7.7-15h-5V396z
					 M792.3,367.1v8h9.5c1,0,2.1-0.4,2.9-1.2c0.8-0.8,1.1-1.8,1.1-2.9c0-1-0.4-2-1.1-2.8c-0.8-0.8-1.8-1.2-2.9-1.2h-9.5V367.1z"/>
				<path class="st3" d="M833,383c0-3,2.4-5.2,5.3-5.2c2.9,0,5.2,2.3,5.2,5.2c0,3-2.3,5.2-5.2,5.2C835.4,388.2,833,386,833,383z"/>
				<path class="st3" d="M878.3,361c9.7,0,17.6,7.9,17.6,17.6s-8.9,17.6-18.5,17.6c-6.7,0-12.6,0-12.6,0V361H878.3z M870.8,367v23.1
					h6.5c3.2,0,6.4-1.3,8.8-3.6c1.2-1.1,2.1-2.3,2.8-3.8c0.7-1.3,1-2.8,1-4.2c0-3.1-1.2-6-3.4-8.2s-5.1-3.4-8.2-3.4h-7.5V367z"/>
				<path class="st3" d="M900.4,396.1v-35h6v35H900.4z"/>
				<path class="st3" d="M926.9,381.1v-6h13.2v6v11c-3.1,2.6-7.1,4.2-11.5,4.2c-9.8,0-17.7-7.9-17.7-17.7c0-9.8,8-17.7,17.7-17.7
					c4.4,0,8.4,1.6,11.5,4.2l-4.1,4.4c-0.7-0.5-1.4-1-2.1-1.4c-1.7-0.8-3.5-1.2-5.3-1.2c-3.1,0-6,1.2-8.2,3.5
					c-2.3,2.2-3.5,5.2-3.5,8.3c0,3.2,1.2,6,3.5,8.3c2.2,2.2,5.1,3.4,8.2,3.4c1.4,0,2.8-0.2,4.1-0.7c0.5-0.1,0.9-0.4,1.3-0.6v-7.9
					L926.9,381.1L926.9,381.1z"/>
				<path class="st3" d="M944.6,396.1v-35h6v35H944.6z"/>
				<path class="st3" d="M983,361.1v6h-11.5v29h-6v-29H954v-6h11.5h6H983z"/>
				<path class="st3" d="M982.1,396.1h-6.8l18.4-35.2l18.4,35.2h-6.8l-3.6-7h-16L982.1,396.1z M993.7,373.9l-4.8,9.2h9.7
					L993.7,373.9z"/>
				<path class="st3" d="M1015.5,396v-34.9h6V390h17.5v6H1015.5z"/>
				<path class="st3" d="M1068.3,396.1h-6.8l18.4-35.2l18.4,35.2h-6.8l-3.6-7h-16L1068.3,396.1z M1079.9,373.9l-4.8,9.2h9.7
					L1079.9,373.9z"/>
				<path class="st3" d="M1107.7,396h-6v-35h6h9.5c5.5,0,10,4.5,10,10c0,4.8-3.4,8.8-7.8,9.8l7.8,15.2h-6.8l-7.7-15h-5V396z
					 M1107.7,367.1v8h9.5c1,0,2.1-0.4,2.9-1.2c0.8-0.8,1.1-1.8,1.1-2.9c0-1-0.4-2-1.1-2.8c-0.8-0.8-1.8-1.2-2.9-1.2h-9.5V367.1z"/>
				<path class="st3" d="M1158.4,361.1v6h-11.5v29h-6v-29h-11.5v-6h11.5h6H1158.4z"/>
				<path class="st3" d="M1161.7,396.1v-35h6v35H1161.7z"/>
				<path class="st3" d="M1177.5,395c-2-0.8-3.8-1.8-5.6-3.3l3.9-4.6c2.7,2.2,5.4,3.2,9,3.2c2.2,0,4.2-0.5,5.6-1.4
					c1.2-0.8,1.8-1.9,1.8-3.3c0-1-0.5-1.9-1.5-2.6c-0.9-0.8-2.7-1.7-6-2c-4.3-0.4-7.4-1.5-9.4-3.5c-1.7-1.7-2.5-3.8-2.5-6.4
					c0-0.2,0-0.3,0-0.5c0.1-2.5,1.5-5,3.6-6.8c1.6-1.3,4.5-3,9-3c3.1,0,6.2,0.8,8.9,2.2c2.1,1.1,3.3,2.2,3.4,2.4l-4.2,4.3
					c0,0-0.8-0.8-2.2-1.5c-1.8-0.9-3.8-1.4-5.9-1.4c-1.5,0-3.6,0.3-5.2,1.6c-1,0.9-1.4,1.8-1.5,2.4c0,0.1,0,0.1,0,0.2
					c0,1.2,0.4,1.7,0.7,2.1c0.7,0.7,2.2,1.5,5.7,1.8c3.8,0.3,6.9,1.5,9.2,3.2c2.4,1.9,3.8,4.5,3.8,7.4c0,3.5-1.7,6.5-4.6,8.3
					c-2.4,1.5-5.5,2.4-8.8,2.4C1182,396.3,1179.7,395.9,1177.5,395z"/>
				<path class="st3" d="M1229.3,361.1v6h-11.5v29h-6v-29h-11.5v-6h11.5h6H1229.3z"/>
			</g>
			<circle class="st2" cx="36" cy="475" r="75"/>
			<circle class="st2" cx="1464" cy="26" r="75"/>
		</g>
	</g>
</g>
</svg>
