<?xml version="1.0" encoding="utf-8"?>
<!-- Generator: Adobe Illustrator 26.2.1, SVG Export Plug-In . SVG Version: 6.00 Build 0)  -->
<svg version="1.1" id="Layer_1" xmlns="http://www.w3.org/2000/svg" xmlns:xlink="http://www.w3.org/1999/xlink" x="0px" y="0px"
	 viewBox="0 0 1200 630" style="enable-background:new 0 0 1200 630;" xml:space="preserve">
<style type="text/css">
	.st0{display:none;fill:#F8F8F8;}
	.st1{fill:#FF2222;}
	.st2{fill:#FF4949;}
	.st3{fill:#232323;}
	.st4{fill:url(#SVGID_1_);}
	.st5{fill:#303030;}
	.st6{fill:#F8F8F8;}
</style>
<rect class="st0" width="1200" height="630"/>
<g>
	<path class="st1" d="M0.1,288c2.2,0,3,1.9,4.2,3.2c69.8,69.7,139.6,139.5,209.4,209.3c8.3,8.3,8.4,16.4,0.2,24.7
		c-6.8,6.9-13.5,13.8-20.2,20.7c-27.4,27.2-54.8,54.3-82.3,81.5c-0.7,0.7-1.4,1.4-1.3,2.5c-35.3,0-70.7-0.1-106,0.1
		c-3.4,0-4.1-0.7-4.1-4.1C0.1,513.2,0.1,400.6,0.1,288z"/>
	<path class="st1" d="M1199.9,348c-2.1-0.1-3-1.9-4.2-3.2c-66.5-66.4-132.9-132.8-199.3-199.3c-8.4-8.4-8.3-16.5,0.1-25.1
		c2.7-2.7,5.9-4.9,7.8-8.4c6-5.7,12.2-11.3,18-17.1c30.3-30.1,60.4-60.3,90.6-90.6c1.2-1.2,3.1-2.2,3.1-4.3c26.7,0,53.3,0.1,80-0.1
		c3.4,0,4.1,0.7,4.1,4.1C1199.9,118.7,1199.9,233.3,1199.9,348z"/>
</g>
<g>
	<path class="st2" d="M1115.9,0.1c0,2.1-1.8,3.1-3.1,4.3c-30.2,30.2-60.4,60.4-90.6,90.6c-5.9,5.8-12,11.4-18,17.1
		c-2.1,0.1-3.2-1.6-4.5-2.8c-4.7-4.7-9.5-9.4-14.1-14.1c-7.3-7.4-7.3-16.8,0.1-24.2c22.2-22.3,44.5-44.5,66.7-66.7
		c1.3-1.3,2.4-2.7,3.6-4.1C1075.9,0.1,1095.9,0.1,1115.9,0.1z"/>
	<path class="st2" d="M110.1,629.9c-0.1-1.1,0.6-1.9,1.3-2.5c27.4-27.2,54.8-54.3,82.3-81.5c8.4,6.8,16,14.5,23,22.7
		c5.4,6.4,4.1,15-2,21.2c-12,12-24,24-36,36c-1.3,1.3-2.4,2.7-3.6,4.1C153.4,629.9,131.7,629.9,110.1,629.9z"/>
</g>
<g>
	<g id="svg_3">
		<path id="svg_1" class="st1" d="M567.1,99.7h25.8v7.4c0.4,11.1,5.5,21.6,14,28.8l17.9,16.9c11.4,11.5,11.4,30.1,0,41.6
			c-5.5,5.7-13,8.8-20.9,8.7h-40.5v-25.8h40.3c1,0,1.9-0.4,2.6-1.1c1.3-1.5,1.3-3.7,0-5.1l-13.6-13.1C575.6,142,567,125.1,567,106.9
			L567.1,99.7L567.1,99.7L567.1,99.7L567.1,99.7L567.1,99.7z"/>
		<path id="svg_2" class="st1" d="M612.6,112.2c0-6.9,5.4-12.5,12-12.5c6.6,0,12,5.6,12,12.5c0,6.9-5.4,12.5-12,12.5
			S612.6,119.1,612.6,112.2z"/>
	</g>
</g>
<g>
	<path class="st1" d="M338,393c-1.5,0-2.8-0.3-3.8-0.9c-1.1-0.6-1.9-1.5-2.4-2.6c-0.6-1.1-0.9-2.5-0.9-4s0.3-2.9,0.9-4
		c0.6-1.1,1.4-2,2.4-2.6c1.1-0.6,2.3-0.9,3.8-0.9c0.8,0,1.6,0.1,2.4,0.3c0.8,0.2,1.4,0.5,2,1c0.3,0.2,0.5,0.4,0.5,0.7
		c0,0.3,0,0.5-0.1,0.7c-0.1,0.2-0.3,0.4-0.6,0.4c-0.3,0.1-0.5,0-0.8-0.2c-0.5-0.3-1-0.6-1.5-0.8s-1.1-0.3-1.8-0.3
		c-1.6,0-2.8,0.5-3.7,1.5c-0.8,1-1.3,2.4-1.3,4.2s0.4,3.2,1.3,4.2c0.8,1,2.1,1.5,3.7,1.5c0.6,0,1.2-0.1,1.8-0.3
		c0.6-0.2,1.1-0.4,1.6-0.8c0.3-0.2,0.6-0.3,0.8-0.2c0.2,0.1,0.4,0.2,0.5,0.4s0.2,0.4,0.1,0.7c0,0.3-0.2,0.5-0.4,0.7
		c-0.6,0.5-1.3,0.8-2,1C339.7,392.9,338.9,393,338,393z"/>
	<path class="st1" d="M346.4,393c-0.7,0-1.1-0.4-1.1-1.1v-8.4c0-0.7,0.3-1.1,1-1.1c0.7,0,1,0.4,1,1.1v0.9c0.3-0.6,0.7-1.1,1.3-1.4
		c0.6-0.3,1.3-0.5,2.1-0.6c0.5,0,0.8,0.2,0.8,0.8c0.1,0.6-0.2,1-0.9,1l-0.4,0c-1.9,0.2-2.8,1.1-2.8,2.9v4.8
		C347.5,392.6,347.1,393,346.4,393z"/>
	<path class="st1" d="M357.8,393c-1.7,0-3-0.5-4-1.4s-1.4-2.2-1.4-3.9c0-1.1,0.2-2,0.6-2.8c0.4-0.8,1-1.4,1.8-1.9
		c0.8-0.4,1.6-0.7,2.6-0.7c1.4,0,2.5,0.5,3.3,1.4c0.8,0.9,1.2,2.1,1.2,3.7c0,0.5-0.3,0.7-0.8,0.7h-6.7c0.2,2.1,1.3,3.2,3.4,3.2
		c0.4,0,0.9-0.1,1.3-0.2c0.5-0.1,0.9-0.3,1.3-0.6c0.3-0.2,0.5-0.2,0.8-0.2c0.2,0,0.4,0.2,0.5,0.4c0.1,0.2,0.1,0.4,0.1,0.6
		c-0.1,0.2-0.2,0.4-0.5,0.6c-0.5,0.3-1,0.6-1.7,0.7C359,392.9,358.4,393,357.8,393z M357.5,383.9c-0.9,0-1.6,0.3-2.1,0.8
		s-0.8,1.3-0.9,2.2h5.7c0-1-0.3-1.7-0.8-2.2C359,384.2,358.4,383.9,357.5,383.9z"/>
	<path class="st1" d="M367.6,393c-0.7,0-1.4-0.1-1.9-0.4c-0.6-0.3-1-0.7-1.3-1.1c-0.3-0.5-0.5-1-0.5-1.6c0-0.8,0.2-1.4,0.6-1.8
		c0.4-0.4,1-0.7,1.9-0.9c0.9-0.2,2.1-0.3,3.6-0.3h0.7v-0.5c0-0.8-0.2-1.4-0.5-1.7c-0.3-0.3-0.9-0.5-1.7-0.5c-0.4,0-0.9,0.1-1.4,0.2
		s-1,0.3-1.5,0.6c-0.3,0.1-0.5,0.2-0.7,0.1s-0.3-0.3-0.4-0.5c-0.1-0.2-0.1-0.4,0-0.7c0.1-0.2,0.3-0.4,0.5-0.5
		c0.6-0.3,1.2-0.5,1.8-0.6c0.6-0.1,1.2-0.2,1.7-0.2c1.4,0,2.4,0.3,3.1,1c0.7,0.7,1,1.7,1,3.1v5.4c0,0.7-0.3,1.1-1,1.1
		c-0.7,0-1-0.4-1-1.1v-0.8c-0.3,0.6-0.6,1-1.2,1.4C369,392.9,368.3,393,367.6,393z M368,391.5c0.8,0,1.4-0.3,1.9-0.8s0.8-1.2,0.8-2
		v-0.6H370c-1,0-1.8,0-2.4,0.1s-1,0.3-1.2,0.5c-0.2,0.2-0.4,0.5-0.4,1c0,0.5,0.2,1,0.5,1.3S367.4,391.5,368,391.5z"/>
	<path class="st1" d="M380,393c-1.3,0-2.2-0.3-2.9-1s-0.9-1.6-0.9-2.9v-5h-1.3c-0.6,0-0.9-0.3-0.9-0.8s0.3-0.8,0.9-0.8h1.3v-2.2
		c0-0.7,0.4-1.1,1.1-1.1c0.7,0,1.1,0.4,1.1,1.1v2.2h2.5c0.6,0,0.9,0.3,0.9,0.8s-0.3,0.8-0.9,0.8h-2.5v4.8c0,0.7,0.2,1.3,0.5,1.7
		s0.8,0.6,1.5,0.6c0.3,0,0.5,0,0.7-0.1c0.2,0,0.3-0.1,0.5-0.1c0.2,0,0.3,0.1,0.4,0.2c0.1,0.1,0.1,0.3,0.1,0.6c0,0.2,0,0.4-0.1,0.6
		c-0.1,0.2-0.2,0.3-0.4,0.3c-0.2,0.1-0.4,0.1-0.7,0.2C380.4,393,380.2,393,380,393z"/>
	<path class="st1" d="M384.5,380.3c-0.4,0-0.7-0.1-1-0.3s-0.3-0.5-0.3-0.9c0-0.8,0.4-1.2,1.3-1.2s1.3,0.4,1.3,1.2
		C385.8,379.9,385.4,380.3,384.5,380.3z M384.5,393c-0.7,0-1-0.4-1-1.2v-8.2c0-0.8,0.3-1.1,1-1.1c0.7,0,1.1,0.4,1.1,1.1v8.2
		C385.6,392.6,385.2,393,384.5,393z"/>
	<path class="st1" d="M392.5,393c-0.6,0-1-0.3-1.3-0.9l-3.5-8.1c-0.2-0.4-0.2-0.7,0-1c0.2-0.3,0.5-0.4,0.9-0.4
		c0.3,0,0.5,0.1,0.6,0.2s0.3,0.3,0.4,0.7l2.9,7.1l2.9-7.1c0.1-0.3,0.3-0.5,0.4-0.7c0.2-0.1,0.4-0.2,0.7-0.2c0.4,0,0.6,0.1,0.8,0.4
		c0.1,0.3,0.1,0.6,0,1l-3.5,8.2C393.5,392.7,393.1,393,392.5,393z"/>
	<path class="st1" d="M404.1,393c-1.7,0-3-0.5-4-1.4s-1.4-2.2-1.4-3.9c0-1.1,0.2-2,0.6-2.8c0.4-0.8,1-1.4,1.8-1.9
		c0.8-0.4,1.6-0.7,2.6-0.7c1.4,0,2.5,0.5,3.3,1.4c0.8,0.9,1.2,2.1,1.2,3.7c0,0.5-0.3,0.7-0.8,0.7h-6.7c0.2,2.1,1.3,3.2,3.4,3.2
		c0.4,0,0.9-0.1,1.3-0.2c0.5-0.1,0.9-0.3,1.3-0.6c0.3-0.2,0.5-0.2,0.8-0.2c0.2,0,0.4,0.2,0.5,0.4c0.1,0.2,0.1,0.4,0.1,0.6
		c-0.1,0.2-0.2,0.4-0.5,0.6c-0.5,0.3-1,0.6-1.7,0.7C405.3,392.9,404.7,393,404.1,393z M403.8,383.9c-0.9,0-1.6,0.3-2.1,0.8
		s-0.8,1.3-0.9,2.2h5.7c0-1-0.3-1.7-0.8-2.2C405.2,384.2,404.6,383.9,403.8,383.9z"/>
	<path class="st1" d="M417.5,392.8c-0.8,0-1.2-0.4-1.2-1.2v-12.5c0-0.8,0.4-1.2,1.2-1.2h4.1c2.4,0,4.3,0.6,5.6,1.9
		c1.3,1.3,2,3.1,2,5.5s-0.7,4.2-2,5.5c-1.3,1.3-3.2,1.9-5.6,1.9H417.5z M418.5,391h2.9c3.7,0,5.5-1.9,5.5-5.6c0-3.7-1.8-5.6-5.5-5.6
		h-2.9V391z"/>
	<path class="st1" d="M436.7,393c-1.7,0-3-0.5-4-1.4s-1.4-2.2-1.4-3.9c0-1.1,0.2-2,0.6-2.8c0.4-0.8,1-1.4,1.8-1.9
		c0.8-0.4,1.6-0.7,2.6-0.7c1.4,0,2.5,0.5,3.3,1.4c0.8,0.9,1.2,2.1,1.2,3.7c0,0.5-0.3,0.7-0.8,0.7h-6.7c0.2,2.1,1.3,3.2,3.4,3.2
		c0.4,0,0.9-0.1,1.3-0.2c0.5-0.1,0.9-0.3,1.3-0.6c0.3-0.2,0.5-0.2,0.8-0.2c0.2,0,0.4,0.2,0.5,0.4c0.1,0.2,0.1,0.4,0.1,0.6
		c-0.1,0.2-0.2,0.4-0.5,0.6c-0.5,0.3-1,0.6-1.7,0.7C437.9,392.9,437.3,393,436.7,393z M436.4,383.9c-0.9,0-1.6,0.3-2.1,0.8
		s-0.8,1.3-0.9,2.2h5.7c0-1-0.3-1.7-0.8-2.2C437.8,384.2,437.2,383.9,436.4,383.9z"/>
	<path class="st1" d="M446.7,393c-0.6,0-1.3-0.1-1.9-0.2c-0.7-0.1-1.3-0.4-1.8-0.7c-0.2-0.1-0.4-0.3-0.4-0.5s0-0.4,0-0.6
		s0.2-0.3,0.4-0.4s0.4-0.1,0.6,0.1c0.5,0.3,1.1,0.5,1.6,0.6c0.5,0.1,1,0.2,1.5,0.2c0.7,0,1.3-0.1,1.7-0.4c0.4-0.3,0.6-0.6,0.6-1.1
		c0-0.4-0.1-0.6-0.4-0.8s-0.6-0.4-1.1-0.5l-2-0.4c-1.8-0.4-2.6-1.3-2.6-2.7c0-1,0.4-1.7,1.2-2.3c0.8-0.6,1.8-0.9,3-0.9
		c1.3,0,2.3,0.3,3.3,0.9c0.2,0.1,0.4,0.3,0.4,0.5s0,0.4-0.1,0.6c-0.1,0.2-0.2,0.3-0.4,0.4c-0.2,0.1-0.4,0-0.7-0.1
		c-0.4-0.3-0.8-0.4-1.3-0.6c-0.4-0.1-0.8-0.2-1.2-0.2c-0.7,0-1.3,0.1-1.7,0.4c-0.4,0.3-0.6,0.6-0.6,1.1c0,0.7,0.5,1.1,1.4,1.3l2,0.4
		c0.9,0.2,1.6,0.5,2.1,0.9c0.5,0.4,0.7,1,0.7,1.8c0,1-0.4,1.7-1.2,2.3C449,392.8,448,393,446.7,393z"/>
	<path class="st1" d="M454.4,380.3c-0.4,0-0.7-0.1-1-0.3s-0.3-0.5-0.3-0.9c0-0.8,0.4-1.2,1.3-1.2s1.3,0.4,1.3,1.2
		C455.7,379.9,455.2,380.3,454.4,380.3z M454.4,393c-0.7,0-1-0.4-1-1.2v-8.2c0-0.8,0.3-1.1,1-1.1c0.7,0,1.1,0.4,1.1,1.1v8.2
		C455.4,392.6,455.1,393,454.4,393z"/>
	<path class="st1" d="M463.1,396.8c-0.8,0-1.5-0.1-2.2-0.2c-0.7-0.2-1.3-0.4-1.9-0.8c-0.3-0.1-0.4-0.3-0.5-0.5
		c-0.1-0.2,0-0.4,0.1-0.6s0.3-0.3,0.4-0.4c0.2-0.1,0.4-0.1,0.6,0.1c0.6,0.3,1.2,0.6,1.8,0.7s1.1,0.2,1.5,0.2c2,0,2.9-1,2.9-2.9v-1.6
		c-0.3,0.6-0.8,1.1-1.4,1.4c-0.6,0.4-1.3,0.5-2.1,0.5c-0.9,0-1.7-0.2-2.4-0.6c-0.7-0.4-1.2-1-1.6-1.8c-0.4-0.8-0.6-1.7-0.6-2.7
		c0-1,0.2-1.9,0.6-2.7c0.4-0.8,0.9-1.4,1.6-1.8c0.7-0.4,1.5-0.6,2.4-0.6c0.8,0,1.5,0.2,2.1,0.5c0.6,0.3,1.1,0.8,1.4,1.4v-0.8
		c0-0.7,0.4-1.1,1.1-1.1c0.7,0,1,0.4,1,1.1v8.5c0,1.6-0.4,2.8-1.2,3.6C465.8,396.4,464.6,396.8,463.1,396.8z M462.9,390.9
		c0.9,0,1.6-0.3,2.1-0.9c0.5-0.6,0.8-1.5,0.8-2.5c0-1.1-0.3-1.9-0.8-2.5c-0.5-0.6-1.2-0.9-2.1-0.9s-1.6,0.3-2.1,0.9
		c-0.5,0.6-0.8,1.4-0.8,2.5c0,1.1,0.3,1.9,0.8,2.5S462,390.9,462.9,390.9z"/>
	<path class="st1" d="M471.9,393c-0.7,0-1-0.4-1-1.1v-8.4c0-0.7,0.3-1.1,1-1.1c0.7,0,1,0.4,1,1.1v0.8c0.4-0.6,0.8-1.1,1.4-1.4
		c0.6-0.3,1.3-0.5,2-0.5c2.4,0,3.6,1.4,3.6,4.1v5.4c0,0.7-0.4,1.1-1,1.1c-0.7,0-1.1-0.4-1.1-1.1v-5.3c0-0.9-0.2-1.5-0.5-1.9
		c-0.3-0.4-0.9-0.6-1.6-0.6c-0.9,0-1.5,0.3-2,0.8c-0.5,0.5-0.8,1.2-0.8,2.1v4.9C473,392.6,472.6,393,471.9,393z"/>
	<path class="st1" d="M487.8,393c-1.7,0-3-0.5-4-1.4s-1.4-2.2-1.4-3.9c0-1.1,0.2-2,0.6-2.8c0.4-0.8,1-1.4,1.8-1.9
		c0.8-0.4,1.6-0.7,2.6-0.7c1.4,0,2.5,0.5,3.3,1.4c0.8,0.9,1.2,2.1,1.2,3.7c0,0.5-0.3,0.7-0.8,0.7h-6.7c0.2,2.1,1.3,3.2,3.4,3.2
		c0.4,0,0.9-0.1,1.3-0.2c0.5-0.1,0.9-0.3,1.3-0.6c0.3-0.2,0.5-0.2,0.8-0.2c0.2,0,0.4,0.2,0.5,0.4c0.1,0.2,0.1,0.4,0.1,0.6
		c-0.1,0.2-0.2,0.4-0.5,0.6c-0.5,0.3-1,0.6-1.7,0.7C489,392.9,488.4,393,487.8,393z M487.5,383.9c-0.9,0-1.6,0.3-2.1,0.8
		s-0.8,1.3-0.9,2.2h5.7c0-1-0.3-1.7-0.8-2.2C488.9,384.2,488.3,383.9,487.5,383.9z"/>
	<path class="st1" d="M495.3,393c-0.7,0-1.1-0.4-1.1-1.1v-8.4c0-0.7,0.3-1.1,1-1.1c0.7,0,1,0.4,1,1.1v0.9c0.3-0.6,0.7-1.1,1.3-1.4
		c0.6-0.3,1.3-0.5,2.1-0.6c0.5,0,0.8,0.2,0.8,0.8c0.1,0.6-0.2,1-0.9,1l-0.4,0c-1.9,0.2-2.8,1.1-2.8,2.9v4.8
		C496.4,392.6,496,393,495.3,393z"/>
	<path class="st1" d="M517.2,391c-0.7,0-1.3-0.2-1.9-0.5c-0.6-0.3-1-0.8-1.4-1.3c-0.4-0.6-0.5-1.2-0.5-1.9c0-0.6,0.2-1.2,0.5-1.8
		c0.3-0.6,0.8-1,1.4-1.4c0.6-0.4,1.2-0.5,2-0.5c0.7,0,1.3,0.2,1.9,0.5c0.6,0.3,1,0.8,1.4,1.3c0.4,0.6,0.5,1.2,0.5,1.9
		c0,0.7-0.2,1.3-0.5,1.9c-0.3,0.6-0.8,1-1.4,1.3C518.5,390.8,517.9,391,517.2,391z"/>
	<path class="st1" d="M531.1,393c-0.8,0-1.2-0.4-1.2-1.2v-12.6c0-0.8,0.4-1.2,1.2-1.2h7.5c0.6,0,0.9,0.3,0.9,0.9
		c0,0.6-0.3,0.9-0.9,0.9h-6.5v4.7h6c0.6,0,0.9,0.3,0.9,0.9c0,0.6-0.3,0.9-0.9,0.9h-6v5.5C532.1,392.6,531.8,393,531.1,393z"/>
	<path class="st1" d="M542.2,393c-0.7,0-1.1-0.4-1.1-1.1v-8.4c0-0.7,0.3-1.1,1-1.1c0.7,0,1,0.4,1,1.1v0.9c0.3-0.6,0.7-1.1,1.3-1.4
		c0.6-0.3,1.3-0.5,2.1-0.6c0.5,0,0.8,0.2,0.8,0.8c0.1,0.6-0.2,1-0.9,1l-0.4,0c-1.9,0.2-2.8,1.1-2.8,2.9v4.8
		C543.3,392.6,542.9,393,542.2,393z"/>
	<path class="st1" d="M553.3,393c-1,0-1.9-0.2-2.7-0.7s-1.3-1-1.8-1.8c-0.4-0.8-0.6-1.7-0.6-2.8s0.2-2,0.6-2.8
		c0.4-0.8,1-1.4,1.8-1.8c0.8-0.4,1.7-0.7,2.7-0.7c1,0,1.9,0.2,2.6,0.7c0.8,0.4,1.3,1,1.8,1.8c0.4,0.8,0.6,1.7,0.6,2.8
		s-0.2,2-0.6,2.8c-0.4,0.8-1,1.4-1.8,1.8S554.3,393,553.3,393z M553.3,391.4c0.9,0,1.6-0.3,2.1-0.9c0.5-0.6,0.8-1.5,0.8-2.7
		c0-1.2-0.3-2.1-0.8-2.7c-0.5-0.6-1.2-0.9-2.1-0.9c-0.9,0-1.6,0.3-2.1,0.9c-0.5,0.6-0.8,1.5-0.8,2.7c0,1.2,0.3,2.1,0.8,2.7
		C551.7,391.1,552.4,391.4,553.3,391.4z"/>
	<path class="st1" d="M561.8,393c-0.7,0-1-0.4-1-1.1v-8.4c0-0.7,0.3-1.1,1-1.1c0.7,0,1,0.4,1,1.1v0.8c0.3-0.6,0.8-1.1,1.4-1.4
		c0.6-0.3,1.3-0.5,2-0.5c2.4,0,3.6,1.4,3.6,4.1v5.4c0,0.7-0.3,1.1-1,1.1c-0.7,0-1.1-0.4-1.1-1.1v-5.3c0-0.9-0.2-1.5-0.5-1.9
		s-0.9-0.6-1.6-0.6c-0.9,0-1.5,0.3-2,0.8c-0.5,0.5-0.8,1.2-0.8,2.1v4.9C562.8,392.6,562.5,393,561.8,393z"/>
	<path class="st1" d="M577.2,393c-1.3,0-2.2-0.3-2.9-1c-0.6-0.7-0.9-1.6-0.9-2.9v-5h-1.3c-0.6,0-0.9-0.3-0.9-0.8s0.3-0.8,0.9-0.8
		h1.3v-2.2c0-0.7,0.4-1.1,1.1-1.1c0.7,0,1,0.4,1,1.1v2.2h2.5c0.6,0,0.9,0.3,0.9,0.8s-0.3,0.8-0.9,0.8h-2.5v4.8
		c0,0.7,0.2,1.3,0.5,1.7c0.3,0.4,0.8,0.6,1.5,0.6c0.3,0,0.5,0,0.7-0.1c0.2,0,0.3-0.1,0.5-0.1c0.2,0,0.3,0.1,0.4,0.2
		c0.1,0.1,0.1,0.3,0.1,0.6c0,0.2,0,0.4-0.1,0.6c-0.1,0.2-0.2,0.3-0.4,0.3c-0.2,0.1-0.4,0.1-0.7,0.2C577.6,393,577.4,393,577.2,393z"
		/>
	<path class="st1" d="M585.2,393c-1.7,0-3-0.5-4-1.4s-1.4-2.2-1.4-3.9c0-1.1,0.2-2,0.6-2.8c0.4-0.8,1-1.4,1.8-1.9s1.6-0.7,2.6-0.7
		c1.4,0,2.5,0.5,3.3,1.4c0.8,0.9,1.2,2.1,1.2,3.7c0,0.5-0.3,0.7-0.8,0.7h-6.7c0.2,2.1,1.3,3.2,3.4,3.2c0.4,0,0.9-0.1,1.3-0.2
		c0.5-0.1,0.9-0.3,1.3-0.6c0.3-0.2,0.5-0.2,0.8-0.2c0.2,0,0.4,0.2,0.5,0.4c0.1,0.2,0.1,0.4,0.1,0.6c-0.1,0.2-0.2,0.4-0.5,0.6
		c-0.5,0.3-1,0.6-1.7,0.7C586.3,392.9,585.7,393,585.2,393z M584.9,383.9c-0.9,0-1.6,0.3-2.1,0.8s-0.8,1.3-0.9,2.2h5.7
		c0-1-0.3-1.7-0.8-2.2C586.3,384.2,585.7,383.9,584.9,383.9z"/>
	<path class="st1" d="M592.7,393c-0.7,0-1-0.4-1-1.1v-8.4c0-0.7,0.3-1.1,1-1.1c0.7,0,1,0.4,1,1.1v0.8c0.3-0.6,0.8-1.1,1.4-1.4
		c0.6-0.3,1.3-0.5,2-0.5c2.4,0,3.6,1.4,3.6,4.1v5.4c0,0.7-0.3,1.1-1,1.1c-0.7,0-1.1-0.4-1.1-1.1v-5.3c0-0.9-0.2-1.5-0.5-1.9
		s-0.9-0.6-1.6-0.6c-0.9,0-1.5,0.3-2,0.8c-0.5,0.5-0.8,1.2-0.8,2.1v4.9C593.8,392.6,593.4,393,592.7,393z"/>
	<path class="st1" d="M607.6,393c-0.9,0-1.7-0.2-2.4-0.6c-0.7-0.4-1.2-1-1.6-1.8s-0.6-1.7-0.6-2.8s0.2-2,0.6-2.8s0.9-1.4,1.6-1.8
		c0.7-0.4,1.5-0.7,2.4-0.7c0.8,0,1.5,0.2,2.1,0.5c0.6,0.3,1,0.8,1.3,1.4V379c0-0.7,0.3-1.1,1-1.1c0.7,0,1.1,0.4,1.1,1.1v13
		c0,0.7-0.3,1.1-1,1.1s-1-0.4-1-1.1v-0.8c-0.3,0.6-0.8,1.1-1.4,1.4C609.1,392.9,608.4,393,607.6,393z M608.2,391.4
		c0.9,0,1.6-0.3,2.1-0.9c0.5-0.6,0.8-1.5,0.8-2.7c0-1.2-0.3-2.1-0.8-2.7c-0.5-0.6-1.2-0.9-2.1-0.9c-0.9,0-1.6,0.3-2.1,0.9
		c-0.5,0.6-0.8,1.5-0.8,2.7c0,1.2,0.3,2.1,0.8,2.7C606.6,391.1,607.3,391.4,608.2,391.4z"/>
	<path class="st1" d="M623.1,392.8c-0.8,0-1.2-0.4-1.2-1.2v-12.5c0-0.8,0.4-1.2,1.2-1.2h4.1c2.4,0,4.3,0.6,5.6,1.9
		c1.3,1.3,2,3.1,2,5.5s-0.7,4.2-2,5.5c-1.3,1.3-3.2,1.9-5.6,1.9H623.1z M624.1,391h2.9c3.7,0,5.5-1.9,5.5-5.6c0-3.7-1.8-5.6-5.5-5.6
		h-2.9V391z"/>
	<path class="st1" d="M642.3,393c-1.7,0-3-0.5-4-1.4s-1.4-2.2-1.4-3.9c0-1.1,0.2-2,0.6-2.8c0.4-0.8,1-1.4,1.8-1.9s1.6-0.7,2.6-0.7
		c1.4,0,2.5,0.5,3.3,1.4c0.8,0.9,1.2,2.1,1.2,3.7c0,0.5-0.3,0.7-0.8,0.7h-6.7c0.2,2.1,1.3,3.2,3.4,3.2c0.4,0,0.9-0.1,1.3-0.2
		c0.5-0.1,0.9-0.3,1.3-0.6c0.3-0.2,0.5-0.2,0.8-0.2c0.2,0,0.4,0.2,0.5,0.4c0.1,0.2,0.1,0.4,0.1,0.6c-0.1,0.2-0.2,0.4-0.5,0.6
		c-0.5,0.3-1,0.6-1.7,0.7C643.4,392.9,642.8,393,642.3,393z M641.9,383.9c-0.9,0-1.6,0.3-2.1,0.8s-0.8,1.3-0.9,2.2h5.7
		c0-1-0.3-1.7-0.8-2.2C643.4,384.2,642.8,383.9,641.9,383.9z"/>
	<path class="st1" d="M652.6,393c-0.6,0-1-0.3-1.3-0.9l-3.5-8.1c-0.2-0.4-0.2-0.7,0-1s0.5-0.4,0.9-0.4c0.3,0,0.5,0.1,0.6,0.2
		s0.3,0.3,0.4,0.7l2.9,7.1l2.9-7.1c0.1-0.3,0.3-0.5,0.4-0.7s0.4-0.2,0.7-0.2c0.4,0,0.6,0.1,0.8,0.4c0.1,0.3,0.1,0.6,0,1l-3.5,8.2
		C653.6,392.7,653.2,393,652.6,393z"/>
	<path class="st1" d="M664.1,393c-1.7,0-3-0.5-4-1.4s-1.4-2.2-1.4-3.9c0-1.1,0.2-2,0.6-2.8c0.4-0.8,1-1.4,1.8-1.9s1.6-0.7,2.6-0.7
		c1.4,0,2.5,0.5,3.3,1.4c0.8,0.9,1.2,2.1,1.2,3.7c0,0.5-0.3,0.7-0.8,0.7h-6.7c0.2,2.1,1.3,3.2,3.4,3.2c0.4,0,0.9-0.1,1.3-0.2
		c0.5-0.1,0.9-0.3,1.3-0.6c0.3-0.2,0.5-0.2,0.8-0.2c0.2,0,0.4,0.2,0.5,0.4c0.1,0.2,0.1,0.4,0.1,0.6c-0.1,0.2-0.2,0.4-0.5,0.6
		c-0.5,0.3-1,0.6-1.7,0.7C665.3,392.9,664.7,393,664.1,393z M663.8,383.9c-0.9,0-1.6,0.3-2.1,0.8s-0.8,1.3-0.9,2.2h5.7
		c0-1-0.3-1.7-0.8-2.2C665.3,384.2,664.6,383.9,663.8,383.9z"/>
	<path class="st1" d="M673.9,393c-1.1,0-1.9-0.3-2.5-0.9s-0.8-1.6-0.8-2.8V379c0-0.7,0.3-1.1,1-1.1c0.7,0,1.1,0.4,1.1,1.1v10.2
		c0,1.4,0.6,2.1,1.7,2.1c0.1,0,0.2,0,0.3,0s0.2,0,0.3,0c0.2,0,0.3,0,0.4,0.1c0.1,0.1,0.1,0.3,0.1,0.6c0,0.6-0.3,0.9-0.8,1
		c-0.1,0-0.3,0-0.4,0C674.1,393,674,393,673.9,393z"/>
	<path class="st1" d="M681.4,393c-1,0-1.9-0.2-2.7-0.7s-1.3-1-1.8-1.8c-0.4-0.8-0.6-1.7-0.6-2.8s0.2-2,0.6-2.8
		c0.4-0.8,1-1.4,1.8-1.8c0.8-0.4,1.7-0.7,2.7-0.7c1,0,1.9,0.2,2.6,0.7c0.8,0.4,1.3,1,1.8,1.8c0.4,0.8,0.6,1.7,0.6,2.8
		s-0.2,2-0.6,2.8c-0.4,0.8-1,1.4-1.8,1.8S682.4,393,681.4,393z M681.4,391.4c0.9,0,1.6-0.3,2.1-0.9c0.5-0.6,0.8-1.5,0.8-2.7
		c0-1.2-0.3-2.1-0.8-2.7c-0.5-0.6-1.2-0.9-2.1-0.9c-0.9,0-1.6,0.3-2.1,0.9c-0.5,0.6-0.8,1.5-0.8,2.7c0,1.2,0.3,2.1,0.8,2.7
		C679.8,391.1,680.5,391.4,681.4,391.4z"/>
	<path class="st1" d="M689.8,396.8c-0.7,0-1-0.4-1-1.1v-12.2c0-0.7,0.3-1.1,1-1.1c0.7,0,1.1,0.4,1.1,1.1v0.8
		c0.3-0.6,0.8-1.1,1.4-1.4c0.6-0.3,1.3-0.5,2.1-0.5c0.9,0,1.7,0.2,2.4,0.7c0.7,0.4,1.2,1,1.6,1.8s0.6,1.7,0.6,2.8s-0.2,2-0.6,2.8
		s-0.9,1.4-1.6,1.8c-0.7,0.4-1.5,0.6-2.4,0.6c-0.8,0-1.4-0.2-2-0.5c-0.6-0.3-1-0.8-1.4-1.4v4.5C690.9,396.4,690.5,396.8,689.8,396.8
		z M693.8,391.4c0.9,0,1.6-0.3,2.1-0.9c0.5-0.6,0.8-1.5,0.8-2.7c0-1.2-0.3-2.1-0.8-2.7c-0.5-0.6-1.2-0.9-2.1-0.9s-1.6,0.3-2.1,0.9
		c-0.5,0.6-0.8,1.5-0.8,2.7c0,1.2,0.3,2.1,0.8,2.7C692.2,391.1,692.9,391.4,693.8,391.4z"/>
	<path class="st1" d="M706,393c-1.7,0-3-0.5-4-1.4s-1.4-2.2-1.4-3.9c0-1.1,0.2-2,0.6-2.8c0.4-0.8,1-1.4,1.8-1.9s1.6-0.7,2.6-0.7
		c1.4,0,2.5,0.5,3.3,1.4c0.8,0.9,1.2,2.1,1.2,3.7c0,0.5-0.3,0.7-0.8,0.7h-6.7c0.2,2.1,1.3,3.2,3.4,3.2c0.4,0,0.9-0.1,1.3-0.2
		c0.5-0.1,0.9-0.3,1.3-0.6c0.3-0.2,0.5-0.2,0.8-0.2c0.2,0,0.4,0.2,0.5,0.4c0.1,0.2,0.1,0.4,0.1,0.6c-0.1,0.2-0.2,0.4-0.5,0.6
		c-0.5,0.3-1,0.6-1.7,0.7C707.2,392.9,706.6,393,706,393z M705.7,383.9c-0.9,0-1.6,0.3-2.1,0.8s-0.8,1.3-0.9,2.2h5.7
		c0-1-0.3-1.7-0.8-2.2C707.2,384.2,706.5,383.9,705.7,383.9z"/>
	<path class="st1" d="M713.5,393c-0.7,0-1.1-0.4-1.1-1.1v-8.4c0-0.7,0.3-1.1,1-1.1c0.7,0,1,0.4,1,1.1v0.9c0.3-0.6,0.7-1.1,1.3-1.4
		c0.6-0.3,1.3-0.5,2.1-0.6c0.5,0,0.8,0.2,0.8,0.8c0.1,0.6-0.2,1-0.9,1l-0.4,0c-1.9,0.2-2.8,1.1-2.8,2.9v4.8
		C714.6,392.6,714.2,393,713.5,393z"/>
	<path class="st1" d="M735.4,391c-0.7,0-1.3-0.2-1.9-0.5c-0.6-0.3-1-0.8-1.4-1.3c-0.3-0.6-0.5-1.2-0.5-1.9c0-0.6,0.2-1.2,0.5-1.8
		c0.3-0.6,0.8-1,1.4-1.4c0.6-0.4,1.2-0.5,2-0.5c0.7,0,1.3,0.2,1.9,0.5c0.6,0.3,1,0.8,1.4,1.3c0.3,0.6,0.5,1.2,0.5,1.9
		c0,0.7-0.2,1.3-0.5,1.9c-0.3,0.6-0.8,1-1.4,1.3C736.7,390.8,736.1,391,735.4,391z"/>
	<path class="st1" d="M749.3,392.8c-0.8,0-1.2-0.4-1.2-1.2v-12.5c0-0.8,0.4-1.2,1.2-1.2h4.1c2.4,0,4.3,0.6,5.6,1.9
		c1.3,1.3,2,3.1,2,5.5s-0.7,4.2-2,5.5c-1.3,1.3-3.2,1.9-5.6,1.9H749.3z M750.3,391h2.9c3.7,0,5.5-1.9,5.5-5.6c0-3.7-1.8-5.6-5.5-5.6
		h-2.9V391z"/>
	<path class="st1" d="M764.8,380.3c-0.4,0-0.7-0.1-1-0.3c-0.2-0.2-0.3-0.5-0.3-0.9c0-0.8,0.4-1.2,1.3-1.2s1.3,0.4,1.3,1.2
		C766.1,379.9,765.6,380.3,764.8,380.3z M764.8,393c-0.7,0-1-0.4-1-1.2v-8.2c0-0.8,0.3-1.1,1-1.1c0.7,0,1.1,0.4,1.1,1.1v8.2
		C765.8,392.6,765.5,393,764.8,393z"/>
	<path class="st1" d="M773.4,396.8c-0.8,0-1.5-0.1-2.2-0.2c-0.7-0.2-1.3-0.4-1.9-0.8c-0.3-0.1-0.4-0.3-0.5-0.5s0-0.4,0.1-0.6
		c0.1-0.2,0.3-0.3,0.4-0.4c0.2-0.1,0.4-0.1,0.6,0.1c0.6,0.3,1.2,0.6,1.8,0.7s1.1,0.2,1.5,0.2c2,0,2.9-1,2.9-2.9v-1.6
		c-0.3,0.6-0.8,1.1-1.4,1.4c-0.6,0.4-1.3,0.5-2.1,0.5c-0.9,0-1.7-0.2-2.4-0.6c-0.7-0.4-1.2-1-1.6-1.8c-0.4-0.8-0.6-1.7-0.6-2.7
		c0-1,0.2-1.9,0.6-2.7c0.4-0.8,0.9-1.4,1.6-1.8c0.7-0.4,1.5-0.6,2.4-0.6c0.8,0,1.5,0.2,2.1,0.5c0.6,0.3,1.1,0.8,1.4,1.4v-0.8
		c0-0.7,0.3-1.1,1-1.1s1.1,0.4,1.1,1.1v8.5c0,1.6-0.4,2.8-1.2,3.6C776.2,396.4,775,396.8,773.4,396.8z M773.3,390.9
		c0.9,0,1.6-0.3,2.1-0.9c0.5-0.6,0.8-1.5,0.8-2.5c0-1.1-0.3-1.9-0.8-2.5c-0.5-0.6-1.2-0.9-2.1-0.9s-1.6,0.3-2.1,0.9
		c-0.5,0.6-0.8,1.4-0.8,2.5c0,1.1,0.3,1.9,0.8,2.5C771.7,390.6,772.4,390.9,773.3,390.9z"/>
	<path class="st1" d="M782.3,380.3c-0.4,0-0.7-0.1-1-0.3c-0.2-0.2-0.3-0.5-0.3-0.9c0-0.8,0.4-1.2,1.3-1.2s1.3,0.4,1.3,1.2
		C783.7,379.9,783.2,380.3,782.3,380.3z M782.3,393c-0.7,0-1-0.4-1-1.2v-8.2c0-0.8,0.3-1.1,1-1.1c0.7,0,1.1,0.4,1.1,1.1v8.2
		C783.4,392.6,783,393,782.3,393z"/>
	<path class="st1" d="M790.7,393c-1.3,0-2.2-0.3-2.9-1c-0.6-0.7-0.9-1.6-0.9-2.9v-5h-1.3c-0.6,0-0.9-0.3-0.9-0.8s0.3-0.8,0.9-0.8
		h1.3v-2.2c0-0.7,0.4-1.1,1.1-1.1c0.7,0,1,0.4,1,1.1v2.2h2.5c0.6,0,0.9,0.3,0.9,0.8s-0.3,0.8-0.9,0.8H789v4.8c0,0.7,0.2,1.3,0.5,1.7
		c0.3,0.4,0.8,0.6,1.5,0.6c0.3,0,0.5,0,0.7-0.1c0.2,0,0.3-0.1,0.5-0.1c0.2,0,0.3,0.1,0.4,0.2c0.1,0.1,0.1,0.3,0.1,0.6
		c0,0.2,0,0.4-0.1,0.6c-0.1,0.2-0.2,0.3-0.4,0.3c-0.2,0.1-0.4,0.1-0.7,0.2C791.2,393,791,393,790.7,393z"/>
	<path class="st1" d="M797.3,393c-0.7,0-1.4-0.1-1.9-0.4c-0.6-0.3-1-0.7-1.3-1.1c-0.3-0.5-0.5-1-0.5-1.6c0-0.8,0.2-1.4,0.6-1.8
		c0.4-0.4,1-0.7,1.9-0.9c0.9-0.2,2.1-0.3,3.6-0.3h0.7v-0.5c0-0.8-0.2-1.4-0.5-1.7c-0.3-0.3-0.9-0.5-1.7-0.5c-0.4,0-0.9,0.1-1.4,0.2
		s-1,0.3-1.5,0.6c-0.3,0.1-0.5,0.2-0.7,0.1c-0.2-0.1-0.3-0.3-0.4-0.5c-0.1-0.2-0.1-0.4,0-0.7c0.1-0.2,0.3-0.4,0.5-0.5
		c0.6-0.3,1.2-0.5,1.8-0.6c0.6-0.1,1.2-0.2,1.7-0.2c1.4,0,2.4,0.3,3.1,1s1,1.7,1,3.1v5.4c0,0.7-0.3,1.1-1,1.1c-0.7,0-1-0.4-1-1.1
		v-0.8c-0.3,0.6-0.6,1-1.2,1.4C798.7,392.9,798.1,393,797.3,393z M797.7,391.5c0.8,0,1.4-0.3,1.9-0.8s0.8-1.2,0.8-2v-0.6h-0.7
		c-1,0-1.8,0-2.4,0.1s-1,0.3-1.2,0.5s-0.4,0.5-0.4,1c0,0.5,0.2,1,0.5,1.3S797.1,391.5,797.7,391.5z"/>
	<path class="st1" d="M808.6,393c-1.1,0-1.9-0.3-2.5-0.9s-0.8-1.6-0.8-2.8V379c0-0.7,0.3-1.1,1-1.1c0.7,0,1.1,0.4,1.1,1.1v10.2
		c0,1.4,0.6,2.1,1.7,2.1c0.1,0,0.2,0,0.3,0s0.2,0,0.3,0c0.2,0,0.3,0,0.4,0.1c0.1,0.1,0.1,0.3,0.1,0.6c0,0.6-0.3,0.9-0.8,1
		c-0.1,0-0.3,0-0.4,0C808.9,393,808.7,393,808.6,393z"/>
	<path class="st1" d="M817.4,393c-0.4,0-0.7-0.1-0.9-0.4c-0.2-0.3-0.2-0.6,0-1l5.7-12.8c0.1-0.3,0.3-0.6,0.5-0.7
		c0.2-0.1,0.5-0.2,0.7-0.2c0.3,0,0.5,0.1,0.7,0.2c0.2,0.1,0.4,0.4,0.5,0.7l5.7,12.8c0.2,0.4,0.2,0.7,0.1,1c-0.1,0.3-0.4,0.4-0.8,0.4
		c-0.3,0-0.6-0.1-0.7-0.2s-0.3-0.4-0.5-0.7l-1.2-2.8h-7.5l-1.2,2.8c-0.1,0.3-0.3,0.6-0.5,0.7C817.9,392.9,817.7,393,817.4,393z
		 M823.5,380.4l-3,7h6L823.5,380.4L823.5,380.4z"/>
	<path class="st1" d="M833.8,393c-0.7,0-1.1-0.4-1.1-1.1v-8.4c0-0.7,0.3-1.1,1-1.1c0.7,0,1,0.4,1,1.1v0.9c0.3-0.6,0.7-1.1,1.3-1.4
		c0.6-0.3,1.3-0.5,2.1-0.6c0.5,0,0.8,0.2,0.8,0.8c0.1,0.6-0.2,1-0.9,1l-0.4,0c-1.9,0.2-2.8,1.1-2.8,2.9v4.8
		C834.9,392.6,834.5,393,833.8,393z"/>
	<path class="st1" d="M845.5,393c-1.3,0-2.2-0.3-2.9-1c-0.6-0.7-0.9-1.6-0.9-2.9v-5h-1.3c-0.6,0-0.9-0.3-0.9-0.8s0.3-0.8,0.9-0.8
		h1.3v-2.2c0-0.7,0.4-1.1,1.1-1.1c0.7,0,1,0.4,1,1.1v2.2h2.5c0.6,0,0.9,0.3,0.9,0.8s-0.3,0.8-0.9,0.8h-2.5v4.8
		c0,0.7,0.2,1.3,0.5,1.7c0.3,0.4,0.8,0.6,1.5,0.6c0.3,0,0.5,0,0.7-0.1c0.2,0,0.3-0.1,0.5-0.1c0.2,0,0.3,0.1,0.4,0.2
		c0.1,0.1,0.1,0.3,0.1,0.6c0,0.2,0,0.4-0.1,0.6c-0.1,0.2-0.2,0.3-0.4,0.3c-0.2,0.1-0.4,0.1-0.7,0.2C846,393,845.7,393,845.5,393z"/>
	<path class="st1" d="M850.1,380.3c-0.4,0-0.7-0.1-1-0.3c-0.2-0.2-0.3-0.5-0.3-0.9c0-0.8,0.4-1.2,1.3-1.2s1.3,0.4,1.3,1.2
		C851.4,379.9,850.9,380.3,850.1,380.3z M850.1,393c-0.7,0-1-0.4-1-1.2v-8.2c0-0.8,0.3-1.1,1-1.1c0.7,0,1.1,0.4,1.1,1.1v8.2
		C851.1,392.6,850.8,393,850.1,393z"/>
	<path class="st1" d="M857.7,393c-0.6,0-1.3-0.1-1.9-0.2c-0.7-0.1-1.3-0.4-1.8-0.7c-0.2-0.1-0.4-0.3-0.4-0.5c-0.1-0.2,0-0.4,0-0.6
		s0.2-0.3,0.4-0.4s0.4-0.1,0.6,0.1c0.5,0.3,1.1,0.5,1.6,0.6s1,0.2,1.5,0.2c0.7,0,1.3-0.1,1.7-0.4c0.4-0.3,0.6-0.6,0.6-1.1
		c0-0.4-0.1-0.6-0.4-0.8s-0.6-0.4-1.1-0.5l-2-0.4c-1.8-0.4-2.6-1.3-2.6-2.7c0-1,0.4-1.7,1.2-2.3c0.8-0.6,1.8-0.9,3-0.9
		c1.3,0,2.3,0.3,3.3,0.9c0.2,0.1,0.4,0.3,0.4,0.5s0,0.4-0.1,0.6c-0.1,0.2-0.2,0.3-0.4,0.4c-0.2,0.1-0.4,0-0.7-0.1
		c-0.4-0.3-0.8-0.4-1.3-0.6s-0.8-0.2-1.2-0.2c-0.7,0-1.3,0.1-1.7,0.4c-0.4,0.3-0.6,0.6-0.6,1.1c0,0.7,0.5,1.1,1.4,1.3l2,0.4
		c0.9,0.2,1.6,0.5,2.1,0.9c0.5,0.4,0.7,1,0.7,1.8c0,1-0.4,1.7-1.2,2.3C860,392.8,859,393,857.7,393z"/>
	<path class="st1" d="M868.5,393c-1.3,0-2.2-0.3-2.9-1c-0.6-0.7-0.9-1.6-0.9-2.9v-5h-1.3c-0.6,0-0.9-0.3-0.9-0.8s0.3-0.8,0.9-0.8
		h1.3v-2.2c0-0.7,0.4-1.1,1.1-1.1c0.7,0,1,0.4,1,1.1v2.2h2.5c0.6,0,0.9,0.3,0.9,0.8s-0.3,0.8-0.9,0.8h-2.5v4.8
		c0,0.7,0.2,1.3,0.5,1.7c0.3,0.4,0.8,0.6,1.5,0.6c0.3,0,0.5,0,0.7-0.1c0.2,0,0.3-0.1,0.5-0.1c0.2,0,0.3,0.1,0.4,0.2
		c0.1,0.1,0.1,0.3,0.1,0.6c0,0.2,0,0.4-0.1,0.6c-0.1,0.2-0.2,0.3-0.4,0.3c-0.2,0.1-0.4,0.1-0.7,0.2C869,393,868.8,393,868.5,393z"/>
</g>
<g>
	<path class="st1" d="M478.5,338.2c-1.9,0.4-2.4,0.5-2.6-0.2c-0.1-0.5,0-0.7,1-1.2c1.4-0.7,4.7-2.7,10.1-6.1l2.3-1.4l0.1-1.4
		c0.8-4.7,2.3-11.7,3.8-16.7c4.6-15.9,12.4-31,19-36.6c2.5-2.1,4.1-2.6,5.6-1.9c0.8,0.5,1.4,1.3,1.8,3.1c0.8,3.1,0.7,6.1-0.5,18.2
		c-0.9,7.6-1.6,16.2-1.5,16.5c0,0.1,0.5-0.1,1.1-0.4c4.1-2.4,7.8-3.8,9.6-3.8c1.9,0.1,2.5,1.5,1.5,2.9c-0.5,0.7-0.9,0.4-0.6-0.7
		c0.1-0.3,0.1-0.5-0.2-0.6c-0.1,0-1,0.2-2,0.4c-2.5,0.7-5.3,2.1-9.1,4.3l-0.5,0.2l-0.1,2c-0.4,8,0.1,20.2,0.8,25.2
		c0.2,1.5,0.2,1.6,0.6,1.8c0.4,0.2,0.4,0.3,0.5,0.6c-0.2,0.5-0.6,0.8-1.2,0.5c-0.5-0.2-0.5-0.3-0.9-1.7c-1.1-3.4-1.6-12.4-1.5-23.1
		c0-2.5,0.1-4.2-0.1-4.1c-0.3,0.1-7,4.3-15.3,9.6c-4.2,2.8-7.9,5.2-8.4,5.5c-0.7,0.4-0.7,0.4-0.8,1.4c-0.3,1.7-0.8,6.6-0.9,9
		l-0.2,2.3l0.6,1.2c0.9,2.1,1.4,6.1,1,7c-0.1,0.3-0.1,0.3-0.4,0.3c-0.3-0.1-0.4-0.1-0.5,0.1c-0.1,0.1-0.3,0.2-0.4,0.2
		c-1.1,0.3-2-2.4-2.1-6.9c0-1.3-0.3-2.2-0.4-2.4c-0.4-0.8-1.7-2.2-2.7-2.8c-1.7-1.2-3.6-1.4-6.6-0.7L478.5,338.2z M480.7,336.1
		c0,0.1,0.4,0.2,0.7,0.1c2.1,0,4.6,1.1,5.7,2.4c0.4,0.5,0.8,0.8,0.8,0.8c0.1,0,0.2-0.5,0.2-1.3c0-0.6,0.3-2.4,0.4-4.2
		c0.2-1.5,0.3-2.9,0.3-2.9c-0.1,0-1.4,0.9-3,1.9c-1.5,1-3.4,2.1-4,2.4C481.2,335.8,480.7,336.1,480.7,336.1z M490.2,348.1
		c-0.1-0.2-0.1-0.4-0.1-0.5c-0.1-0.2-0.1-0.1,0,0.2S490.1,348.1,490.2,348.1L490.2,348.1z M490.1,348.6c-0.1-0.1-0.1,0,0,0.2
		c0.1,0.2,0.1,0.4,0.1,0.2C490.2,348.9,490.1,348.7,490.1,348.6z M491.6,327.5c0.2-0.1,3.8-2.5,8.1-5.2c7.8-5.2,13.1-8.6,15-9.8
		l1-0.7l0.2-2.3c0.1-3,0.5-7.5,1.1-11.9c1-8.6,1.3-11.7,1.5-14.1c0.4-6.1-0.3-9.5-1.8-9.6c-1.5-0.1-4.1,2.2-7,6.1
		c-1.5,1.9-5.2,8.3-6.6,11.4c-4.7,9.9-8.7,21.4-10.9,31.8C491.3,327.9,491.3,327.8,491.6,327.5z M553.5,306.5
		c0.3-0.1,0.6,0.3,0.4,0.5c-1.2,1.6-1.8,2.6-2.4,3.4c-1.1,1.3-2.5,2.7-3.2,3c-1,0.6-2.1,0.2-2.8-1.1c-0.4-0.6-0.5-1.1-0.9-2.9
		c-0.3-1.4-0.5-2.1-0.7-2.1c-0.3-0.1-1.2,0.8-4.1,4.5c-1.6,2.1-2,2.3-2.6,2.1c-0.5-0.2-0.5-0.3-0.7-1c-0.2-0.7-0.2-1.4-0.2-2.5
		c0.1-0.8,0.1-1.5,0-1.6c0,0-0.3,0.4-0.7,0.8c-0.7,0.9-4.7,7.7-5.4,9.3c-0.5,1.1-1.3,2-1.6,2.1c-0.5,0.1-0.9-0.2-1.1-0.9
		c-0.2-0.6-0.2-2.2,0-3.3c0.1-0.2,0.2-0.5,0.1-0.5c0,0,0.4-2.1,0.7-4.1c0.3-1.3,0.4-3,0.5-3.7c0.1-1.4,0.4-2.1,1-2.3
		c0.5-0.1,0.9,0.1,1.2,0.4c0.7,0.6,0.6,0.8-0.4,6.7c-0.3,1.2-0.4,2.1-0.5,2.3s0.2-0.4,0.6-1c1.4-2.8,3.2-5.6,4.5-6.9
		c1.4-1.4,2.3-1.3,2.7,0.3c0.2,0.8,0.2,2.5,0,3.4c0,0.2,0,0.2,0.1,0.1c2.7-3.6,4-4.8,5.2-5.2c0.6-0.2,1.1-0.1,1.4,0.4
		c0.3,0.3,0.4,0.7,0.9,2.7c0.6,2.8,0.9,3.2,1.5,3.3c1.2,0.2,2.8-1.5,6.1-6.1c0,0,0-0.1,0.1-0.1L553.5,306.5z M572.7,302.3
		c0.3-0.1,0.5,0.1,0.6,0.3c0,0.3-0.1,0.6-0.2,1c-0.3,0.4-0.7,0.9-0.9,1.4c-1.2,1.7-2.6,3.3-3.9,4.9c-0.7,0.6-1.2,1.2-2,1.5
		c-0.6,0.3-1.4,0.4-2.1,0.1c-0.6-0.4-1-1.3-1.2-2c-0.5-1.5-0.6-2.8-0.4-7.2c0.1-0.7,0.1-1.5,0.1-1.5c-0.1-0.2-1.2,1.9-2.3,4.5
		c-3.4,7.9-4.7,10.7-5.6,11.4c-0.9,0.8-1.8,0.7-2.6-0.2c-1.3-1.3-1.2-5.6-0.1-10.1c0.9-3.7,2.4-6.2,4.2-7.5c1-0.6,2.3-0.7,3.5-0.2
		c0.5,0.3,1.2,1,1.3,1.4c0,0.1,0.1,0.3,0.1,0.3c0.1,0,0.4-0.3,0.6-0.7c0.8-1,1.5-1,1.9,0.1c0.1,0.2,0.1,1.7,0.1,3.2
		c0.1,5.5,0.5,7.5,1.5,7.4c1,0,2.6-1.4,4.9-4.4c0.8-1.1,1.5-2.1,2.2-3.2c0.1-0.1,0.2-0.3,0.4-0.3L572.7,302.3z M560.4,301.6
		c0,0-0.4-0.1-0.8-0.3c-1.1-0.3-1.8-0.1-2.5,0.5c-1.7,1.5-3.1,6.1-3.5,11.1c0,0.7,0,1.5,0,1.7c0,0.4,0,0.4,0.2,0.1
		c0.1,0,0.5-0.5,0.7-1c0.3-0.4,1.6-2.9,2.7-5.3c1.1-2.5,2.3-5.1,2.7-5.7C560.3,302.1,560.5,301.5,560.4,301.6z M589.6,295.9
		c0.1,0.2,0.2,0.4,0,0.5c-0.3,0.2-0.4,0.5-0.7,0.9c-1,1.5-2.9,4-3.5,4.6c-1.5,1.8-2.7,2.4-3.6,1.9c-1.1-0.6-1.5-1.5-2-4.6
		c-0.3-2.3-0.4-2.4-0.5-2.4c-0.2,0.1-1.2,1.2-2,2.4c-1.2,2-2.4,4.5-3.3,7.5c-0.3,0.9-0.5,1.2-0.6,1.4c-0.3,0.4-0.9,0.2-1.1-0.1
		c-0.3-0.3-0.3-0.4-0.3-0.9c-0.1-0.9,0-3,0.3-5.8c0.1-1.4,0.2-2.4,0.1-2.5c0,0,0.2-1.4,0.4-1.9c0.1-1,0.4-1.4,0.8-1.5
		c0.5-0.1,0.7,0.1,0.9,0.7c0.1,0.2,0,1.5-0.1,2.8c-0.2,1.3-0.2,2.5-0.2,2.6c-0.1,0.1,0,0,0.2-0.4c1.7-3.2,2.8-4.8,3.8-5.7
		c0.5-0.4,0.7-0.5,1.2-0.6c1.5-0.2,2.1,1.1,2.7,5.1c0.1,2,0.2,2.4,0.7,2.5c0.3,0,1.1-0.4,1.8-1.1c0.7-0.7,2.7-3,4.5-5.2
		c0.2-0.1,0.3-0.1,0.5,0l0,0L589.6,295.9z M624.9,282.1c9.1,0.5,14.3,2.4,16.1,6.1c1.7,3.7-0.6,8.9-6.1,14
		c-4.6,4.3-10.7,7.9-18.7,11.4c-4.2,1.7-11.3,3.9-14.8,4.4c-5.2,0.9-8.7,0.4-10.2-1.2c-0.5-0.5-1-2-1.1-2.9c0-2.3,1.2-5,3.1-6.7
		c1-0.9,1.4-1.1,1.6-0.5c0,0.2-0.3,0.5-0.9,0.9c-0.4,0.4-1,1.3-1.4,2c-0.9,1.6-1.2,2.9-0.8,4.3c0.2,1,0.2,1.2,0.7,1.4
		c1.4,0.9,5.1,0.9,10.6,0c4-0.8,10.5-2.8,15.1-4.7c12.9-5.6,22-13.6,22.1-19.7c0.2-4.3-4.7-6.8-14.2-7.3c-4.3-0.2-7.8-0.2-17,0.3
		c-8,0.5-10.5,0.4-13.4-0.1c-5.6-1-8-4-6.9-8.7c0.6-2.1,2-5,3.9-7.7c4.7-6.3,13.2-13.6,19.9-17.1c1.9-1,5.1-1.9,6.4-1.8
		c3.2,0.2,4.9,1.7,3.7,3.4c-0.4,0.4-1,0.6-1.8,0.1c-0.3-0.1-1-0.4-1.5-0.5c-0.8-0.1-0.9-0.1-2.9,0.5c-1.6,0.4-2.3,0.6-3.4,1.2
		c-7.9,4.1-19,14.9-21.8,21.3c-1.2,2.4-1.1,4.3,0.1,5.6c0.8,0.8,2.6,1.7,4.2,2.1c2.8,0.6,5.6,0.6,13.2,0.3
		C616.9,282,621,282,624.9,282.1L624.9,282.1z M671.3,278c0,0.1,0.1,0.3,0.1,0.4c-0.1,0.1-0.1,0.2-0.2,0.4c-1,2.3-4.5,8.1-5.7,9.7
		c-2,2.6-3.6,3.8-5.4,4.2c-1.2,0.2-1.9,0-2.7-0.8c-0.4-0.5-0.5-0.8-0.8-1.8c-0.3-0.9-0.4-1.3-0.4-2.4c0.1-1,0.2-2.1,0.6-3.2
		c-1.2,2.3-2.7,4.6-3.5,5.5c-1.8,2.3-3.3,3.5-4.8,3.7c-0.9,0.3-1.7,0.1-2.4-0.7c-0.3-0.4-0.5-0.6-0.7-1.5c-0.2-0.9-0.2-1.2-0.2-2.2
		c0.3-4.9,3.1-10.8,5-11c1.2-0.1,1.9,0.9,1.6,2.6c-0.4,1.7-1.6,4.7-2.6,6.1c-0.6,1-1.1,1.3-1.6,1.6c-0.5,0.2-0.5,0.2-0.6,0.9
		c-0.2,1.2-0.1,2.3,0.2,2.7s0.7,0.6,1.4,0.4c2.1-0.6,4.7-3.7,8.5-10.4c0.2-0.4,0.3-0.6,0.5-0.8c1.3-3.2,2.9-5.8,4.3-5.9
		c1.3-0.1,1.9,1.1,1.7,2.9c-0.4,2-1.7,5.3-2.8,6.9c-0.7,1.1-1.2,1.5-1.9,1.8c-0.5,0.2-0.5,0.3-0.6,1c-0.2,1.3,0,2.6,0.3,3.1
		c0.5,0.6,0.8,0.7,1.7,0.4c2.3-0.6,5.2-4.1,9.4-11.6c0.3-0.5,0.5-1.1,0.8-1.4c0.1-0.2,0.4-0.3,0.5-0.1l0,0L671.3,278z M647.6,287.6
		c0.1,0,0.3-0.3,0.6-0.6c1.3-2,2.9-6.2,2.6-6.8c-0.3-0.4-1.8,2.1-2.4,4.2C647.9,285.9,647.5,287.6,647.6,287.6z M659.7,282.2
		c-0.5,1.6-1,3.6-0.8,3.6c0,0,0.2-0.4,0.4-0.6c1.5-2.2,3.4-7,3-7.7C662.1,276.9,660.5,280,659.7,282.2L659.7,282.2z M674.9,271.9
		c-0.7,1-0.7,1-0.9,2.7c-0.4,3.5-0.4,5.9,0,6.6c0.2,0.5,0.7,0.6,1.4,0.2c1.3-0.8,3.1-2.8,5.9-6.9c0.6-0.7,1.2-1.8,1.7-2.4
		c0.1-0.1,0.3-0.2,0.5,0l0,0c0,0.1,0.1,0.2,0.1,0.4c-0.4,0.4-0.9,1.2-1.2,1.6c-4,6.4-6.3,8.9-8,9c-0.7,0.1-1.5-0.3-1.9-1.1
		c-0.6-0.8-1-2.8-1-4.7c0-0.8,0-1.5,0.1-1.6c0-0.2,0-1.3,0-1.4c0.1-0.1,0.3-1.1,0.4-2.2c0.3-2.6,1.7-8.9,2.5-11.4
		c1.6-5.9,3.7-11,6.2-15.4c2.1-3.7,4-5.6,5.4-6c1-0.3,1.9,0.5,1.9,1.9c0.2,3.8-2.2,10.7-7.2,20.8c-1.7,3.3-4.5,8.3-5.7,9.9
		L674.9,271.9z M674.6,271l0.4-0.5c0.2-0.1,1.3-2.2,2.6-4.4c1.2-2.2,2.7-4.7,3.1-5.6c2.8-5.9,5.7-15.2,5.9-18.7
		c0.1-0.9,0-1.1-0.2-1.1c-1,0.3-3.4,4.1-5.3,8.4c-1.8,3.8-3.6,9.3-4.9,14.4c-0.6,2-1.5,6.2-1.5,6.9L674.6,271z M702,267.3
		c0.3-0.1,0.5,0.1,0.6,0.3c0,0.3-0.1,0.6-0.2,1c-0.3,0.4-0.7,0.9-0.9,1.4c-1.2,1.7-2.6,3.3-3.9,4.9c-0.7,0.6-1.2,1.2-2,1.5
		c-0.6,0.3-1.4,0.4-2.1,0.1c-0.6-0.4-1-1.3-1.2-2c-0.5-1.5-0.6-2.8-0.4-7.2c0.1-0.7,0.1-1.5,0.1-1.5c-0.1-0.2-1.2,1.9-2.3,4.5
		c-3.4,7.9-4.7,10.7-5.6,11.4c-0.9,0.8-1.8,0.7-2.6-0.2c-1.3-1.3-1.2-5.6-0.1-10.1c0.9-3.7,2.4-6.2,4.2-7.5c1-0.6,2.3-0.7,3.5-0.2
		c0.5,0.3,1.2,1,1.3,1.4c0,0.1,0.1,0.3,0.1,0.3c0.1,0,0.4-0.3,0.6-0.7c0.8-1,1.5-1,1.9,0.1c0.1,0.2,0.1,1.7,0.1,3.2
		c0.1,5.5,0.5,7.5,1.5,7.4c1,0,2.6-1.4,4.9-4.4c0.8-1.1,1.5-2.1,2.2-3.2c0.1-0.1,0.2-0.3,0.4-0.3L702,267.3z M689.7,266.6
		c0,0-0.4-0.1-0.8-0.3c-1.1-0.3-1.8-0.1-2.5,0.5c-1.7,1.5-3.1,6.1-3.5,11.1c0,0.7,0,1.5,0,1.7c0,0.4,0,0.4,0.2,0.1
		c0.1,0,0.5-0.5,0.7-1c0.3-0.4,1.6-2.9,2.7-5.3c1.1-2.5,2.3-5.1,2.7-5.7C689.6,267.1,689.8,266.5,689.7,266.6z M723.8,258.9
		c0.3,0,0.5,0.3,0.3,0.4c-0.2,0.1-0.3,0.3-0.5,0.4c-2.1,2.3-7.4,8.3-7.9,9c0,0.1-0.1,1.5-0.1,3.3c-0.1,11.5-1.4,19.7-3.6,25.7
		c-2.4,6.8-5.8,10.9-9.8,12.2c-0.5,0.2-1.2,0.3-1.6,0.4c-0.9,0-2.1-0.3-2.8-0.7c-3.5-2.3-3.4-8.4,0-16.4c1-2.2,3.8-7,5.5-9.6
		c2.2-3.3,5.4-7.7,9.2-12.2l1-1.3l0.1-1.5c0.1-0.9,0.1-2.8,0.1-4.3c0.1-1.5,0.2-2.8,0.1-3.1c-0.1-0.2-0.1-0.2-0.3,0.3
		c-0.2,0.3-1.2,1.6-2.1,3c-4.4,6.3-6,8.4-7.3,9.1c-1,0.6-1.9,0.4-2.4-0.6c-0.6-1.2-0.6-2.9,0.2-7.2l0.4-2c0,0,0.5-1.8,0.7-2.2
		c0.6-1.9,1.2-2.4,2.1-2c0.6,0.3,0.6,1,0,3.1c-1.3,4.7-2.1,8.5-1.8,9.3c0.1,0.3,0.2,0.3,0.4,0.1c1.6-0.9,3.8-3.6,6.9-8.6
		c2.5-3.8,3.2-5.2,3.4-5.8c0.1-0.9,1-1.2,1.4-0.6c0.1,0.3,0.3,2.9,0.4,7.7l0.1,2.6l0.1-0.2c2.9-3.2,5.9-6.6,7.8-8.5L723.8,258.9
		L723.8,258.9L723.8,258.9z M713.1,281.2c0.2-3.1,0.4-9.3,0.4-9.4c-0.1,0-4,5-5.7,7.4c-2.5,3.5-4.3,6.2-6.1,9.3
		c-3.5,6.2-5.2,10.9-5.1,15.2c0,0.8,0.1,1.4,0.4,2.2c0.5,1.7,1.2,2.4,2.5,2.7c0.6,0.1,2.1-0.3,3-0.8c1.1-0.6,2.6-2,3.5-3.2
		c3.9-5.1,6.4-13.1,7-23.4L713.1,281.2z"/>
</g>
<path class="st3" d="M481.2,423.2h237.6c5.4,0,9.8,4.4,9.8,9.8v36.5c0,5.4-4.4,9.8-9.8,9.8H481.2c-5.4,0-9.8-4.4-9.8-9.8V433
	C471.4,427.6,475.8,423.2,481.2,423.2z"/>
<g>
	<path class="st1" d="M567.2,472.7h-34.3c-2.5,0-4.5-2-4.5-4.5V434c0-2.5,2-4.5,4.5-4.5h34.3c2.5,0,4.5,2,4.5,4.5v34.3
		C571.7,470.7,569.7,472.7,567.2,472.7z"/>
	<linearGradient id="SVGID_1_" gradientUnits="userSpaceOnUse" x1="620.0031" y1="471.7687" x2="580.1009" y2="430.4488">
		<stop  offset="5.586592e-03" style="stop-color:#FF2222"/>
		<stop  offset="1" style="stop-color:#FF4949"/>
	</linearGradient>
	<path class="st4" d="M617.2,472.7h-34.3c-2.5,0-4.5-2-4.5-4.5V434c0-2.5,2-4.5,4.5-4.5h34.3c2.5,0,4.5,2,4.5,4.5v34.3
		C621.7,470.7,619.7,472.7,617.2,472.7z"/>
	<path class="st2" d="M517.1,472.7h-34.3c-2.5,0-4.5-2-4.5-4.5V434c0-2.5,2-4.5,4.5-4.5h34.3c2.5,0,4.5,2,4.5,4.5v34.3
		C521.6,470.7,519.6,472.7,517.1,472.7z"/>
	<path class="st5" d="M717.1,472.7h-34.3c-2.5,0-4.5-2-4.5-4.5V434c0-2.5,2-4.5,4.5-4.5h34.3c2.5,0,4.5,2,4.5,4.5v34.3
		C721.6,470.7,719.6,472.7,717.1,472.7z"/>
	<path class="st6" d="M667.1,472.7h-34.3c-2.5,0-4.5-2-4.5-4.5V434c0-2.5,2-4.5,4.5-4.5h34.3c2.5,0,4.5,2,4.5,4.5v34.3
		C671.6,470.7,669.6,472.7,667.1,472.7z"/>
</g>
</svg>
