<?xml version="1.0" encoding="utf-8"?>
<!-- Generator: Adobe Illustrator 25.4.1, SVG Export Plug-In . SVG Version: 6.00 Build 0)  -->
<svg version="1.1" id="Layer_1" xmlns="http://www.w3.org/2000/svg" xmlns:xlink="http://www.w3.org/1999/xlink" x="0px" y="0px"
	 viewBox="0 0 1500 500" style="enable-background:new 0 0 1500 500;" xml:space="preserve">
<style type="text/css">
	.st0{fill:#FF2222;}
</style>
<g>
	<path class="st0" d="M472,155.8h31.3v8.9c0,12.5,5.7,24.1,17,34.8l21.6,20.5c6.8,6.9,10.3,15.3,10.3,25.1c0,9.9-3.5,18.3-10.5,25.3
		s-15.4,10.5-25.3,10.5h-48.9v-31.3h48.9c1.3,0,2.3-0.4,3.2-1.3s1.3-1.9,1.3-3.2c0-1.2-0.4-2.2-1.2-3l-16.4-15.7
		c-20.9-19.1-31.3-39.6-31.3-61.7L472,155.8L472,155.8z"/>
	<path class="st0" d="M641.2,155.8V187h-85v-31.3h85V155.8z M587.5,249.6h53.7v31.3h-85v-80.4h85v31.3h-53.7V249.6z"/>
	<path class="st0" d="M739.5,155.8V187h-85v-31.3h85V155.8z M685.8,249.6h53.7v31.3h-85v-80.4h85v31.3h-53.7V249.6z"/>
	<path class="st0" d="M837.8,249.6v31.3h-85V155.8h31.3v93.8H837.8z"/>
	<path class="st0" d="M910,249.6l-23.5-93.8h31.3l35.7,125.1H841.8l21.4-80.4h32.9l-11.3,49.1H910z"/>
	<path class="st0" d="M943.1,191.5v-35.7h31.3v35.7c0,3.7,1.3,6.9,3.9,9.5c2.6,2.6,5.8,3.9,9.5,3.9s6.8-1.3,9.5-3.9
		c2.6-2.6,3.9-5.8,3.9-9.5v-35.7h31.3v35.7c0,12.3-4.4,22.9-13.1,31.6c-8.7,8.7-19.3,13.1-31.6,13.1s-22.9-4.4-31.6-13.1
		C947.5,214.4,943.1,203.8,943.1,191.5z M956.5,249.6h62.5v31.3h-62.5V249.6z"/>
</g>
<g>
	<path class="st0" d="M197.8,395.7c-3.4,0-6.4-0.7-8.8-2.1c-2.4-1.4-4.3-3.4-5.6-6c-1.3-2.6-1.9-5.7-1.9-9.2c0-3.6,0.6-6.6,1.9-9.2
		s3.2-4.6,5.6-6c2.4-1.4,5.4-2.1,8.8-2.1c1.9,0,3.7,0.3,5.4,0.8s3.3,1.2,4.5,2.2c0.7,0.4,1.1,1,1.2,1.6c0.1,0.6,0,1.2-0.3,1.7
		c-0.3,0.5-0.7,0.8-1.3,1c-0.6,0.2-1.2,0-1.9-0.5c-1.1-0.8-2.3-1.4-3.5-1.8c-1.3-0.4-2.6-0.6-4-0.6c-3.6,0-6.4,1.1-8.4,3.4
		c-1.9,2.2-2.9,5.4-2.9,9.6s1,7.3,2.9,9.6s4.7,3.4,8.4,3.4c1.4,0,2.8-0.2,4.1-0.6c1.3-0.4,2.5-1,3.7-1.8c0.7-0.4,1.3-0.6,1.9-0.5
		c0.5,0.1,1,0.5,1.2,0.9c0.3,0.5,0.4,1,0.3,1.6c-0.1,0.6-0.4,1.1-1,1.5c-1.3,1.1-2.9,1.9-4.7,2.4
		C201.6,395.4,199.7,395.7,197.8,395.7z"/>
	<path class="st0" d="M217,395.6c-1.6,0-2.4-0.8-2.4-2.4V374c0-1.6,0.8-2.4,2.4-2.4s2.4,0.8,2.4,2.4v2.1c0.6-1.4,1.6-2.5,2.9-3.3
		c1.3-0.8,2.9-1.2,4.7-1.3c1.2-0.1,1.8,0.5,1.9,1.9c0.1,1.4-0.6,2.2-2.1,2.3l-0.9,0.1c-4.3,0.4-6.4,2.6-6.4,6.6v10.9
		C219.4,394.8,218.6,395.6,217,395.6z"/>
	<path class="st0" d="M243.1,395.7c-3.8,0-6.9-1.1-9.1-3.2c-2.2-2.2-3.3-5.1-3.3-8.9c0-2.4,0.5-4.5,1.5-6.4c1-1.8,2.3-3.3,4.1-4.3
		c1.7-1,3.7-1.5,6-1.5c3.2,0,5.8,1,7.6,3.1c1.9,2.1,2.8,4.9,2.8,8.5c0,1.1-0.6,1.6-1.9,1.6h-15.3c0.4,4.9,2.9,7.3,7.7,7.3
		c1,0,2-0.1,3-0.4c1.1-0.2,2.1-0.7,3.1-1.3c0.7-0.4,1.3-0.5,1.8-0.4c0.5,0.1,0.9,0.4,1.1,0.8c0.2,0.4,0.3,0.9,0.1,1.4
		c-0.1,0.5-0.5,1-1.1,1.4c-1.1,0.7-2.4,1.3-3.8,1.7S244.4,395.7,243.1,395.7z M242.4,374.8c-2,0-3.6,0.6-4.8,1.9
		c-1.2,1.2-1.9,2.9-2.2,5h13.1c-0.1-2.2-0.7-3.9-1.7-5.1C245.7,375.4,244.2,374.8,242.4,374.8z"/>
	<path class="st0" d="M265.4,395.7c-1.6,0-3.1-0.3-4.4-1c-1.3-0.6-2.3-1.5-3-2.6c-0.8-1.1-1.1-2.3-1.1-3.7c0-1.7,0.4-3.1,1.3-4.1
		c0.9-1,2.3-1.7,4.4-2.2c2-0.4,4.8-0.7,8.2-0.7h1.6v-1.2c0-1.8-0.4-3.1-1.2-3.9c-0.8-0.8-2-1.2-3.8-1.2c-1,0-2.1,0.1-3.2,0.4
		s-2.2,0.7-3.4,1.3c-0.7,0.3-1.2,0.4-1.7,0.1c-0.4-0.2-0.7-0.6-0.9-1.1c-0.2-0.5-0.1-1,0-1.5c0.2-0.5,0.6-0.9,1.2-1.2
		c1.4-0.6,2.8-1.1,4.2-1.4c1.4-0.3,2.7-0.5,3.9-0.5c3.2,0,5.6,0.8,7.1,2.3c1.5,1.5,2.3,3.9,2.3,7.1v12.3c0,1.6-0.8,2.4-2.3,2.4
		c-1.5,0-2.3-0.8-2.3-2.4v-1.8c-0.6,1.3-1.5,2.4-2.7,3.2C268.5,395.3,267,395.7,265.4,395.7z M266.3,392.3c1.7,0,3.2-0.6,4.3-1.8
		c1.2-1.2,1.7-2.8,1.7-4.6v-1.3h-1.6c-2.3,0-4.2,0.1-5.5,0.3c-1.3,0.2-2.3,0.6-2.8,1.1c-0.6,0.5-0.8,1.3-0.8,2.2
		c0,1.2,0.4,2.2,1.2,3C263.7,391.9,264.8,392.3,266.3,392.3z"/>
	<path class="st0" d="M293.6,395.7c-2.9,0-5.1-0.8-6.6-2.3c-1.4-1.5-2.2-3.7-2.2-6.5v-11.3H282c-1.3,0-2-0.6-2-1.9s0.7-1.9,2-1.9
		h2.9v-4.9c0-1.6,0.8-2.4,2.4-2.4c1.6,0,2.4,0.8,2.4,2.4v4.9h5.6c1.3,0,2,0.6,2,1.9s-0.7,1.9-2,1.9h-5.6v10.9c0,1.7,0.4,3,1.1,3.8
		c0.7,0.9,1.9,1.3,3.5,1.3c0.6,0,1.1-0.1,1.5-0.2c0.4-0.1,0.8-0.2,1.1-0.2c0.4,0,0.6,0.1,0.9,0.4c0.2,0.2,0.3,0.7,0.3,1.4
		c0,0.5-0.1,1-0.3,1.4c-0.2,0.4-0.5,0.7-0.9,0.8c-0.4,0.2-0.9,0.3-1.6,0.4C294.7,395.7,294.1,395.7,293.6,395.7z"/>
	<path class="st0" d="M304,366.6c-1,0-1.7-0.2-2.2-0.7c-0.5-0.5-0.8-1.2-0.8-2c0-1.8,1-2.7,3-2.7s3,0.9,3,2.7
		C307,365.7,306,366.6,304,366.6z M304,395.6c-1.6,0-2.4-0.9-2.4-2.6v-18.7c0-1.7,0.8-2.6,2.4-2.6c1.6,0,2.4,0.9,2.4,2.6v18.7
		C306.4,394.7,305.6,395.6,304,395.6z"/>
	<path class="st0" d="M322.3,395.6c-1.3,0-2.3-0.7-3-2.2l-8-18.6c-0.4-0.9-0.4-1.6,0-2.3c0.4-0.7,1.1-1,2.2-1c0.6,0,1,0.1,1.4,0.4
		c0.4,0.3,0.7,0.8,1,1.5l6.6,16.2l6.7-16.2c0.3-0.7,0.6-1.2,1-1.5c0.4-0.3,0.9-0.4,1.6-0.4c0.9,0,1.5,0.3,1.8,1
		c0.3,0.7,0.3,1.4,0,2.3l-8.1,18.7C324.7,394.9,323.7,395.6,322.3,395.6z"/>
	<path class="st0" d="M348.8,395.7c-3.8,0-6.9-1.1-9.1-3.2c-2.2-2.2-3.3-5.1-3.3-8.9c0-2.4,0.5-4.5,1.5-6.4c1-1.8,2.3-3.3,4.1-4.3
		c1.7-1,3.7-1.5,6-1.5c3.2,0,5.8,1,7.6,3.1c1.9,2.1,2.8,4.9,2.8,8.5c0,1.1-0.6,1.6-1.9,1.6h-15.3c0.4,4.9,2.9,7.3,7.7,7.3
		c1,0,2-0.1,3-0.4c1.1-0.2,2.1-0.7,3.1-1.3c0.7-0.4,1.3-0.5,1.8-0.4c0.5,0.1,0.9,0.4,1.1,0.8c0.2,0.4,0.3,0.9,0.1,1.4
		c-0.1,0.5-0.5,1-1.1,1.4c-1.1,0.7-2.4,1.3-3.8,1.7S350.1,395.7,348.8,395.7z M348.1,374.8c-2,0-3.6,0.6-4.8,1.9
		c-1.2,1.2-1.9,2.9-2.2,5h13.1c-0.1-2.2-0.7-3.9-1.7-5.1C351.4,375.4,349.9,374.8,348.1,374.8z"/>
	<path class="st0" d="M379.4,395.3c-1.8,0-2.7-0.9-2.7-2.7v-28.5c0-1.8,0.9-2.7,2.7-2.7h9.3c5.6,0,9.9,1.5,12.9,4.4
		s4.5,7.1,4.5,12.5c0,5.4-1.5,9.6-4.5,12.6c-3,2.9-7.3,4.4-12.9,4.4H379.4z M381.8,391.1h6.7c8.4,0,12.5-4.3,12.5-12.8
		c0-8.5-4.2-12.7-12.5-12.7h-6.7V391.1z"/>
	<path class="st0" d="M423.3,395.7c-3.8,0-6.9-1.1-9.1-3.2c-2.2-2.2-3.3-5.1-3.3-8.9c0-2.4,0.5-4.5,1.5-6.4c1-1.8,2.3-3.3,4.1-4.3
		c1.7-1,3.7-1.5,6-1.5c3.2,0,5.8,1,7.6,3.1c1.9,2.1,2.8,4.9,2.8,8.5c0,1.1-0.6,1.6-1.9,1.6h-15.3c0.4,4.9,2.9,7.3,7.7,7.3
		c1,0,2-0.1,3-0.4c1.1-0.2,2.1-0.7,3.1-1.3c0.7-0.4,1.3-0.5,1.8-0.4c0.5,0.1,0.9,0.4,1.1,0.8c0.2,0.4,0.3,0.9,0.1,1.4
		c-0.1,0.5-0.5,1-1.1,1.4c-1.1,0.7-2.4,1.3-3.8,1.7S424.6,395.7,423.3,395.7z M422.6,374.8c-2,0-3.6,0.6-4.8,1.9
		c-1.2,1.2-1.9,2.9-2.2,5h13.1c-0.1-2.2-0.7-3.9-1.7-5.1C425.9,375.4,424.4,374.8,422.6,374.8z"/>
	<path class="st0" d="M446.3,395.7c-1.4,0-2.9-0.2-4.4-0.5c-1.5-0.3-2.9-0.9-4.1-1.6c-0.5-0.3-0.9-0.7-1-1.2
		c-0.1-0.5-0.1-0.9,0.1-1.3c0.2-0.4,0.5-0.7,0.9-0.9c0.4-0.2,0.9-0.1,1.5,0.2c1.2,0.7,2.4,1.2,3.6,1.4c1.2,0.3,2.3,0.4,3.4,0.4
		c1.7,0,3-0.3,3.8-0.9c0.9-0.6,1.3-1.4,1.3-2.4c0-0.8-0.3-1.5-0.9-1.9s-1.4-0.8-2.6-1.1l-4.6-0.9c-4-0.8-6-2.9-6-6.2
		c0-2.2,0.9-4,2.6-5.3c1.8-1.3,4.1-2,6.9-2c2.9,0,5.4,0.7,7.4,2.1c0.5,0.3,0.8,0.7,0.9,1.2c0.1,0.5,0,0.9-0.2,1.3
		c-0.2,0.4-0.6,0.7-1,0.8c-0.4,0.2-0.9,0.1-1.5-0.2c-1-0.6-1.9-1-2.9-1.3c-1-0.3-1.9-0.4-2.8-0.4c-1.7,0-2.9,0.3-3.8,0.9
		c-0.9,0.6-1.3,1.5-1.3,2.5c0,1.6,1.1,2.6,3.2,3.1l4.6,0.9c2.1,0.4,3.7,1.1,4.7,2.1c1.1,1,1.6,2.3,1.6,4c0,2.2-0.9,4-2.6,5.3
		C451.5,395.1,449.2,395.7,446.3,395.7z"/>
	<path class="st0" d="M463.7,366.6c-1,0-1.7-0.2-2.2-0.7c-0.5-0.5-0.8-1.2-0.8-2c0-1.8,1-2.7,3-2.7s3,0.9,3,2.7
		C466.7,365.7,465.7,366.6,463.7,366.6z M463.7,395.6c-1.6,0-2.4-0.9-2.4-2.6v-18.7c0-1.7,0.8-2.6,2.4-2.6c1.6,0,2.4,0.9,2.4,2.6
		v18.7C466.1,394.7,465.3,395.6,463.7,395.6z"/>
	<path class="st0" d="M483.6,404.3c-1.7,0-3.4-0.2-5-0.5c-1.6-0.4-3.1-0.9-4.4-1.7c-0.6-0.3-0.9-0.7-1.1-1.2
		c-0.1-0.5-0.1-0.9,0.2-1.4c0.2-0.4,0.6-0.8,1-1c0.4-0.2,0.9-0.2,1.4,0.1c1.4,0.8,2.7,1.3,4,1.6c1.3,0.3,2.4,0.4,3.5,0.4
		c4.5,0,6.7-2.2,6.7-6.7v-3.7c-0.7,1.4-1.7,2.5-3.1,3.3c-1.4,0.8-3,1.2-4.8,1.2c-2.1,0-4-0.5-5.5-1.5c-1.6-1-2.8-2.3-3.6-4.1
		c-0.9-1.7-1.3-3.8-1.3-6.1c0-2.3,0.4-4.3,1.3-6.1s2.1-3.1,3.6-4.1c1.6-1,3.4-1.5,5.5-1.5c1.8,0,3.3,0.4,4.7,1.2s2.4,1.8,3.1,3.2
		V374c0-1.6,0.8-2.4,2.4-2.4c1.6,0,2.4,0.8,2.4,2.4v19.3c0,3.7-0.9,6.4-2.8,8.3C489.9,403.4,487.2,404.3,483.6,404.3z M483.2,390.9
		c2,0,3.7-0.7,4.9-2.1c1.2-1.4,1.8-3.3,1.8-5.8c0-2.4-0.6-4.3-1.8-5.7c-1.2-1.4-2.8-2.1-4.9-2.1s-3.7,0.7-4.9,2.1
		c-1.2,1.4-1.8,3.3-1.8,5.7c0,2.4,0.6,4.4,1.8,5.8C479.5,390.2,481.1,390.9,483.2,390.9z"/>
	<path class="st0" d="M503.9,395.6c-1.6,0-2.4-0.8-2.4-2.4V374c0-1.6,0.8-2.4,2.4-2.4s2.4,0.8,2.4,2.4v1.8c0.8-1.4,1.9-2.5,3.3-3.2
		c1.4-0.7,3-1.1,4.7-1.1c5.5,0,8.3,3.1,8.3,9.4v12.3c0,1.6-0.8,2.4-2.4,2.4c-1.6,0-2.4-0.8-2.4-2.4v-12c0-2-0.4-3.5-1.2-4.4
		c-0.8-0.9-2-1.4-3.7-1.4c-2,0-3.5,0.6-4.7,1.8c-1.2,1.2-1.8,2.9-1.8,4.9v11.1C506.3,394.8,505.5,395.6,503.9,395.6z"/>
	<path class="st0" d="M540.1,395.7c-3.8,0-6.9-1.1-9.1-3.2c-2.2-2.2-3.3-5.1-3.3-8.9c0-2.4,0.5-4.5,1.5-6.4c1-1.8,2.3-3.3,4.1-4.3
		c1.7-1,3.7-1.5,6-1.5c3.2,0,5.8,1,7.6,3.1c1.9,2.1,2.8,4.9,2.8,8.5c0,1.1-0.6,1.6-1.9,1.6h-15.3c0.4,4.9,2.9,7.3,7.7,7.3
		c1,0,2-0.1,3-0.4c1.1-0.2,2.1-0.7,3.1-1.3c0.7-0.4,1.3-0.5,1.8-0.4c0.5,0.1,0.9,0.4,1.1,0.8c0.2,0.4,0.3,0.9,0.1,1.4
		c-0.1,0.5-0.5,1-1.1,1.4c-1.1,0.7-2.4,1.3-3.8,1.7S541.4,395.7,540.1,395.7z M539.4,374.8c-2,0-3.6,0.6-4.8,1.9
		c-1.2,1.2-1.9,2.9-2.2,5h13.1c-0.1-2.2-0.7-3.9-1.7-5.1C542.7,375.4,541.3,374.8,539.4,374.8z"/>
	<path class="st0" d="M557.3,395.6c-1.6,0-2.4-0.8-2.4-2.4V374c0-1.6,0.8-2.4,2.4-2.4s2.4,0.8,2.4,2.4v2.1c0.6-1.4,1.6-2.5,2.9-3.3
		c1.3-0.8,2.9-1.2,4.7-1.3c1.2-0.1,1.8,0.5,1.9,1.9c0.1,1.4-0.6,2.2-2.1,2.3l-0.9,0.1c-4.3,0.4-6.4,2.6-6.4,6.6v10.9
		C559.8,394.8,559,395.6,557.3,395.6z"/>
	<path class="st0" d="M607.3,391.1c-1.6,0-3-0.4-4.3-1.1c-1.3-0.8-2.4-1.8-3.2-3c-0.8-1.3-1.2-2.7-1.2-4.3c0-1.5,0.4-2.9,1.1-4.2
		c0.8-1.3,1.8-2.4,3.1-3.2c1.3-0.8,2.8-1.2,4.5-1.2c1.5,0,3,0.4,4.3,1.1c1.3,0.7,2.4,1.8,3.2,3c0.8,1.3,1.2,2.8,1.2,4.4
		c0,1.6-0.4,3-1.2,4.3c-0.8,1.3-1.8,2.3-3.1,3.1C610.4,390.7,608.9,391.1,607.3,391.1z"/>
	<path class="st0" d="M647.9,395.6c-1.3,0-2.3-0.7-2.8-2.2L634.8,364c-0.3-0.8-0.2-1.5,0.2-2.1c0.4-0.6,1.1-0.8,2-0.8
		c0.7,0,1.3,0.2,1.7,0.5c0.4,0.3,0.7,0.8,0.9,1.5l8.5,25l8.7-24.9c0.5-1.4,1.4-2.1,2.5-2.1c0.6,0,1.1,0.2,1.5,0.5
		c0.4,0.4,0.7,0.9,1,1.6l8.6,25.1l8.7-25.2c0.2-0.7,0.5-1.2,0.9-1.5c0.4-0.3,0.9-0.5,1.6-0.5c0.8,0,1.4,0.3,1.8,0.8
		c0.4,0.6,0.4,1.3,0.1,2.1l-10.4,29.5c-0.3,0.7-0.6,1.2-1.1,1.6c-0.4,0.4-1,0.5-1.7,0.5c-0.7,0-1.3-0.2-1.7-0.5
		c-0.4-0.4-0.8-0.9-1-1.6l-8.5-24.5l-8.6,24.5c-0.3,0.7-0.6,1.2-1,1.6C649.1,395.4,648.6,395.6,647.9,395.6z"/>
	<path class="st0" d="M697.2,395.7c-3.8,0-6.9-1.1-9.1-3.2c-2.2-2.2-3.3-5.1-3.3-8.9c0-2.4,0.5-4.5,1.5-6.4c1-1.8,2.3-3.3,4.1-4.3
		c1.7-1,3.7-1.5,6-1.5c3.2,0,5.8,1,7.6,3.1c1.9,2.1,2.8,4.9,2.8,8.5c0,1.1-0.6,1.6-1.9,1.6h-15.3c0.4,4.9,2.9,7.3,7.7,7.3
		c1,0,2-0.1,3-0.4c1.1-0.2,2.1-0.7,3.1-1.3c0.7-0.4,1.3-0.5,1.8-0.4c0.5,0.1,0.9,0.4,1.1,0.8c0.2,0.4,0.3,0.9,0.1,1.4
		c-0.1,0.5-0.5,1-1.1,1.4c-1.1,0.7-2.4,1.3-3.8,1.7S698.5,395.7,697.2,395.7z M696.4,374.8c-2,0-3.6,0.6-4.8,1.9
		c-1.2,1.2-1.9,2.9-2.2,5h13.1c-0.1-2.2-0.7-3.9-1.7-5.1C699.8,375.4,698.3,374.8,696.4,374.8z"/>
	<path class="st0" d="M724.5,395.7c-1.8,0-3.3-0.4-4.7-1.2c-1.4-0.8-2.4-1.8-3.1-3.2v1.8c0,1.6-0.8,2.4-2.4,2.4
		c-1.6,0-2.4-0.8-2.4-2.4v-29.6c0-1.6,0.8-2.4,2.4-2.4c1.6,0,2.4,0.8,2.4,2.4v12.1c0.7-1.3,1.7-2.3,3.1-3.1c1.4-0.8,2.9-1.2,4.6-1.2
		c2.1,0,3.9,0.5,5.4,1.5c1.6,1,2.8,2.4,3.6,4.2c0.8,1.8,1.3,4,1.3,6.5s-0.4,4.7-1.3,6.5c-0.8,1.8-2,3.2-3.6,4.2
		C728.4,395.2,726.6,395.7,724.5,395.7z M723.3,392c2,0,3.6-0.7,4.8-2.2c1.2-1.4,1.8-3.5,1.8-6.2s-0.6-4.8-1.8-6.2
		c-1.2-1.4-2.8-2.1-4.8-2.1c-2,0-3.6,0.7-4.8,2.1s-1.8,3.5-1.8,6.2s0.6,4.8,1.8,6.2C719.7,391.2,721.3,392,723.3,392z"/>
	<path class="st0" d="M756.2,395.3c-1.8,0-2.7-0.9-2.7-2.7v-28.5c0-1.8,0.9-2.7,2.7-2.7h9.3c5.6,0,9.9,1.5,12.9,4.4
		c3,2.9,4.5,7.1,4.5,12.5c0,5.4-1.5,9.6-4.5,12.6c-3,2.9-7.3,4.4-12.9,4.4H756.2z M758.5,391.1h6.7c8.4,0,12.5-4.3,12.5-12.8
		c0-8.5-4.2-12.7-12.5-12.7h-6.7V391.1z"/>
	<path class="st0" d="M800,395.7c-3.8,0-6.9-1.1-9.1-3.2c-2.2-2.2-3.3-5.1-3.3-8.9c0-2.4,0.5-4.5,1.5-6.4c1-1.8,2.3-3.3,4.1-4.3
		c1.7-1,3.7-1.5,6-1.5c3.2,0,5.8,1,7.6,3.1c1.9,2.1,2.8,4.9,2.8,8.5c0,1.1-0.6,1.6-1.9,1.6h-15.3c0.4,4.9,2.9,7.3,7.7,7.3
		c1,0,2-0.1,3-0.4c1.1-0.2,2.1-0.7,3.1-1.3c0.7-0.4,1.3-0.5,1.8-0.4c0.5,0.1,0.9,0.4,1.1,0.8c0.2,0.4,0.3,0.9,0.1,1.4
		c-0.1,0.5-0.5,1-1.1,1.4c-1.1,0.7-2.4,1.3-3.8,1.7S801.3,395.7,800,395.7z M799.3,374.8c-2,0-3.6,0.6-4.8,1.9
		c-1.2,1.2-1.9,2.9-2.2,5h13.1c-0.1-2.2-0.7-3.9-1.7-5.1C802.7,375.4,801.2,374.8,799.3,374.8z"/>
	<path class="st0" d="M823.5,395.6c-1.3,0-2.3-0.7-3-2.2l-8-18.6c-0.4-0.9-0.4-1.6,0-2.3c0.4-0.7,1.1-1,2.2-1c0.6,0,1,0.1,1.4,0.4
		s0.7,0.8,1,1.5l6.6,16.2l6.7-16.2c0.3-0.7,0.6-1.2,1-1.5c0.4-0.3,0.9-0.4,1.6-0.4c0.9,0,1.5,0.3,1.8,1c0.3,0.7,0.3,1.4,0,2.3
		l-8.1,18.7C825.9,394.9,824.9,395.6,823.5,395.6z"/>
	<path class="st0" d="M850,395.7c-3.8,0-6.9-1.1-9.1-3.2c-2.2-2.2-3.3-5.1-3.3-8.9c0-2.4,0.5-4.5,1.5-6.4c1-1.8,2.3-3.3,4.1-4.3
		c1.7-1,3.7-1.5,6-1.5c3.2,0,5.8,1,7.6,3.1c1.9,2.1,2.8,4.9,2.8,8.5c0,1.1-0.6,1.6-1.9,1.6h-15.3c0.4,4.9,2.9,7.3,7.7,7.3
		c1,0,2-0.1,3-0.4c1.1-0.2,2.1-0.7,3.1-1.3c0.7-0.4,1.3-0.5,1.8-0.4c0.5,0.1,0.9,0.4,1.1,0.8c0.2,0.4,0.3,0.9,0.1,1.4
		c-0.1,0.5-0.5,1-1.1,1.4c-1.1,0.7-2.4,1.3-3.8,1.7S851.3,395.7,850,395.7z M849.3,374.8c-2,0-3.6,0.6-4.8,1.9
		c-1.2,1.2-1.9,2.9-2.2,5h13.1c-0.1-2.2-0.7-3.9-1.7-5.1C852.6,375.4,851.2,374.8,849.3,374.8z"/>
	<path class="st0" d="M872.3,395.7c-2.5,0-4.4-0.7-5.6-2.2c-1.3-1.4-1.9-3.6-1.9-6.3v-23.7c0-1.6,0.8-2.4,2.4-2.4
		c1.6,0,2.4,0.8,2.4,2.4v23.4c0,3.2,1.3,4.8,3.8,4.8c0.3,0,0.5,0,0.8,0c0.2,0,0.4,0,0.7,0c0.4,0,0.7,0.1,0.8,0.3s0.2,0.7,0.2,1.5
		c0,1.3-0.6,2.1-1.8,2.3c-0.3,0-0.6,0.1-0.9,0.1C872.9,395.7,872.6,395.7,872.3,395.7z"/>
	<path class="st0" d="M889.4,395.7c-2.4,0-4.4-0.5-6.1-1.5c-1.7-1-3.1-2.4-4-4.2c-0.9-1.8-1.4-4-1.4-6.5s0.5-4.6,1.4-6.5
		c0.9-1.8,2.3-3.2,4-4.2c1.7-1,3.8-1.5,6.1-1.5c2.3,0,4.3,0.5,6,1.5c1.7,1,3.1,2.4,4,4.2c1,1.8,1.4,4,1.4,6.5s-0.5,4.6-1.4,6.5
		c-1,1.8-2.3,3.2-4,4.2C893.7,395.2,891.7,395.7,889.4,395.7z M889.4,392c2,0,3.6-0.7,4.8-2.2c1.2-1.4,1.8-3.5,1.8-6.2
		s-0.6-4.8-1.8-6.2s-2.8-2.1-4.8-2.1c-2,0-3.6,0.7-4.8,2.1c-1.2,1.4-1.8,3.5-1.8,6.2s0.6,4.8,1.8,6.2
		C885.8,391.2,887.4,392,889.4,392z"/>
	<path class="st0" d="M908.7,404.3c-1.6,0-2.4-0.8-2.4-2.4V374c0-1.6,0.8-2.4,2.4-2.4c1.6,0,2.4,0.8,2.4,2.4v1.8
		c0.7-1.3,1.7-2.4,3.1-3.2c1.4-0.8,2.9-1.2,4.7-1.2c2.1,0,3.9,0.5,5.4,1.5c1.6,1,2.8,2.4,3.6,4.2c0.8,1.8,1.3,4,1.3,6.5
		s-0.4,4.7-1.3,6.5c-0.8,1.8-2,3.2-3.6,4.2c-1.6,1-3.4,1.5-5.4,1.5c-1.7,0-3.3-0.4-4.6-1.1c-1.4-0.8-2.4-1.8-3.1-3.1v10.3
		C911.2,403.4,910.4,404.3,908.7,404.3z M917.7,392c2,0,3.6-0.7,4.8-2.2c1.2-1.4,1.8-3.5,1.8-6.2s-0.6-4.8-1.8-6.2
		c-1.2-1.4-2.8-2.1-4.8-2.1c-2,0-3.6,0.7-4.8,2.1s-1.8,3.5-1.8,6.2s0.6,4.8,1.8,6.2C914.1,391.2,915.7,392,917.7,392z"/>
	<path class="st0" d="M945.7,395.7c-3.8,0-6.9-1.1-9.1-3.2c-2.2-2.2-3.3-5.1-3.3-8.9c0-2.4,0.5-4.5,1.5-6.4c1-1.8,2.3-3.3,4.1-4.3
		c1.7-1,3.7-1.5,6-1.5c3.2,0,5.8,1,7.6,3.1c1.9,2.1,2.8,4.9,2.8,8.5c0,1.1-0.6,1.6-1.9,1.6H938c0.4,4.9,2.9,7.3,7.7,7.3
		c1,0,2-0.1,3-0.4c1.1-0.2,2.1-0.7,3.1-1.3c0.7-0.4,1.3-0.5,1.8-0.4c0.5,0.1,0.9,0.4,1.1,0.8c0.2,0.4,0.3,0.9,0.1,1.4
		c-0.1,0.5-0.5,1-1.1,1.4c-1.1,0.7-2.4,1.3-3.8,1.7S947,395.7,945.7,395.7z M945,374.8c-2,0-3.6,0.6-4.8,1.9c-1.2,1.2-1.9,2.9-2.2,5
		h13.1c-0.1-2.2-0.7-3.9-1.7-5.1C948.3,375.4,946.9,374.8,945,374.8z"/>
	<path class="st0" d="M962.9,395.6c-1.6,0-2.4-0.8-2.4-2.4V374c0-1.6,0.8-2.4,2.4-2.4c1.6,0,2.4,0.8,2.4,2.4v2.1
		c0.6-1.4,1.6-2.5,2.9-3.3c1.3-0.8,2.9-1.2,4.7-1.3c1.2-0.1,1.8,0.5,1.9,1.9c0.1,1.4-0.6,2.2-2.1,2.3l-0.9,0.1
		c-4.3,0.4-6.4,2.6-6.4,6.6v10.9C965.4,394.8,964.6,395.6,962.9,395.6z"/>
	<path class="st0" d="M1012.9,391.1c-1.6,0-3-0.4-4.3-1.1c-1.3-0.8-2.4-1.8-3.2-3c-0.8-1.3-1.2-2.7-1.2-4.3c0-1.5,0.4-2.9,1.1-4.2
		s1.8-2.4,3.1-3.2c1.3-0.8,2.8-1.2,4.5-1.2c1.5,0,3,0.4,4.3,1.1c1.3,0.7,2.4,1.8,3.2,3c0.8,1.3,1.2,2.8,1.2,4.4c0,1.6-0.4,3-1.2,4.3
		c-0.8,1.3-1.8,2.3-3.1,3.1C1015.9,390.7,1014.5,391.1,1012.9,391.1z"/>
	<path class="st0" d="M1044.8,395.3c-1.8,0-2.7-0.9-2.7-2.7v-28.5c0-1.8,0.9-2.7,2.7-2.7h9.3c5.6,0,9.9,1.5,12.9,4.4
		c3,2.9,4.5,7.1,4.5,12.5c0,5.4-1.5,9.6-4.5,12.6c-3,2.9-7.3,4.4-12.9,4.4H1044.8z M1047.1,391.1h6.7c8.4,0,12.5-4.3,12.5-12.8
		c0-8.5-4.2-12.7-12.5-12.7h-6.7V391.1z"/>
	<path class="st0" d="M1080,366.6c-1,0-1.7-0.2-2.2-0.7c-0.5-0.5-0.8-1.2-0.8-2c0-1.8,1-2.7,3-2.7c2,0,3,0.9,3,2.7
		C1083,365.7,1082,366.6,1080,366.6z M1080,395.6c-1.6,0-2.4-0.9-2.4-2.6v-18.7c0-1.7,0.8-2.6,2.4-2.6c1.6,0,2.4,0.9,2.4,2.6v18.7
		C1082.4,394.7,1081.6,395.6,1080,395.6z"/>
	<path class="st0" d="M1099.9,404.3c-1.7,0-3.4-0.2-5-0.5c-1.6-0.4-3.1-0.9-4.4-1.7c-0.6-0.3-0.9-0.7-1.1-1.2
		c-0.1-0.5-0.1-0.9,0.2-1.4c0.2-0.4,0.6-0.8,1-1c0.4-0.2,0.9-0.2,1.4,0.1c1.4,0.8,2.7,1.3,4,1.6c1.3,0.3,2.4,0.4,3.5,0.4
		c4.5,0,6.7-2.2,6.7-6.7v-3.7c-0.7,1.4-1.7,2.5-3.1,3.3c-1.4,0.8-3,1.2-4.8,1.2c-2.1,0-4-0.5-5.5-1.5c-1.6-1-2.8-2.3-3.6-4.1
		c-0.9-1.7-1.3-3.8-1.3-6.1c0-2.3,0.4-4.3,1.3-6.1c0.9-1.7,2.1-3.1,3.6-4.1c1.6-1,3.4-1.5,5.5-1.5c1.8,0,3.3,0.4,4.7,1.2
		s2.4,1.8,3.1,3.2V374c0-1.6,0.8-2.4,2.4-2.4c1.6,0,2.4,0.8,2.4,2.4v19.3c0,3.7-0.9,6.4-2.8,8.3
		C1106.2,403.4,1103.5,404.3,1099.9,404.3z M1099.5,390.9c2,0,3.7-0.7,4.9-2.1c1.2-1.4,1.8-3.3,1.8-5.8c0-2.4-0.6-4.3-1.8-5.7
		c-1.2-1.4-2.8-2.1-4.9-2.1s-3.7,0.7-4.9,2.1c-1.2,1.4-1.8,3.3-1.8,5.7c0,2.4,0.6,4.4,1.8,5.8
		C1095.8,390.2,1097.4,390.9,1099.5,390.9z"/>
	<path class="st0" d="M1120.2,366.6c-1,0-1.7-0.2-2.2-0.7c-0.5-0.5-0.8-1.2-0.8-2c0-1.8,1-2.7,3-2.7c2,0,3,0.9,3,2.7
		C1123.2,365.7,1122.2,366.6,1120.2,366.6z M1120.2,395.6c-1.6,0-2.4-0.9-2.4-2.6v-18.7c0-1.7,0.8-2.6,2.4-2.6
		c1.6,0,2.4,0.9,2.4,2.6v18.7C1122.6,394.7,1121.8,395.6,1120.2,395.6z"/>
	<path class="st0" d="M1139.4,395.7c-2.9,0-5.1-0.8-6.6-2.3c-1.4-1.5-2.2-3.7-2.2-6.5v-11.3h-2.9c-1.3,0-2-0.6-2-1.9s0.7-1.9,2-1.9
		h2.9v-4.9c0-1.6,0.8-2.4,2.4-2.4c1.6,0,2.4,0.8,2.4,2.4v4.9h5.6c1.3,0,2,0.6,2,1.9s-0.7,1.9-2,1.9h-5.6v10.9c0,1.7,0.4,3,1.1,3.8
		c0.7,0.9,1.9,1.3,3.5,1.3c0.6,0,1.1-0.1,1.5-0.2s0.8-0.2,1.1-0.2c0.4,0,0.6,0.1,0.9,0.4c0.2,0.2,0.3,0.7,0.3,1.4
		c0,0.5-0.1,1-0.3,1.4s-0.5,0.7-0.9,0.8c-0.4,0.2-0.9,0.3-1.6,0.4S1139.9,395.7,1139.4,395.7z"/>
	<path class="st0" d="M1154.4,395.7c-1.6,0-3.1-0.3-4.4-1c-1.3-0.6-2.3-1.5-3-2.6c-0.8-1.1-1.1-2.3-1.1-3.7c0-1.7,0.4-3.1,1.3-4.1
		c0.9-1,2.3-1.7,4.4-2.2c2-0.4,4.8-0.7,8.2-0.7h1.6v-1.2c0-1.8-0.4-3.1-1.2-3.9c-0.8-0.8-2-1.2-3.8-1.2c-1,0-2.1,0.1-3.2,0.4
		c-1.1,0.3-2.2,0.7-3.4,1.3c-0.7,0.3-1.2,0.4-1.7,0.1c-0.4-0.2-0.7-0.6-0.9-1.1c-0.2-0.5-0.1-1,0-1.5c0.2-0.5,0.6-0.9,1.2-1.2
		c1.4-0.6,2.8-1.1,4.2-1.4c1.4-0.3,2.7-0.5,3.9-0.5c3.2,0,5.6,0.8,7.1,2.3c1.5,1.5,2.3,3.9,2.3,7.1v12.3c0,1.6-0.8,2.4-2.3,2.4
		c-1.5,0-2.3-0.8-2.3-2.4v-1.8c-0.6,1.3-1.5,2.4-2.7,3.2C1157.6,395.3,1156.1,395.7,1154.4,395.7z M1155.4,392.3
		c1.7,0,3.2-0.6,4.3-1.8c1.2-1.2,1.7-2.8,1.7-4.6v-1.3h-1.6c-2.3,0-4.2,0.1-5.5,0.3c-1.3,0.2-2.3,0.6-2.8,1.1
		c-0.6,0.5-0.8,1.3-0.8,2.2c0,1.2,0.4,2.2,1.2,3C1152.8,391.9,1153.9,392.3,1155.4,392.3z"/>
	<path class="st0" d="M1180.3,395.7c-2.5,0-4.4-0.7-5.6-2.2c-1.3-1.4-1.9-3.6-1.9-6.3v-23.7c0-1.6,0.8-2.4,2.4-2.4
		c1.6,0,2.4,0.8,2.4,2.4v23.4c0,3.2,1.3,4.8,3.8,4.8c0.3,0,0.5,0,0.8,0c0.2,0,0.4,0,0.7,0c0.4,0,0.7,0.1,0.8,0.3s0.2,0.7,0.2,1.5
		c0,1.3-0.6,2.1-1.8,2.3c-0.3,0-0.6,0.1-0.9,0.1C1180.8,395.7,1180.6,395.7,1180.3,395.7z"/>
	<path class="st0" d="M1200.4,395.6c-1,0-1.6-0.3-2-0.9c-0.4-0.6-0.3-1.4,0.1-2.3l13-29.2c0.3-0.7,0.7-1.3,1.2-1.6
		c0.5-0.3,1-0.5,1.7-0.5c0.6,0,1.1,0.2,1.6,0.5c0.5,0.3,0.9,0.9,1.2,1.6l13,29.2c0.4,0.9,0.5,1.7,0.1,2.3s-1,0.9-1.9,0.9
		c-0.7,0-1.3-0.2-1.7-0.5c-0.4-0.4-0.8-0.9-1.1-1.6l-2.8-6.4h-17.1l-2.7,6.4c-0.3,0.8-0.7,1.3-1.1,1.7S1201.1,395.6,1200.4,395.6z
		 M1214.3,367l-6.8,16h13.7L1214.3,367L1214.3,367z"/>
	<path class="st0" d="M1237.9,395.6c-1.6,0-2.4-0.8-2.4-2.4V374c0-1.6,0.8-2.4,2.4-2.4c1.6,0,2.4,0.8,2.4,2.4v2.1
		c0.6-1.4,1.6-2.5,2.9-3.3c1.3-0.8,2.9-1.2,4.7-1.3c1.2-0.1,1.8,0.5,1.9,1.9c0.1,1.4-0.6,2.2-2.1,2.3l-0.9,0.1
		c-4.3,0.4-6.4,2.6-6.4,6.6v10.9C1240.3,394.8,1239.5,395.6,1237.9,395.6z"/>
	<path class="st0" d="M1264.6,395.7c-2.9,0-5.1-0.8-6.6-2.3c-1.4-1.5-2.2-3.7-2.2-6.5v-11.3h-2.9c-1.3,0-2-0.6-2-1.9s0.7-1.9,2-1.9
		h2.9v-4.9c0-1.6,0.8-2.4,2.4-2.4c1.6,0,2.4,0.8,2.4,2.4v4.9h5.6c1.3,0,2,0.6,2,1.9s-0.7,1.9-2,1.9h-5.6v10.9c0,1.7,0.4,3,1.1,3.8
		c0.7,0.9,1.9,1.3,3.5,1.3c0.6,0,1.1-0.1,1.5-0.2s0.8-0.2,1.1-0.2c0.4,0,0.6,0.1,0.9,0.4c0.2,0.2,0.3,0.7,0.3,1.4
		c0,0.5-0.1,1-0.3,1.4s-0.5,0.7-0.9,0.8c-0.4,0.2-0.9,0.3-1.6,0.4S1265.1,395.7,1264.6,395.7z"/>
	<path class="st0" d="M1275,366.6c-1,0-1.7-0.2-2.2-0.7c-0.5-0.5-0.8-1.2-0.8-2c0-1.8,1-2.7,3-2.7c2,0,3,0.9,3,2.7
		C1278,365.7,1277,366.6,1275,366.6z M1275,395.6c-1.6,0-2.4-0.9-2.4-2.6v-18.7c0-1.7,0.8-2.6,2.4-2.6c1.6,0,2.4,0.9,2.4,2.6v18.7
		C1277.4,394.7,1276.6,395.6,1275,395.6z"/>
	<path class="st0" d="M1292.4,395.7c-1.4,0-2.9-0.2-4.4-0.5c-1.5-0.3-2.9-0.9-4.1-1.6c-0.5-0.3-0.9-0.7-1-1.2
		c-0.1-0.5-0.1-0.9,0.1-1.3c0.2-0.4,0.5-0.7,0.9-0.9c0.4-0.2,0.9-0.1,1.5,0.2c1.2,0.7,2.4,1.2,3.6,1.4s2.3,0.4,3.4,0.4
		c1.7,0,3-0.3,3.8-0.9c0.9-0.6,1.3-1.4,1.3-2.4c0-0.8-0.3-1.5-0.9-1.9c-0.6-0.5-1.4-0.8-2.6-1.1l-4.6-0.9c-4-0.8-6-2.9-6-6.2
		c0-2.2,0.9-4,2.6-5.3s4.1-2,6.9-2c2.9,0,5.4,0.7,7.4,2.1c0.5,0.3,0.8,0.7,0.9,1.2c0.1,0.5,0,0.9-0.2,1.3c-0.2,0.4-0.6,0.7-1,0.8
		c-0.4,0.2-0.9,0.1-1.5-0.2c-1-0.6-1.9-1-2.9-1.3c-1-0.3-1.9-0.4-2.8-0.4c-1.7,0-2.9,0.3-3.8,0.9s-1.3,1.5-1.3,2.5
		c0,1.6,1.1,2.6,3.2,3.1l4.6,0.9c2.1,0.4,3.7,1.1,4.7,2.1c1.1,1,1.6,2.3,1.6,4c0,2.2-0.9,4-2.6,5.3
		C1297.7,395.1,1295.4,395.7,1292.4,395.7z"/>
	<path class="st0" d="M1317.2,395.7c-2.9,0-5.1-0.8-6.6-2.3c-1.4-1.5-2.2-3.7-2.2-6.5v-11.3h-2.9c-1.3,0-2-0.6-2-1.9s0.7-1.9,2-1.9
		h2.9v-4.9c0-1.6,0.8-2.4,2.4-2.4c1.6,0,2.4,0.8,2.4,2.4v4.9h5.6c1.3,0,2,0.6,2,1.9s-0.7,1.9-2,1.9h-5.6v10.9c0,1.7,0.4,3,1.1,3.8
		c0.7,0.9,1.9,1.3,3.5,1.3c0.6,0,1.1-0.1,1.5-0.2s0.8-0.2,1.1-0.2c0.4,0,0.6,0.1,0.9,0.4c0.2,0.2,0.3,0.7,0.3,1.4
		c0,0.5-0.1,1-0.3,1.4s-0.5,0.7-0.9,0.8c-0.4,0.2-0.9,0.3-1.6,0.4S1317.7,395.7,1317.2,395.7z"/>
</g>
</svg>
