<?xml version="1.0" encoding="utf-8"?>
<!-- Generator: Adobe Illustrator 27.7.0, SVG Export Plug-In . SVG Version: 6.00 Build 0)  -->
<svg version="1.1" id="Layer_1" xmlns="http://www.w3.org/2000/svg" xmlns:xlink="http://www.w3.org/1999/xlink" x="0px" y="0px"
	 viewBox="0 0 1200 348" style="enable-background:new 0 0 1200 348;" xml:space="preserve">
<style type="text/css">
	.st0{fill:#FF2222;}
</style>
<g>
	<g>
		<g id="Seelay_00000062160176308050073650000011441721155046446509_">
			<path class="st0" d="M281.7,104.1h35v9.7c0,13.9,6.4,27.2,18.8,39.1l24.5,23c7.9,7.9,11.6,17.1,11.6,28c0,11-3.7,20.8-11.6,28.5
				c-7.9,7.9-17.1,11.6-28.5,11.6h-54.8v-35h54.8c1.4,0,2.7-0.5,3.7-1.4c1-1,1.4-2.4,1.4-3.7c0-1.4-0.5-2.4-1.4-3.2l-18.4-17.4
				c-23.5-21.1-35-44.1-35-69.1L281.7,104.1L281.7,104.1z"/>
			<path class="st0" d="M471.3,104.1v35h-95.4v-35H471.3z M411.1,209h60.2v35h-95.4v-90.2h95.4v34.8h-60.2V209L411.1,209z"/>
			<path class="st0" d="M581.3,104.1v35H486v-35H581.3z M520.9,209h60.2v35H486v-90.2h95.4v34.8h-60.2L520.9,209L520.9,209
				L520.9,209z"/>
			<path class="st0" d="M691.4,209v35H596V104.1h35V209C630.9,209,691.4,209,691.4,209z"/>
			<path class="st0" d="M771.9,209l-26.3-104.9h35l40.1,140H695.5l23.8-90.2h36.7l-12.4,55.3C743.9,209,771.9,209,771.9,209z"/>
			<path class="st0" d="M809.3,144v-40.1h35V144c0,4.2,1.4,7.9,4.7,10.6c2.7,2.7,6.4,4.7,10.6,4.7c4.2,0,7.9-1.4,10.6-4.7
				c2.7-3.2,4.7-6.4,4.7-10.6v-40.1h34.6V144c0,13.9-5.2,25.8-14.7,35.4c-9.7,9.7-21.7,14.7-35.4,14.7s-25.8-5.2-35.4-14.7
				C814.3,169.8,809.3,157.9,809.3,144L809.3,144z M824.3,209h69.9v35h-69.9V209z"/>
		</g>
	</g>
	<g>
		<path class="st0" d="M928,111c0,1.9-0.6,3.5-2.1,5c-1.3,1.3-2.9,2.1-4.8,2.1c-1.9,0-3.5-0.6-5-2.1c-1.3-1.3-2.1-3.1-2.1-5
			c0-1.9,0.6-3.5,2.1-4.8c1.3-1.3,3.1-2.1,5-2.1c1.9,0,3.5,0.6,4.8,2.1C927.4,107.5,928,109.1,928,111z M915.6,111
			c0,1.4,0.5,2.7,1.6,3.9c1.1,1.1,2.4,1.6,3.9,1.6s2.7-0.5,3.9-1.6c1.1-1.1,1.6-2.4,1.6-3.9s-0.5-2.9-1.6-3.9
			c-1.1-1.1-2.4-1.6-3.9-1.6s-2.7,0.5-3.9,1.6C916.1,108.1,915.6,109.4,915.6,111z M922.5,114.4l-1.6-2.6h-0.6v2.6h-1.4v-6.8h2.9
			c0.6,0,1.1,0.2,1.6,0.6c0.5,0.5,0.6,1,0.6,1.6c0,0.5-0.2,0.8-0.5,1.3c-0.3,0.3-0.6,0.6-1.1,0.8l0,0l1.8,2.6l0,0h-1.6V114.4z
			 M920.1,110.5h1.4c0.3,0,0.5,0,0.6-0.2c0.2-0.2,0.3-0.3,0.3-0.6c0-0.5-0.3-0.8-1.1-0.8h-1.1v1.6H920.1z"/>
	</g>
</g>
</svg>
