<?xml version="1.0" encoding="utf-8"?>
<!-- Generator: Adobe Illustrator 25.0.0, SVG Export Plug-In . SVG Version: 6.00 Build 0)  -->
<svg version="1.1" id="Layer_1" xmlns="http://www.w3.org/2000/svg" xmlns:xlink="http://www.w3.org/1999/xlink" x="0px" y="0px"
	 viewBox="0 0 1211 270.7" style="enable-background:new 0 0 1211 270.7;" xml:space="preserve">
<style type="text/css">
	.st0{fill:#F7DF1E;}
	.st1{fill:#539E43;}
	.st2{fill:#FFFFFF;}
	.st3{fill:#53C1DE;}
	.st4{fill:#CF649A;}
	.st5{fill:#E44F26;}
	.st6{fill:#F1662A;}
	.st7{fill:#EBEBEB;}
	.st8{fill:#010101;}
	.st9{fill:#131313;}
	.st10{fill:#1572B6;}
	.st11{fill:#33A9DC;}
	.st12{fill-rule:evenodd;clip-rule:evenodd;fill:#439934;}
	.st13{fill-rule:evenodd;clip-rule:evenodd;fill:#45A538;}
	.st14{fill-rule:evenodd;clip-rule:evenodd;fill:#46A037;}
	.st15{fill-rule:evenodd;clip-rule:evenodd;fill:#409433;}
	.st16{fill-rule:evenodd;clip-rule:evenodd;fill:#4FAA41;}
	.st17{fill-rule:evenodd;clip-rule:evenodd;fill:#4AA73C;}
	.st18{fill-rule:evenodd;clip-rule:evenodd;fill:#57AE47;}
	.st19{fill-rule:evenodd;clip-rule:evenodd;fill:#60B24F;}
	.st20{fill-rule:evenodd;clip-rule:evenodd;fill:#A9AA88;}
	.st21{fill-rule:evenodd;clip-rule:evenodd;fill:#B6B598;}
	.st22{fill-rule:evenodd;clip-rule:evenodd;fill:#C2C1A7;}
	.st23{fill-rule:evenodd;clip-rule:evenodd;fill:#CECDB7;}
	.st24{fill-rule:evenodd;clip-rule:evenodd;fill:#DBDAC7;}
	.st25{fill-rule:evenodd;clip-rule:evenodd;fill:#EBE9DC;}
	.st26{fill:#007ACC;}
	.st27{fill:none;}
	.st28{fill:#764ABC;}
	.st29{fill:#F8D9FF;}
	.st30{fill:#F3C0FF;}
	.st31{fill:#723B7F;}
	.st32{fill:#5C3066;}
	.st33{fill:#FEC478;}
	.st34{fill:#FEA832;}
	.st35{fill:#994C0F;}
	.st36{fill:#713708;}
	.st37{fill:#DAFF73;}
	.st38{fill:#AFFC00;}
	.st39{fill:#5D7F00;}
	.st40{fill:#506600;}
	.st41{fill:#CCEFFF;}
	.st42{fill:#ACE3FC;}
	.st43{fill:#57565C;}
	.st44{fill:#3E3D42;}
	.st45{fill:#0C61C6;}
	.st46{fill:#0A4EAF;}
	.st47{fill:#FF80E4;}
	.st48{fill:#FF5AD4;}
	.st49{fill:#7F1363;}
	.st50{fill:#661054;}
	.st51{fill-rule:evenodd;clip-rule:evenodd;fill:#181616;}
	.st52{fill:#181616;}
	.st53{fill-rule:evenodd;clip-rule:evenodd;fill:#FFFFFF;}
	.st54{fill-rule:evenodd;clip-rule:evenodd;fill:#FFFFFF;filter:url(#Adobe_OpacityMaskFilter);}
	.st55{mask:url(#mask0_1_);}
	.st56{fill:#0065A9;}
	.st57{fill:#1F9CF0;}
	.st58{opacity:0.25;}
	.st59{fill-rule:evenodd;clip-rule:evenodd;fill:url(#SVGID_1_);}
</style>
<g>
	<g>
		<g>
			<polygon class="st0" points="170.9,36.5 238.6,36.5 238.6,104.2 170.9,104.2 			"/>
			<path d="M188.7,93.1l5.2-3.1c1,1.8,1.9,3.3,4.1,3.3c2.1,0,3.4-0.8,3.4-4V67.6h6.4v21.7c0,6.6-3.9,9.6-9.5,9.6
				C193.2,98.9,190.2,96.3,188.7,93.1 M211.2,92.4l5.2-3c1.4,2.2,3.1,3.9,6.3,3.9c2.6,0,4.3-1.3,4.3-3.1c0-2.2-1.7-3-4.6-4.2
				l-1.6-0.7c-4.6-2-7.6-4.4-7.6-9.6c0-4.8,3.6-8.4,9.3-8.4c4,0,7,1.4,9,5.1l-5,3.2c-1.1-2-2.3-2.7-4.1-2.7c-1.9,0-3,1.2-3,2.7
				c0,1.9,1.2,2.7,3.9,3.9l1.6,0.7c5.4,2.3,8.5,4.7,8.5,10c0,5.7-4.5,8.9-10.5,8.9C216.9,98.9,213.1,96.1,211.2,92.4"/>
		</g>
	</g>
	<g>
		<g>
			<path class="st1" d="M458.9,107.5c-1,0-2-0.2-2.8-0.8l-9-5.3c-1.4-0.8-0.8-1-0.2-1.1c1.9-0.7,2.3-0.8,4.1-1.9
				c0.2-0.1,0.5,0,0.8,0l7,4.2c0.2,0.1,0.7,0.1,0.9,0l27.2-15.8c0.2-0.1,0.3-0.3,0.3-0.8V54.4c0-0.3-0.1-0.7-0.3-0.8l-27.5-15.3
				c-0.2-0.1-0.7-0.1-0.9,0l-27.2,15.7c-0.2,0.1-0.3,0.5-0.3,0.8v31.5c0,0.2,0.1,0.7,0.3,0.8l7.4,4.4c3.9,2.1,6.5-0.3,6.5-2.7V57.4
				c0-0.3,0.3-0.9,0.9-0.9h3.5c0.3,0,0.9,0.3,0.9,0.9v31c0,5.3-2.9,8.6-8.1,8.6c-1.6,0-2.7,0-6.2-1.7l-7.2-4.1c-1.7-1-2.8-2.9-2.8-5
				V54.7c0-2.1,1.1-3.9,2.8-5L456,34c1.7-1,3.9-1,5.8,0l27.2,15.8c1.7,1,2.8,2.9,2.8,5v31.5c0,2.1-1.1,3.9-2.8,5l-27.2,15.8
				C461,107.4,460,107.5,458.9,107.5z M467.4,86c-12,0-14.4-5.4-14.4-10c0-0.3,0.3-0.9,0.9-0.9h3.6c0.3,0,0.8,0.2,0.8,0.8
				c0.5,3.6,2.1,5.3,9.4,5.3c5.8,0,8.2-1.2,8.2-4.4c0-1.7-0.8-3.2-9.7-3.9c-7.4-0.8-12.1-2.4-12.1-8.3c0-5.6,4.6-8.8,12.4-8.8
				c8.7,0,13.1,2.9,13.5,9.6c0,0.2,0,0.3-0.2,0.7c-0.1,0.1-0.3,0.2-0.5,0.2h-3.6c-0.3,0-0.8-0.2-0.8-0.7c-0.9-3.7-2.9-5-8.6-5
				c-6.2,0-7.1,2.3-7.1,3.8c0,2,0.9,2.6,9.4,3.7c8.5,1.1,12.4,2.6,12.4,8.6C480.9,82.5,476,86,467.4,86z"/>
		</g>
	</g>
	<g>
		<g>
			<path class="st2" d="M547.9,70.3c0,5.6,5.5,10.9,14.3,14c-1.7,8.8-0.3,15.9,4.5,18.6c5,2.8,12.3,0.9,19.2-5.2
				c6.8,5.9,13.6,8.1,18.4,5.4c5-2.8,6.4-10.4,4.6-19.5c9.1-3,14.3-7.6,14.3-13.3c0-5.5-5.5-10.4-14.2-13.3
				c1.9-9.5,0.2-16.4-4.7-19.3c-4.9-2.8-11.7-0.3-18.6,5.6c-7.2-6.3-14-8.3-19.1-5.4c-4.7,2.8-6.1,10-4.4,19
				C553.8,59.8,547.9,64.7,547.9,70.3z"/>
			<path class="st3" d="M607.3,59.9c-0.7-0.2-1.5-0.5-2.1-0.7c0.1-0.5,0.2-1,0.3-1.5c1.6-7.9,0.6-14.3-3-16.4c-3.5-2-9.1,0.1-15,5.1
				c-0.6,0.5-1.1,1-1.7,1.6c-0.3-0.3-0.7-0.7-1.1-1c-6.1-5.4-12.1-7.7-15.7-5.5c-3.5,2-4.5,8-3,15.5c0.1,0.8,0.3,1.5,0.5,2.3
				c-0.9,0.2-1.7,0.5-2.5,0.8c-7.1,2.5-11.6,6.3-11.6,10.4c0,4.2,4.9,8.3,12.2,10.8c0.6,0.2,1.2,0.3,1.8,0.6
				c-0.2,0.8-0.3,1.6-0.6,2.4c-1.4,7.3-0.3,13.2,3.2,15.2c3.6,2,9.6-0.1,15.5-5.2c0.5-0.5,0.9-0.8,1.4-1.2c0.6,0.6,1.2,1.1,1.8,1.7
				c5.6,4.9,11.3,6.9,14.8,4.9c3.6-2,4.7-8.3,3.3-16c-0.1-0.6-0.2-1.1-0.5-1.8c0.5-0.1,0.8-0.2,1.2-0.3c7.7-2.6,12.6-6.7,12.6-10.8
				C619.1,66.2,614.5,62.4,607.3,59.9L607.3,59.9z"/>
			<path class="st2" d="M605.6,78.4c-0.3,0.1-0.8,0.2-1.1,0.3c-0.9-2.7-2-5.5-3.4-8.5c1.4-2.8,2.5-5.6,3.3-8.3
				c0.7,0.2,1.4,0.5,2,0.7c6.2,2.1,9.9,5.3,9.9,7.7C616.3,72.9,612.2,76.2,605.6,78.4L605.6,78.4z M602.9,83.8
				c0.7,3.4,0.8,6.4,0.3,8.8c-0.5,2.1-1.2,3.6-2.1,4.2c-2.1,1.2-6.7-0.3-11.5-4.5c-0.6-0.5-1.1-1-1.7-1.6c1.9-2,3.7-4.5,5.6-7.1
				c3.3-0.3,6.3-0.8,9-1.4C602.6,82.8,602.8,83.3,602.9,83.8L602.9,83.8z M575,96.7c-2,0.7-3.7,0.8-4.7,0.2
				c-2.1-1.2-2.9-5.9-1.8-12.2c0.1-0.8,0.3-1.5,0.5-2.3c2.7,0.6,5.8,1,9,1.4c1.8,2.6,3.8,5,5.8,7.1c-0.5,0.5-0.8,0.8-1.2,1.1
				C580,94.2,577.4,95.8,575,96.7L575,96.7z M565.4,78.4c-3.3-1.1-6-2.6-7.8-4.2c-1.7-1.4-2.5-2.8-2.5-3.9c0-2.5,3.6-5.5,9.7-7.7
				c0.8-0.2,1.6-0.5,2.3-0.7c0.8,2.7,1.9,5.5,3.3,8.5c-1.4,2.9-2.5,5.9-3.3,8.6C566.6,78.7,566,78.6,565.4,78.4z M568.7,56.4
				c-1.2-6.4-0.5-11.3,1.7-12.5c2.3-1.2,7.2,0.6,12.4,5.2c0.3,0.3,0.7,0.6,1,0.9c-1.9,2-3.8,4.5-5.6,7c-3.2,0.3-6.2,0.8-8.9,1.4
				C568.9,57.7,568.8,57.1,568.7,56.4L568.7,56.4z M597.5,63.5c-0.7-1.1-1.4-2.3-2-3.4c2.1,0.2,4.2,0.7,6.1,1
				c-0.6,1.8-1.2,3.7-2.1,5.8C598.8,65.9,598.1,64.6,597.5,63.5L597.5,63.5z M585.7,52.1c1.4,1.5,2.6,3,3.9,4.7
				c-2.6-0.1-5.3-0.1-7.9,0C583,55.1,584.4,53.5,585.7,52.1L585.7,52.1z M573.9,63.5c-0.7,1.1-1.2,2.3-1.9,3.5
				c-0.8-1.9-1.6-3.9-2.1-5.8c1.9-0.5,3.9-0.8,6.1-1C575.2,61.2,574.6,62.4,573.9,63.5z M576,80.6c-2.1-0.2-4.3-0.6-6.2-1
				c0.6-1.9,1.4-3.8,2.1-5.9c0.6,1.1,1.2,2.4,1.9,3.5C574.6,78.4,575.2,79.5,576,80.6z M585.8,88.6c-1.4-1.4-2.7-3-4.1-4.7
				c1.2,0,2.6,0.1,3.9,0.1s2.7,0,4.1-0.1C588.4,85.6,587.1,87.3,585.8,88.6z M599.4,73.6c0.9,2,1.7,4.1,2.3,5.9
				c-1.9,0.5-4.1,0.8-6.2,1c0.7-1.1,1.4-2.3,2-3.4C598.1,76,598.8,74.8,599.4,73.6L599.4,73.6z M595,75.7c-1,1.8-2,3.5-3.2,5.2
				c-2,0.1-4.1,0.2-6.1,0.2c-2,0-4.1-0.1-6.1-0.2c-1.1-1.7-2.3-3.4-3.3-5.2c-1-1.8-1.9-3.6-2.8-5.4c0.9-1.8,1.8-3.6,2.8-5.4l0,0
				c1-1.8,2.1-3.5,3.3-5.2c2-0.1,4.1-0.2,6.1-0.2c2,0,4.1,0.1,6.1,0.2c1.1,1.7,2.3,3.4,3.3,5.2c1,1.8,2,3.5,2.9,5.4
				C597,72.2,596,74,595,75.7L595,75.7z M601,43.9c2.3,1.2,3.2,6.5,1.7,13.3c-0.1,0.5-0.2,0.9-0.3,1.4c-2.8-0.7-5.8-1.1-8.9-1.5
				c-1.8-2.6-3.7-5-5.6-7.1c0.5-0.5,1-0.9,1.6-1.5C594.2,44.3,598.8,42.6,601,43.9L601,43.9z"/>
			<path class="st3" d="M585.7,64.3c3.3,0,6,2.7,6,6s-2.7,6-6,6c-3.3,0-6-2.7-6-6S582.3,64.3,585.7,64.3"/>
		</g>
	</g>
	<g>
		<path class="st4" d="M738.1,74.6c-2.4,0-4.4,0.6-6.1,1.4c-0.6-1.3-1.3-2.3-1.4-3.2c-0.1-0.9-0.3-1.5-0.1-2.7
			c0.1-1.1,0.8-2.7,0.8-2.9c0-0.1-0.1-0.7-1.5-0.7c-1.4,0-2.5,0.3-2.7,0.6c-0.1,0.4-0.4,1.2-0.6,2c-0.2,1.2-2.7,5.6-4.1,7.9
			c-0.5-0.9-0.9-1.7-0.9-2.3c-0.1-0.9-0.3-1.5-0.1-2.7c0.1-1.1,0.8-2.7,0.8-2.9c0-0.1-0.1-0.7-1.5-0.7c-1.4,0-2.5,0.3-2.7,0.6
			c-0.1,0.4-0.3,1.2-0.6,2c-0.3,0.8-3.6,8.2-4.4,10.1c-0.4,1-0.8,1.8-1.1,2.3c-0.3,0.5,0,0,0,0.1c-0.2,0.4-0.4,0.7-0.4,0.7v0
			c-0.2,0.3-0.4,0.6-0.5,0.6c-0.1,0-0.2-0.9,0-2.1c0.5-2.5,1.7-6.5,1.7-6.7c0-0.1,0.2-0.8-0.8-1.1c-1-0.4-1.3,0.2-1.4,0.2
			s-0.1,0.2-0.1,0.2s1.1-4.5-2-4.5c-2,0-4.6,2.1-6,4.1c-0.8,0.5-2.6,1.4-4.5,2.5c-0.7,0.4-1.5,0.8-2.2,1.2l-0.1-0.2
			c-3.8-4-10.8-6.9-10.5-12.3c0.1-2,0.8-7.2,13.4-13.4c10.3-5.1,18.6-3.7,20-0.6c2,4.5-4.4,12.8-15.2,14c-4.1,0.5-6.2-1.1-6.8-1.7
			c-0.6-0.6-0.6-0.6-0.9-0.5c-0.3,0.2-0.1,0.7,0,1.1c0.3,0.8,1.6,2.3,3.9,3c2,0.6,6.8,1,12.6-1.2c6.5-2.5,11.6-9.5,10.1-15.4
			c-1.5-5.9-11.4-7.9-20.7-4.6c-5.6,2-11.6,5.1-15.9,9.1c-5.1,4.8-6,9-5.6,10.7c1.2,6.2,9.8,10.3,13.2,13.3
			c-0.2,0.1-0.3,0.2-0.5,0.3c-1.7,0.8-8.2,4.3-9.9,7.9c-1.8,4.1,0.3,7,1.7,7.4c4.4,1.2,8.9-1,11.4-4.6c2.4-3.6,2.1-8.3,1-10.5l0-0.1
			l1.3-0.8c0.9-0.5,1.7-1,2.5-1.4c-0.4,1.1-0.7,2.5-0.9,4.5c-0.2,2.3,0.8,5.3,2,6.5c0.6,0.5,1.2,0.5,1.6,0.5c1.5,0,2.1-1.2,2.8-2.6
			c0.9-1.8,1.7-3.8,1.7-3.8s-1,5.5,1.7,5.5c1,0,2-1.3,2.4-1.9v0c0,0,0,0,0.1-0.1c0.1-0.2,0.2-0.3,0.2-0.3v0c0.4-0.7,1.3-2.3,2.6-4.9
			c1.7-3.4,3.3-7.5,3.3-7.5s0.2,1,0.6,2.7c0.3,1,0.9,2.1,1.4,3.2c-0.4,0.6-0.6,0.9-0.6,0.9l0,0c-0.3,0.4-0.7,0.9-1,1.3
			c-1.3,1.6-3,3.4-3.2,4c-0.3,0.6-0.2,1.1,0.3,1.5c0.4,0.3,1,0.3,1.7,0.3c1.2-0.1,2.1-0.4,2.5-0.6c0.7-0.2,1.4-0.6,2.1-1.1
			c1.3-1,2.1-2.4,2-4.2c0-1-0.4-2-0.8-3c0.1-0.2,0.2-0.3,0.4-0.5c2.1-3,3.7-6.4,3.7-6.4s0.2,1,0.6,2.7c0.3,0.9,0.8,1.8,1.2,2.7
			c-2,1.6-3.2,3.4-3.6,4.7c-0.8,2.2-0.2,3.3,1,3.5c0.5,0.1,1.3-0.1,1.8-0.4c0.7-0.2,1.5-0.6,2.3-1.2c1.3-1,2.6-2.3,2.5-4.2
			c0-0.8-0.3-1.7-0.6-2.5c1.7-0.7,3.8-1.1,6.5-0.8c5.9,0.7,7,4.4,6.8,5.9c-0.2,1.5-1.5,2.4-1.9,2.6c-0.4,0.3-0.5,0.3-0.5,0.5
			c0.1,0.3,0.2,0.3,0.6,0.2c0.5-0.1,3.1-1.3,3.2-4.1C747.7,78.5,744.2,74.5,738.1,74.6z M692.9,89.8c-1.9,2.1-4.7,2.9-5.8,2.2
			c-1.3-0.7-0.8-3.9,1.6-6.1c1.5-1.4,3.3-2.6,4.6-3.4c0.3-0.2,0.7-0.4,1.2-0.7c0.1-0.1,0.1-0.1,0.1-0.1c0.1-0.1,0.2-0.1,0.3-0.2
			C695.7,84.8,694.9,87.6,692.9,89.8z M707,80.2c-0.7,1.6-2.1,5.9-3,5.6c-0.7-0.2-1.2-3.4-0.1-6.6c0.5-1.6,1.6-3.5,2.3-4.2
			c1.1-1.2,2.2-1.6,2.5-1.1C709.1,74.6,707.5,79.1,707,80.2z M718.7,85.8c-0.3,0.1-0.6,0.3-0.7,0.2c-0.1-0.1,0.1-0.3,0.1-0.3
			s1.5-1.6,2-2.3c0.3-0.4,0.7-0.9,1.1-1.5v0.2C721.4,84,719.6,85.3,718.7,85.8z M727.8,83.7c-0.2-0.2-0.2-0.6,0.5-2.2
			c0.3-0.6,0.9-1.6,2-2.6c0.1,0.4,0.2,0.8,0.2,1.1C730.5,82.5,728.8,83.3,727.8,83.7z"/>
	</g>
	<g>
		<g>
			<g>
				<polygon class="st5" points="49,89.9 45.5,50.6 83.9,50.6 80.4,89.8 64.7,94.2 				"/>
				<polygon class="st6" points="64.7,90.9 77.4,87.3 80.4,53.8 64.7,53.8 				"/>
				<polygon class="st7" points="64.7,68.4 58.3,68.4 57.9,63.4 64.7,63.4 64.7,58.6 64.7,58.6 52.6,58.6 52.7,59.9 53.9,73.2 
					64.7,73.2 				"/>
				<polygon class="st7" points="64.7,80.9 64.7,80.9 59.3,79.4 59,75.6 56.4,75.6 54.1,75.6 54.8,83.1 64.7,85.9 64.7,85.9 				"/>
				<polygon class="st8" points="49,39.9 51.5,39.9 51.5,42.3 53.7,42.3 53.7,39.9 56.2,39.9 56.2,47.2 53.7,47.2 53.7,44.8 
					51.5,44.8 51.5,47.2 49,47.2 				"/>
				<polygon class="st8" points="59.4,42.3 57.2,42.3 57.2,39.9 64,39.9 64,42.3 61.8,42.3 61.8,47.2 59.4,47.2 				"/>
				<polygon class="st8" points="65.1,39.9 67.6,39.9 69.2,42.5 70.8,39.9 73.3,39.9 73.3,47.2 70.9,47.2 70.9,43.6 69.2,46.2 
					69.1,46.2 67.5,43.6 67.5,47.2 65.1,47.2 				"/>
				<polygon class="st8" points="74.5,39.9 77,39.9 77,44.8 80.4,44.8 80.4,47.2 74.5,47.2 				"/>
				<polygon class="st2" points="64.7,68.4 64.7,73.2 70.6,73.2 70,79.4 64.7,80.9 64.7,85.9 74.5,83.1 74.6,82.3 75.8,69.7 
					75.9,68.4 74.6,68.4 				"/>
				<polygon class="st2" points="64.7,58.6 64.7,61.6 64.7,63.4 64.7,63.4 76.3,63.4 76.3,63.4 76.3,63.4 76.4,62.3 76.6,59.9 
					76.7,58.6 				"/>
			</g>
			<g transform="translate(26.008 5.817)">
				<path class="st9" d="M79.1,42.7h-3.2l3.3,3.6V48h-6.8v-2h3.3l-3.3-3.6v-1.7h6.7V42.7z M71,42.7h-3.2l3.3,3.6V48h-6.8v-2h3.3
					l-3.3-3.6v-1.7H71V42.7z M63,42.8h-3.4v3.1H63V48h-5.9v-7.3H63V42.8z"/>
				<polygon class="st10" points="52.4,90.6 48.9,51.4 87.4,51.4 83.9,90.6 68.1,95 				"/>
				<polygon class="st11" points="68.1,91.7 80.9,88.1 83.9,54.6 68.1,54.6 				"/>
				<g transform="translate(6.274 16.198)">
					<polygon class="st2" points="61.9,52.6 68.2,52.6 68.7,47.7 61.9,47.7 61.9,42.9 61.9,42.9 73.9,42.9 73.8,44.1 72.6,57.4 
						61.9,57.4 					"/>
					<polygon class="st7" points="61.9,65.1 61.9,65.1 56.5,63.7 56.2,59.8 53.6,59.8 51.3,59.8 52,67.4 61.9,70.1 61.9,70.1 					
						"/>
					<polygon class="st2" points="67.8,57.2 67.3,63.7 61.9,65.1 61.9,70.1 71.8,67.4 71.8,66.6 72.7,57.2 					"/>
					<polygon class="st7" points="61.9,42.9 61.9,45.8 61.9,47.7 61.9,47.7 50.3,47.7 50.3,47.7 50.3,47.7 50.2,46.6 49.9,44.1 
						49.8,42.9 					"/>
					<polygon class="st7" points="61.9,52.6 61.9,55.6 61.9,57.4 61.9,57.4 56.6,57.4 56.6,57.4 56.6,57.4 56.5,56.3 56.3,53.9 
						56.1,52.6 					"/>
				</g>
			</g>
		</g>
	</g>
	<g>
		<path class="st12" d="M1035.2,58.2c0.9,2.5,1.5,5.1,1.7,7.7c0.3,3.3,0.1,6.6-0.6,9.8c0,0.1-0.1,0.2-0.1,0.3c-0.2,0-0.4,0-0.7,0
			c-1.8,0.3-3.6,0.6-5.4,0.9c-1.9,0.3-3.7,0.6-5.6,0.9c-0.7,0.1-1.5,0-1.7,0.9c0,0-0.1,0-0.1,0l0.1-5.4c0-4.4-0.1-8.7-0.1-13.1
			l0.9-0.1c1.4-0.2,2.8-0.5,4.2-0.7c1.7-0.3,3.4-0.5,5.1-0.8C1033.7,58.4,1034.5,58.3,1035.2,58.2z"/>
		<path class="st13" d="M1021.1,94.4c-0.9-0.8-1.9-1.5-2.7-2.4c-4.7-4.4-8.1-9.7-9.8-15.9c-0.5-1.7-0.8-3.5-0.9-5.3
			c-0.1-1.3-0.2-2.5-0.1-3.8c0.2-3.3,0.7-6.6,1.7-9.8l0.1-0.1c0.1,0.1,0.2,0.2,0.3,0.4c0.9,2.8,1.9,5.6,2.8,8.4
			c2.9,8.8,5.9,17.6,8.8,26.4c0.1,0.2,0.2,0.3,0.3,0.5C1021.5,92.8,1021.1,94.4,1021.1,94.4z"/>
		<path class="st14" d="M1035.2,58.2c-0.7,0.1-1.5,0.2-2.2,0.3c-1.7,0.3-3.4,0.5-5.1,0.8c-1.4,0.2-2.8,0.5-4.2,0.7l-0.9,0.1l0-0.6
			c0-0.5-0.1-0.9-0.1-1.4c0-3-0.1-5.9-0.1-8.9c0-1.8-0.1-3.7-0.1-5.5c0-1.1,0-2.3-0.1-3.4c0-0.6-0.1-1.2-0.2-1.8c0-0.4,0-0.7,0-1.1
			c0.4,0.9,0.9,1.7,1.3,2.6c0.7,1.3,1.9,2.3,2.9,3.4C1030.6,47.6,1033.4,52.6,1035.2,58.2z"/>
		<path class="st15" d="M1022.8,78.6c0,0,0.1,0,0.1,0c0.3-0.9,1.1-0.8,1.7-0.9c1.9-0.3,3.7-0.6,5.6-0.9c1.8-0.3,3.6-0.6,5.4-0.9
			c0.2,0,0.4,0,0.7,0c-0.3,1.2-0.6,2.4-1,3.6c-0.5,1.3-1.1,2.6-1.7,3.9c-0.9,1.9-2.1,3.7-3.4,5.3c-1,1.2-2.2,2.4-3.3,3.5
			c-0.6,0.6-1.4,1.1-2.1,1.7l-0.2-0.1l-0.7-0.6l-0.7-1.5c-0.5-1.7-0.7-3.5-0.8-5.3l0-0.3l0.1-1.3c0-0.4,0.1-0.9,0.1-1.3
			C1022.7,81.9,1022.8,80.2,1022.8,78.6L1022.8,78.6z"/>
		<path class="st16" d="M1022.8,78.6c-0.1,1.6-0.1,3.2-0.2,4.8c0,0.4-0.1,0.9-0.1,1.3l-0.4,0.2c-0.9-2.7-1.8-5.4-2.7-8
			c-1.5-4.4-2.9-8.9-4.4-13.3c-1.2-3.6-2.4-7.1-3.6-10.7c-0.1-0.2-0.2-0.3-0.3-0.4l2.6-4.9c0.1,0.2,0.2,0.3,0.3,0.5
			c1.2,3.6,2.4,7.2,3.6,10.8c1.6,4.7,3.1,9.4,4.7,14.1c0.1,0.2,0.2,0.4,0.3,0.6l0.4-0.4C1022.9,75,1022.9,76.8,1022.8,78.6z"/>
		<path class="st17" d="M1011,52.5c0.1,0.1,0.3,0.3,0.3,0.4c1.2,3.6,2.4,7.1,3.6,10.7c1.5,4.4,2.9,8.9,4.4,13.3
			c0.9,2.7,1.8,5.3,2.7,8l0.4-0.2l-0.1,1.3l-0.1,0.3c-0.1,1.4-0.3,2.9-0.4,4.3c-0.1,0.7-0.3,1.4-0.4,2.1c-0.1-0.2-0.3-0.3-0.3-0.5
			c-2.9-8.8-5.9-17.6-8.8-26.4c-0.9-2.8-1.9-5.6-2.8-8.4c0-0.1-0.2-0.3-0.3-0.4C1009.9,55.6,1010.4,54.1,1011,52.5z"/>
		<path class="st18" d="M1022.9,73.2l-0.4,0.4c-0.1-0.2-0.2-0.4-0.3-0.6c-1.6-4.7-3.1-9.4-4.7-14.1c-1.2-3.6-2.4-7.2-3.6-10.8
			c-0.1-0.2-0.2-0.3-0.3-0.5l3.3-4.3c0.1,0.1,0.2,0.3,0.3,0.4c0.9,2.7,1.8,5.3,2.7,8c0.8,2.5,1.7,5,2.5,7.4c0.1,0.2,0.3,0.3,0.4,0.4
			l0,0.6C1022.9,64.5,1022.9,68.9,1022.9,73.2z"/>
		<path class="st19" d="M1022.8,59.6c-0.1-0.1-0.3-0.3-0.4-0.4c-0.8-2.5-1.7-5-2.5-7.4c-0.9-2.7-1.8-5.3-2.7-8
			c-0.1-0.2-0.2-0.3-0.3-0.4c1.1-1,2.1-2.1,3.2-3.1c1-0.9,1.8-1.8,1.8-3.2c0-0.1,0-0.1,0.1-0.3l0.3,0.7c0,0.4,0,0.7,0,1.1
			c0,0.6,0.1,1.2,0.2,1.8c0.1,1.1,0.1,2.3,0.1,3.4c0,1.8,0.1,3.7,0.1,5.5c0,3,0.1,5.9,0.1,8.9C1022.8,58.6,1022.8,59.1,1022.8,59.6z
			"/>
		<path class="st20" d="M1021.5,92.8c0.1-0.7,0.3-1.4,0.4-2.1c0.2-1.4,0.3-2.9,0.4-4.3l0,0l0,0c0,1.8,0.3,3.6,0.8,5.3
			c-0.1,0.1-0.2,0.2-0.3,0.4c-0.4,1.1-0.8,2.2-1.2,3.3c-0.1,0.2-0.2,0.3-0.3,0.4l-0.4-1.4C1021.1,94.4,1021.5,92.8,1021.5,92.8z"/>
		<path class="st21" d="M1021.5,95.8c0.1-0.1,0.3-0.3,0.3-0.4c0.4-1.1,0.8-2.2,1.2-3.3c0.1-0.1,0.2-0.3,0.3-0.4l0.7,1.5
			c-0.1,0.2-0.3,0.4-0.4,0.6l-1.3,3.8c-0.1,0.2-0.2,0.3-0.4,0.4C1021.8,98,1021.5,95.8,1021.5,95.8z"/>
		<path class="st22" d="M1021.8,98c0.1-0.1,0.3-0.2,0.4-0.4l1.3-3.8c0.1-0.2,0.3-0.4,0.4-0.6l0.7,0.6c-0.3,0.3-0.5,0.7-0.4,1.1
			l-0.2,0.7c-0.1,0.1-0.2,0.2-0.3,0.3c-0.5,1.3-0.9,2.6-1.3,3.9c-0.1,0.2-0.2,0.3-0.3,0.4C1022,99.5,1021.9,98.7,1021.8,98
			L1021.8,98z"/>
		<path class="st23" d="M1022,100.2c0.1-0.1,0.3-0.3,0.3-0.4c0.5-1.3,0.9-2.6,1.3-3.9c0-0.1,0.2-0.2,0.3-0.3l-0.3,3
			c-0.1,0.1-0.2,0.2-0.2,0.3c-0.3,0.9-0.6,1.7-0.9,2.6c-0.1,0.2-0.2,0.3-0.3,0.5c-0.1-0.1-0.2-0.2-0.2-0.3
			C1022,101.1,1022,100.7,1022,100.2z"/>
		<path class="st24" d="M1022.3,101.9c0.1-0.2,0.2-0.3,0.3-0.5c0.3-0.9,0.6-1.7,0.9-2.6c0-0.1,0.1-0.2,0.2-0.3l0,2l-0.7,1.7
			C1023,102.2,1022.3,101.9,1022.3,101.9z"/>
		<path class="st25" d="M1023,102.2l0.7-1.7l0.1,2L1023,102.2z"/>
		<path class="st23" d="M1024.1,94.9c-0.1-0.5,0.1-0.8,0.4-1.1l0.2,0.1L1024.1,94.9z"/>
		<path class="st16" d="M1022.4,86.4L1022.4,86.4L1022.4,86.4l0-0.3C1022.5,86.1,1022.4,86.4,1022.4,86.4z"/>
	</g>
	<g>
		<g id="original_1_">
			<rect x="309.2" y="60.6" class="st2" width="53.7" height="39.7"/>
			<path id="original-2_1_" class="st26" d="M297.8,69.7v33.7h67.3V36h-67.3V69.7z M352,67c1.6,0.4,3.1,1.2,4.2,2.4
				c0.6,0.6,1.2,1.4,1.6,2.2c0,0.1-2.9,2.1-4.7,3.1c-0.1,0-0.3-0.2-0.6-0.7c-0.7-1.1-1.9-1.9-3.2-1.9c-2-0.1-3.4,0.9-3.3,2.7
				c0,0.4,0.1,0.9,0.3,1.3c0.4,0.9,1.3,1.5,3.9,2.6c4.8,2.1,6.9,3.4,8.2,5.4c1.4,2.2,1.7,5.6,0.8,8.2c-1.1,2.8-3.7,4.7-7.4,5.3
				c-1.7,0.2-3.4,0.2-5.1-0.1c-2.6-0.4-5-1.7-6.8-3.6c-0.6-0.7-1.8-2.5-1.7-2.6c0.2-0.1,0.4-0.3,0.6-0.4l2.5-1.4l1.9-1.1l0.4,0.6
				c0.7,1,1.5,1.8,2.6,2.4c2.2,1.1,5.1,1,6.5-0.3c1-1,1.2-2.6,0.4-3.7c-0.5-0.7-1.6-1.4-4.6-2.7c-3.5-1.5-5-2.4-6.3-3.9
				c-0.9-1-1.5-2.1-1.8-3.4c-0.3-1.4-0.3-2.9-0.1-4.3c0.7-3.4,3.2-5.7,6.9-6.4C348.6,66.7,350.3,66.7,352,67L352,67z M336.2,69.8
				v2.8h-8.7v24.9h-6.2V72.6h-8.8v-2.7c0-0.9,0-1.9,0.1-2.8c0,0,5.4,0,11.8,0h11.8L336.2,69.8z"/>
		</g>
	</g>
	<g>
		<g id="original_2_">
			<path d="M935.2,104.9c-4.3,1.1-7,0-9.4-3.6c-5.4-8.1-11.3-15.8-17.1-23.6c-0.7-1-1.5-2-2.5-3.3c-6.8,9.2-13.6,17.9-19.9,27
				c-2.3,3.2-4.7,4.7-8.9,3.5l25.5-34.3l-23.8-31c4.1-0.8,6.9-0.4,9.4,3.3c5.5,8.1,11.6,15.8,17.7,23.9c6.1-8.1,12.1-15.8,17.8-23.8
				c2.3-3.2,4.7-4.5,8.9-3.3c-3.1,4.1-6.2,8.2-9.2,12.2c-4.1,5.4-8.2,10.9-12.5,16.3c-1.5,1.9-1.3,3.1,0.1,4.9
				C919.3,83.6,927.1,94.1,935.2,104.9z"/>
			<path d="M816.3,70c0.7-3.4,1.1-6.9,2.1-10.3c5.7-20.3,29-28.8,45.1-16.2c9.4,7.4,11.7,17.8,11.3,29.6h-53
				c-0.8,21.1,14.4,33.8,33.7,27.3c6.8-2.3,10.8-7.6,12.8-14.2c1-3.3,2.7-3.9,5.8-2.9c-1.6,8.3-5.2,15.3-12.8,19.6
				c-11.4,6.5-27.6,4.4-36.2-4.6c-5-5.3-7.2-11.9-8.1-19.1c-0.1-1.1-0.4-2.3-0.7-3.4C816.3,73.9,816.3,71.9,816.3,70z M821.8,68.6
				h47.9c-0.3-15.2-9.8-26.1-22.8-26.2C832.7,42.3,822.5,52.9,821.8,68.6z"/>
		</g>
	</g>
	<g>
		<path class="st27" d="M1097.9,33.8h67.7v67.7h-67.7V33.8z"/>
		<path class="st28" d="M1144.8,80.4c-4.8,9.7-13.1,16.3-24.1,18.4c-1.7,0.4-3.4,0.6-5.2,0.6c-6.3,0-12.2-2.6-15-7
			c-3.8-5.8-5.1-18,7.4-27c0.3,1.4,0.8,3.3,1.1,4.4c-2.5,1.8-4.5,4.2-5.9,6.9c-2.3,4.6-2.1,9.1,0.7,13.4c1.9,2.8,4.9,4.6,8.8,5.1
			c4.8,0.6,9.8-0.3,14-2.6c6.7-3.5,11.2-7.8,14.1-13.5c-0.8-0.9-1.3-2-1.4-3.2c-0.1-2.7,2-4.9,4.6-5h0.2c2.7,0,4.8,2.1,4.9,4.8
			C1149.2,78.1,1147.3,80.2,1144.8,80.4L1144.8,80.4z M1160,69.7c6.5,7.3,6.6,15.9,4.1,20.9c-2.3,4.6-8.5,9.1-16.7,9.1
			c-3.9-0.1-7.6-1-11.1-2.7c1.2-0.9,2.9-2.2,3.9-3.1c2.7,1.2,5.5,1.8,8.5,1.8c5.3,0,9.4-2.5,11.8-7.1c1.5-3,1.6-6.5,0.2-10.2
			c-1.8-4.6-5-8.4-9.1-11c-5.4-3.7-11.8-5.6-18.4-5.6h-1.5c-0.7,1.7-2.4,2.8-4.2,2.9h-0.2c-2.7,0-4.8-2.2-4.8-4.9
			c0-2.6,2.1-4.6,4.6-4.8h0.2c1.8,0,3.4,1,4.2,2.6h1.4C1143.8,57.8,1153.4,62,1160,69.7z M1116.2,81.8c-0.1-0.9,0.1-1.8,0.6-2.5
			c-4.8-8.4-7.4-18.9-3.4-30c2.8-8.3,10-13.9,17.7-13.9c8.3,0,16.9,7.2,17.9,21.2c-1.3-0.4-3.2-1.1-4.3-1.3
			c-0.3-4.6-4.1-15.9-13.3-15.8c-3.3,0.1-8.1,1.6-10.6,4.8c-3.1,3.8-4.9,8.5-5.1,13.4c-0.6,6.7,1,13.4,4.5,19.1
			c0.2-0.1,0.4-0.1,0.6-0.1h0.2c2.7,0,4.9,2.1,4.9,4.7c0,2.7-2.1,4.9-4.7,4.9h-0.2C1118.4,86.5,1116.3,84.4,1116.2,81.8L1116.2,81.8
			z"/>
	</g>
</g>
<g>
	<g>
		<path class="st29" d="M619.8,228.8h-67.7v-67.7h67.7V228.8z"/>
		<path class="st30" d="M619.8,228.8H586v-67.7h33.8V228.8z"/>
		<path class="st31" d="M615.9,224.8h-59.8v-59.8h59.8V224.8z"/>
		<path class="st32" d="M615.9,224.8H586v-59.8h29.9V224.8z"/>
		<path class="st29" d="M575.1,185.1h3.8l8.6,22.6h-4.5l-2.1-5.6h-7.9l-2,5.6h-4.5L575.1,185.1z M580,198.9l-3-8.8l-3.3,8.8H580z"/>
		<g>
			<path class="st30" d="M596.8,207.9c-5.3,0-8.8-3.9-8.8-8.6c0-4.2,2.8-8.7,8.8-8.7c4.2,0,8.7,2.8,8.7,8.6c0,0.2,0,1.2-0.1,1.5
				h-12.9c0.1,0.7,0.8,4.2,4.4,4.2c2.4,0,3.6-1.6,3.9-2.3l3.6,1C603.9,204.9,601.8,207.9,596.8,207.9z M601.1,197.9
				c-0.2-2.7-2.1-4.2-4.4-4.2c-2.3,0-4.1,1.7-4.3,4.2H601.1z"/>
			<polygon class="st30" points="586,203.9 586,207.7 587.5,207.7 			"/>
		</g>
	</g>
</g>
<g>
	<g>
		<path class="st33" d="M113.1,232.7H45.5v-67.7h67.7V232.7z"/>
		<path class="st34" d="M113.1,232.7H79.3v-67.7h33.8V232.7z"/>
		<path class="st35" d="M109.2,228.8H49.4V169h59.8V228.8z"/>
		<path class="st36" d="M109.2,228.8H79.3V169h29.9V228.8z"/>
		<path class="st33" d="M72.9,189.1h3.8l8.6,22.6h-4.5l-2.1-5.6h-7.9l-2,5.6h-4.5L72.9,189.1z M77.9,202.8l-3.2-8.8l-3.3,8.8H77.9z"
			/>
		<g>
			<path class="st34" d="M87.4,192.7v-4.2h4.3v4.2H87.4z M87.4,211.6V195h4.3v16.6h-4.3V211.6z"/>
			<polygon class="st34" points="79.3,195.7 79.3,207.5 80.8,211.6 85.3,211.6 			"/>
		</g>
	</g>
</g>
<g>
	<g>
		<path class="st37" d="M748.8,231.6h-67.7v-67.7h67.7V231.6z"/>
		<path class="st38" d="M748.8,231.6H715v-67.7h33.8V231.6z"/>
		<path class="st39" d="M744.8,227.7h-59.8v-59.8h59.8V227.7z"/>
		<path class="st40" d="M744.8,227.7H715v-59.8h29.9V227.7z"/>
		<g>
			<path class="st37" d="M735.5,193.8h4.1l-7,16.6h-3.5l-2.8-7.2l-2.8,7.3h-3.5l-6.9-16.6h3.9l5,12.6l2-5.4l-2.9-7.2h3.4l1.7,5.1
				l1.8-5.1h3.4l-2.8,7.1l2,5.4L735.5,193.8z"/>
			<path class="st37" d="M692.5,210.5V188h8.2c6.7,0,11.1,4.4,11.1,11.3c0,5.5-3.3,11.3-11.1,11.3H692.5z M707.4,199.1
				c0-4.5-2.7-7.4-6.7-7.4h-3.8v14.9h3.8C704.7,206.6,707.4,203.4,707.4,199.1z"/>
		</g>
		<polygon class="st38" points="735.5,193.8 730.5,206.5 728.5,201 731.4,193.8 727.9,193.8 726.2,199 724.4,193.8 721,193.8 
			724,201 722,206.5 717,193.8 715,193.8 715,198.6 719.9,210.5 723.4,210.5 726.2,203.2 729.1,210.5 732.6,210.5 739.4,193.8 		"/>
	</g>
</g>
<g>
	<g>
		<path class="st41" d="M493.2,231.6h-67.7v-67.7h67.7V231.6z"/>
		<path class="st42" d="M493.2,231.6h-33.8v-67.7h33.8V231.6z"/>
		<path class="st43" d="M489.2,227.7h-59.8v-59.8h59.8V227.7z"/>
		<path class="st44" d="M489.2,227.7h-29.9v-59.8h29.9V227.7z"/>
		<path class="st41" d="M446.8,210.5V188h4.4v18.7h11.5v3.8C462.7,210.5,446.8,210.5,446.8,210.5z"/>
		<g>
			<path class="st42" d="M474.9,197.5c-3.7,0-5.2,1.9-5.6,2.9v10H465v-16.7h3.9v3.5c0.3-0.6,2.1-4.2,6-3.7V197.5L474.9,197.5z"/>
			<rect x="459.3" y="206.6" class="st42" width="3.4" height="3.8"/>
		</g>
	</g>
</g>
<g>
	<g>
		<path class="st41" d="M239.8,232.3h-67.7v-67.7h67.7V232.3z"/>
		<path class="st42" d="M239.8,232.3H206v-67.7h33.8V232.3z"/>
		<path class="st45" d="M235.9,228.3h-59.8v-59.8h59.8V228.3z"/>
		<path class="st46" d="M235.9,228.3H206v-59.8h29.9V228.3z"/>
		<path class="st41" d="M190.7,211.2v-22.6h9.6c4.4,0,7.2,4.1,7.2,7.4c0,4.1-3.2,7.4-7,7.4h-5.3v7.6h-4.5V211.2z M195.1,199.8h5.1
			c1.6,0,2.8-1.5,2.8-3.6c0-1.9-1.1-3.6-3-3.6h-4.9C195.1,192.6,195.1,199.8,195.1,199.8z"/>
		<g>
			<path class="st42" d="M216.3,211.4c-3.8,0-6.5-1.7-7.6-2.6l1.6-2.7c1,0.7,3.4,2.1,5.9,2.1c1.6,0,2.7-0.7,2.7-1.8
				c0-1.5-2.4-1.9-3.6-2.3c-1.1-0.3-6-1-6-4.6c0-3.5,3-5.5,6.5-5.5c3.6,0,5.6,1.5,6.5,2.3l-1.7,2.6c-0.9-0.7-2.7-1.8-4.9-1.8
				c-1.6,0-2.6,0.7-2.6,1.9c0,1.5,2.7,1.9,3.3,2.1c1.1,0.3,6.4,1.1,6.4,5C223.1,210.9,218.5,211.4,216.3,211.4z"/>
			<path class="st42" d="M206,191.6v9.1c0.9-1.2,1.5-2.9,1.5-4.6C207.4,194.6,207,192.9,206,191.6z"/>
		</g>
	</g>
</g>
<g>
	<path class="st47" d="M366.5,232.3h-67.7v-67.7h67.7V232.3z"/>
	<path class="st48" d="M366.5,232.3h-33.8v-67.7h33.8V232.3z"/>
	<path class="st49" d="M362.5,228.3h-59.8v-59.8h59.8V228.3z"/>
	<path class="st50" d="M362.5,228.3h-29.9v-59.8h29.9V228.3z"/>
	<path class="st47" d="M318.2,188.6l5.6,8.3l5.6-8.3h4.7l-8,11.4l7.8,11.1h-4.7l-5.3-8l-5.4,8h-4.7l7.8-11.1l-8-11.4
		C313.6,188.6,318.2,188.6,318.2,188.6z"/>
	<g>
		<path class="st48" d="M341.9,211.4c-4.9,0-7.9-4.1-7.9-8.7c0-5.2,3.5-8.6,7.4-8.6c3.4,0,5.1,2.3,5.6,3.2v-9.5h4.3v18.3
			c0,0.5,0.7,1.2,1,1.2v3.6c-0.8,0.1-1.4,0.2-1.8,0.2c-3,0-2.8-3.2-2.8-3.2C347,209.3,345.2,211.4,341.9,211.4z M343,207.8
			c2.7,0,3.8-2.4,4.1-2.8V201c-0.2-0.5-1.7-3.3-4.3-3.3c-2.9,0-4.4,2.8-4.4,5.1C338.4,205.3,340.2,207.8,343,207.8z"/>
		<polygon class="st48" points="332.6,188.6 332.6,190.7 334.1,188.6 		"/>
		<polygon class="st48" points="332.6,211.2 333.9,211.2 332.6,209.4 		"/>
	</g>
</g>
<g>
	<g>
		<path class="st51" d="M1019.9,155c-18.7,0-33.8,15.1-33.8,33.8c0,15,9.7,27.6,23.1,32.1c1.7,0.3,2.3-0.7,2.3-1.6
			c0-0.8,0-3.5,0-6.3c-9.4,2-11.4-4-11.4-4c-1.5-3.9-3.8-5-3.8-5c-3.1-2.1,0.2-2.1,0.2-2.1c3.4,0.2,5.2,3.5,5.2,3.5
			c3,5.2,7.9,3.7,9.8,2.8c0.3-2.2,1.2-3.7,2.1-4.5c-7.5-0.9-15.4-3.8-15.4-16.7c0-3.7,1.3-6.7,3.5-9.1c-0.4-0.9-1.5-4.3,0.3-9
			c0,0,2.8-0.9,9.3,3.5c2.7-0.8,5.6-1.1,8.5-1.1c2.9,0,5.8,0.4,8.5,1.1c6.5-4.4,9.3-3.5,9.3-3.5c1.8,4.7,0.7,8.1,0.3,9
			c2.2,2.4,3.5,5.4,3.5,9.1c0,13-7.9,15.9-15.5,16.7c1.2,1.1,2.3,3.1,2.3,6.3c0,4.5,0,8.2,0,9.3c0,0.9,0.6,2,2.3,1.6
			c13.4-4.5,23.1-17.2,23.1-32.1C1053.7,170.1,1038.6,155,1019.9,155L1019.9,155z"/>
		<path class="st52" d="M998.9,203.5c-0.1,0.2-0.3,0.2-0.6,0.1c-0.2-0.1-0.4-0.3-0.3-0.5c0.1-0.2,0.3-0.2,0.6-0.1
			C998.8,203.1,998.9,203.4,998.9,203.5L998.9,203.5z M1000.2,205.1c-0.2,0.1-0.5,0.1-0.7-0.2c-0.2-0.2-0.3-0.6-0.1-0.7
			c0.2-0.1,0.5-0.1,0.7,0.2C1000.4,204.6,1000.4,204.9,1000.2,205.1L1000.2,205.1z M1001.6,207c-0.2,0.1-0.5,0-0.8-0.3
			c-0.2-0.3-0.2-0.7,0-0.8c0.2-0.1,0.5,0,0.8,0.3C1001.8,206.5,1001.8,206.9,1001.6,207L1001.6,207z M1003.4,208.9
			c-0.2,0.2-0.6,0.1-0.9-0.1c-0.3-0.3-0.4-0.7-0.2-0.9c0.2-0.2,0.6-0.1,0.9,0.1C1003.5,208.3,1003.6,208.7,1003.4,208.9
			L1003.4,208.9z M1005.9,210c-0.1,0.3-0.5,0.4-0.8,0.3c-0.4-0.1-0.6-0.4-0.6-0.7c0.1-0.3,0.5-0.4,0.8-0.3
			C1005.7,209.4,1006,209.7,1005.9,210z M1008.7,210.2c0,0.3-0.3,0.5-0.7,0.5c-0.4,0-0.7-0.2-0.7-0.5c0-0.3,0.3-0.5,0.7-0.5
			C1008.4,209.7,1008.7,209.9,1008.7,210.2L1008.7,210.2z M1011.3,209.8c0,0.3-0.2,0.6-0.6,0.6c-0.4,0.1-0.8-0.1-0.8-0.4
			c0-0.3,0.2-0.6,0.6-0.6C1010.9,209.3,1011.2,209.5,1011.3,209.8L1011.3,209.8z"/>
	</g>
</g>
<g>
	<path class="st53" d="M892,223c1.1,0.4,2.3,0.4,3.5-0.1l14.3-6.9c1.5-0.7,2.5-2.3,2.5-3.9v-46.8c0-1.7-1-3.2-2.5-3.9l-14.3-6.9
		c-1.5-0.7-3.2-0.5-4.4,0.4c-0.2,0.1-0.4,0.3-0.5,0.4L863,180.3l-12-9.1c-1.1-0.8-2.7-0.8-3.7,0.2l-3.8,3.5c-1.3,1.2-1.3,3.1,0,4.3
		l10.4,9.5l-10.4,9.5c-1.3,1.2-1.3,3.1,0,4.3l3.8,3.5c1,0.9,2.6,1,3.7,0.2l12-9.1l27.5,25.1C890.9,222.5,891.4,222.8,892,223z
		 M894.9,172.8L874,188.6l20.8,15.8V172.8z"/>
	<defs>
		<filter id="Adobe_OpacityMaskFilter" filterUnits="userSpaceOnUse" x="842.5" y="154" width="69.7" height="69.3">
			<feColorMatrix  type="matrix" values="1 0 0 0 0  0 1 0 0 0  0 0 1 0 0  0 0 0 1 0"/>
		</filter>
	</defs>
	<mask maskUnits="userSpaceOnUse" x="842.5" y="154" width="69.7" height="69.3" id="mask0_1_">
		<path class="st54" d="M892,223c1.1,0.4,2.3,0.4,3.5-0.1l14.3-6.9c1.5-0.7,2.5-2.3,2.5-3.9v-46.8c0-1.7-1-3.2-2.5-3.9l-14.3-6.9
			c-1.5-0.7-3.2-0.5-4.4,0.4c-0.2,0.1-0.4,0.3-0.5,0.4L863,180.3l-12-9.1c-1.1-0.8-2.7-0.8-3.7,0.2l-3.8,3.5c-1.3,1.2-1.3,3.1,0,4.3
			l10.4,9.5l-10.4,9.5c-1.3,1.2-1.3,3.1,0,4.3l3.8,3.5c1,0.9,2.6,1,3.7,0.2l12-9.1l27.5,25.1C890.9,222.5,891.4,222.8,892,223z
			 M894.9,172.8L874,188.6l20.8,15.8V172.8z"/>
	</mask>
	<g class="st55">
		<path class="st56" d="M909.8,161.3l-14.4-6.9c-1.7-0.8-3.6-0.5-5,0.8l-47,42.9c-1.3,1.2-1.3,3.1,0,4.3l3.8,3.5
			c1,0.9,2.6,1,3.7,0.2l56.6-42.9c1.9-1.4,4.6-0.1,4.6,2.3v-0.2C912.3,163.6,911.3,162,909.8,161.3z"/>
		<g>
			<path class="st26" d="M909.8,216l-14.4,6.9c-1.7,0.8-3.6,0.5-5-0.8l-47-42.9c-1.3-1.2-1.3-3.1,0-4.3l3.8-3.5c1-0.9,2.6-1,3.7-0.2
				l56.6,42.9c1.9,1.4,4.6,0.1,4.6-2.3v0.2C912.3,213.7,911.3,215.2,909.8,216z"/>
		</g>
		<g>
			<path class="st57" d="M895.4,222.9c-1.7,0.8-3.6,0.5-5-0.8c1.6,1.6,4.4,0.5,4.4-1.8V157c0-2.3-2.7-3.4-4.4-1.8
				c1.3-1.3,3.3-1.6,5-0.8l14.4,6.9c1.5,0.7,2.5,2.3,2.5,3.9V212c0,1.7-1,3.2-2.5,3.9L895.4,222.9z"/>
		</g>
		<g class="st58">
			
				<linearGradient id="SVGID_1_" gradientUnits="userSpaceOnUse" x1="523.3778" y1="75.7124" x2="523.3778" y2="6.3798" gradientTransform="matrix(1 0 0 -1 354 229.68)">
				<stop  offset="0" style="stop-color:#FFFFFF"/>
				<stop  offset="1" style="stop-color:#FFFFFF;stop-opacity:0"/>
			</linearGradient>
			<path class="st59" d="M892,223c1.1,0.4,2.3,0.4,3.5-0.1l14.3-6.9c1.5-0.7,2.5-2.3,2.5-3.9v-46.8c0-1.7-1-3.2-2.5-3.9l-14.3-6.9
				c-1.5-0.7-3.2-0.5-4.4,0.4c-0.2,0.1-0.4,0.3-0.5,0.4L863,180.3l-12-9.1c-1.1-0.8-2.7-0.8-3.7,0.2l-3.8,3.5
				c-1.3,1.2-1.3,3.1,0,4.3l10.4,9.5l-10.4,9.5c-1.3,1.2-1.3,3.1,0,4.3l3.8,3.5c1,0.9,2.6,1,3.7,0.2l12-9.1l27.5,25.1
				C890.9,222.5,891.4,222.8,892,223z M894.8,172.8L874,188.6l20.8,15.8V172.8z"/>
		</g>
	</g>
</g>
</svg>
