<?xml version="1.0" encoding="utf-8"?>
<!-- Generator: Adobe Illustrator 28.0.0, SVG Export Plug-In . SVG Version: 6.00 Build 0)  -->
<svg version="1.1" id="Layer_1" xmlns="http://www.w3.org/2000/svg" xmlns:xlink="http://www.w3.org/1999/xlink" x="0px" y="0px"
	 viewBox="0 0 1211 270.7" style="enable-background:new 0 0 1211 270.7;" xml:space="preserve">
<style type="text/css">
	.st0{fill:#F7DF1E;}
	.st1{fill:#53C1DE;}
	.st2{fill:#E44F26;}
	.st3{fill:#F1662A;}
	.st4{fill:#EBEBEB;}
	.st5{fill:#FFFFFF;}
	.st6{fill:#1572B6;}
	.st7{fill:#33A9DC;}
	.st8{fill:#0ACF83;}
	.st9{fill:#A259FF;}
	.st10{fill:#F24E1E;}
	.st11{fill:#FF7262;}
	.st12{fill:#1ABCFE;}
	.st13{fill:#001C25;}
	.st14{fill:#09C7FE;}
	.st15{fill:#251200;}
	.st16{fill:#FF7B0B;}
	.st17{fill:#1F013F;}
	.st18{fill:#D291FD;}
	.st19{fill:#242424;}
	.st20{fill:url(#SVGID_1_);}
	.st21{fill:url(#SVGID_00000027605559136406089860000008757680003130964121_);}
	.st22{fill:url(#SVGID_00000076596283846396680690000001360446752278192313_);}
	.st23{fill:url(#SVGID_00000013170102835825236050000011740020008762451590_);}
	.st24{fill:url(#SVGID_00000160896311061502123700000002275638439219612568_);}
	.st25{fill:url(#SVGID_00000140000431898559102860000016281697689468378768_);}
	.st26{fill:url(#SVGID_00000121274670433195159150000004154955369316449444_);}
	.st27{clip-path:url(#SVGID_00000103243067901488785580000010054365341821733776_);}
	.st28{fill:#F03C2E;}
</style>
<g>
	<path class="st0" d="M748.3,233.2h-47.7c-5.5,0-10-4.5-10-10v-47.7c0-5.5,4.5-10,10-10h47.7c5.5,0,10,4.5,10,10v47.7
		C758.3,228.7,753.8,233.2,748.3,233.2z"/>
	<path d="M708.4,222.1l5.2-3.1c1,1.8,1.9,3.3,4.1,3.3s3.4-0.8,3.4-4v-21.7h6.4v21.7c0,6.6-3.9,9.6-9.5,9.6
		C712.9,227.9,709.9,225.2,708.4,222.1z M730.9,221.4l5.2-3c1.4,2.2,3.1,3.9,6.3,3.9c2.6,0,4.3-1.3,4.3-3.1c0-2.2-1.7-3-4.6-4.2
		l-1.6-0.7c-4.6-2-7.6-4.4-7.6-9.6c0-4.8,3.6-8.4,9.3-8.4c4,0,7,1.4,9,5.1l-5,3.2c-1.1-2-2.3-2.7-4.1-2.7c-1.9,0-3,1.2-3,2.7
		c0,1.9,1.2,2.7,3.9,3.9l1.6,0.7c5.4,2.3,8.5,4.7,8.5,10c0,5.7-4.5,8.9-10.5,8.9C736.6,227.9,732.8,225.1,730.9,221.4z"/>
	<path class="st1" d="M882.2,199.8c-0.1-5.4-5.3-9.6-13.4-12.4c-0.8-0.2-1.7-0.6-2.3-0.8c0.1-0.6,0.2-1.1,0.3-1.7
		c1.8-8.9,0.7-16.2-3.4-18.6c-3.9-2.2-10.3,0.1-17,5.8c-0.7,0.6-1.2,1.1-1.9,1.8c-0.3-0.3-0.8-0.8-1.2-1.1
		c-6.9-6.2-13.8-8.7-17.8-6.3c-3.9,2.2-5.1,9.1-3.4,17.6c0.1,0.9,0.3,1.7,0.6,2.6c-1,0.2-1.9,0.6-2.8,0.9
		c-8.1,2.8-13.2,7.2-13.2,11.7c0,4.8,5.6,9.4,13.9,12.2c0.7,0.2,1.3,0.3,2,0.7c-0.2,0.9-0.3,1.8-0.7,2.7c-1.6,8.3-0.3,15,3.6,17.2
		c4,2.2,10.9-0.1,17.6-5.9c0.6-0.6,1-0.9,1.6-1.3c0.7,0.7,1.3,1.2,2,1.9c6.4,5.6,12.9,7.8,16.8,5.6c4-2.2,5.4-9.4,3.7-18.1
		c-0.1-0.7-0.2-1.2-0.6-2c0.6-0.1,0.9-0.2,1.3-0.3C876.6,209.1,882.2,204.4,882.2,199.8z M848.5,174.3c5.4-4.6,10.7-6.6,13.1-5.2
		c2.6,1.3,3.6,7.4,1.9,15.1c-0.1,0.6-0.2,1-0.3,1.6c-3.1-0.8-6.6-1.2-10.1-1.7c-2-2.9-4.1-5.7-6.4-8.1
		C847.3,175.4,847.8,175,848.5,174.3z M830.7,206.9c1.1,1.4,1.7,2.6,2.6,3.9c-2.3-0.2-4.9-0.7-7-1.1c0.7-2.1,1.6-4.4,2.3-6.7
		C829.3,204.2,829.9,205.7,830.7,206.9z M826.5,188.7c2.1-0.6,4.5-0.9,6.9-1.1c-1,1.2-1.6,2.6-2.5,3.8c-0.8,1.2-1.3,2.6-2.1,3.9
		C827.9,193.2,827,190.8,826.5,188.7z M830.6,199.1c1-2,2-4,3.1-6.2c1.1-2,2.3-3.9,3.7-5.9c2.2-0.1,4.7-0.2,6.9-0.2
		c2.2,0,4.7,0.1,6.9,0.2c1.2,1.9,2.6,3.8,3.7,5.9c1.1,2,2.2,3.9,3.2,6.2c-1,2.1-2.2,4.2-3.3,6.2c-1.1,2-2.2,3.9-3.6,5.9
		c-2.2,0.1-4.7,0.2-6.9,0.2c-2.2,0-4.7-0.1-6.9-0.2c-1.2-1.9-2.6-3.8-3.7-5.9C832.6,203.3,831.6,201.3,830.6,199.1z M857.6,206.8
		c0.8-1.2,1.6-2.5,2.2-4c1,2.2,1.9,4.7,2.6,6.7c-2.1,0.6-4.7,0.9-7,1.1C856.2,209.4,857,208,857.6,206.8z M857.7,191.4
		c-0.8-1.2-1.6-2.6-2.2-3.8c2.3,0.2,4.8,0.8,6.9,1.1c-0.7,2-1.3,4.1-2.3,6.6C859.2,194,858.4,192.6,857.7,191.4z M844.3,178.5
		c1.6,1.7,2.9,3.4,4.5,5.4c-2.9-0.1-6-0.1-8.9,0C841.3,181.9,842.8,180,844.3,178.5z M826.9,169.1c2.6-1.3,8.2,0.7,14.1,5.9
		c0.3,0.3,0.8,0.7,1.1,1c-2.1,2.2-4.4,5.1-6.4,7.9c-3.6,0.3-7,0.9-10.1,1.6c-0.3-0.7-0.4-1.5-0.6-2.2
		C823.7,176,824.4,170.4,826.9,169.1z M823.2,208.8c-0.6-0.2-1.3-0.3-2-0.5c-3.7-1.2-6.8-2.9-8.8-4.8c-1.9-1.6-2.8-3.1-2.8-4.5
		c0-2.8,4-6.3,11-8.7c0.9-0.2,1.8-0.6,2.6-0.8c0.9,3,2.1,6.3,3.7,9.6C825.3,202.3,824.1,205.8,823.2,208.8z M840.9,223.6
		c-3.1,2.6-6,4.3-8.7,5.4c-2.2,0.8-4.1,0.9-5.4,0.2c-2.3-1.3-3.2-6.7-2-13.9c0.1-0.9,0.3-1.7,0.6-2.6c3,0.7,6.6,1.1,10.2,1.6
		c2,2.9,4.4,5.7,6.6,8.1C841.6,223,841.3,223.3,840.9,223.6z M844.4,219.8c-1.6-1.6-3-3.4-4.7-5.4c1.3,0,2.9,0.1,4.5,0.1
		c1.6,0,3,0,4.7-0.1C847.3,216.5,845.8,218.4,844.4,219.8z M864,224.4c-0.6,2.3-1.3,4-2.3,4.8c-2.3,1.3-7.6-0.3-13.1-5.1
		c-0.7-0.6-1.2-1.1-1.9-1.8c2.1-2.2,4.1-5.1,6.4-8.1c3.7-0.3,7.2-0.9,10.2-1.6c0.1,0.7,0.3,1.3,0.4,1.8
		C864.5,218.2,864.6,221.7,864,224.4z M865.7,208.6c-1-3-2.2-6.3-3.8-9.6c1.6-3.1,2.8-6.4,3.7-9.4c0.8,0.2,1.6,0.6,2.2,0.8
		c7,2.3,11.2,6,11.2,8.7s-4.6,6.7-12.1,9.2C866.6,208.4,866,208.5,865.7,208.6z"/>
	<path class="st1" d="M844.3,192.3c3.7,0,6.8,3,6.8,6.8s-3,6.8-6.8,6.8s-6.8-3-6.8-6.8S840.5,192.3,844.3,192.3z"/>
	<path class="st2" d="M340.1,225.4l-5.5-60.9h59.7l-5.5,60.9l-24.2,6.8L340.1,225.4z"/>
	<path class="st3" d="M364.6,227.1l19.6-5.6l4.6-52h-24.2V227.1z"/>
	<path class="st4" d="M364.6,192h-10.1l-0.6-7.6h10.7v-7.3h-18.8l0.1,1.9l1.9,20.7h16.8V192z"/>
	<path class="st4" d="M364.6,211.6l-8.5-2.3l-0.6-5.9h-4h-3.4l1.1,11.7l15.4,4.2V211.6z"/>
	<path class="st5" d="M364.6,192v7.7h9l-1,9.6l-8,2.3v7.7l15-4.2l0.2-1.4l1.9-19.6l0.1-2.1h-2H364.6z"/>
	<path class="st5" d="M364.6,177.1v4.6v2.7h17.9l0.1-1.6l0.2-3.8l0.2-1.9H364.6z"/>
	<path class="st6" d="M460.5,225.4l-5.3-60.4h59.2l-5.3,60.4l-24.4,6.8L460.5,225.4z"/>
	<path class="st7" d="M484.7,227l19.7-5.4l4.7-51.7h-24.4V227z"/>
	<path class="st5" d="M484.8,191.8h9.8l0.7-7.5h-10.5v-7.6h18.4l-0.1,2l-1.8,20.6h-16.5V191.8z"/>
	<path class="st4" d="M484.8,211.2l-8.3-2.3L476,203h-4h-3.4l1,11.6l15.2,4.2V211.2z"/>
	<path class="st5" d="M494,198.9l-0.9,10l-8.3,2.3v7.6l15.2-4.2v-1.2l1.4-14.5H494z"/>
	<path class="st4" d="M484.8,176.7v4.6v2.9v0.1H467l-0.2-1.6l-0.5-4l-0.2-2H484.8z"/>
	<path class="st4" d="M484.8,191.8v4.6v2.9h-8.1l-0.2-1.6l-0.4-3.9l-0.2-2H484.8z"/>
	<path class="st8" d="M833.7,105.5c6.2,0,11.3-5,11.3-11.3V82.9h-11.3c-6.2,0-11.3,5-11.3,11.3C822.4,100.5,827.5,105.5,833.7,105.5
		z"/>
	<path class="st9" d="M822.4,71.6c0-6.2,5-11.3,11.3-11.3H845v22.6h-11.3C827.5,82.9,822.4,77.9,822.4,71.6z"/>
	<path class="st10" d="M822.4,49.1c0-6.2,5-11.3,11.3-11.3H845v22.6h-11.3C827.5,60.4,822.4,55.3,822.4,49.1z"/>
	<path class="st11" d="M845,37.8h11.3c6.2,0,11.3,5,11.3,11.3c0,6.3-5,11.3-11.3,11.3H845V37.8z"/>
	<path class="st12" d="M867.6,71.6c0,6.2-5,11.3-11.3,11.3s-11.3-5-11.3-11.3s5-11.3,11.3-11.3C862.5,60.4,867.6,65.4,867.6,71.6z"
		/>
	<path class="st13" d="M461.5,37.5h44.6c6.8,0,12.2,5.5,12.2,12.2v42.9c0,6.8-5.5,12.2-12.2,12.2h-44.6c-6.8,0-12.2-5.5-12.2-12.2
		V49.7C449.3,43,454.8,37.5,461.5,37.5z"/>
	<path class="st14" d="M464.8,84.8V55.2c0-0.2,0.1-0.3,0.3-0.3h1.6c0.7,0,1.4,0,2.2-0.1c0.8,0,1.6,0,2.5-0.1h2.6
		c2.4,0,4.3,0.3,5.9,0.9c1.4,0.5,2.8,1.3,3.9,2.4c0.9,0.9,1.6,2,2.1,3.3c0.4,1.2,0.7,2.4,0.7,3.7c0,2.5-0.6,4.5-1.7,6.1
		c-1.1,1.6-2.8,2.8-4.6,3.5c-2,0.7-4.1,1-6.5,1h-2.6v9.2c0,0.2-0.1,0.4-0.3,0.4h-5.6C465,85.1,464.8,85,464.8,84.8z M471.1,60.4v9.7
		c0.4,0,0.8,0.1,1.1,0.1h1.5c1.1,0,2.2-0.2,3.3-0.5c0.9-0.3,1.7-0.8,2.4-1.5c0.6-0.7,0.9-1.7,0.9-3c0-0.9-0.2-1.8-0.7-2.6
		c-0.5-0.7-1.2-1.3-2-1.6c-1.1-0.4-2.2-0.6-3.4-0.6h-2C471.7,60.3,471.3,60.3,471.1,60.4z"/>
	<path class="st14" d="M504.6,68.3c-0.9-0.5-1.8-0.8-2.8-1c-1.1-0.2-2.1-0.4-3.2-0.4c-0.6,0-1.2,0.1-1.7,0.2
		c-0.4,0.1-0.7,0.3-0.9,0.6c-0.1,0.2-0.2,0.5-0.2,0.8s0.1,0.5,0.3,0.7c0.3,0.3,0.6,0.6,1,0.8c0.7,0.3,1.4,0.7,2,1
		c1.6,0.5,3.1,1.2,4.4,2.1c1,0.6,1.7,1.4,2.3,2.4c0.5,0.9,0.7,1.9,0.7,3c0,1.4-0.4,2.7-1.1,3.8c-0.8,1.2-1.9,2-3.2,2.6
		c-1.4,0.6-3.1,0.9-5.2,0.9c-1.3,0-2.6-0.1-3.9-0.4c-1-0.2-2-0.5-2.9-0.9c-0.2-0.1-0.3-0.3-0.3-0.5v-5c0-0.1,0-0.2,0.1-0.3
		c0.1-0.1,0.2,0,0.3,0c1.1,0.7,2.3,1.1,3.6,1.4c1.1,0.3,2.2,0.4,3.4,0.4c1.1,0,1.9-0.1,2.4-0.4c0.5-0.2,0.8-0.7,0.8-1.2
		c0-0.4-0.2-0.8-0.7-1.2c-0.5-0.4-1.4-0.8-2.8-1.4c-1.5-0.5-2.8-1.2-4.1-2.1c-0.9-0.6-1.6-1.5-2.2-2.4c-0.5-0.9-0.7-1.9-0.7-2.9
		c0-1.2,0.3-2.4,1-3.5c0.7-1.2,1.8-2.1,3-2.6c1.4-0.7,3.1-1,5.1-1c1.2,0,2.4,0.1,3.6,0.3c0.9,0.1,1.7,0.3,2.5,0.7
		c0.1,0,0.2,0.1,0.3,0.3c0,0.1,0.1,0.2,0.1,0.3v4.7c0,0.1-0.1,0.2-0.1,0.3C504.8,68.3,504.7,68.3,504.6,68.3z"/>
	<path class="st15" d="M341,37.5h44.6c6.8,0,12.2,5.5,12.2,12.2v42.9c0,6.8-5.5,12.2-12.2,12.2H341c-6.8,0-12.2-5.5-12.2-12.3V49.6
		C328.7,43,334.2,37.5,341,37.5z"/>
	<path class="st16" d="M362.2,77.9h-10.7l-2.2,6.8c-0.1,0.3-0.3,0.4-0.6,0.4h-5.4c-0.3,0-0.4-0.2-0.3-0.5l9.3-26.7
		c0.1-0.3,0.2-0.6,0.3-0.9c0.1-0.6,0.2-1.2,0.2-1.9c0-0.1,0.1-0.3,0.2-0.3h7.5c0.2,0,0.4,0.1,0.4,0.2l10.5,29.7
		c0.1,0.3,0,0.5-0.3,0.5h-6c-0.2,0-0.4-0.1-0.5-0.3L362.2,77.9z M353.2,72.1h7.3c-0.2-0.6-0.4-1.3-0.7-2.1c-0.3-0.8-0.5-1.6-0.8-2.5
		c-0.3-0.9-0.6-1.8-0.8-2.6c-0.2-0.8-0.6-1.7-0.8-2.6c-0.2-0.8-0.4-1.6-0.6-2.2h-0.1c-0.3,1.2-0.6,2.5-1,3.7
		c-0.4,1.4-0.9,2.8-1.3,4.3C354,69.5,353.6,70.9,353.2,72.1z"/>
	<path class="st16" d="M377.6,59.7c-0.9,0-1.9-0.4-2.6-1c-0.7-0.7-1-1.7-1-2.6c0-1,0.4-1.9,1-2.6c0.7-0.7,1.6-1,2.6-1
		c1.1,0,2,0.4,2.6,1c0.6,0.7,1,1.6,0.9,2.6c0,1-0.3,1.9-1,2.6C379.6,59.4,378.6,59.7,377.6,59.7z M374.4,84.7V62.5
		c0-0.3,0.1-0.4,0.4-0.4h5.7c0.3,0,0.4,0.1,0.4,0.4v22.2c0,0.3-0.1,0.5-0.4,0.5h-5.6C374.6,85.1,374.4,85,374.4,84.7z"/>
	<path class="st17" d="M702.6,37.8h44.6c6.8,0,12.2,5.5,12.2,12.2v42.9c0,6.8-5.5,12.2-12.2,12.2h-44.6c-6.8,0-12.2-5.5-12.2-12.2
		V50C690.3,43.3,695.8,37.8,702.6,37.8z"/>
	<path class="st18" d="M718.1,78.1h-10.7l-2.2,6.8c-0.1,0.3-0.3,0.4-0.5,0.4h-5.4c-0.3,0-0.4-0.2-0.3-0.5l9.3-26.5
		c0.1-0.3,0.2-0.5,0.3-0.9c0.1-0.6,0.2-1.2,0.2-1.9c0-0.1,0.1-0.3,0.2-0.3h7.5c0.2,0,0.3,0.1,0.4,0.2l10.5,29.5
		c0.1,0.3,0,0.5-0.3,0.5h-6c-0.2,0-0.4-0.1-0.5-0.3L718.1,78.1z M709,72.3h7.3c-0.2-0.6-0.4-1.3-0.7-2.1c-0.3-0.8-0.5-1.6-0.8-2.5
		s-0.5-1.8-0.8-2.6c-0.3-0.9-0.5-1.7-0.8-2.6c-0.2-0.8-0.4-1.6-0.6-2.2h-0.1c-0.3,1.2-0.6,2.5-1,3.7c-0.4,1.4-0.9,2.8-1.3,4.3
		C709.9,69.8,709.5,71.1,709,72.3z"/>
	<path class="st18" d="M744.2,75.4h-9.1c0.1,0.9,0.4,1.8,0.9,2.6c0.5,0.8,1.2,1.4,2.1,1.7c1.2,0.5,2.4,0.7,3.7,0.7c1,0,2-0.1,3-0.3
		c0.9-0.1,1.8-0.3,2.6-0.7c0.1-0.1,0.2-0.1,0.2,0.2V84c0,0.1,0,0.2-0.1,0.3s-0.1,0.1-0.2,0.2c-0.9,0.4-1.9,0.7-2.9,0.9
		c-1.4,0.3-2.7,0.4-4.1,0.3c-2.2,0-4-0.3-5.5-1c-1.4-0.6-2.6-1.6-3.6-2.7c-0.9-1.1-1.6-2.4-2-3.8c-0.4-1.4-0.6-2.8-0.6-4.2
		c0-1.6,0.2-3.1,0.7-4.6c0.5-1.4,1.2-2.8,2.2-3.9c0.9-1.2,2.1-2.1,3.5-2.7c1.4-0.7,3-0.9,4.8-0.9c1.5,0,3,0.3,4.5,0.9
		c1.2,0.5,2.2,1.3,3,2.3c0.7,1,1.4,2.1,1.7,3.3c0.4,1.2,0.5,2.3,0.5,3.5c0,0.7,0,1.3-0.1,1.8c-0.1,0.5-0.1,0.9-0.1,1.2
		c0,0.2-0.2,0.4-0.4,0.4c-0.2,0-0.5,0-0.9,0.1c-0.5,0.1-1,0.1-1.7,0.1S745,75.4,744.2,75.4z M735.1,71.2h7.7c0.2,0,0.5-0.1,0.7-0.2
		v-0.3c0-0.4-0.1-0.7-0.2-1.1c-0.5-1.6-2-2.7-3.7-2.6c-1.6-0.1-3.1,0.7-3.8,2.2C735.4,69.8,735.2,70.5,735.1,71.2z"/>
	<path class="st19" d="M622.8,104.8h-37.6c-8.2,0-14.9-6.7-14.9-14.9V52.3c0-8.2,6.7-14.9,14.9-14.9h37.6c8.2,0,14.9,6.7,14.9,14.9
		v37.6C637.7,98.2,631.1,104.8,622.8,104.8z"/>
	
		<linearGradient id="SVGID_1_" gradientUnits="userSpaceOnUse" x1="603.6363" y1="192.3911" x2="602.3663" y2="173.5611" gradientTransform="matrix(1 0 0 -1 0 272)">
		<stop  offset="0" style="stop-color:#FD5200"/>
		<stop  offset="0.27" style="stop-color:#FFDC38"/>
		<stop  offset="0.96" style="stop-color:#F3FEAB"/>
	</linearGradient>
	<path class="st20" d="M601.6,66.3c-8.5,2.5-23.5,8.3-24.3,31.9c2.7-12.7,9.4-14.5,21.7-17.4c12.3-2.9,19-6.1,26.4-15
		c7.4-8.9,4.9-21.5,4.9-21.5c0,6.9-4.9,11.4-9.6,14.7C616.1,62.1,610.1,63.7,601.6,66.3z"/>
	
		<linearGradient id="SVGID_00000030480572294319170580000010592556119219428018_" gradientUnits="userSpaceOnUse" x1="591.8909" y1="230.8711" x2="579.2119" y2="181.9507" gradientTransform="matrix(1 0 0 -1 0 272)">
		<stop  offset="0.41" style="stop-color:#9E010A"/>
		<stop  offset="0.62" style="stop-color:#FC56A4"/>
		<stop  offset="0.69" style="stop-color:#F2A780"/>
		<stop  offset="0.74" style="stop-color:#FFC78A"/>
	</linearGradient>
	<path style="fill:url(#SVGID_00000030480572294319170580000010592556119219428018_);" d="M577.3,98.1c0-0.6,0.1-1.2,0.1-1.8
		C577.4,97,577.3,97.6,577.3,98.1z"/>
	
		<linearGradient id="SVGID_00000052064267702765520600000015269914715797260203_" gradientUnits="userSpaceOnUse" x1="606.1998" y1="216.0008" x2="601.5098" y2="182.2709" gradientTransform="matrix(1 0 0 -1 0 272)">
		<stop  offset="0.41" style="stop-color:#9E010A"/>
		<stop  offset="0.62" style="stop-color:#FC56A4"/>
		<stop  offset="0.69" style="stop-color:#F2A780"/>
		<stop  offset="0.74" style="stop-color:#FFC78A"/>
	</linearGradient>
	<path style="fill:url(#SVGID_00000052064267702765520600000015269914715797260203_);" d="M609,77.8c-6.4,1.2-12.9,1.1-17.2,2.2
		c-7.6,2-13.9,11-14.5,18.1c0-0.6,0.1-1.2,0.1-1.8c0.8-7.7,7.9-20.3,23.4-27.2c4.9-2.2,9.4-4.5,13.3-6.9c2.5-1,4.7-2.1,6.6-3.4
		c4.7-3.3,9.6-7.8,9.6-14.7c0,0,0.4,10.3-2.9,19.2c-0.5,0.8-1,1.7-1.6,2.4C621.3,71.6,616,75.2,609,77.8z"/>
	
		<linearGradient id="SVGID_00000093894384107289892290000012826103869438744206_" gradientUnits="userSpaceOnUse" x1="615.8516" y1="208.7899" x2="580.2015" y2="183.0799" gradientTransform="matrix(1 0 0 -1 0 272)">
		<stop  offset="8.000000e-02" style="stop-color:#0C64CC"/>
		<stop  offset="0.33" style="stop-color:#1F9FE3"/>
		<stop  offset="0.49" style="stop-color:#1B9DEB"/>
		<stop  offset="0.76" style="stop-color:#72F07F"/>
		<stop  offset="0.86" style="stop-color:#DBFEC8"/>
		<stop  offset="0.99" style="stop-color:#F6F9B1"/>
	</linearGradient>
	<path style="fill:url(#SVGID_00000093894384107289892290000012826103869438744206_);" d="M577.5,96c0,0.7-0.1,1.4-0.1,2.1
		C577.3,97.5,577.3,96.8,577.5,96c1.5-21.8,15.9-27.3,24.2-29.8c8.5-2.5,14.5-4.2,19.2-7.4c4.7-3.3,9.6-7.8,9.6-14.7
		c0,0,2.5,12.7-4.9,21.5c-7.4,8.9-13.6,5.2-25.9,8.1C588.4,76.5,578.6,88.3,577.5,96z"/>
	
		<linearGradient id="SVGID_00000041988892733955486360000010015859191952325045_" gradientUnits="userSpaceOnUse" x1="614.8423" y1="194.3629" x2="599.4923" y2="203.4929" gradientTransform="matrix(1 0 0 -1 0 272)">
		<stop  offset="3.000000e-02" style="stop-color:#4226A2"/>
		<stop  offset="0.28" style="stop-color:#7357CB"/>
		<stop  offset="0.47" style="stop-color:#4783DF"/>
		<stop  offset="0.52" style="stop-color:#3B8FE4"/>
		<stop  offset="0.58" style="stop-color:#3B9DE4"/>
		<stop  offset="0.66" style="stop-color:#3BA7E4"/>
		<stop  offset="0.74" style="stop-color:#3BABE4"/>
	</linearGradient>
	<path style="fill:url(#SVGID_00000041988892733955486360000010015859191952325045_);" d="M596.5,75.1c11.6-2.2,18.8-2,26.8-10.5
		s7.1-20.5,7.1-20.5c0,6.9-4.9,11.4-9.6,14.7c-2,1.4-4.2,2.4-6.6,3.4c-3.9,2.4-9.2,4.8-14.2,7c-15.5,6.9-21.7,19.4-22.5,27.1
		c0,0.6-0.1,1.2-0.1,1.8C577.9,91.1,585,77.3,596.5,75.1z"/>
	
		<linearGradient id="SVGID_00000079464450911360990170000009692611430125143193_" gradientUnits="userSpaceOnUse" x1="596.4419" y1="163.4106" x2="581.2319" y2="172.4614" gradientTransform="matrix(1 0 0 -1 0 272)">
		<stop  offset="0" style="stop-color:#4226A2"/>
		<stop  offset="0.32" style="stop-color:#7357CB"/>
		<stop  offset="0.63" style="stop-color:#3B8FE4"/>
	</linearGradient>
	<path style="fill:url(#SVGID_00000079464450911360990170000009692611430125143193_);" d="M577.3,98.1c0-0.6,0.1-1.2,0.1-1.8
		C577.4,97,577.3,97.6,577.3,98.1z"/>
	
		<linearGradient id="SVGID_00000083069471158176934420000006070595847672185751_" gradientUnits="userSpaceOnUse" x1="631.6393" y1="220.043" x2="578.6093" y2="178.5928" gradientTransform="matrix(1 0 0 -1 0 272)">
		<stop  offset="0" style="stop-color:#7C4ADF"/>
		<stop  offset="0.35" style="stop-color:#E251D8"/>
		<stop  offset="0.73" style="stop-color:#FCDFBC"/>
		<stop  offset="0.83" style="stop-color:#F6F8B0"/>
		<stop  offset="0.92" style="stop-color:#FFFFF2"/>
		<stop  offset="0.99" style="stop-color:#F6F8B0"/>
	</linearGradient>
	<path style="fill:url(#SVGID_00000083069471158176934420000006070595847672185751_);" d="M604.7,68.1c-21.2,4-27.5,22.7-27.3,30
		c0.5-7.1,6.7-15.2,14.7-19.6c11.8-6,24.1-2.7,32.6-11.4s5.8-23,5.8-23c0,6.9-2.5,13.4-7.1,17.2C618.8,65.2,609.8,67.1,604.7,68.1z"
		/>
	<g>
		<defs>
			<rect id="SVGID_00000036958151205828124220000006580713857628078233_" x="570.2" y="165.4" width="67.5" height="67.5"/>
		</defs>
		<clipPath id="SVGID_00000118376812857777346580000017231266151578861492_">
			<use xlink:href="#SVGID_00000036958151205828124220000006580713857628078233_"  style="overflow:visible;"/>
		</clipPath>
		<g style="clip-path:url(#SVGID_00000118376812857777346580000017231266151578861492_);">
			<path class="st28" d="M636.4,196.1L607,166.7c-1.7-1.7-4.4-1.7-6.1,0c0,0,0,0,0,0l-6.1,6.1l7.8,7.8c1.9-0.6,3.9-0.2,5.3,1.2
				c1.4,1.4,1.9,3.5,1.2,5.3l7.5,7.5c1.9-0.6,3.9-0.2,5.3,1.2c2,2,2,5.3,0,7.3c0,0,0,0,0,0c-2,2-5.3,2-7.3,0
				c-1.5-1.5-1.9-3.7-1.1-5.6l-7-7v18.4c2.6,1.3,3.6,4.4,2.3,6.9c-0.2,0.5-0.6,1-1,1.4c-2,2-5.3,2-7.3,0c0,0,0,0,0,0
				c-2-2-2-5.3,0-7.3c0,0,0,0,0,0c0.5-0.5,1.1-0.9,1.7-1.1v-18.5c-2.6-1.1-3.9-4.1-2.8-6.8c0,0,0,0,0,0l-7.7-7.7L571.5,196
				c-1.7,1.7-1.7,4.4,0,6.1l29.5,29.5c1.7,1.7,4.4,1.7,6.1,0l29.3-29.3C638.1,200.6,638.1,197.8,636.4,196.1"/>
		</g>
	</g>
</g>
</svg>
