<?xml version="1.0" encoding="utf-8"?>
<!-- Generator: Adobe Illustrator 28.0.0, SVG Export Plug-In . SVG Version: 6.00 Build 0)  -->
<svg version="1.1" id="Layer_1" xmlns="http://www.w3.org/2000/svg" xmlns:xlink="http://www.w3.org/1999/xlink" x="0px" y="0px"
	 viewBox="0 0 1211 270.7" style="enable-background:new 0 0 1211 270.7;" xml:space="preserve">
<style type="text/css">
	.st0{fill:#F7DF1E;}
	.st1{fill:#53C1DE;}
	.st2{fill:#CF649A;}
	.st3{fill:#E44F26;}
	.st4{fill:#F1662A;}
	.st5{fill:#EBEBEB;}
	.st6{fill:#FFFFFF;}
	.st7{fill:#1572B6;}
	.st8{fill:#33A9DC;}
	.st9{fill:#0ACF83;}
	.st10{fill:#A259FF;}
	.st11{fill:#F24E1E;}
	.st12{fill:#FF7262;}
	.st13{fill:#1ABCFE;}
	.st14{fill:#001C25;}
	.st15{fill:#09C7FE;}
	.st16{fill:#251200;}
	.st17{fill:#FF7B0B;}
	.st18{fill:#1F013F;}
	.st19{fill:#D291FD;}
	.st20{fill:#242424;}
	.st21{fill:url(#SVGID_1_);}
	.st22{fill:url(#SVGID_00000113323555873294647290000009782333388133818529_);}
	.st23{fill:url(#SVGID_00000077311384140545477680000001710736612898607748_);}
	.st24{fill:url(#SVGID_00000115481609732175679990000016096767667380829087_);}
	.st25{fill:url(#SVGID_00000159469351586626274170000013933389549643454592_);}
	.st26{fill:url(#SVGID_00000125593277686260254160000012377121259768214199_);}
	.st27{fill:url(#SVGID_00000169533239595266771420000006574396569571730055_);}
</style>
<g>
	<g>
		<path class="st0" d="M751.3,108h-47.7c-5.5,0-10-4.5-10-10V50.3c0-5.5,4.5-10,10-10h47.7c5.5,0,10,4.5,10,10V98
			C761.3,103.5,756.8,108,751.3,108z"/>
		<path d="M711.4,96.9l5.2-3.1c1,1.8,1.9,3.3,4.1,3.3c2.1,0,3.4-0.8,3.4-4V71.4h6.4v21.7c0,6.6-3.9,9.6-9.5,9.6
			C715.9,102.7,712.9,100,711.4,96.9 M733.9,96.2l5.2-3c1.4,2.2,3.1,3.9,6.3,3.9c2.6,0,4.3-1.3,4.3-3.1c0-2.2-1.7-3-4.6-4.2
			l-1.6-0.7c-4.6-2-7.6-4.4-7.6-9.6c0-4.8,3.6-8.4,9.3-8.4c4,0,7,1.4,9,5.1l-5,3.2c-1.1-2-2.3-2.7-4.1-2.7c-1.9,0-3,1.2-3,2.7
			c0,1.9,1.2,2.7,3.9,3.9l1.6,0.7c5.4,2.3,8.5,4.7,8.5,10c0,5.7-4.5,8.9-10.5,8.9C739.6,102.7,735.8,99.9,733.9,96.2"/>
	</g>
	<g>
		<path class="st1" d="M885.2,74.6c-0.1-5.4-5.3-9.6-13.4-12.4c-0.8-0.2-1.7-0.6-2.3-0.8c0.1-0.6,0.2-1.1,0.3-1.7
			c1.8-8.9,0.7-16.2-3.4-18.6c-3.9-2.2-10.3,0.1-17,5.8c-0.7,0.6-1.2,1.1-1.9,1.8c-0.3-0.3-0.8-0.8-1.2-1.1
			c-6.9-6.2-13.8-8.7-17.8-6.3c-3.9,2.2-5.1,9.1-3.4,17.6c0.1,0.9,0.3,1.7,0.6,2.6c-1,0.2-1.9,0.6-2.8,0.9
			c-8.1,2.8-13.2,7.2-13.2,11.7c0,4.8,5.6,9.4,13.9,12.2c0.7,0.2,1.3,0.3,2,0.7c-0.2,0.9-0.3,1.8-0.7,2.7c-1.6,8.3-0.3,15,3.6,17.2
			c4,2.2,10.9-0.1,17.6-5.9c0.6-0.6,1-0.9,1.6-1.3c0.7,0.7,1.3,1.2,2,1.9c6.4,5.6,12.9,7.8,16.8,5.6c4-2.2,5.4-9.4,3.7-18.1
			c-0.1-0.7-0.2-1.2-0.6-2c0.6-0.1,0.9-0.2,1.3-0.3C879.6,83.9,885.2,79.2,885.2,74.6z M851.5,49.1c5.4-4.6,10.7-6.6,13.1-5.2
			c2.6,1.3,3.6,7.4,1.9,15.1c-0.1,0.6-0.2,1-0.3,1.6c-3.1-0.8-6.6-1.2-10.1-1.7c-2-2.9-4.1-5.7-6.4-8.1
			C850.3,50.2,850.8,49.8,851.5,49.1z M833.7,81.7c1.1,1.4,1.7,2.6,2.6,3.9c-2.3-0.2-4.9-0.7-7-1.1c0.7-2.1,1.6-4.4,2.3-6.7
			C832.3,79,832.9,80.5,833.7,81.7z M829.5,63.5c2.1-0.6,4.5-0.9,6.9-1.1c-1,1.2-1.6,2.6-2.5,3.8c-0.8,1.2-1.3,2.6-2.1,3.9
			C830.9,68,830,65.6,829.5,63.5z M833.6,73.9c1-2,2-4,3.1-6.2c1.1-2,2.3-3.9,3.7-5.9c2.2-0.1,4.7-0.2,6.9-0.2s4.7,0.1,6.9,0.2
			c1.2,1.9,2.6,3.8,3.7,5.9c1.1,2,2.2,3.9,3.2,6.2c-1,2.1-2.2,4.2-3.3,6.2s-2.2,3.9-3.6,5.9c-2.2,0.1-4.7,0.2-6.9,0.2
			s-4.7-0.1-6.9-0.2c-1.2-1.9-2.6-3.8-3.7-5.9C835.6,78.1,834.6,76.1,833.6,73.9z M860.6,81.6c0.8-1.2,1.6-2.5,2.2-4
			c1,2.2,1.9,4.7,2.6,6.7c-2.1,0.6-4.7,0.9-7,1.1C859.2,84.2,860,82.8,860.6,81.6z M860.7,66.2c-0.8-1.2-1.6-2.6-2.2-3.8
			c2.3,0.2,4.8,0.8,6.9,1.1c-0.7,2-1.3,4.1-2.3,6.6C862.2,68.8,861.4,67.4,860.7,66.2z M847.3,53.3c1.6,1.7,2.9,3.4,4.5,5.4
			c-2.9-0.1-6-0.1-8.9,0C844.3,56.7,845.8,54.8,847.3,53.3z M829.9,43.9c2.6-1.3,8.2,0.7,14.1,5.9c0.3,0.3,0.8,0.7,1.1,1
			c-2.1,2.2-4.4,5.1-6.4,7.9c-3.6,0.3-7,0.9-10.1,1.6c-0.3-0.7-0.4-1.5-0.6-2.2C826.7,50.8,827.4,45.2,829.9,43.9z M826.2,83.6
			c-0.6-0.2-1.3-0.3-2-0.5c-3.7-1.2-6.8-2.9-8.8-4.8c-1.9-1.6-2.8-3.1-2.8-4.5c0-2.8,4-6.3,11-8.7c0.9-0.2,1.8-0.6,2.6-0.8
			c0.9,3,2.1,6.3,3.7,9.6C828.3,77.1,827.1,80.6,826.2,83.6z M843.9,98.4c-3.1,2.6-6,4.3-8.7,5.4c-2.2,0.8-4.1,0.9-5.4,0.2
			c-2.3-1.3-3.2-6.7-2-13.9c0.1-0.9,0.3-1.7,0.6-2.6c3,0.7,6.6,1.1,10.2,1.6c2,2.9,4.4,5.7,6.6,8.1
			C844.6,97.8,844.3,98.1,843.9,98.4z M847.4,94.6c-1.6-1.6-3-3.4-4.7-5.4c1.3,0,2.9,0.1,4.5,0.1s3,0,4.7-0.1
			C850.3,91.3,848.8,93.2,847.4,94.6z M867,99.2c-0.6,2.3-1.3,4-2.3,4.8c-2.3,1.3-7.6-0.3-13.1-5.1c-0.7-0.6-1.2-1.1-1.9-1.8
			c2.1-2.2,4.1-5.1,6.4-8.1c3.7-0.3,7.2-0.9,10.2-1.6c0.1,0.7,0.3,1.3,0.4,1.8C867.5,93,867.6,96.5,867,99.2z M868.7,83.4
			c-1-3-2.2-6.3-3.8-9.6c1.6-3.1,2.8-6.4,3.7-9.4c0.8,0.2,1.6,0.6,2.2,0.8c7,2.3,11.2,6,11.2,8.7c0,2.8-4.6,6.7-12.1,9.2
			C869.6,83.2,869,83.3,868.7,83.4z"/>
		<path class="st1" d="M847.3,67.1c3.7,0,6.8,3,6.8,6.8c0,3.7-3,6.8-6.8,6.8s-6.8-3-6.8-6.8C840.5,70.2,843.5,67.1,847.3,67.1"/>
	</g>
	<g>
		<path class="st2" d="M639.1,79.3c-3.2,0-5.8,0.8-8,1.8c-0.8-1.7-1.7-3-1.8-4.2s-0.4-2-0.1-3.5c0.1-1.4,1.1-3.5,1.1-3.8
			c0-0.1-0.1-0.9-2-0.9c-1.8,0-3.3,0.4-3.5,0.8c-0.1,0.5-0.5,1.6-0.8,2.6c-0.3,1.6-3.5,7.4-5.4,10.4c-0.7-1.2-1.2-2.2-1.2-3
			c-0.1-1.2-0.4-2-0.1-3.5c0.1-1.4,1.1-3.5,1.1-3.8c0-0.1-0.1-0.9-2-0.9c-1.8,0-3.3,0.4-3.5,0.8c-0.1,0.5-0.4,1.6-0.8,2.6
			c-0.4,1.1-4.7,10.8-5.8,13.3c-0.5,1.3-1.1,2.4-1.4,3c-0.4,0.7,0,0,0,0.1c-0.3,0.5-0.5,0.9-0.5,0.9l0,0c-0.3,0.4-0.5,0.8-0.7,0.8
			s-0.3-1.2,0-2.8c0.7-3.3,2.2-8.5,2.2-8.8c0-0.1,0.3-1.1-1.1-1.4c-1.3-0.5-1.7,0.3-1.8,0.3s-0.1,0.3-0.1,0.3s1.4-5.9-2.6-5.9
			c-2.6,0-6,2.8-7.9,5.4c-1.1,0.7-3.4,1.8-5.9,3.3c-0.9,0.5-2,1.1-2.9,1.6l-0.1-0.3c-5-5.3-14.2-9.1-13.8-16.2
			c0.1-2.6,1.1-9.5,17.6-17.6c13.5-6.7,24.5-4.9,26.3-0.8c2.6,5.9-5.8,16.8-20,18.4c-5.4,0.7-8.2-1.4-8.9-2.2
			c-0.7-0.8-0.8-0.8-1.2-0.7c-0.4,0.3-0.1,0.9,0,1.4c0.4,1.1,2.1,3,5.1,3.9c2.6,0.8,8.9,1.3,16.6-1.6c8.5-3.3,15.2-12.5,13.3-20.2
			s-15-10.4-27.2-6c-7.4,2.6-15.2,6.7-20.9,12c-6.7,6.3-7.9,11.8-7.4,14.1c1.6,8.2,12.9,13.5,17.4,17.5c-0.3,0.1-0.4,0.3-0.7,0.4
			c-2.2,1.1-10.8,5.7-13,10.4c-2.4,5.4,0.4,9.2,2.2,9.7c5.8,1.6,11.7-1.3,15-6c3.2-4.7,2.8-10.9,1.3-13.8v-0.1l1.7-1.1
			c1.2-0.7,2.2-1.3,3.3-1.8c-0.5,1.4-0.9,3.3-1.2,5.9c-0.3,3,1.1,7,2.6,8.5c0.8,0.7,1.6,0.7,2.1,0.7c2,0,2.8-1.6,3.7-3.4
			c1.2-2.4,2.2-5,2.2-5s-1.3,7.2,2.2,7.2c1.3,0,2.6-1.7,3.2-2.5l0,0c0,0,0,0,0.1-0.1c0.1-0.3,0.3-0.4,0.3-0.4l0,0
			c0.5-0.9,1.7-3,3.4-6.4c2.2-4.5,4.3-9.9,4.3-9.9s0.3,1.3,0.8,3.5c0.4,1.3,1.2,2.8,1.8,4.2c-0.5,0.8-0.8,1.2-0.8,1.2l0,0
			c-0.4,0.5-0.9,1.2-1.3,1.7c-1.7,2.1-3.9,4.5-4.2,5.3c-0.4,0.8-0.3,1.4,0.4,2c0.5,0.4,1.3,0.4,2.2,0.4c1.6-0.1,2.8-0.5,3.3-0.8
			c0.9-0.3,1.8-0.8,2.8-1.4c1.7-1.3,2.8-3.2,2.6-5.5c0-1.3-0.5-2.6-1.1-3.9c0.1-0.3,0.3-0.4,0.5-0.7c2.8-3.9,4.9-8.4,4.9-8.4
			s0.3,1.3,0.8,3.5c0.4,1.2,1.1,2.4,1.6,3.5c-2.6,2.1-4.2,4.5-4.7,6.2c-1.1,2.9-0.3,4.3,1.3,4.6c0.7,0.1,1.7-0.1,2.4-0.5
			c0.9-0.3,2-0.8,3-1.6c1.7-1.3,3.4-3,3.3-5.5c0-1.1-0.4-2.2-0.8-3.3c2.2-0.9,5-1.4,8.5-1.1c7.8,0.9,9.2,5.8,8.9,7.8s-2,3.2-2.5,3.4
			c-0.5,0.4-0.7,0.4-0.7,0.7c0.1,0.4,0.3,0.4,0.8,0.3c0.7-0.1,4.1-1.7,4.2-5.4C651.7,84.5,647.1,79.3,639.1,79.3z M579.7,99.4
			c-2.5,2.8-6.2,3.8-7.6,2.9c-1.7-0.9-1.1-5.1,2.1-8c2-1.8,4.3-3.4,6-4.5c0.4-0.3,0.9-0.5,1.6-0.9c0.1-0.1,0.1-0.1,0.1-0.1
			c0.1-0.1,0.3-0.1,0.4-0.3C583.4,92.8,582.3,96.5,579.7,99.4z M598.2,86.8c-0.9,2.1-2.8,7.8-3.9,7.4c-0.9-0.3-1.6-4.5-0.1-8.7
			c0.7-2.1,2.1-4.6,3-5.5c1.4-1.6,2.9-2.1,3.3-1.4C601,79.3,598.9,85.3,598.2,86.8z M613.6,94.1c-0.4,0.1-0.8,0.4-0.9,0.3
			s0.1-0.4,0.1-0.4s2-2.1,2.6-3c0.4-0.5,0.9-1.2,1.4-2v0.3C617.2,91.8,614.8,93.4,613.6,94.1z M625.6,91.4c-0.3-0.3-0.3-0.8,0.7-2.9
			c0.4-0.8,1.2-2.1,2.6-3.4c0.1,0.5,0.3,1.1,0.3,1.4C629.1,89.7,626.9,90.9,625.6,91.4z"/>
	</g>
	<g>
		<polygon class="st3" points="343.1,100.2 337.6,39.3 397.3,39.3 391.8,100.2 367.6,107 		"/>
		<polygon class="st4" points="367.6,101.9 387.2,96.3 391.8,44.3 367.6,44.3 		"/>
		<polygon class="st5" points="367.6,66.8 357.5,66.8 356.9,59.2 367.6,59.2 367.6,51.9 367.6,51.9 348.8,51.9 348.9,53.8 
			350.8,74.5 367.6,74.5 		"/>
		<polygon class="st5" points="367.6,86.4 367.6,86.4 359.1,84.1 358.5,78.2 354.5,78.2 351.1,78.2 352.2,89.9 367.6,94.1 
			367.6,94.1 		"/>
		<polygon class="st6" points="367.6,66.8 367.6,74.5 376.6,74.5 375.6,84.1 367.6,86.4 367.6,94.1 382.6,89.9 382.8,88.5 
			384.7,68.9 384.8,66.8 382.8,66.8 		"/>
		<polygon class="st6" points="367.6,51.9 367.6,56.5 367.6,59.2 367.6,59.2 385.5,59.2 385.5,59.2 385.5,59.2 385.6,57.6 
			385.8,53.8 386,51.9 		"/>
	</g>
	<g>
		<polygon class="st7" points="463.5,100.2 458.2,39.8 517.4,39.8 512.1,100.2 487.7,107 		"/>
		<polygon class="st8" points="487.7,101.8 507.4,96.4 512.1,44.7 487.7,44.7 		"/>
		<g transform="translate(6.274 16.198)">
			<polygon class="st6" points="481.5,50.4 491.3,50.4 492,42.9 481.5,42.9 481.5,35.3 481.5,35.3 499.9,35.3 499.8,37.3 498,57.9 
				481.5,57.9 			"/>
			<polygon class="st5" points="481.5,69.8 481.5,69.8 473.2,67.5 472.7,61.6 468.7,61.6 465.3,61.6 466.3,73.2 481.5,77.4 
				481.5,77.4 			"/>
			<polygon class="st6" points="490.7,57.5 489.8,67.5 481.5,69.8 481.5,77.4 496.7,73.2 496.7,72 498.1,57.5 			"/>
			<polygon class="st5" points="481.5,35.3 481.5,39.9 481.5,42.8 481.5,42.9 463.7,42.9 463.7,42.9 463.7,42.9 463.5,41.3 
				463,37.3 462.8,35.3 			"/>
			<polygon class="st5" points="481.5,50.4 481.5,55 481.5,57.9 481.5,57.9 473.4,57.9 473.4,57.9 473.4,57.9 473.2,56.3 
				472.8,52.4 472.6,50.4 			"/>
		</g>
	</g>
</g>
<g>
	<path class="st9" d="M836.7,235.5c6.2,0,11.3-5,11.3-11.3v-11.3h-11.3c-6.2,0-11.3,5-11.3,11.3
		C825.4,230.4,830.5,235.5,836.7,235.5z"/>
	<path class="st10" d="M825.4,201.6c0-6.2,5-11.3,11.3-11.3H848v22.6h-11.3C830.5,212.9,825.4,207.9,825.4,201.6z"/>
	<path class="st11" d="M825.4,179.1c0-6.2,5-11.3,11.3-11.3H848v22.6h-11.3C830.5,190.4,825.4,185.3,825.4,179.1z"/>
	<path class="st12" d="M848,167.8h11.3c6.2,0,11.3,5,11.3,11.3c0,6.2-5,11.3-11.3,11.3H848V167.8z"/>
	<path class="st13" d="M870.6,201.6c0,6.2-5,11.3-11.3,11.3c-6.2,0-11.3-5-11.3-11.3c0-6.2,5-11.3,11.3-11.3
		C865.5,190.4,870.6,195.4,870.6,201.6z"/>
</g>
<g>
	<g id="Surfaces_00000179606063131455305970000011748927207468508806_">
		<g id="Photo_Surface">
			<g id="Outline_no_shadow_00000049219826463522490170000015189055986717134470_">
				<path class="st14" d="M464.5,167.5h44.6c6.8,0,12.2,5.5,12.2,12.2v42.9c0,6.8-5.5,12.2-12.2,12.2h-44.6
					c-6.8,0-12.2-5.5-12.2-12.2v-42.9C452.3,173,457.8,167.5,464.5,167.5z"/>
			</g>
		</g>
	</g>
	<g id="Outlined_Mnemonics_Logos_00000114752873524692164800000015947328522091821236_">
		<g id="Ps">
			<path class="st15" d="M467.8,214.8v-29.6c0-0.2,0.1-0.3,0.3-0.3c0.5,0,1,0,1.6,0c0.7,0,1.4,0,2.2-0.1c0.8,0,1.6,0,2.5-0.1
				c0.9,0,1.8,0,2.6,0c2.4,0,4.3,0.3,5.9,0.9c1.4,0.5,2.8,1.3,3.9,2.4c0.9,0.9,1.6,2,2.1,3.3c0.4,1.2,0.7,2.4,0.7,3.7
				c0,2.5-0.6,4.5-1.7,6.1s-2.8,2.8-4.6,3.5c-2,0.7-4.1,1-6.5,1c-0.7,0-1.2,0-1.4,0c-0.3,0-0.7,0-1.2,0v9.2c0,0.2-0.1,0.4-0.3,0.4
				h-0.1h-5.5C468,215.1,467.8,215,467.8,214.8z M474.1,190.4v9.7c0.4,0,0.8,0.1,1.1,0.1h1.5c1.1,0,2.2-0.2,3.3-0.5
				c0.9-0.3,1.7-0.8,2.4-1.5c0.6-0.7,0.9-1.7,0.9-3c0-0.9-0.2-1.8-0.7-2.6c-0.5-0.7-1.2-1.3-2-1.6c-1.1-0.4-2.2-0.6-3.4-0.6
				c-0.7,0-1.4,0-2,0C474.7,190.3,474.3,190.3,474.1,190.4L474.1,190.4z"/>
			<path class="st15" d="M507.6,198.3c-0.9-0.5-1.8-0.8-2.8-1c-1.1-0.2-2.1-0.4-3.2-0.4c-0.6,0-1.2,0.1-1.7,0.2
				c-0.4,0.1-0.7,0.3-0.9,0.6c-0.1,0.2-0.2,0.5-0.2,0.8s0.1,0.5,0.3,0.7c0.3,0.3,0.6,0.6,1,0.8c0.7,0.3,1.4,0.7,2,1
				c1.6,0.5,3.1,1.2,4.4,2.1c1,0.6,1.7,1.4,2.3,2.4c0.5,0.9,0.7,1.9,0.7,3c0,1.4-0.4,2.7-1.1,3.8c-0.8,1.2-1.9,2-3.2,2.6
				c-1.4,0.6-3.1,0.9-5.2,0.9c-1.3,0-2.6-0.1-3.9-0.4c-1-0.2-2-0.5-2.9-0.9c-0.2-0.1-0.3-0.3-0.3-0.5v-5c0-0.1,0-0.2,0.1-0.3
				s0.2,0,0.3,0c1.1,0.7,2.3,1.1,3.6,1.4c1.1,0.3,2.2,0.4,3.4,0.4c1.1,0,1.9-0.1,2.4-0.4c0.5-0.2,0.8-0.7,0.8-1.2
				c0-0.4-0.2-0.8-0.7-1.2s-1.4-0.8-2.8-1.4c-1.5-0.5-2.8-1.2-4.1-2.1c-0.9-0.6-1.6-1.5-2.2-2.4c-0.5-0.9-0.7-1.9-0.7-2.9
				c0-1.2,0.3-2.4,1-3.5c0.7-1.2,1.8-2.1,3-2.6c1.4-0.7,3.1-1,5.1-1c1.2,0,2.4,0.1,3.6,0.3c0.9,0.1,1.7,0.3,2.5,0.7
				c0.1,0,0.2,0.1,0.3,0.3c0,0.1,0.1,0.2,0.1,0.3v4.7c0,0.1-0.1,0.2-0.1,0.3C507.8,198.3,507.7,198.3,507.6,198.3z"/>
		</g>
	</g>
</g>
<g>
	<g id="Surfaces">
		<g id="Drawing_Surface">
			<g id="Outline_no_shadow">
				<path class="st16" d="M344,167.5h44.6c6.8,0,12.2,5.5,12.2,12.2v42.9c0,6.8-5.5,12.2-12.2,12.2H344c-6.8,0-12.2-5.5-12.2-12.3
					v-42.9C331.7,173,337.2,167.5,344,167.5z"/>
			</g>
		</g>
	</g>
	<g id="Outlined_Mnemonics_Logos">
		<g id="Ai">
			<path class="st17" d="M365.2,207.9h-10.7l-2.2,6.8c-0.1,0.3-0.3,0.4-0.6,0.4h-5.4c-0.3,0-0.4-0.2-0.3-0.5l9.3-26.7
				c0.1-0.3,0.2-0.6,0.3-0.9c0.1-0.6,0.2-1.2,0.2-1.9c0-0.1,0.1-0.3,0.2-0.3h0.1h7.4c0.2,0,0.4,0.1,0.4,0.2l10.5,29.7
				c0.1,0.3,0,0.5-0.3,0.5h-6c-0.2,0-0.4-0.1-0.5-0.3L365.2,207.9z M356.2,202.1h7.3c-0.2-0.6-0.4-1.3-0.7-2.1
				c-0.3-0.8-0.5-1.6-0.8-2.5s-0.6-1.8-0.8-2.6s-0.6-1.7-0.8-2.6c-0.2-0.8-0.4-1.6-0.6-2.2h-0.1c-0.3,1.2-0.6,2.5-1,3.7
				c-0.4,1.4-0.9,2.8-1.3,4.3C357,199.5,356.6,200.9,356.2,202.1L356.2,202.1z"/>
			<path class="st17" d="M380.6,189.7c-0.9,0-1.9-0.4-2.6-1c-0.7-0.7-1-1.7-1-2.6c0-1,0.4-1.9,1-2.6c0.7-0.7,1.6-1,2.6-1
				c1.1,0,2,0.4,2.6,1c0.6,0.7,1,1.6,0.9,2.6c0,1-0.3,1.9-1,2.6C382.6,189.4,381.6,189.7,380.6,189.7z M377.4,214.7v-22.2
				c0-0.3,0.1-0.4,0.4-0.4h5.7c0.3,0,0.4,0.1,0.4,0.4v22.2c0,0.3-0.1,0.5-0.4,0.5h-5.6C377.6,215.1,377.4,215,377.4,214.7z"/>
		</g>
	</g>
</g>
<g>
	<g id="Surfaces_00000106836446574213898650000016574608340096819377_">
		<g id="Video_Audio_Surface">
			<g id="Outline_no_shadow_00000166667532410564503060000008025357301039342768_">
				<path class="st18" d="M705.6,167.8h44.6c6.8,0,12.2,5.5,12.2,12.2v42.9c0,6.8-5.5,12.2-12.2,12.2h-44.6
					c-6.8,0-12.2-5.5-12.2-12.2V180C693.3,173.3,698.8,167.8,705.6,167.8z"/>
			</g>
		</g>
	</g>
	<g id="Outlined_Mnemonics_Logos_00000140712301551757523530000005957473929481959603_">
		<g id="Ae">
			<path class="st19" d="M721.1,208.1h-10.7l-2.2,6.8c-0.1,0.3-0.3,0.4-0.5,0.4h-5.4c-0.3,0-0.4-0.2-0.3-0.5l9.3-26.5
				c0.1-0.3,0.2-0.5,0.3-0.9c0.1-0.6,0.2-1.2,0.2-1.9c0-0.1,0.1-0.3,0.2-0.3h0.1h7.4c0.2,0,0.3,0.1,0.4,0.2l10.5,29.5
				c0.1,0.3,0,0.5-0.3,0.5h-6c-0.2,0-0.4-0.1-0.5-0.3L721.1,208.1z M712,202.3h7.3c-0.2-0.6-0.4-1.3-0.7-2.1s-0.5-1.6-0.8-2.5
				s-0.5-1.8-0.8-2.6c-0.3-0.9-0.5-1.7-0.8-2.6c-0.2-0.8-0.4-1.6-0.6-2.2h-0.1c-0.3,1.2-0.6,2.5-1,3.7c-0.4,1.4-0.9,2.8-1.3,4.3
				C712.9,199.8,712.5,201.1,712,202.3z"/>
			<path class="st19" d="M747.2,205.4h-9.1c0.1,0.9,0.4,1.8,0.9,2.6s1.2,1.4,2.1,1.7c1.2,0.5,2.4,0.7,3.7,0.7c1,0,2-0.1,3-0.3
				c0.9-0.1,1.8-0.3,2.6-0.7c0.1-0.1,0.2-0.1,0.2,0.2v4.4c0,0.1,0,0.2-0.1,0.3s-0.1,0.1-0.2,0.2c-0.9,0.4-1.9,0.7-2.9,0.9
				c-1.4,0.3-2.7,0.4-4.1,0.3c-2.2,0-4-0.3-5.5-1c-1.4-0.6-2.6-1.6-3.6-2.7c-0.9-1.1-1.6-2.4-2-3.8c-0.4-1.4-0.6-2.8-0.6-4.2
				c0-1.6,0.2-3.1,0.7-4.6c0.5-1.4,1.2-2.8,2.2-3.9c0.9-1.2,2.1-2.1,3.5-2.7c1.4-0.7,3-0.9,4.8-0.9c1.5,0,3,0.3,4.5,0.9
				c1.2,0.5,2.2,1.3,3,2.3c0.7,1,1.4,2.1,1.7,3.3c0.4,1.2,0.5,2.3,0.5,3.5c0,0.7,0,1.3-0.1,1.8s-0.1,0.9-0.1,1.2
				c0,0.2-0.2,0.4-0.4,0.4s-0.5,0-0.9,0.1c-0.5,0.1-1,0.1-1.7,0.1S748,205.4,747.2,205.4z M738.1,201.2h6.1c0.7,0,1.3,0,1.6,0
				c0.2,0,0.5-0.1,0.7-0.2v-0.3c0-0.4-0.1-0.7-0.2-1.1c-0.5-1.6-2-2.7-3.7-2.6c-1.6-0.1-3.1,0.7-3.8,2.2
				C738.4,199.8,738.2,200.5,738.1,201.2z"/>
		</g>
	</g>
</g>
<g>
	<g>
		<path class="st20" d="M625.8,234.8h-37.6c-8.2,0-14.9-6.7-14.9-14.9v-37.6c0-8.2,6.7-14.9,14.9-14.9h37.6
			c8.2,0,14.9,6.7,14.9,14.9v37.6C640.7,228.2,634.1,234.8,625.8,234.8z"/>
	</g>
	<g>
		
			<linearGradient id="SVGID_1_" gradientUnits="userSpaceOnUse" x1="606.6998" y1="265.5879" x2="605.4327" y2="284.4128" gradientTransform="matrix(1 0 0 1 0 -56)">
			<stop  offset="0" style="stop-color:#FD5200"/>
			<stop  offset="0.2722" style="stop-color:#FFDC38"/>
			<stop  offset="0.9626" style="stop-color:#F3FEAB"/>
		</linearGradient>
		<path class="st21" d="M604.6,196.3c-8.5,2.5-23.5,8.3-24.3,31.9c2.7-12.7,9.4-14.5,21.7-17.4c12.3-2.9,19-6.1,26.4-15
			c7.4-8.9,4.9-21.5,4.9-21.5c0,6.9-4.9,11.4-9.6,14.7C619.1,192.1,613.1,193.7,604.6,196.3z"/>
		<g>
			
				<linearGradient id="SVGID_00000039829698631315377310000008657196062272240036_" gradientUnits="userSpaceOnUse" x1="594.9328" y1="227.1134" x2="582.2551" y2="276.0361" gradientTransform="matrix(1 0 0 1 0 -56)">
				<stop  offset="0.4072" style="stop-color:#9E010A"/>
				<stop  offset="0.6244" style="stop-color:#FC56A4"/>
				<stop  offset="0.689" style="stop-color:#F2A780"/>
				<stop  offset="0.7431" style="stop-color:#FFC78A"/>
			</linearGradient>
			<path style="fill:url(#SVGID_00000039829698631315377310000008657196062272240036_);" d="M580.3,228.1
				C580.3,228.1,580.3,228.1,580.3,228.1c0-0.6,0.1-1.2,0.1-1.8C580.4,227,580.3,227.6,580.3,228.1z"/>
			
				<linearGradient id="SVGID_00000073682934152813404990000013994597140832761262_" gradientUnits="userSpaceOnUse" x1="609.2603" y1="86.0188" x2="604.5686" y2="52.2929" gradientTransform="matrix(1 0 0 -1 0 272)">
				<stop  offset="0.4072" style="stop-color:#9E010A"/>
				<stop  offset="0.6244" style="stop-color:#FC56A4"/>
				<stop  offset="0.689" style="stop-color:#F2A780"/>
				<stop  offset="0.7431" style="stop-color:#FFC78A"/>
			</linearGradient>
			<path style="fill:url(#SVGID_00000073682934152813404990000013994597140832761262_);" d="M612,207.8c-6.4,1.2-12.9,1.1-17.2,2.2
				c-7.6,2-13.9,11-14.5,18.1c0-0.6,0.1-1.2,0.1-1.8c0.8-7.7,7.9-20.3,23.4-27.2c4.9-2.2,9.4-4.5,13.3-6.9c2.5-1,4.7-2.1,6.6-3.4
				c4.7-3.3,9.6-7.8,9.6-14.7c0,0,0.4,10.3-2.9,19.2c-0.5,0.8-1,1.7-1.6,2.4C624.3,201.6,619,205.2,612,207.8z"/>
		</g>
		
			<linearGradient id="SVGID_00000044170242863298702610000003241927384675695790_" gradientUnits="userSpaceOnUse" x1="618.8585" y1="249.1896" x2="583.1997" y2="274.8925" gradientTransform="matrix(1 0 0 1 0 -56)">
			<stop  offset="7.537688e-02" style="stop-color:#0C64CC"/>
			<stop  offset="0.3348" style="stop-color:#1F9FE3"/>
			<stop  offset="0.4851" style="stop-color:#1B9DEB"/>
			<stop  offset="0.7569" style="stop-color:#72F07F"/>
			<stop  offset="0.8584" style="stop-color:#DBFEC8"/>
			<stop  offset="0.9913" style="stop-color:#F6F9B1"/>
		</linearGradient>
		<path style="fill:url(#SVGID_00000044170242863298702610000003241927384675695790_);" d="M580.5,226c0,0.7-0.1,1.4-0.1,2.1
			C580.3,227.5,580.3,226.8,580.5,226c1.5-21.8,15.9-27.3,24.2-29.8c8.5-2.5,14.5-4.2,19.2-7.4c4.7-3.3,9.6-7.8,9.6-14.7
			c0,0,2.5,12.7-4.9,21.5c-7.4,8.9-13.6,5.2-25.9,8.1C591.4,206.5,581.6,218.3,580.5,226z"/>
		<g>
			
				<linearGradient id="SVGID_00000066508966685970052050000010562722989447812753_" gradientUnits="userSpaceOnUse" x1="617.8132" y1="263.6642" x2="602.4628" y2="254.5271" gradientTransform="matrix(1 0 0 1 0 -56)">
				<stop  offset="2.512563e-02" style="stop-color:#4226A2"/>
				<stop  offset="0.2769" style="stop-color:#7357CB"/>
				<stop  offset="0.4721" style="stop-color:#4783DF"/>
				<stop  offset="0.5228" style="stop-color:#3B8FE4"/>
				<stop  offset="0.5797" style="stop-color:#3B9DE4"/>
				<stop  offset="0.6561" style="stop-color:#3BA7E4"/>
				<stop  offset="0.7412" style="stop-color:#3BABE4"/>
			</linearGradient>
			<path style="fill:url(#SVGID_00000066508966685970052050000010562722989447812753_);" d="M599.5,205.1c11.6-2.2,18.8-2,26.8-10.5
				c8-8.5,7.1-20.5,7.1-20.5c0,6.9-4.9,11.4-9.6,14.7c-2,1.4-4.2,2.4-6.6,3.4c-3.9,2.4-9.2,4.8-14.2,7
				c-15.5,6.9-21.7,19.4-22.5,27.1c0,0.6-0.1,1.2-0.1,1.8C580.9,221.1,588,207.3,599.5,205.1z"/>
			
				<linearGradient id="SVGID_00000011749722808908926130000008966848086987718829_" gradientUnits="userSpaceOnUse" x1="599.4323" y1="294.5663" x2="584.2277" y2="285.516" gradientTransform="matrix(1 0 0 1 0 -56)">
				<stop  offset="0" style="stop-color:#4226A2"/>
				<stop  offset="0.3221" style="stop-color:#7357CB"/>
				<stop  offset="0.6283" style="stop-color:#3B8FE4"/>
			</linearGradient>
			<path style="fill:url(#SVGID_00000011749722808908926130000008966848086987718829_);" d="M580.3,228.1
				C580.3,228.1,580.3,228.1,580.3,228.1c0-0.6,0.1-1.2,0.1-1.8C580.4,227,580.3,227.6,580.3,228.1z"/>
		</g>
		
			<linearGradient id="SVGID_00000155123496791876064060000011824928004655242373_" gradientUnits="userSpaceOnUse" x1="634.6275" y1="237.9053" x2="581.5924" y2="279.3559" gradientTransform="matrix(1 0 0 1 0 -56)">
			<stop  offset="0" style="stop-color:#7C4ADF"/>
			<stop  offset="0.3459" style="stop-color:#E251D8"/>
			<stop  offset="0.7297" style="stop-color:#FCDFBC"/>
			<stop  offset="0.8312" style="stop-color:#F6F8B0"/>
			<stop  offset="0.9186" style="stop-color:#FFFFF2"/>
			<stop  offset="0.9894" style="stop-color:#F6F8B0"/>
		</linearGradient>
		<path style="fill:url(#SVGID_00000155123496791876064060000011824928004655242373_);" d="M607.7,198.1c-21.2,4-27.5,22.7-27.3,30
			c0.5-7.1,6.7-15.2,14.7-19.6c11.8-6,24.1-2.7,32.6-11.4c8.5-8.7,5.8-23,5.8-23c0,6.9-2.5,13.4-7.1,17.2
			C621.8,195.2,612.8,197.1,607.7,198.1z"/>
	</g>
</g>
</svg>
