<?xml version="1.0" encoding="utf-8"?>
<!-- Generator: Adobe Illustrator 25.0.0, SVG Export Plug-In . SVG Version: 6.00 Build 0)  -->
<svg version="1.1" id="Layer_1" xmlns="http://www.w3.org/2000/svg" xmlns:xlink="http://www.w3.org/1999/xlink" x="0px" y="0px"
	 viewBox="0 0 1211 270.7" style="enable-background:new 0 0 1211 270.7;" xml:space="preserve">
<style type="text/css">
	.st0{fill:#F7DF1E;}
	.st1{fill:#539E43;}
	.st2{fill:#FFFFFF;}
	.st3{fill:#53C1DE;}
	.st4{fill:#CF649A;}
	.st5{fill:#E44F26;}
	.st6{fill:#F1662A;}
	.st7{fill:#EBEBEB;}
	.st8{fill:#010101;}
	.st9{fill:#131313;}
	.st10{fill:#1572B6;}
	.st11{fill:#33A9DC;}
	.st12{fill-rule:evenodd;clip-rule:evenodd;fill:#439934;}
	.st13{fill-rule:evenodd;clip-rule:evenodd;fill:#45A538;}
	.st14{fill-rule:evenodd;clip-rule:evenodd;fill:#46A037;}
	.st15{fill-rule:evenodd;clip-rule:evenodd;fill:#409433;}
	.st16{fill-rule:evenodd;clip-rule:evenodd;fill:#4FAA41;}
	.st17{fill-rule:evenodd;clip-rule:evenodd;fill:#4AA73C;}
	.st18{fill-rule:evenodd;clip-rule:evenodd;fill:#57AE47;}
	.st19{fill-rule:evenodd;clip-rule:evenodd;fill:#60B24F;}
	.st20{fill-rule:evenodd;clip-rule:evenodd;fill:#A9AA88;}
	.st21{fill-rule:evenodd;clip-rule:evenodd;fill:#B6B598;}
	.st22{fill-rule:evenodd;clip-rule:evenodd;fill:#C2C1A7;}
	.st23{fill-rule:evenodd;clip-rule:evenodd;fill:#CECDB7;}
	.st24{fill-rule:evenodd;clip-rule:evenodd;fill:#DBDAC7;}
	.st25{fill-rule:evenodd;clip-rule:evenodd;fill:#EBE9DC;}
	.st26{fill:#007ACC;}
	.st27{fill:none;}
	.st28{fill:#764ABC;}
	.st29{fill:#F8D9FF;}
	.st30{fill:#F3C0FF;}
	.st31{fill:#723B7F;}
	.st32{fill:#5C3066;}
	.st33{fill:#FEC478;}
	.st34{fill:#FEA832;}
	.st35{fill:#994C0F;}
	.st36{fill:#713708;}
	.st37{fill:#DAFF73;}
	.st38{fill:#AFFC00;}
	.st39{fill:#5D7F00;}
	.st40{fill:#506600;}
	.st41{fill:#CCEFFF;}
	.st42{fill:#ACE3FC;}
	.st43{fill:#57565C;}
	.st44{fill:#3E3D42;}
	.st45{fill:#0C61C6;}
	.st46{fill:#0A4EAF;}
	.st47{fill:#FF80E4;}
	.st48{fill:#FF5AD4;}
	.st49{fill:#7F1363;}
	.st50{fill:#661054;}
	.st51{fill-rule:evenodd;clip-rule:evenodd;fill:#181616;}
	.st52{fill:#181616;}
	.st53{fill-rule:evenodd;clip-rule:evenodd;fill:#FFFFFF;}
	.st54{fill-rule:evenodd;clip-rule:evenodd;fill:#FFFFFF;filter:url(#Adobe_OpacityMaskFilter);}
	.st55{mask:url(#mask0_1_);}
	.st56{fill:#0065A9;}
	.st57{fill:#1F9CF0;}
	.st58{opacity:0.25;}
	.st59{fill-rule:evenodd;clip-rule:evenodd;fill:url(#SVGID_1_);}
</style>
<g>
	<g>
		<g>
			<g>
				<polygon class="st0" points="170.9,38.9 238.6,38.9 238.6,106.6 170.9,106.6 				"/>
				<path d="M188.7,95.5l5.2-3.1c1,1.8,1.9,3.3,4.1,3.3c2.1,0,3.4-0.8,3.4-4V70h6.4v21.7c0,6.6-3.9,9.6-9.5,9.6
					C193.2,101.3,190.2,98.6,188.7,95.5 M211.2,94.8l5.2-3c1.4,2.2,3.1,3.9,6.3,3.9c2.6,0,4.3-1.3,4.3-3.1c0-2.2-1.7-3-4.6-4.2
					l-1.6-0.7c-4.6-2-7.6-4.4-7.6-9.6c0-4.8,3.6-8.4,9.3-8.4c4,0,7,1.4,9,5.1l-5,3.2c-1.1-2-2.3-2.7-4.1-2.7c-1.9,0-3,1.2-3,2.7
					c0,1.9,1.2,2.7,3.9,3.9l1.6,0.7c5.4,2.3,8.5,4.7,8.5,10c0,5.7-4.5,8.9-10.5,8.9C216.9,101.3,213.1,98.5,211.2,94.8"/>
			</g>
		</g>
		<g>
			<g>
				<path class="st1" d="M458.9,109.9c-1,0-2-0.2-2.8-0.8l-9-5.3c-1.4-0.8-0.8-1-0.2-1.1c1.9-0.7,2.3-0.8,4.1-1.9
					c0.2-0.1,0.5,0,0.8,0l7,4.2c0.2,0.1,0.7,0.1,0.9,0l27.2-15.8c0.2-0.1,0.3-0.3,0.3-0.8V56.8c0-0.3-0.1-0.7-0.3-0.8l-27.5-15.3
					c-0.2-0.1-0.7-0.1-0.9,0l-27.2,15.7c-0.2,0.1-0.3,0.5-0.3,0.8v31.5c0,0.2,0.1,0.7,0.3,0.8l7.4,4.4c3.9,2.1,6.5-0.3,6.5-2.7V59.8
					c0-0.3,0.3-0.9,0.9-0.9h3.5c0.3,0,0.9,0.3,0.9,0.9v31c0,5.3-2.9,8.6-8.1,8.6c-1.6,0-2.7,0-6.2-1.7l-7.2-4.1
					c-1.7-1-2.8-2.9-2.8-5V57.1c0-2.1,1.1-3.9,2.8-5L456,36.4c1.7-1,3.9-1,5.8,0l27.2,15.8c1.7,1,2.8,2.9,2.8,5v31.5
					c0,2.1-1.1,3.9-2.8,5l-27.2,15.8C461,109.8,460,109.9,458.9,109.9z M467.4,88.4c-12,0-14.4-5.4-14.4-10c0-0.3,0.3-0.9,0.9-0.9
					h3.6c0.3,0,0.8,0.2,0.8,0.8c0.5,3.6,2.1,5.3,9.4,5.3c5.8,0,8.2-1.2,8.2-4.4c0-1.7-0.8-3.2-9.7-3.9c-7.4-0.8-12.1-2.4-12.1-8.3
					c0-5.6,4.6-8.8,12.4-8.8c8.7,0,13.1,2.9,13.5,9.6c0,0.2,0,0.3-0.2,0.7c-0.1,0.1-0.3,0.2-0.5,0.2h-3.6c-0.3,0-0.8-0.2-0.8-0.7
					c-0.9-3.7-2.9-5-8.6-5c-6.2,0-7.1,2.3-7.1,3.8c0,2,0.9,2.6,9.4,3.7C477.1,71.5,481,73,481,79C480.9,84.9,476,88.4,467.4,88.4z"
					/>
			</g>
		</g>
		<g>
			<g>
				<path class="st2" d="M547.9,72.6c0,5.6,5.5,10.9,14.3,14c-1.7,8.8-0.3,15.9,4.5,18.6c5,2.8,12.3,0.9,19.2-5.2
					c6.8,5.9,13.6,8.1,18.4,5.4c5-2.8,6.4-10.4,4.6-19.5c9.1-3,14.3-7.6,14.3-13.3c0-5.5-5.5-10.4-14.2-13.3
					c1.9-9.5,0.2-16.4-4.7-19.3c-4.9-2.8-11.7-0.3-18.6,5.6c-7.2-6.3-14-8.3-19.1-5.4c-4.7,2.8-6.1,10-4.4,19
					C553.8,62.2,547.9,67.1,547.9,72.6z"/>
				<path class="st3" d="M607.3,62.3c-0.7-0.2-1.5-0.5-2.1-0.7c0.1-0.5,0.2-1,0.3-1.5c1.6-7.9,0.6-14.3-3-16.4
					c-3.5-2-9.1,0.1-15,5.1c-0.6,0.5-1.1,1-1.7,1.6c-0.3-0.3-0.7-0.7-1.1-1c-6.1-5.4-12.1-7.7-15.7-5.5c-3.5,2-4.5,8-3,15.5
					c0.1,0.8,0.3,1.5,0.5,2.3c-0.9,0.2-1.7,0.5-2.5,0.8c-7.1,2.5-11.6,6.3-11.6,10.4c0,4.2,4.9,8.3,12.2,10.8
					c0.6,0.2,1.2,0.3,1.8,0.6c-0.2,0.8-0.3,1.6-0.6,2.4c-1.4,7.3-0.3,13.2,3.2,15.2c3.6,2,9.6-0.1,15.5-5.2c0.5-0.5,0.9-0.8,1.4-1.2
					c0.6,0.6,1.2,1.1,1.8,1.7c5.6,4.9,11.3,6.9,14.8,4.9c3.6-2,4.7-8.3,3.3-16c-0.1-0.6-0.2-1.1-0.5-1.8c0.5-0.1,0.8-0.2,1.2-0.3
					c7.7-2.6,12.6-6.7,12.6-10.8C619.1,68.6,614.5,64.8,607.3,62.3L607.3,62.3z"/>
				<path class="st2" d="M605.6,80.8c-0.3,0.1-0.8,0.2-1.1,0.3c-0.9-2.7-2-5.5-3.4-8.5c1.4-2.8,2.5-5.6,3.3-8.3
					c0.7,0.2,1.4,0.5,2,0.7c6.2,2.1,9.9,5.3,9.9,7.7C616.3,75.2,612.2,78.6,605.6,80.8L605.6,80.8z M602.9,86.2
					c0.7,3.4,0.8,6.4,0.3,8.8c-0.5,2.1-1.2,3.6-2.1,4.2c-2.1,1.2-6.7-0.3-11.5-4.5c-0.6-0.5-1.1-1-1.7-1.6c1.9-2,3.7-4.5,5.6-7.1
					c3.3-0.3,6.3-0.8,9-1.4C602.6,85.2,602.8,85.7,602.9,86.2L602.9,86.2z M575,99c-2,0.7-3.7,0.8-4.7,0.2
					c-2.1-1.2-2.9-5.9-1.8-12.2c0.1-0.8,0.3-1.5,0.5-2.3c2.7,0.6,5.8,1,9,1.4c1.8,2.6,3.8,5,5.8,7.1c-0.5,0.5-0.8,0.8-1.2,1.1
					C580,96.6,577.4,98.1,575,99L575,99z M565.4,80.8c-3.3-1.1-6-2.6-7.8-4.2c-1.7-1.4-2.5-2.8-2.5-3.9c0-2.5,3.6-5.5,9.7-7.7
					c0.8-0.2,1.6-0.5,2.3-0.7c0.8,2.7,1.9,5.5,3.3,8.5c-1.4,2.9-2.5,5.9-3.3,8.6C566.6,81.1,566,81,565.4,80.8z M568.7,58.8
					c-1.2-6.4-0.5-11.3,1.7-12.5c2.3-1.2,7.2,0.6,12.4,5.2c0.3,0.3,0.7,0.6,1,0.9c-1.9,2-3.8,4.5-5.6,7c-3.2,0.3-6.2,0.8-8.9,1.4
					C568.9,60.1,568.8,59.4,568.7,58.8L568.7,58.8z M597.5,65.9c-0.7-1.1-1.4-2.3-2-3.4c2.1,0.2,4.2,0.7,6.1,1
					c-0.6,1.8-1.2,3.7-2.1,5.8C598.8,68.2,598.1,67,597.5,65.9L597.5,65.9z M585.7,54.5c1.4,1.5,2.6,3,3.9,4.7
					c-2.6-0.1-5.3-0.1-7.9,0C583,57.5,584.4,55.8,585.7,54.5L585.7,54.5z M573.9,65.9c-0.7,1.1-1.2,2.3-1.9,3.5
					c-0.8-1.9-1.6-3.9-2.1-5.8c1.9-0.5,3.9-0.8,6.1-1C575.2,63.6,574.6,64.8,573.9,65.9z M576,83c-2.1-0.2-4.3-0.6-6.2-1
					c0.6-1.9,1.4-3.8,2.1-5.9c0.6,1.1,1.2,2.4,1.9,3.5C574.6,80.8,575.2,81.9,576,83z M585.8,91c-1.4-1.4-2.7-3-4.1-4.7
					c1.2,0,2.6,0.1,3.9,0.1s2.7,0,4.1-0.1C588.4,88,587.1,89.7,585.8,91z M599.4,76c0.9,2,1.7,4.1,2.3,5.9c-1.9,0.5-4.1,0.8-6.2,1
					c0.7-1.1,1.4-2.3,2-3.4C598.1,78.4,598.8,77.2,599.4,76L599.4,76z M595,78.1c-1,1.8-2,3.5-3.2,5.2c-2,0.1-4.1,0.2-6.1,0.2
					c-2,0-4.1-0.1-6.1-0.2c-1.1-1.7-2.3-3.4-3.3-5.2c-1-1.8-1.9-3.6-2.8-5.4c0.9-1.8,1.8-3.6,2.8-5.4l0,0c1-1.8,2.1-3.5,3.3-5.2
					c2-0.1,4.1-0.2,6.1-0.2c2,0,4.1,0.1,6.1,0.2c1.1,1.7,2.3,3.4,3.3,5.2c1,1.8,2,3.5,2.9,5.4C597,74.6,596,76.4,595,78.1L595,78.1z
					 M601,46.3c2.3,1.2,3.2,6.5,1.7,13.3c-0.1,0.5-0.2,0.9-0.3,1.4c-2.8-0.7-5.8-1.1-8.9-1.5c-1.8-2.6-3.7-5-5.6-7.1
					c0.5-0.5,1-0.9,1.6-1.5C594.2,46.7,598.8,45,601,46.3L601,46.3z"/>
				<path class="st3" d="M585.7,66.7c3.3,0,6,2.7,6,6s-2.7,6-6,6c-3.3,0-6-2.7-6-6S582.3,66.7,585.7,66.7"/>
			</g>
		</g>
		<g>
			<path class="st4" d="M738.1,76.9c-2.4,0-4.4,0.6-6.1,1.4c-0.6-1.3-1.3-2.3-1.4-3.2c-0.1-0.9-0.3-1.5-0.1-2.7
				c0.1-1.1,0.8-2.7,0.8-2.9c0-0.1-0.1-0.7-1.5-0.7c-1.4,0-2.5,0.3-2.7,0.6c-0.1,0.4-0.4,1.2-0.6,2c-0.2,1.2-2.7,5.6-4.1,7.9
				c-0.5-0.9-0.9-1.7-0.9-2.3c-0.1-0.9-0.3-1.5-0.1-2.7c0.1-1.1,0.8-2.7,0.8-2.9c0-0.1-0.1-0.7-1.5-0.7c-1.4,0-2.5,0.3-2.7,0.6
				c-0.1,0.4-0.3,1.2-0.6,2c-0.3,0.8-3.6,8.2-4.4,10.1c-0.4,1-0.8,1.8-1.1,2.3c-0.3,0.5,0,0,0,0.1c-0.2,0.4-0.4,0.7-0.4,0.7v0
				c-0.2,0.3-0.4,0.6-0.5,0.6c-0.1,0-0.2-0.9,0-2.1c0.5-2.5,1.7-6.5,1.7-6.7c0-0.1,0.2-0.8-0.8-1.1c-1-0.4-1.3,0.2-1.4,0.2
				s-0.1,0.2-0.1,0.2s1.1-4.5-2-4.5c-2,0-4.6,2.1-6,4.1c-0.8,0.5-2.6,1.4-4.5,2.5c-0.7,0.4-1.5,0.8-2.2,1.2l-0.1-0.2
				c-3.8-4-10.8-6.9-10.5-12.3c0.1-2,0.8-7.2,13.4-13.4c10.3-5.1,18.6-3.7,20-0.6c2,4.5-4.4,12.8-15.2,14c-4.1,0.5-6.2-1.1-6.8-1.7
				c-0.6-0.6-0.6-0.6-0.9-0.5c-0.3,0.2-0.1,0.7,0,1.1c0.3,0.8,1.6,2.3,3.9,3c2,0.6,6.8,1,12.6-1.2c6.5-2.5,11.6-9.5,10.1-15.4
				c-1.5-5.9-11.4-7.9-20.7-4.6c-5.6,2-11.6,5.1-15.9,9.1c-5.1,4.8-6,9-5.6,10.7c1.2,6.2,9.8,10.3,13.2,13.3
				c-0.2,0.1-0.3,0.2-0.5,0.3c-1.7,0.8-8.2,4.3-9.9,7.9c-1.8,4.1,0.3,7,1.7,7.4c4.4,1.2,8.9-1,11.4-4.6c2.4-3.6,2.1-8.3,1-10.5
				l0-0.1l1.3-0.8c0.9-0.5,1.7-1,2.5-1.4c-0.4,1.1-0.7,2.5-0.9,4.5c-0.2,2.3,0.8,5.3,2,6.5c0.6,0.5,1.2,0.5,1.6,0.5
				c1.5,0,2.1-1.2,2.8-2.6c0.9-1.8,1.7-3.8,1.7-3.8s-1,5.5,1.7,5.5c1,0,2-1.3,2.4-1.9v0c0,0,0,0,0.1-0.1c0.1-0.2,0.2-0.3,0.2-0.3v0
				c0.4-0.7,1.3-2.3,2.6-4.9c1.7-3.4,3.3-7.5,3.3-7.5s0.2,1,0.6,2.7c0.3,1,0.9,2.1,1.4,3.2c-0.4,0.6-0.6,0.9-0.6,0.9l0,0
				c-0.3,0.4-0.7,0.9-1,1.3c-1.3,1.6-3,3.4-3.2,4c-0.3,0.6-0.2,1.1,0.3,1.5c0.4,0.3,1,0.3,1.7,0.3c1.2-0.1,2.1-0.4,2.5-0.6
				c0.7-0.2,1.4-0.6,2.1-1.1c1.3-1,2.1-2.4,2-4.2c0-1-0.4-2-0.8-3c0.1-0.2,0.2-0.3,0.4-0.5c2.1-3,3.7-6.4,3.7-6.4s0.2,1,0.6,2.7
				c0.3,0.9,0.8,1.8,1.2,2.7c-2,1.6-3.2,3.4-3.6,4.7c-0.8,2.2-0.2,3.3,1,3.5c0.5,0.1,1.3-0.1,1.8-0.4c0.7-0.2,1.5-0.6,2.3-1.2
				c1.3-1,2.6-2.3,2.5-4.2c0-0.8-0.3-1.7-0.6-2.5c1.7-0.7,3.8-1.1,6.5-0.8c5.9,0.7,7,4.4,6.8,5.9c-0.2,1.5-1.5,2.4-1.9,2.6
				c-0.4,0.3-0.5,0.3-0.5,0.5c0.1,0.3,0.2,0.3,0.6,0.2c0.5-0.1,3.1-1.3,3.2-4.1C747.7,80.9,744.2,76.9,738.1,76.9z M692.9,92.2
				c-1.9,2.1-4.7,2.9-5.8,2.2c-1.3-0.7-0.8-3.9,1.6-6.1c1.5-1.4,3.3-2.6,4.6-3.4c0.3-0.2,0.7-0.4,1.2-0.7c0.1-0.1,0.1-0.1,0.1-0.1
				c0.1-0.1,0.2-0.1,0.3-0.2C695.7,87.2,694.9,90,692.9,92.2z M707,82.6c-0.7,1.6-2.1,5.9-3,5.6c-0.7-0.2-1.2-3.4-0.1-6.6
				c0.5-1.6,1.6-3.5,2.3-4.2c1.1-1.2,2.2-1.6,2.5-1.1C709.1,76.9,707.5,81.5,707,82.6z M718.7,88.2c-0.3,0.1-0.6,0.3-0.7,0.2
				c-0.1-0.1,0.1-0.3,0.1-0.3s1.5-1.6,2-2.3c0.3-0.4,0.7-0.9,1.1-1.5v0.2C721.4,86.4,719.6,87.6,718.7,88.2z M727.8,86.1
				c-0.2-0.2-0.2-0.6,0.5-2.2c0.3-0.6,0.9-1.6,2-2.6c0.1,0.4,0.2,0.8,0.2,1.1C730.5,84.8,728.8,85.7,727.8,86.1z"/>
		</g>
		<g>
			<g>
				<g>
					<polygon class="st5" points="49,92.2 45.5,53 83.9,53 80.4,92.2 64.7,96.6 					"/>
					<polygon class="st6" points="64.7,93.3 77.4,89.7 80.4,56.2 64.7,56.2 					"/>
					<polygon class="st7" points="64.7,70.7 58.3,70.7 57.9,65.8 64.7,65.8 64.7,61 64.7,61 52.6,61 52.7,62.3 53.9,75.6 64.7,75.6 
											"/>
					<polygon class="st7" points="64.7,83.3 64.7,83.3 59.3,81.8 59,78 56.4,78 54.1,78 54.8,85.5 64.7,88.3 64.7,88.3 					"/>
					<polygon class="st8" points="49,42.3 51.5,42.3 51.5,44.7 53.7,44.7 53.7,42.3 56.2,42.3 56.2,49.6 53.7,49.6 53.7,47.2 
						51.5,47.2 51.5,49.6 49,49.6 					"/>
					<polygon class="st8" points="59.4,44.7 57.2,44.7 57.2,42.3 64,42.3 64,44.7 61.8,44.7 61.8,49.6 59.4,49.6 					"/>
					<polygon class="st8" points="65.1,42.3 67.6,42.3 69.2,44.9 70.8,42.3 73.3,42.3 73.3,49.6 70.9,49.6 70.9,46 69.2,48.6 
						69.1,48.6 67.5,46 67.5,49.6 65.1,49.6 					"/>
					<polygon class="st8" points="74.5,42.3 77,42.3 77,47.2 80.4,47.2 80.4,49.6 74.5,49.6 					"/>
					<polygon class="st2" points="64.7,70.7 64.7,75.6 70.6,75.6 70,81.8 64.7,83.3 64.7,88.3 74.5,85.5 74.6,84.7 75.8,72 
						75.9,70.7 74.6,70.7 					"/>
					<polygon class="st2" points="64.7,61 64.7,64 64.7,65.8 64.7,65.8 76.3,65.8 76.3,65.8 76.3,65.8 76.4,64.7 76.6,62.3 76.7,61 
											"/>
				</g>
				<g transform="translate(26.008 5.817)">
					<path class="st9" d="M79.1,45.1h-3.2l3.3,3.6v1.7h-6.8v-2h3.3l-3.3-3.6v-1.7h6.7V45.1z M71,45.1h-3.2l3.3,3.6v1.7h-6.8v-2h3.3
						l-3.3-3.6v-1.7H71V45.1z M63,45.2h-3.4v3.1H63v2.1h-5.9v-7.3H63V45.2z"/>
					<polygon class="st10" points="52.4,93 48.9,53.8 87.4,53.8 83.9,93 68.1,97.4 					"/>
					<polygon class="st11" points="68.1,94 80.9,90.5 83.9,57 68.1,57 					"/>
					<g transform="translate(6.274 16.198)">
						<polygon class="st2" points="61.9,55 68.2,55 68.7,50.1 61.9,50.1 61.9,45.2 61.9,45.2 73.9,45.2 73.8,46.5 72.6,59.8 
							61.9,59.8 						"/>
						<polygon class="st7" points="61.9,67.5 61.9,67.5 56.5,66.1 56.2,62.2 53.6,62.2 51.3,62.2 52,69.8 61.9,72.5 61.9,72.5 
													"/>
						<polygon class="st2" points="67.8,59.6 67.3,66.1 61.9,67.5 61.9,72.5 71.8,69.8 71.8,69 72.7,59.6 						"/>
						<polygon class="st7" points="61.9,45.2 61.9,48.2 61.9,50 61.9,50.1 50.3,50.1 50.3,50.1 50.3,50.1 50.2,49 49.9,46.5 
							49.8,45.2 						"/>
						<polygon class="st7" points="61.9,55 61.9,58 61.9,59.8 61.9,59.8 56.6,59.8 56.6,59.8 56.6,59.8 56.5,58.7 56.3,56.3 
							56.1,55 						"/>
					</g>
				</g>
			</g>
		</g>
		<g>
			<path class="st12" d="M1035.2,60.6c0.9,2.5,1.5,5.1,1.7,7.7c0.3,3.3,0.1,6.6-0.6,9.8c0,0.1-0.1,0.2-0.1,0.3c-0.2,0-0.4,0-0.7,0
				c-1.8,0.3-3.6,0.6-5.4,0.9c-1.9,0.3-3.7,0.6-5.6,0.9c-0.7,0.1-1.5,0-1.7,0.9c0,0-0.1,0-0.1,0l0.1-5.4c0-4.4-0.1-8.7-0.1-13.1
				l0.9-0.1c1.4-0.2,2.8-0.5,4.2-0.7c1.7-0.3,3.4-0.5,5.1-0.8C1033.7,60.8,1034.5,60.7,1035.2,60.6z"/>
			<path class="st13" d="M1021.1,96.8c-0.9-0.8-1.9-1.5-2.7-2.4c-4.7-4.4-8.1-9.7-9.8-15.9c-0.5-1.7-0.8-3.5-0.9-5.3
				c-0.1-1.3-0.2-2.5-0.1-3.8c0.2-3.3,0.7-6.6,1.7-9.8l0.1-0.1c0.1,0.1,0.2,0.2,0.3,0.4c0.9,2.8,1.9,5.6,2.8,8.4
				c2.9,8.8,5.9,17.6,8.8,26.4c0.1,0.2,0.2,0.3,0.3,0.5C1021.5,95.2,1021.1,96.8,1021.1,96.8z"/>
			<path class="st14" d="M1035.2,60.6c-0.7,0.1-1.5,0.2-2.2,0.3c-1.7,0.3-3.4,0.5-5.1,0.8c-1.4,0.2-2.8,0.5-4.2,0.7l-0.9,0.1l0-0.6
				c0-0.5-0.1-0.9-0.1-1.4c0-3-0.1-5.9-0.1-8.9c0-1.8-0.1-3.7-0.1-5.5c0-1.1,0-2.3-0.1-3.4c0-0.6-0.1-1.2-0.2-1.8c0-0.4,0-0.7,0-1.1
				c0.4,0.9,0.9,1.7,1.3,2.6c0.7,1.3,1.9,2.3,2.9,3.4C1030.6,50,1033.4,55,1035.2,60.6z"/>
			<path class="st15" d="M1022.8,81c0,0,0.1,0,0.1,0c0.3-0.9,1.1-0.8,1.7-0.9c1.9-0.3,3.7-0.6,5.6-0.9c1.8-0.3,3.6-0.6,5.4-0.9
				c0.2,0,0.4,0,0.7,0c-0.3,1.2-0.6,2.4-1,3.6c-0.5,1.3-1.1,2.6-1.7,3.9c-0.9,1.9-2.1,3.7-3.4,5.3c-1,1.2-2.2,2.4-3.3,3.5
				c-0.6,0.6-1.4,1.1-2.1,1.7l-0.2-0.1l-0.7-0.6l-0.7-1.5c-0.5-1.7-0.7-3.5-0.8-5.3l0-0.3l0.1-1.3c0-0.4,0.1-0.9,0.1-1.3
				C1022.7,84.2,1022.8,82.6,1022.8,81L1022.8,81z"/>
			<path class="st16" d="M1022.8,81c-0.1,1.6-0.1,3.2-0.2,4.8c0,0.4-0.1,0.9-0.1,1.3l-0.4,0.2c-0.9-2.7-1.8-5.4-2.7-8
				c-1.5-4.4-2.9-8.9-4.4-13.3c-1.2-3.6-2.4-7.1-3.6-10.7c-0.1-0.2-0.2-0.3-0.3-0.4l2.6-4.9c0.1,0.2,0.2,0.3,0.3,0.5
				c1.2,3.6,2.4,7.2,3.6,10.8c1.6,4.7,3.1,9.4,4.7,14.1c0.1,0.2,0.2,0.4,0.3,0.6l0.4-0.4C1022.9,77.4,1022.9,79.2,1022.8,81z"/>
			<path class="st17" d="M1011,54.9c0.1,0.1,0.3,0.3,0.3,0.4c1.2,3.6,2.4,7.1,3.6,10.7c1.5,4.4,2.9,8.9,4.4,13.3
				c0.9,2.7,1.8,5.3,2.7,8l0.4-0.2l-0.1,1.3l-0.1,0.3c-0.1,1.4-0.3,2.9-0.4,4.3c-0.1,0.7-0.3,1.4-0.4,2.1c-0.1-0.2-0.3-0.3-0.3-0.5
				c-2.9-8.8-5.9-17.6-8.8-26.4c-0.9-2.8-1.9-5.6-2.8-8.4c0-0.1-0.2-0.3-0.3-0.4C1009.9,58,1010.4,56.4,1011,54.9z"/>
			<path class="st18" d="M1022.9,75.6l-0.4,0.4c-0.1-0.2-0.2-0.4-0.3-0.6c-1.6-4.7-3.1-9.4-4.7-14.1c-1.2-3.6-2.4-7.2-3.6-10.8
				c-0.1-0.2-0.2-0.3-0.3-0.5l3.3-4.3c0.1,0.1,0.2,0.3,0.3,0.4c0.9,2.7,1.8,5.3,2.7,8c0.8,2.5,1.7,5,2.5,7.4
				c0.1,0.2,0.3,0.3,0.4,0.4l0,0.6C1022.9,66.9,1022.9,71.2,1022.9,75.6z"/>
			<path class="st19" d="M1022.8,62c-0.1-0.1-0.3-0.3-0.4-0.4c-0.8-2.5-1.7-5-2.5-7.4c-0.9-2.7-1.8-5.3-2.7-8
				c-0.1-0.2-0.2-0.3-0.3-0.4c1.1-1,2.1-2.1,3.2-3.1c1-0.9,1.8-1.8,1.8-3.2c0-0.1,0-0.1,0.1-0.3l0.3,0.7c0,0.4,0,0.7,0,1.1
				c0,0.6,0.1,1.2,0.2,1.8c0.1,1.1,0.1,2.3,0.1,3.4c0,1.8,0.1,3.7,0.1,5.5c0,3,0.1,5.9,0.1,8.9C1022.8,61,1022.8,61.5,1022.8,62z"/>
			<path class="st20" d="M1021.5,95.2c0.1-0.7,0.3-1.4,0.4-2.1c0.2-1.4,0.3-2.9,0.4-4.3l0,0l0,0c0,1.8,0.3,3.6,0.8,5.3
				c-0.1,0.1-0.2,0.2-0.3,0.4c-0.4,1.1-0.8,2.2-1.2,3.3c-0.1,0.2-0.2,0.3-0.3,0.4l-0.4-1.4C1021.1,96.8,1021.5,95.2,1021.5,95.2z"/>
			<path class="st21" d="M1021.5,98.2c0.1-0.1,0.3-0.3,0.3-0.4c0.4-1.1,0.8-2.2,1.2-3.3c0.1-0.1,0.2-0.3,0.3-0.4l0.7,1.5
				c-0.1,0.2-0.3,0.4-0.4,0.6l-1.3,3.8c-0.1,0.2-0.2,0.3-0.4,0.4C1021.8,100.4,1021.5,98.2,1021.5,98.2z"/>
			<path class="st22" d="M1021.8,100.4c0.1-0.1,0.3-0.2,0.4-0.4l1.3-3.8c0.1-0.2,0.3-0.4,0.4-0.6l0.7,0.6c-0.3,0.3-0.5,0.7-0.4,1.1
				l-0.2,0.7c-0.1,0.1-0.2,0.2-0.3,0.3c-0.5,1.3-0.9,2.6-1.3,3.9c-0.1,0.2-0.2,0.3-0.3,0.4C1022,101.9,1021.9,101.1,1021.8,100.4
				L1021.8,100.4z"/>
			<path class="st23" d="M1022,102.6c0.1-0.1,0.3-0.3,0.3-0.4c0.5-1.3,0.9-2.6,1.3-3.9c0-0.1,0.2-0.2,0.3-0.3l-0.3,3
				c-0.1,0.1-0.2,0.2-0.2,0.3c-0.3,0.9-0.6,1.7-0.9,2.6c-0.1,0.2-0.2,0.3-0.3,0.5c-0.1-0.1-0.2-0.2-0.2-0.3
				C1022,103.5,1022,103.1,1022,102.6z"/>
			<path class="st24" d="M1022.3,104.3c0.1-0.2,0.2-0.3,0.3-0.5c0.3-0.9,0.6-1.7,0.9-2.6c0-0.1,0.1-0.2,0.2-0.3l0,2l-0.7,1.7
				C1023,104.6,1022.3,104.3,1022.3,104.3z"/>
			<path class="st25" d="M1023,104.6l0.7-1.7l0.1,2L1023,104.6z"/>
			<path class="st23" d="M1024.1,97.3c-0.1-0.5,0.1-0.8,0.4-1.1l0.2,0.1L1024.1,97.3z"/>
			<path class="st16" d="M1022.4,88.8L1022.4,88.8L1022.4,88.8l0-0.3C1022.5,88.5,1022.4,88.8,1022.4,88.8z"/>
		</g>
		<g>
			<g id="original_1_">
				<rect x="309.2" y="63" class="st2" width="53.7" height="39.7"/>
				<path id="original-2_1_" class="st26" d="M297.8,72.1v33.7h67.3V38.4h-67.3V72.1z M352,69.4c1.6,0.4,3.1,1.2,4.2,2.4
					c0.6,0.6,1.2,1.4,1.6,2.2c0,0.1-2.9,2.1-4.7,3.1c-0.1,0-0.3-0.2-0.6-0.7c-0.7-1.1-1.9-1.9-3.2-1.9c-2-0.1-3.4,0.9-3.3,2.7
					c0,0.4,0.1,0.9,0.3,1.3c0.4,0.9,1.3,1.5,3.9,2.6c4.8,2.1,6.9,3.4,8.2,5.4c1.4,2.2,1.7,5.6,0.8,8.2c-1.1,2.8-3.7,4.7-7.4,5.3
					c-1.7,0.2-3.4,0.2-5.1-0.1c-2.6-0.4-5-1.7-6.8-3.6c-0.6-0.7-1.8-2.5-1.7-2.6c0.2-0.1,0.4-0.3,0.6-0.4l2.5-1.4l1.9-1.1l0.4,0.6
					c0.7,1,1.5,1.8,2.6,2.4c2.2,1.1,5.1,1,6.5-0.3c1-1,1.2-2.6,0.4-3.7c-0.5-0.7-1.6-1.4-4.6-2.7c-3.5-1.5-5-2.4-6.3-3.9
					c-0.9-1-1.5-2.1-1.8-3.4c-0.3-1.4-0.3-2.9-0.1-4.3c0.7-3.4,3.2-5.7,6.9-6.4C348.6,69,350.3,69.1,352,69.4L352,69.4z M336.2,72.2
					V75h-8.7v24.9h-6.2V75h-8.8v-2.7c0-0.9,0-1.9,0.1-2.8c0,0,5.4,0,11.8,0h11.8L336.2,72.2z"/>
			</g>
		</g>
		<g>
			<g id="original_2_">
				<path d="M935.2,107.2c-4.3,1.1-7,0-9.4-3.6c-5.4-8.1-11.3-15.8-17.1-23.6c-0.7-1-1.5-2-2.5-3.3c-6.8,9.2-13.6,17.9-19.9,27
					c-2.3,3.2-4.7,4.7-8.9,3.5L902.9,73l-23.8-31c4.1-0.8,6.9-0.4,9.4,3.3c5.5,8.1,11.6,15.8,17.7,23.9c6.1-8.1,12.1-15.8,17.8-23.8
					c2.3-3.2,4.7-4.5,8.9-3.3c-3.1,4.1-6.2,8.2-9.2,12.2c-4.1,5.4-8.2,10.9-12.5,16.3c-1.5,1.9-1.3,3.1,0.1,4.9
					C919.3,85.9,927.1,96.5,935.2,107.2z"/>
				<path d="M816.3,72.4c0.7-3.4,1.1-6.9,2.1-10.3c5.7-20.3,29-28.8,45.1-16.2c9.4,7.4,11.7,17.8,11.3,29.6h-53
					c-0.8,21.1,14.4,33.8,33.7,27.3c6.8-2.3,10.8-7.6,12.8-14.2c1-3.3,2.7-3.9,5.8-2.9c-1.6,8.3-5.2,15.3-12.8,19.6
					c-11.4,6.5-27.6,4.4-36.2-4.6c-5-5.3-7.2-11.9-8.1-19.1c-0.1-1.1-0.4-2.3-0.7-3.4C816.3,76.3,816.3,74.3,816.3,72.4z M821.8,71
					h47.9c-0.3-15.2-9.8-26.1-22.8-26.2C832.7,44.7,822.5,55.3,821.8,71z"/>
			</g>
		</g>
		<g>
			<path class="st27" d="M1097.9,36.2h67.7v67.7h-67.7V36.2z"/>
			<path class="st28" d="M1144.8,82.8c-4.8,9.7-13.1,16.3-24.1,18.4c-1.7,0.4-3.4,0.6-5.2,0.6c-6.3,0-12.2-2.6-15-7
				c-3.8-5.8-5.1-18,7.4-27c0.3,1.4,0.8,3.3,1.1,4.4c-2.5,1.8-4.5,4.2-5.9,6.9c-2.3,4.6-2.1,9.1,0.7,13.4c1.9,2.8,4.9,4.6,8.8,5.1
				c4.8,0.6,9.8-0.3,14-2.6c6.7-3.5,11.2-7.8,14.1-13.5c-0.8-0.9-1.3-2-1.4-3.2c-0.1-2.7,2-4.9,4.6-5h0.2c2.7,0,4.8,2.1,4.9,4.8
				C1149.2,80.5,1147.3,82.6,1144.8,82.8L1144.8,82.8z M1160,72.1c6.5,7.3,6.6,15.9,4.1,20.9c-2.3,4.6-8.5,9.1-16.7,9.1
				c-3.9-0.1-7.6-1-11.1-2.7c1.2-0.9,2.9-2.2,3.9-3.1c2.7,1.2,5.5,1.8,8.5,1.8c5.3,0,9.4-2.5,11.8-7.1c1.5-3,1.6-6.5,0.2-10.2
				c-1.8-4.6-5-8.4-9.1-11c-5.4-3.7-11.8-5.6-18.4-5.6h-1.5c-0.7,1.7-2.4,2.8-4.2,2.9h-0.2c-2.7,0-4.8-2.2-4.8-4.9
				c0-2.6,2.1-4.6,4.6-4.8h0.2c1.8,0,3.4,1,4.2,2.6h1.4C1143.8,60.2,1153.4,64.4,1160,72.1z M1116.2,84.2c-0.1-0.9,0.1-1.8,0.6-2.5
				c-4.8-8.4-7.4-18.9-3.4-30c2.8-8.3,10-13.9,17.7-13.9c8.3,0,16.9,7.2,17.9,21.2c-1.3-0.4-3.2-1.1-4.3-1.3
				c-0.3-4.6-4.1-15.9-13.3-15.8c-3.3,0.1-8.1,1.6-10.6,4.8c-3.1,3.8-4.9,8.5-5.1,13.4c-0.6,6.7,1,13.4,4.5,19.1
				c0.2-0.1,0.4-0.1,0.6-0.1h0.2c2.7,0,4.9,2.1,4.9,4.7c0,2.7-2.1,4.9-4.7,4.9h-0.2C1118.4,88.9,1116.3,86.8,1116.2,84.2
				L1116.2,84.2z"/>
		</g>
	</g>
	<g>
		<g>
			<g>
				<path class="st29" d="M619.8,231.2h-67.7v-67.7h67.7V231.2z"/>
				<path class="st30" d="M619.8,231.2H586v-67.7h33.8V231.2z"/>
				<path class="st31" d="M615.9,227.2h-59.8v-59.8h59.8V227.2z"/>
				<path class="st32" d="M615.9,227.2H586v-59.8h29.9V227.2z"/>
				<path class="st29" d="M575.1,187.5h3.8l8.6,22.6h-4.5l-2.1-5.6h-7.9l-2,5.6h-4.5L575.1,187.5z M580,201.3l-3-8.8l-3.3,8.8H580z"
					/>
				<g>
					<path class="st30" d="M596.8,210.3c-5.3,0-8.8-3.9-8.8-8.6c0-4.2,2.8-8.7,8.8-8.7c4.2,0,8.7,2.8,8.7,8.6c0,0.2,0,1.2-0.1,1.5
						h-12.9c0.1,0.7,0.8,4.2,4.4,4.2c2.4,0,3.6-1.6,3.9-2.3l3.6,1C603.9,207.3,601.8,210.3,596.8,210.3z M601.1,200.3
						c-0.2-2.7-2.1-4.2-4.4-4.2c-2.3,0-4.1,1.7-4.3,4.2H601.1z"/>
					<polygon class="st30" points="586,206.2 586,210.1 587.5,210.1 					"/>
				</g>
			</g>
		</g>
		<g>
			<g>
				<path class="st33" d="M113.1,235.1H45.5v-67.7h67.7V235.1z"/>
				<path class="st34" d="M113.1,235.1H79.3v-67.7h33.8V235.1z"/>
				<path class="st35" d="M109.2,231.2H49.4v-59.8h59.8V231.2z"/>
				<path class="st36" d="M109.2,231.2H79.3v-59.8h29.9V231.2z"/>
				<path class="st33" d="M72.9,191.5h3.8l8.6,22.6h-4.5l-2.1-5.6h-7.9l-2,5.6h-4.5L72.9,191.5z M77.9,205.2l-3.2-8.8l-3.3,8.8H77.9
					z"/>
				<g>
					<path class="st34" d="M87.4,195.1v-4.2h4.3v4.2H87.4z M87.4,214v-16.7h4.3v16.6h-4.3V214z"/>
					<polygon class="st34" points="79.3,198.1 79.3,209.9 80.8,214 85.3,214 					"/>
				</g>
			</g>
		</g>
		<g>
			<g>
				<path class="st37" d="M748.8,234h-67.7v-67.7h67.7V234z"/>
				<path class="st38" d="M748.8,234H715v-67.7h33.8V234z"/>
				<path class="st39" d="M744.8,230h-59.8v-59.8h59.8V230z"/>
				<path class="st40" d="M744.8,230H715v-59.8h29.9V230z"/>
				<g>
					<path class="st37" d="M735.5,196.2h4.1l-7,16.6h-3.5l-2.8-7.2l-2.8,7.3h-3.5l-6.9-16.6h3.9l5,12.6l2-5.4l-2.9-7.2h3.4l1.7,5.1
						l1.8-5.1h3.4l-2.8,7.1l2,5.4L735.5,196.2z"/>
					<path class="st37" d="M692.5,212.9v-22.6h8.2c6.7,0,11.1,4.4,11.1,11.3c0,5.5-3.3,11.3-11.1,11.3H692.5z M707.4,201.5
						c0-4.5-2.7-7.4-6.7-7.4h-3.8V209h3.8C704.7,209,707.4,205.8,707.4,201.5z"/>
				</g>
				<polygon class="st38" points="735.5,196.2 730.5,208.8 728.5,203.4 731.4,196.2 727.9,196.2 726.2,201.4 724.4,196.2 721,196.2 
					724,203.4 722,208.8 717,196.2 715,196.2 715,200.9 719.9,212.9 723.4,212.9 726.2,205.6 729.1,212.9 732.6,212.9 739.4,196.2 
									"/>
			</g>
		</g>
		<g>
			<g>
				<path class="st41" d="M493.2,234h-67.7v-67.7h67.7V234z"/>
				<path class="st42" d="M493.2,234h-33.8v-67.7h33.8V234z"/>
				<path class="st43" d="M489.2,230h-59.8v-59.8h59.8V230z"/>
				<path class="st44" d="M489.2,230h-29.9v-59.8h29.9V230z"/>
				<path class="st41" d="M446.8,212.9v-22.6h4.4v18.7h11.5v3.8C462.7,212.9,446.8,212.9,446.8,212.9z"/>
				<g>
					<path class="st42" d="M474.9,199.9c-3.7,0-5.2,1.9-5.6,2.9v10H465v-16.7h3.9v3.5c0.3-0.6,2.1-4.2,6-3.7V199.9L474.9,199.9z"/>
					<rect x="459.3" y="209" class="st42" width="3.4" height="3.8"/>
				</g>
			</g>
		</g>
		<g>
			<g>
				<path class="st41" d="M239.8,234.7h-67.7V167h67.7V234.7z"/>
				<path class="st42" d="M239.8,234.7H206V167h33.8V234.7z"/>
				<path class="st45" d="M235.9,230.7h-59.8v-59.8h59.8V230.7z"/>
				<path class="st46" d="M235.9,230.7H206v-59.8h29.9V230.7z"/>
				<path class="st41" d="M190.7,213.6V191h9.6c4.4,0,7.2,4.1,7.2,7.4c0,4.1-3.2,7.4-7,7.4h-5.3v7.6h-4.5V213.6z M195.1,202.2h5.1
					c1.6,0,2.8-1.5,2.8-3.6c0-1.9-1.1-3.6-3-3.6h-4.9C195.1,195,195.1,202.2,195.1,202.2z"/>
				<g>
					<path class="st42" d="M216.3,213.8c-3.8,0-6.5-1.7-7.6-2.6l1.6-2.7c1,0.7,3.4,2.1,5.9,2.1c1.6,0,2.7-0.7,2.7-1.8
						c0-1.5-2.4-1.9-3.6-2.3c-1.1-0.3-6-1-6-4.6c0-3.5,3-5.5,6.5-5.5c3.6,0,5.6,1.5,6.5,2.3l-1.7,2.6c-0.9-0.7-2.7-1.8-4.9-1.8
						c-1.6,0-2.6,0.7-2.6,1.9c0,1.5,2.7,1.9,3.3,2.1c1.1,0.3,6.4,1.1,6.4,5C223.1,213.2,218.5,213.8,216.3,213.8z"/>
					<path class="st42" d="M206,194v9.1c0.9-1.2,1.5-2.9,1.5-4.6C207.4,197,207,195.3,206,194z"/>
				</g>
			</g>
		</g>
		<g>
			<path class="st47" d="M366.5,234.7h-67.7V167h67.7V234.7z"/>
			<path class="st48" d="M366.5,234.7h-33.8V167h33.8V234.7z"/>
			<path class="st49" d="M362.5,230.7h-59.8v-59.8h59.8V230.7z"/>
			<path class="st50" d="M362.5,230.7h-29.9v-59.8h29.9V230.7z"/>
			<path class="st47" d="M318.2,191l5.6,8.3l5.6-8.3h4.7l-8,11.4l7.8,11.1h-4.7l-5.3-8l-5.4,8h-4.7l7.8-11.1l-8-11.4
				C313.6,191,318.2,191,318.2,191z"/>
			<g>
				<path class="st48" d="M341.9,213.8c-4.9,0-7.9-4.1-7.9-8.7c0-5.2,3.5-8.6,7.4-8.6c3.4,0,5.1,2.3,5.6,3.2v-9.5h4.3v18.3
					c0,0.5,0.7,1.2,1,1.2v3.6c-0.8,0.1-1.4,0.2-1.8,0.2c-3,0-2.8-3.2-2.8-3.2C347,211.7,345.2,213.8,341.9,213.8z M343,210.2
					c2.7,0,3.8-2.4,4.1-2.8v-3.9c-0.2-0.5-1.7-3.3-4.3-3.3c-2.9,0-4.4,2.8-4.4,5.1C338.4,207.7,340.2,210.2,343,210.2z"/>
				<polygon class="st48" points="332.6,191 332.6,193.1 334.1,191 				"/>
				<polygon class="st48" points="332.6,213.6 333.9,213.6 332.6,211.8 				"/>
			</g>
		</g>
		<g>
			<g>
				<path class="st51" d="M1019.9,157.3c-18.7,0-33.8,15.1-33.8,33.8c0,15,9.7,27.6,23.1,32.1c1.7,0.3,2.3-0.7,2.3-1.6
					c0-0.8,0-3.5,0-6.3c-9.4,2-11.4-4-11.4-4c-1.5-3.9-3.8-5-3.8-5c-3.1-2.1,0.2-2.1,0.2-2.1c3.4,0.2,5.2,3.5,5.2,3.5
					c3,5.2,7.9,3.7,9.8,2.8c0.3-2.2,1.2-3.7,2.1-4.5c-7.5-0.9-15.4-3.8-15.4-16.7c0-3.7,1.3-6.7,3.5-9.1c-0.4-0.9-1.5-4.3,0.3-9
					c0,0,2.8-0.9,9.3,3.5c2.7-0.8,5.6-1.1,8.5-1.1c2.9,0,5.8,0.4,8.5,1.1c6.5-4.4,9.3-3.5,9.3-3.5c1.8,4.7,0.7,8.1,0.3,9
					c2.2,2.4,3.5,5.4,3.5,9.1c0,13-7.9,15.9-15.5,16.7c1.2,1.1,2.3,3.1,2.3,6.3c0,4.5,0,8.2,0,9.3c0,0.9,0.6,2,2.3,1.6
					c13.4-4.5,23.1-17.2,23.1-32.1C1053.7,172.5,1038.6,157.3,1019.9,157.3L1019.9,157.3z"/>
				<path class="st52" d="M998.9,205.9c-0.1,0.2-0.3,0.2-0.6,0.1c-0.2-0.1-0.4-0.3-0.3-0.5c0.1-0.2,0.3-0.2,0.6-0.1
					C998.8,205.5,998.9,205.8,998.9,205.9L998.9,205.9z M1000.2,207.5c-0.2,0.1-0.5,0.1-0.7-0.2c-0.2-0.2-0.3-0.6-0.1-0.7
					c0.2-0.1,0.5-0.1,0.7,0.2C1000.4,207,1000.4,207.3,1000.2,207.5L1000.2,207.5z M1001.6,209.4c-0.2,0.1-0.5,0-0.8-0.3
					c-0.2-0.3-0.2-0.7,0-0.8c0.2-0.1,0.5,0,0.8,0.3C1001.8,208.9,1001.8,209.3,1001.6,209.4L1001.6,209.4z M1003.4,211.3
					c-0.2,0.2-0.6,0.1-0.9-0.1c-0.3-0.3-0.4-0.7-0.2-0.9c0.2-0.2,0.6-0.1,0.9,0.1C1003.5,210.7,1003.6,211.1,1003.4,211.3
					L1003.4,211.3z M1005.9,212.4c-0.1,0.3-0.5,0.4-0.8,0.3c-0.4-0.1-0.6-0.4-0.6-0.7c0.1-0.3,0.5-0.4,0.8-0.3
					C1005.7,211.8,1006,212.1,1005.9,212.4z M1008.7,212.6c0,0.3-0.3,0.5-0.7,0.5c-0.4,0-0.7-0.2-0.7-0.5c0-0.3,0.3-0.5,0.7-0.5
					C1008.4,212.1,1008.7,212.3,1008.7,212.6L1008.7,212.6z M1011.3,212.1c0,0.3-0.2,0.6-0.6,0.6c-0.4,0.1-0.8-0.1-0.8-0.4
					c0-0.3,0.2-0.6,0.6-0.6C1010.9,211.7,1011.2,211.9,1011.3,212.1L1011.3,212.1z"/>
			</g>
		</g>
		<g>
			<path class="st53" d="M892,225.4c1.1,0.4,2.3,0.4,3.5-0.1l14.3-6.9c1.5-0.7,2.5-2.3,2.5-3.9v-46.8c0-1.7-1-3.2-2.5-3.9l-14.3-6.9
				c-1.5-0.7-3.2-0.5-4.4,0.4c-0.2,0.1-0.4,0.3-0.5,0.4L863,182.7l-12-9.1c-1.1-0.8-2.7-0.8-3.7,0.2l-3.8,3.5
				c-1.3,1.2-1.3,3.1,0,4.3l10.4,9.5l-10.4,9.5c-1.3,1.2-1.3,3.1,0,4.3l3.8,3.5c1,0.9,2.6,1,3.7,0.2l12-9.1l27.5,25.1
				C890.9,224.9,891.4,225.2,892,225.4z M894.9,175.2L874,191l20.8,15.8V175.2z"/>
			<defs>
				<filter id="Adobe_OpacityMaskFilter" filterUnits="userSpaceOnUse" x="842.5" y="156.4" width="69.7" height="69.3">
					<feColorMatrix  type="matrix" values="1 0 0 0 0  0 1 0 0 0  0 0 1 0 0  0 0 0 1 0"/>
				</filter>
			</defs>
			<mask maskUnits="userSpaceOnUse" x="842.5" y="156.4" width="69.7" height="69.3" id="mask0_1_">
				<path class="st54" d="M892,225.4c1.1,0.4,2.3,0.4,3.5-0.1l14.3-6.9c1.5-0.7,2.5-2.3,2.5-3.9v-46.8c0-1.7-1-3.2-2.5-3.9
					l-14.3-6.9c-1.5-0.7-3.2-0.5-4.4,0.4c-0.2,0.1-0.4,0.3-0.5,0.4L863,182.7l-12-9.1c-1.1-0.8-2.7-0.8-3.7,0.2l-3.8,3.5
					c-1.3,1.2-1.3,3.1,0,4.3l10.4,9.5l-10.4,9.5c-1.3,1.2-1.3,3.1,0,4.3l3.8,3.5c1,0.9,2.6,1,3.7,0.2l12-9.1l27.5,25.1
					C890.9,224.9,891.4,225.2,892,225.4z M894.9,175.2L874,191l20.8,15.8V175.2z"/>
			</mask>
			<g class="st55">
				<path class="st56" d="M909.8,163.7l-14.4-6.9c-1.7-0.8-3.6-0.5-5,0.8l-47,42.9c-1.3,1.2-1.3,3.1,0,4.3l3.8,3.5
					c1,0.9,2.6,1,3.7,0.2l56.6-42.9c1.9-1.4,4.6-0.1,4.6,2.3v-0.2C912.3,166,911.3,164.4,909.8,163.7z"/>
				<g>
					<path class="st26" d="M909.8,218.3l-14.4,6.9c-1.7,0.8-3.6,0.5-5-0.8l-47-42.9c-1.3-1.2-1.3-3.1,0-4.3l3.8-3.5
						c1-0.9,2.6-1,3.7-0.2l56.6,42.9c1.9,1.4,4.6,0.1,4.6-2.3v0.2C912.3,216.1,911.3,217.6,909.8,218.3z"/>
				</g>
				<g>
					<path class="st57" d="M895.4,225.3c-1.7,0.8-3.6,0.5-5-0.8c1.6,1.6,4.4,0.5,4.4-1.8v-63.2c0-2.3-2.7-3.4-4.4-1.8
						c1.3-1.3,3.3-1.6,5-0.8l14.4,6.9c1.5,0.7,2.5,2.3,2.5,3.9v46.8c0,1.7-1,3.2-2.5,3.9L895.4,225.3z"/>
				</g>
				<g class="st58">
					
						<linearGradient id="SVGID_1_" gradientUnits="userSpaceOnUse" x1="523.3778" y1="73.325" x2="523.3778" y2="3.9923" gradientTransform="matrix(1 0 0 -1 354 229.68)">
						<stop  offset="0" style="stop-color:#FFFFFF"/>
						<stop  offset="1" style="stop-color:#FFFFFF;stop-opacity:0"/>
					</linearGradient>
					<path class="st59" d="M892,225.4c1.1,0.4,2.3,0.4,3.5-0.1l14.3-6.9c1.5-0.7,2.5-2.3,2.5-3.9v-46.8c0-1.7-1-3.2-2.5-3.9
						l-14.3-6.9c-1.5-0.7-3.2-0.5-4.4,0.4c-0.2,0.1-0.4,0.3-0.5,0.4L863,182.7l-12-9.1c-1.1-0.8-2.7-0.8-3.7,0.2l-3.8,3.5
						c-1.3,1.2-1.3,3.1,0,4.3l10.4,9.5l-10.4,9.5c-1.3,1.2-1.3,3.1,0,4.3l3.8,3.5c1,0.9,2.6,1,3.7,0.2l12-9.1l27.5,25.1
						C890.9,224.9,891.4,225.2,892,225.4z M894.8,175.2L874,191l20.8,15.8V175.2z"/>
				</g>
			</g>
		</g>
	</g>
</g>
</svg>
