<?xml version="1.0" encoding="utf-8"?>
<!-- Generator: Adobe Illustrator 25.4.1, SVG Export Plug-In . SVG Version: 6.00 Build 0)  -->
<svg version="1.1" id="Layer_1" xmlns="http://www.w3.org/2000/svg" xmlns:xlink="http://www.w3.org/1999/xlink" x="0px" y="0px"
	 viewBox="0 0 1211 270.7" style="enable-background:new 0 0 1211 270.7;" xml:space="preserve">
<style type="text/css">
	.st0{fill:#F7DF1E;}
	.st1{fill:#FFFFFF;}
	.st2{fill:#53C1DE;}
	.st3{fill:#CF649A;}
	.st4{fill:#E44F26;}
	.st5{fill:#F1662A;}
	.st6{fill:#EBEBEB;}
	.st7{fill:#010101;}
	.st8{fill:#131313;}
	.st9{fill:#1572B6;}
	.st10{fill:#33A9DC;}
	.st11{fill:#F8D9FF;}
	.st12{fill:#F3C0FF;}
	.st13{fill:#723B7F;}
	.st14{fill:#5C3066;}
	.st15{fill:#FEC478;}
	.st16{fill:#FEA832;}
	.st17{fill:#994C0F;}
	.st18{fill:#713708;}
	.st19{fill:#CCEFFF;}
	.st20{fill:#ACE3FC;}
	.st21{fill:#0C61C6;}
	.st22{fill:#0A4EAF;}
	.st23{fill:#FF80E4;}
	.st24{fill:#FF5AD4;}
	.st25{fill:#7F1363;}
	.st26{fill:#661054;}
	.st27{fill:#0ACF83;}
	.st28{fill:#A259FF;}
	.st29{fill:#F24E1E;}
	.st30{fill:#FF7262;}
	.st31{fill:#1ABCFE;}
</style>
<g>
	<g>
		<polygon class="st0" points="693.6,39.3 761.3,39.3 761.3,107 693.6,107 		"/>
		<path d="M711.4,95.9l5.2-3.1c1,1.8,1.9,3.3,4.1,3.3c2.1,0,3.4-0.8,3.4-4V70.4h6.4v21.7c0,6.6-3.9,9.6-9.5,9.6
			C715.9,101.7,712.9,99,711.4,95.9 M733.9,95.2l5.2-3c1.4,2.2,3.1,3.9,6.3,3.9c2.6,0,4.3-1.3,4.3-3.1c0-2.2-1.7-3-4.6-4.2l-1.6-0.7
			c-4.6-2-7.6-4.4-7.6-9.6c0-4.8,3.6-8.4,9.3-8.4c4,0,7,1.4,9,5.1l-5,3.2c-1.1-2-2.3-2.7-4.1-2.7c-1.9,0-3,1.2-3,2.7
			c0,1.9,1.2,2.7,3.9,3.9l1.6,0.7c5.4,2.3,8.5,4.7,8.5,10c0,5.7-4.5,8.9-10.5,8.9C739.6,101.7,735.8,98.9,733.9,95.2"/>
	</g>
</g>
<g>
	<g>
		<path class="st1" d="M809.8,69.5c0,5.7,5.6,11,14.5,14.2c-1.7,8.9-0.3,16.1,4.6,18.8c5.1,2.8,12.5,0.9,19.5-5.3
			c6.9,6,13.8,8.2,18.6,5.5c5.1-2.8,6.5-10.5,4.7-19.8c9.2-3,14.5-7.7,14.5-13.5c0-5.6-5.6-10.5-14.4-13.5
			c1.9-9.6,0.2-16.6-4.8-19.6c-5-2.8-11.9-0.3-18.8,5.7c-7.3-6.4-14.2-8.4-19.4-5.5c-4.8,2.8-6.2,10.1-4.5,19.3
			C815.8,59,809.8,63.9,809.8,69.5z"/>
		<path class="st2" d="M870,59.1c-0.7-0.2-1.5-0.5-2.1-0.7c0.1-0.5,0.2-1,0.3-1.5c1.6-8,0.6-14.5-3-16.6c-3.5-2-9.2,0.1-15.2,5.2
			c-0.6,0.5-1.1,1-1.7,1.6c-0.3-0.3-0.7-0.7-1.1-1c-6.2-5.5-12.3-7.8-15.9-5.6c-3.5,2-4.6,8.1-3,15.7c0.1,0.8,0.3,1.5,0.5,2.3
			c-0.9,0.2-1.7,0.5-2.5,0.8c-7.2,2.5-11.8,6.4-11.8,10.5c0,4.3,5,8.4,12.4,10.9c0.6,0.2,1.2,0.3,1.8,0.6c-0.2,0.8-0.3,1.6-0.6,2.4
			c-1.4,7.4-0.3,13.4,3.2,15.4c3.6,2,9.7-0.1,15.7-5.3c0.5-0.5,0.9-0.8,1.4-1.2c0.6,0.6,1.2,1.1,1.8,1.7c5.7,5,11.5,7,15,5
			c3.6-2,4.8-8.4,3.3-16.2c-0.1-0.6-0.2-1.1-0.5-1.8c0.5-0.1,0.8-0.2,1.2-0.3c7.8-2.6,12.8-6.8,12.8-10.9
			C881.9,65.4,877.3,61.6,870,59.1L870,59.1z"/>
		<path class="st1" d="M868.3,77.8c-0.3,0.1-0.8,0.2-1.1,0.3c-0.9-2.7-2-5.6-3.4-8.6c1.4-2.8,2.5-5.7,3.3-8.4c0.7,0.2,1.4,0.5,2,0.7
			c6.3,2.1,10,5.4,10,7.8C879.1,72.1,875,75.6,868.3,77.8L868.3,77.8z M865.5,83.3c0.7,3.4,0.8,6.5,0.3,8.9
			c-0.5,2.1-1.2,3.6-2.1,4.3c-2.1,1.2-6.8-0.3-11.7-4.6c-0.6-0.5-1.1-1-1.7-1.6c1.9-2,3.7-4.6,5.7-7.2c3.3-0.3,6.4-0.8,9.1-1.4
			C865.2,82.3,865.4,82.8,865.5,83.3L865.5,83.3z M837.3,96.3c-2,0.7-3.7,0.8-4.8,0.2c-2.1-1.2-2.9-6-1.8-12.4
			c0.1-0.8,0.3-1.5,0.5-2.3c2.7,0.6,5.9,1,9.1,1.4c1.8,2.6,3.9,5.1,5.9,7.2c-0.5,0.5-0.8,0.8-1.2,1.1
			C842.3,93.8,839.7,95.3,837.3,96.3L837.3,96.3z M827.5,77.8c-3.3-1.1-6.1-2.6-7.9-4.3c-1.7-1.4-2.5-2.8-2.5-4
			c0-2.5,3.6-5.6,9.8-7.8c0.8-0.2,1.6-0.5,2.3-0.7c0.8,2.7,1.9,5.6,3.3,8.6c-1.4,2.9-2.5,6-3.3,8.7C828.7,78.1,828.1,78,827.5,77.8z
			 M830.9,55.5c-1.2-6.5-0.5-11.5,1.7-12.7c2.3-1.2,7.3,0.6,12.6,5.3c0.3,0.3,0.7,0.6,1,0.9c-1.9,2-3.9,4.6-5.7,7.1
			c-3.2,0.3-6.3,0.8-9,1.4C831.1,56.8,831,56.1,830.9,55.5L830.9,55.5z M860.1,62.7c-0.7-1.1-1.4-2.3-2-3.4c2.1,0.2,4.3,0.7,6.2,1
			c-0.6,1.8-1.2,3.7-2.1,5.9C861.4,65,860.7,63.8,860.1,62.7L860.1,62.7z M848.1,51.2c1.4,1.5,2.6,3,4,4.8c-2.6-0.1-5.4-0.1-8,0
			C845.4,54.2,846.8,52.5,848.1,51.2L848.1,51.2z M836.1,62.7c-0.7,1.1-1.2,2.3-1.9,3.5c-0.8-1.9-1.6-4-2.1-5.9c1.9-0.5,4-0.8,6.2-1
			C837.5,60.4,836.9,61.6,836.1,62.7z M838.3,80c-2.1-0.2-4.4-0.6-6.3-1c0.6-1.9,1.4-3.9,2.1-6c0.6,1.1,1.2,2.4,1.9,3.5
			C836.9,77.8,837.5,78.9,838.3,80z M848.2,88.1c-1.4-1.4-2.7-3-4.2-4.8c1.2,0,2.6,0.1,4,0.1s2.7,0,4.2-0.1
			C850.8,85.1,849.5,86.8,848.2,88.1z M862,72.9c0.9,2,1.7,4.2,2.3,6c-1.9,0.5-4.2,0.8-6.3,1c0.7-1.1,1.4-2.3,2-3.4
			C860.7,75.4,861.4,74.2,862,72.9L862,72.9z M857.5,75.1c-1,1.8-2,3.5-3.2,5.3c-2,0.1-4.2,0.2-6.2,0.2s-4.2-0.1-6.2-0.2
			c-1.1-1.7-2.3-3.4-3.3-5.3c-1-1.8-1.9-3.6-2.8-5.5c0.9-1.8,1.8-3.6,2.8-5.5l0,0c1-1.8,2.1-3.5,3.3-5.3c2-0.1,4.2-0.2,6.2-0.2
			s4.2,0.1,6.2,0.2c1.1,1.7,2.3,3.4,3.3,5.3c1,1.8,2,3.5,2.9,5.5C859.6,71.5,858.5,73.3,857.5,75.1L857.5,75.1z M863.6,42.8
			c2.3,1.2,3.2,6.6,1.7,13.5c-0.1,0.5-0.2,0.9-0.3,1.4c-2.8-0.7-5.9-1.1-9-1.5c-1.8-2.6-3.7-5.1-5.7-7.2c0.5-0.5,1-0.9,1.6-1.5
			C856.7,43.3,861.4,41.5,863.6,42.8L863.6,42.8z"/>
		<path class="st2" d="M848.1,63.5c3.3,0,6.1,2.7,6.1,6.1c0,3.3-2.7,6.1-6.1,6.1S842,73,842,69.6C842,66.3,844.7,63.5,848.1,63.5"/>
	</g>
</g>
<g>
	<path class="st3" d="M639.1,79.3c-3.2,0-5.8,0.8-8,1.8c-0.8-1.7-1.7-3-1.8-4.2s-0.4-2-0.1-3.5c0.1-1.4,1.1-3.5,1.1-3.8
		c0-0.1-0.1-0.9-2-0.9c-1.8,0-3.3,0.4-3.5,0.8c-0.1,0.5-0.5,1.6-0.8,2.6c-0.3,1.6-3.5,7.4-5.4,10.4c-0.7-1.2-1.2-2.2-1.2-3
		c-0.1-1.2-0.4-2-0.1-3.5c0.1-1.4,1.1-3.5,1.1-3.8c0-0.1-0.1-0.9-2-0.9c-1.8,0-3.3,0.4-3.5,0.8c-0.1,0.5-0.4,1.6-0.8,2.6
		c-0.4,1.1-4.7,10.8-5.8,13.3c-0.5,1.3-1.1,2.4-1.4,3c-0.4,0.7,0,0,0,0.1c-0.3,0.5-0.5,0.9-0.5,0.9l0,0c-0.3,0.4-0.5,0.8-0.7,0.8
		s-0.3-1.2,0-2.8c0.7-3.3,2.2-8.5,2.2-8.8c0-0.1,0.3-1.1-1.1-1.4c-1.3-0.5-1.7,0.3-1.8,0.3s-0.1,0.3-0.1,0.3s1.4-5.9-2.6-5.9
		c-2.6,0-6,2.8-7.9,5.4c-1.1,0.7-3.4,1.8-5.9,3.3c-0.9,0.5-2,1.1-2.9,1.6l-0.1-0.3c-5-5.3-14.2-9.1-13.8-16.2
		c0.1-2.6,1.1-9.5,17.6-17.6c13.5-6.7,24.5-4.9,26.3-0.8c2.6,5.9-5.8,16.8-20,18.4c-5.4,0.7-8.2-1.4-8.9-2.2
		c-0.7-0.8-0.8-0.8-1.2-0.7c-0.4,0.3-0.1,0.9,0,1.4c0.4,1.1,2.1,3,5.1,3.9c2.6,0.8,8.9,1.3,16.6-1.6c8.5-3.3,15.2-12.5,13.3-20.2
		s-15-10.4-27.2-6c-7.4,2.6-15.2,6.7-20.9,12c-6.7,6.3-7.9,11.8-7.4,14.1c1.6,8.2,12.9,13.5,17.4,17.5c-0.3,0.1-0.4,0.3-0.7,0.4
		c-2.2,1.1-10.8,5.7-13,10.4c-2.4,5.4,0.4,9.2,2.2,9.7c5.8,1.6,11.7-1.3,15-6c3.2-4.7,2.8-10.9,1.3-13.8v-0.1l1.7-1.1
		c1.2-0.7,2.2-1.3,3.3-1.8c-0.5,1.4-0.9,3.3-1.2,5.9c-0.3,3,1.1,7,2.6,8.5c0.8,0.7,1.6,0.7,2.1,0.7c2,0,2.8-1.6,3.7-3.4
		c1.2-2.4,2.2-5,2.2-5s-1.3,7.2,2.2,7.2c1.3,0,2.6-1.7,3.2-2.5l0,0c0,0,0,0,0.1-0.1c0.1-0.3,0.3-0.4,0.3-0.4l0,0
		c0.5-0.9,1.7-3,3.4-6.4c2.2-4.5,4.3-9.9,4.3-9.9s0.3,1.3,0.8,3.5c0.4,1.3,1.2,2.8,1.8,4.2c-0.5,0.8-0.8,1.2-0.8,1.2l0,0
		c-0.4,0.5-0.9,1.2-1.3,1.7c-1.7,2.1-3.9,4.5-4.2,5.3c-0.4,0.8-0.3,1.4,0.4,2c0.5,0.4,1.3,0.4,2.2,0.4c1.6-0.1,2.8-0.5,3.3-0.8
		c0.9-0.3,1.8-0.8,2.8-1.4c1.7-1.3,2.8-3.2,2.6-5.5c0-1.3-0.5-2.6-1.1-3.9c0.1-0.3,0.3-0.4,0.5-0.7c2.8-3.9,4.9-8.4,4.9-8.4
		s0.3,1.3,0.8,3.5c0.4,1.2,1.1,2.4,1.6,3.5c-2.6,2.1-4.2,4.5-4.7,6.2c-1.1,2.9-0.3,4.3,1.3,4.6c0.7,0.1,1.7-0.1,2.4-0.5
		c0.9-0.3,2-0.8,3-1.6c1.7-1.3,3.4-3,3.3-5.5c0-1.1-0.4-2.2-0.8-3.3c2.2-0.9,5-1.4,8.5-1.1c7.8,0.9,9.2,5.8,8.9,7.8s-2,3.2-2.5,3.4
		c-0.5,0.4-0.7,0.4-0.7,0.7c0.1,0.4,0.3,0.4,0.8,0.3c0.7-0.1,4.1-1.7,4.2-5.4C651.7,84.5,647.1,79.3,639.1,79.3z M579.7,99.4
		c-2.5,2.8-6.2,3.8-7.6,2.9c-1.7-0.9-1.1-5.1,2.1-8c2-1.8,4.3-3.4,6-4.5c0.4-0.3,0.9-0.5,1.6-0.9c0.1-0.1,0.1-0.1,0.1-0.1
		c0.1-0.1,0.3-0.1,0.4-0.3C583.4,92.8,582.3,96.5,579.7,99.4z M598.2,86.8c-0.9,2.1-2.8,7.8-3.9,7.4c-0.9-0.3-1.6-4.5-0.1-8.7
		c0.7-2.1,2.1-4.6,3-5.5c1.4-1.6,2.9-2.1,3.3-1.4C601,79.3,598.9,85.3,598.2,86.8z M613.6,94.1c-0.4,0.1-0.8,0.4-0.9,0.3
		s0.1-0.4,0.1-0.4s2-2.1,2.6-3c0.4-0.5,0.9-1.2,1.4-2v0.3C617.2,91.8,614.8,93.4,613.6,94.1z M625.6,91.4c-0.3-0.3-0.3-0.8,0.7-2.9
		c0.4-0.8,1.2-2.1,2.6-3.4c0.1,0.5,0.3,1.1,0.3,1.4C629.1,89.7,626.9,90.9,625.6,91.4z"/>
</g>
<g>
	<polygon class="st4" points="348.3,101.5 343.9,52.5 391.9,52.5 387.5,101.5 368,107 	"/>
	<polygon class="st5" points="368,102.9 383.8,98.4 387.5,56.5 368,56.5 	"/>
	<polygon class="st6" points="368,74.6 359.9,74.6 359.4,68.5 368,68.5 368,62.6 368,62.6 352.9,62.6 353,64.2 354.5,80.8 368,80.8 
			"/>
	<polygon class="st6" points="368,90.4 368,90.4 361.2,88.6 360.7,83.8 357.5,83.8 354.7,83.8 355.6,93.2 368,96.6 368,96.6 	"/>
	<polygon class="st7" points="348.3,39.3 351.5,39.3 351.5,42.2 354.2,42.2 354.2,39.3 357.3,39.3 357.3,48.3 354.2,48.3 
		354.2,45.3 351.5,45.3 351.5,48.3 348.3,48.3 	"/>
	<polygon class="st7" points="361.3,42.2 358.6,42.2 358.6,39.3 367,39.3 367,42.2 364.3,42.2 364.3,48.3 361.3,48.3 	"/>
	<polygon class="st7" points="368.4,39.3 371.5,39.3 373.6,42.5 375.5,39.3 378.6,39.3 378.6,48.3 375.6,48.3 375.6,43.8 373.6,47 
		373.5,47 371.4,43.8 371.4,48.3 368.4,48.3 	"/>
	<polygon class="st7" points="380.1,39.3 383.3,39.3 383.3,45.3 387.5,45.3 387.5,48.3 380.1,48.3 	"/>
	<polygon class="st1" points="368,74.6 368,80.8 375.3,80.8 374.5,88.6 368,90.4 368,96.6 380.1,93.2 380.3,92.1 381.8,76.3 
		381.9,74.6 380.3,74.6 	"/>
	<polygon class="st1" points="368,62.6 368,66.3 368,68.5 368,68.5 382.4,68.5 382.4,68.5 382.4,68.5 382.5,67.2 382.7,64.2 
		382.8,62.6 	"/>
</g>
<g transform="translate(26.008 5.817)">
	<path class="st8" d="M476.3,36.1h-4l4.1,4.4v2.2h-8.4v-2.5h4.1l-4.1-4.4v-2.2h8.3V36.1z M466.2,36.1h-4l4.1,4.4v2.2h-8.4v-2.5h4.1
		l-4.1-4.4v-2.2h8.3V36.1z M456.3,36.2h-4.2v3.9h4.2v2.6H449v-9.1h7.3V36.2z"/>
	<polygon class="st9" points="443.1,95.7 438.8,46.9 486.6,46.9 482.3,95.7 462.6,101.2 	"/>
	<polygon class="st10" points="462.6,97 478.5,92.6 482.3,50.9 462.6,50.9 	"/>
	<g transform="translate(6.274 16.198)">
		<polygon class="st1" points="456.4,52.4 464.3,52.4 464.9,46.3 456.4,46.3 456.4,40.2 456.4,40.2 471.3,40.2 471.2,41.8 
			469.7,58.4 456.4,58.4 		"/>
		<polygon class="st6" points="456.4,68 456.4,68 449.7,66.2 449.3,61.4 446.1,61.4 443.3,61.4 444.1,70.8 456.4,74.2 456.4,74.2 		
			"/>
		<polygon class="st1" points="463.8,58.1 463.1,66.2 456.4,68 456.4,74.2 468.7,70.8 468.7,69.8 469.8,58.1 		"/>
		<polygon class="st6" points="456.4,40.2 456.4,43.9 456.4,46.2 456.4,46.3 442,46.3 442,46.3 442,46.3 441.9,45 441.5,41.8 
			441.3,40.2 		"/>
		<polygon class="st6" points="456.4,52.4 456.4,56.1 456.4,58.4 456.4,58.4 449.9,58.4 449.9,58.4 449.9,58.4 449.7,57.1 449.4,54 
			449.2,52.4 		"/>
	</g>
</g>
<g>
	<g>
		<path class="st11" d="M761.6,232.4h-67.7v-67.7h67.7V232.4z"/>
		<path class="st12" d="M761.6,232.4h-33.8v-67.7h33.8V232.4z"/>
		<path class="st13" d="M757.7,228.4h-59.8v-59.8h59.8V228.4z"/>
		<path class="st14" d="M757.7,228.4h-29.9v-59.8h29.9V228.4z"/>
		<path class="st11" d="M716.9,188.7h3.8l8.6,22.6h-4.5l-2.1-5.6h-7.9l-2,5.6h-4.5L716.9,188.7z M721.8,202.5l-3-8.8l-3.3,8.8H721.8
			z"/>
		<g>
			<path class="st12" d="M738.6,211.5c-5.3,0-8.8-3.9-8.8-8.6c0-4.2,2.8-8.7,8.8-8.7c4.2,0,8.7,2.8,8.7,8.6c0,0.2,0,1.2-0.1,1.5
				h-12.9c0.1,0.7,0.8,4.2,4.4,4.2c2.4,0,3.6-1.6,3.9-2.3l3.6,1C745.7,208.5,743.6,211.5,738.6,211.5z M742.9,201.5
				c-0.2-2.7-2.1-4.2-4.4-4.2c-2.3,0-4.1,1.7-4.3,4.2H742.9z"/>
			<polygon class="st12" points="727.8,207.4 727.8,211.3 729.3,211.3 			"/>
		</g>
	</g>
</g>
<g>
	<g>
		<path class="st15" d="M400.1,235.5h-67.6v-67.7h67.7L400.1,235.5L400.1,235.5z"/>
		<path class="st16" d="M400.1,235.5h-33.8v-67.7h33.8V235.5z"/>
		<path class="st17" d="M396.2,231.6h-59.8v-59.8h59.8V231.6z"/>
		<path class="st18" d="M396.2,231.6h-29.9v-59.8h29.9V231.6z"/>
		<path class="st15" d="M359.9,191.9h3.8l8.6,22.6h-4.5l-2.1-5.6h-7.9l-2,5.6h-4.5L359.9,191.9z M364.9,205.6l-3.2-8.8l-3.3,8.8
			H364.9z"/>
		<g>
			<path class="st16" d="M374.4,195.5v-4.2h4.3v4.2H374.4z M374.4,214.4v-16.7h4.3v16.6L374.4,214.4L374.4,214.4z"/>
			<polygon class="st16" points="366.3,198.5 366.3,210.3 367.8,214.4 372.3,214.4 			"/>
		</g>
	</g>
</g>
<g>
	<g>
		<path class="st19" d="M520.7,235.1H453v-67.7h67.7V235.1z"/>
		<path class="st20" d="M520.7,235.1h-33.8v-67.7h33.8V235.1z"/>
		<path class="st21" d="M516.8,231.1H457v-59.8h59.8V231.1z"/>
		<path class="st22" d="M516.8,231.1h-29.9v-59.8h29.9V231.1z"/>
		<path class="st19" d="M471.6,214v-22.6h9.6c4.4,0,7.2,4.1,7.2,7.4c0,4.1-3.2,7.4-7,7.4h-5.3v7.6h-4.5L471.6,214L471.6,214z
			 M476,202.6h5.1c1.6,0,2.8-1.5,2.8-3.6c0-1.9-1.1-3.6-3-3.6H476V202.6z"/>
		<g>
			<path class="st20" d="M497.2,214.2c-3.8,0-6.5-1.7-7.6-2.6l1.6-2.7c1,0.7,3.4,2.1,5.9,2.1c1.6,0,2.7-0.7,2.7-1.8
				c0-1.5-2.4-1.9-3.6-2.3c-1.1-0.3-6-1-6-4.6c0-3.5,3-5.5,6.5-5.5c3.6,0,5.6,1.5,6.5,2.3l-1.7,2.6c-0.9-0.7-2.7-1.8-4.9-1.8
				c-1.6,0-2.6,0.7-2.6,1.9c0,1.5,2.7,1.9,3.3,2.1c1.1,0.3,6.4,1.1,6.4,5C504,213.6,499.4,214.2,497.2,214.2z"/>
			<path class="st20" d="M486.9,194.4v9.1c0.9-1.2,1.5-2.9,1.5-4.6C488.3,197.4,487.9,195.7,486.9,194.4z"/>
		</g>
	</g>
</g>
<g>
	<path class="st23" d="M641.1,235.1h-67.7v-67.7h67.7V235.1z"/>
	<path class="st24" d="M641.1,235.1h-33.8v-67.7h33.8V235.1z"/>
	<path class="st25" d="M637.1,231.1h-59.8v-59.8h59.8V231.1z"/>
	<path class="st26" d="M637.1,231.1h-29.9v-59.8h29.9V231.1z"/>
	<path class="st23" d="M592.8,191.4l5.6,8.3l5.6-8.3h4.7l-8,11.4l7.8,11.1h-4.7l-5.3-8l-5.4,8h-4.7l7.8-11.1l-8-11.4H592.8z"/>
	<g>
		<path class="st24" d="M616.5,214.2c-4.9,0-7.9-4.1-7.9-8.7c0-5.2,3.5-8.6,7.4-8.6c3.4,0,5.1,2.3,5.6,3.2v-9.5h4.3v18.3
			c0,0.5,0.7,1.2,1,1.2v3.6c-0.8,0.1-1.4,0.2-1.8,0.2c-3,0-2.8-3.2-2.8-3.2C621.6,212.1,619.8,214.2,616.5,214.2z M617.6,210.6
			c2.7,0,3.8-2.4,4.1-2.8v-3.9c-0.2-0.5-1.7-3.3-4.3-3.3c-2.9,0-4.4,2.8-4.4,5.1C613,208.1,614.8,210.6,617.6,210.6z"/>
		<polygon class="st24" points="607.2,191.4 607.2,193.5 608.7,191.4 		"/>
		<polygon class="st24" points="607.2,214 608.5,214 607.2,212.2 		"/>
	</g>
</g>
<g>
	<path class="st27" d="M836.7,230.5c6.2,0,11.3-5,11.3-11.3v-11.3h-11.3c-6.2,0-11.3,5-11.3,11.3
		C825.4,225.4,830.5,230.5,836.7,230.5z"/>
	<path class="st28" d="M825.4,196.6c0-6.2,5-11.3,11.3-11.3H848v22.6h-11.3C830.5,207.9,825.4,202.9,825.4,196.6z"/>
	<path class="st29" d="M825.4,174.1c0-6.2,5-11.3,11.3-11.3H848v22.6h-11.3C830.5,185.4,825.4,180.3,825.4,174.1z"/>
	<path class="st30" d="M848,162.8h11.3c6.2,0,11.3,5,11.3,11.3c0,6.2-5,11.3-11.3,11.3H848V162.8z"/>
	<path class="st31" d="M870.6,196.6c0,6.2-5,11.3-11.3,11.3c-6.2,0-11.3-5-11.3-11.3c0-6.2,5-11.3,11.3-11.3
		C865.5,185.4,870.6,190.4,870.6,196.6z"/>
</g>
</svg>
