<?xml version="1.0" encoding="utf-8"?>
<!-- Generator: Adobe Illustrator 25.4.1, SVG Export Plug-In . SVG Version: 6.00 Build 0)  -->
<svg version="1.1" id="Layer_1" xmlns="http://www.w3.org/2000/svg" xmlns:xlink="http://www.w3.org/1999/xlink" x="0px" y="0px"
	 viewBox="0 0 1211 270.7" style="enable-background:new 0 0 1211 270.7;" xml:space="preserve">
<style type="text/css">
	.st0{fill-rule:evenodd;clip-rule:evenodd;fill:#439934;}
	.st1{fill-rule:evenodd;clip-rule:evenodd;fill:#45A538;}
	.st2{fill-rule:evenodd;clip-rule:evenodd;fill:#46A037;}
	.st3{fill-rule:evenodd;clip-rule:evenodd;fill:#409433;}
	.st4{fill-rule:evenodd;clip-rule:evenodd;fill:#4FAA41;}
	.st5{fill-rule:evenodd;clip-rule:evenodd;fill:#4AA73C;}
	.st6{fill-rule:evenodd;clip-rule:evenodd;fill:#57AE47;}
	.st7{fill-rule:evenodd;clip-rule:evenodd;fill:#60B24F;}
	.st8{fill-rule:evenodd;clip-rule:evenodd;fill:#A9AA88;}
	.st9{fill-rule:evenodd;clip-rule:evenodd;fill:#B6B598;}
	.st10{fill-rule:evenodd;clip-rule:evenodd;fill:#C2C1A7;}
	.st11{fill-rule:evenodd;clip-rule:evenodd;fill:#CECDB7;}
	.st12{fill-rule:evenodd;clip-rule:evenodd;fill:#DBDAC7;}
	.st13{fill-rule:evenodd;clip-rule:evenodd;fill:#EBE9DC;}
	.st14{fill:#F7DF1E;}
	.st15{fill:#FFFFFF;}
	.st16{fill:#53C1DE;}
	.st17{fill:#CF649A;}
	.st18{fill:#E44F26;}
	.st19{fill:#F1662A;}
	.st20{fill:#EBEBEB;}
	.st21{fill:#010101;}
	.st22{fill:#131313;}
	.st23{fill:#1572B6;}
	.st24{fill:#33A9DC;}
	.st25{fill:#F8D9FF;}
	.st26{fill:#F3C0FF;}
	.st27{fill:#723B7F;}
	.st28{fill:#5C3066;}
	.st29{fill:#FEC478;}
	.st30{fill:#FEA832;}
	.st31{fill:#994C0F;}
	.st32{fill:#713708;}
	.st33{fill:#CCEFFF;}
	.st34{fill:#ACE3FC;}
	.st35{fill:#0C61C6;}
	.st36{fill:#0A4EAF;}
	.st37{fill:#FF80E4;}
	.st38{fill:#FF5AD4;}
	.st39{fill:#7F1363;}
	.st40{fill:#661054;}
	.st41{fill:#E25730;}
	.st42{clip-path:url(#SVGID_00000138570230996198371910000008901515296817402271_);}
	.st43{fill:#9E3226;}
	.st44{fill:#293641;}
	.st45{fill:#3D4B55;}
	.st46{fill:#988775;}
	.st47{fill:#F7DBC0;}
	.st48{clip-path:url(#SVGID_00000183965609858283543530000003757125406715063735_);}
	.st49{fill:#394659;}
	.st50{clip-path:url(#SVGID_00000160893368659799023850000006258153188612244632_);}
	.st51{fill:#B98883;}
	.st52{clip-path:url(#SVGID_00000020386250790002292790000014039299001579077302_);}
	.st53{fill:#EFB39D;}
	.st54{fill:#8E8F8F;}
</style>
<g>
	<g>
		<path class="st0" d="M862,60c0.9,2.6,1.6,5.3,1.8,8.1c0.3,3.5,0.1,6.9-0.6,10.3c0,0.1-0.1,0.2-0.1,0.3c-0.2,0-0.4,0-0.7,0
			c-1.9,0.3-3.8,0.6-5.7,0.9c-2,0.3-3.9,0.6-5.9,0.9c-0.7,0.1-1.6,0-1.8,0.9h-0.1l0.1-5.7c0-4.6-0.1-9.1-0.1-13.7l0.9-0.1
			c1.5-0.2,2.9-0.5,4.4-0.7c1.8-0.3,3.6-0.5,5.3-0.8C860.5,60.2,861.3,60.1,862,60z"/>
		<path class="st1" d="M847.2,98c-0.9-0.8-2-1.6-2.8-2.5c-4.9-4.6-8.5-10.2-10.3-16.7c-0.5-1.8-0.8-3.7-0.9-5.6
			c-0.1-1.4-0.2-2.6-0.1-4c0.2-3.5,0.7-6.9,1.8-10.3l0.1-0.1c0.1,0.1,0.2,0.2,0.3,0.4c0.9,2.9,2,5.9,2.9,8.8
			c3,9.2,6.2,18.5,9.2,27.7c0.1,0.2,0.2,0.3,0.3,0.5C847.7,96.3,847.2,98,847.2,98z"/>
		<path class="st2" d="M862,60c-0.7,0.1-1.6,0.2-2.3,0.3c-1.8,0.3-3.6,0.5-5.3,0.8c-1.5,0.2-2.9,0.5-4.4,0.7l-0.9,0.1v-0.5
			c0-0.5-0.1-0.9-0.1-1.5c0-3.1-0.1-6.2-0.1-9.3c0-1.9-0.1-3.9-0.1-5.8c0-1.2,0-2.4-0.1-3.6c0-0.6-0.1-1.3-0.2-1.9
			c0-0.4,0-0.7,0-1.2c0.4,0.9,0.9,1.8,1.4,2.7c0.7,1.4,2,2.4,3,3.6C857.2,48.9,860.1,54.2,862,60z"/>
		<path class="st3" d="M849,81.4L849,81.4c0.4-0.9,1.3-0.8,1.9-0.9c2-0.3,3.9-0.6,5.9-0.9c1.9-0.3,3.8-0.6,5.7-0.9
			c0.2,0,0.4,0,0.7,0c-0.3,1.3-0.6,2.5-1,3.8c-0.5,1.4-1.2,2.7-1.8,4.1c-0.9,2-2.2,3.9-3.6,5.6c-1,1.3-2.3,2.5-3.5,3.7
			c-0.6,0.6-1.5,1.2-2.2,1.8l-0.2-0.1l-0.7-0.6l-0.7-1.6c-0.5-1.8-0.7-3.7-0.8-5.6v-0.3l0.1-1.4c0-0.4,0.1-0.9,0.1-1.4
			C848.9,84.8,849,83.1,849,81.4L849,81.4z"/>
		<path class="st4" d="M849,81.4c-0.1,1.7-0.1,3.4-0.2,5c0,0.4-0.1,0.9-0.1,1.4l-0.4,0.2c-0.9-2.8-1.9-5.7-2.8-8.4
			c-1.6-4.6-3-9.3-4.6-13.9c-1.3-3.8-2.5-7.4-3.8-11.2c-0.1-0.2-0.2-0.3-0.3-0.4l2.7-5.1c0.1,0.2,0.2,0.3,0.3,0.5
			c1.3,3.8,2.5,7.5,3.8,11.3c1.7,4.9,3.3,9.9,4.9,14.8c0.1,0.2,0.2,0.4,0.3,0.6l0.4-0.4C849.1,77.7,849.1,79.5,849,81.4z"/>
		<path class="st5" d="M836.7,54.1c0.1,0.1,0.3,0.3,0.3,0.4c1.3,3.8,2.5,7.4,3.8,11.2c1.6,4.6,3,9.3,4.6,13.9
			c0.9,2.8,1.9,5.6,2.8,8.4l0.4-0.2l-0.1,1.4l-0.1,0.3c-0.1,1.5-0.3,3-0.4,4.5c-0.1,0.7-0.3,1.5-0.4,2.2c-0.1-0.2-0.3-0.3-0.3-0.5
			c-3-9.2-6.2-18.5-9.2-27.7c-0.9-2.9-2-5.9-2.9-8.8c0-0.1-0.2-0.3-0.3-0.4C835.5,57.3,836,55.6,836.7,54.1z"/>
		<path class="st6" d="M849.1,75.8l-0.4,0.4c-0.1-0.2-0.2-0.4-0.3-0.6c-1.7-4.9-3.3-9.9-4.9-14.8c-1.3-3.8-2.5-7.5-3.8-11.3
			c-0.1-0.2-0.2-0.3-0.3-0.5l3.5-4.5c0.1,0.1,0.2,0.3,0.3,0.4c0.9,2.8,1.9,5.6,2.8,8.4c0.8,2.6,1.8,5.2,2.6,7.8
			c0.1,0.2,0.3,0.3,0.4,0.4v0.6C849.1,66.6,849.1,71.1,849.1,75.8z"/>
		<path class="st7" d="M849,61.5c-0.1-0.1-0.3-0.3-0.4-0.4c-0.8-2.6-1.8-5.2-2.6-7.8c-0.9-2.8-1.9-5.6-2.8-8.4
			c-0.1-0.2-0.2-0.3-0.3-0.4c1.2-1,2.2-2.2,3.4-3.3c1-0.9,1.9-1.9,1.9-3.4c0-0.1,0-0.1,0.1-0.3l0.3,0.7c0,0.4,0,0.7,0,1.2
			c0,0.6,0.1,1.3,0.2,1.9c0.1,1.2,0.1,2.4,0.1,3.6c0,1.9,0.1,3.9,0.1,5.8c0,3.1,0.1,6.2,0.1,9.3C849,60.5,849,61,849,61.5z"/>
		<path class="st8" d="M847.7,96.3c0.1-0.7,0.3-1.5,0.4-2.2c0.2-1.5,0.3-3,0.4-4.5l0,0l0,0c0,1.9,0.3,3.8,0.8,5.6
			c-0.1,0.1-0.2,0.2-0.3,0.4c-0.4,1.2-0.8,2.3-1.3,3.5c-0.1,0.2-0.2,0.3-0.3,0.4L847,98C847.2,98,847.7,96.3,847.7,96.3z"/>
		<path class="st9" d="M847.7,99.5c0.1-0.1,0.3-0.3,0.3-0.4c0.4-1.2,0.8-2.3,1.3-3.5c0.1-0.1,0.2-0.3,0.3-0.4l0.7,1.6
			c-0.1,0.2-0.3,0.4-0.4,0.6l-1.4,4c-0.1,0.2-0.2,0.3-0.4,0.4C848,101.8,847.7,99.5,847.7,99.5z"/>
		<path class="st10" d="M848,101.8c0.1-0.1,0.3-0.2,0.4-0.4l1.4-4c0.1-0.2,0.3-0.4,0.4-0.6l0.7,0.6c-0.3,0.3-0.5,0.7-0.4,1.2
			l-0.2,0.7c-0.1,0.1-0.2,0.2-0.3,0.3c-0.5,1.4-0.9,2.7-1.4,4.1c-0.1,0.2-0.2,0.3-0.3,0.4C848.2,103.3,848.1,102.5,848,101.8
			L848,101.8z"/>
		<path class="st11" d="M848.2,104.1c0.1-0.1,0.3-0.3,0.3-0.4c0.5-1.4,0.9-2.7,1.4-4.1c0-0.1,0.2-0.2,0.3-0.3l-0.3,3.1
			c-0.1,0.1-0.2,0.2-0.2,0.3c-0.3,0.9-0.6,1.8-0.9,2.7c-0.1,0.2-0.2,0.3-0.3,0.5c-0.1-0.1-0.2-0.2-0.2-0.3
			C848.2,105,848.2,104.6,848.2,104.1z"/>
		<path class="st12" d="M848.5,105.9c0.1-0.2,0.2-0.3,0.3-0.5c0.3-0.9,0.6-1.8,0.9-2.7c0-0.1,0.1-0.2,0.2-0.3v2.1l-0.7,1.8
			L848.5,105.9z"/>
		<path class="st13" d="M849.2,106.2l0.7-1.8l0.1,2.1L849.2,106.2z"/>
		<path class="st11" d="M850.4,98.5c-0.1-0.5,0.1-0.8,0.4-1.2l0.2,0.1L850.4,98.5z"/>
		<path class="st4" d="M848.6,89.6L848.6,89.6L848.6,89.6v-0.3C848.7,89.3,848.6,89.6,848.6,89.6z"/>
	</g>
	<g>
		<g>
			<polygon class="st14" points="573.6,39.3 641.3,39.3 641.3,107 573.6,107 			"/>
			<path d="M591.4,95.9l5.2-3.1c1,1.8,1.9,3.3,4.1,3.3c2.1,0,3.4-0.8,3.4-4V70.4h6.4v21.7c0,6.6-3.9,9.6-9.5,9.6
				C595.9,101.7,592.9,99,591.4,95.9 M613.9,95.2l5.2-3c1.4,2.2,3.1,3.9,6.3,3.9c2.6,0,4.3-1.3,4.3-3.1c0-2.2-1.7-3-4.6-4.2
				l-1.6-0.7c-4.6-2-7.6-4.4-7.6-9.6c0-4.8,3.6-8.4,9.3-8.4c4,0,7,1.4,9,5.1l-5,3.2c-1.1-2-2.3-2.7-4.1-2.7c-1.9,0-3,1.2-3,2.7
				c0,1.9,1.2,2.7,3.9,3.9l1.6,0.7c5.4,2.3,8.5,4.7,8.5,10c0,5.7-4.5,8.9-10.5,8.9C619.6,101.7,615.8,98.9,613.9,95.2"/>
		</g>
	</g>
	<g>
		<g>
			<path class="st15" d="M689.8,69.5c0,5.7,5.6,11,14.5,14.2c-1.7,8.9-0.3,16.1,4.6,18.8c5.1,2.8,12.5,0.9,19.5-5.3
				c6.9,6,13.8,8.2,18.6,5.5c5.1-2.8,6.5-10.5,4.7-19.8c9.2-3,14.5-7.7,14.5-13.5c0-5.6-5.6-10.5-14.4-13.5
				c1.9-9.6,0.2-16.6-4.8-19.6c-5-2.8-11.9-0.3-18.8,5.7c-7.3-6.4-14.2-8.4-19.4-5.5c-4.8,2.8-6.2,10.1-4.5,19.3
				C695.8,59,689.8,63.9,689.8,69.5z"/>
			<path class="st16" d="M750,59.1c-0.7-0.2-1.5-0.5-2.1-0.7c0.1-0.5,0.2-1,0.3-1.5c1.6-8,0.6-14.5-3-16.6c-3.5-2-9.2,0.1-15.2,5.2
				c-0.6,0.5-1.1,1-1.7,1.6c-0.3-0.3-0.7-0.7-1.1-1c-6.2-5.5-12.3-7.8-15.9-5.6c-3.5,2-4.6,8.1-3,15.7c0.1,0.8,0.3,1.5,0.5,2.3
				c-0.9,0.2-1.7,0.5-2.5,0.8c-7.2,2.5-11.8,6.4-11.8,10.5c0,4.3,5,8.4,12.4,10.9c0.6,0.2,1.2,0.3,1.8,0.6c-0.2,0.8-0.3,1.6-0.6,2.4
				c-1.4,7.4-0.3,13.4,3.2,15.4c3.6,2,9.7-0.1,15.7-5.3c0.5-0.5,0.9-0.8,1.4-1.2c0.6,0.6,1.2,1.1,1.8,1.7c5.7,5,11.5,7,15,5
				c3.6-2,4.8-8.4,3.3-16.2c-0.1-0.6-0.2-1.1-0.5-1.8c0.5-0.1,0.8-0.2,1.2-0.3c7.8-2.6,12.8-6.8,12.8-10.9
				C761.9,65.4,757.3,61.6,750,59.1L750,59.1z"/>
			<path class="st15" d="M748.3,77.8c-0.3,0.1-0.8,0.2-1.1,0.3c-0.9-2.7-2-5.6-3.4-8.6c1.4-2.8,2.5-5.7,3.3-8.4
				c0.7,0.2,1.4,0.5,2,0.7c6.3,2.1,10,5.4,10,7.8C759.1,72.1,755,75.6,748.3,77.8L748.3,77.8z M745.5,83.3c0.7,3.4,0.8,6.5,0.3,8.9
				c-0.5,2.1-1.2,3.6-2.1,4.3c-2.1,1.2-6.8-0.3-11.7-4.6c-0.6-0.5-1.1-1-1.7-1.6c1.9-2,3.7-4.6,5.7-7.2c3.3-0.3,6.4-0.8,9.1-1.4
				C745.2,82.3,745.4,82.8,745.5,83.3L745.5,83.3z M717.3,96.3c-2,0.7-3.7,0.8-4.8,0.2c-2.1-1.2-2.9-6-1.8-12.4
				c0.1-0.8,0.3-1.5,0.5-2.3c2.7,0.6,5.9,1,9.1,1.4c1.8,2.6,3.9,5.1,5.9,7.2c-0.5,0.5-0.8,0.8-1.2,1.1
				C722.3,93.8,719.7,95.3,717.3,96.3L717.3,96.3z M707.5,77.8c-3.3-1.1-6.1-2.6-7.9-4.3c-1.7-1.4-2.5-2.8-2.5-4
				c0-2.5,3.6-5.6,9.8-7.8c0.8-0.2,1.6-0.5,2.3-0.7c0.8,2.7,1.9,5.6,3.3,8.6c-1.4,2.9-2.5,6-3.3,8.7C708.7,78.1,708.1,78,707.5,77.8
				z M710.9,55.5c-1.2-6.5-0.5-11.5,1.7-12.7c2.3-1.2,7.3,0.6,12.6,5.3c0.3,0.3,0.7,0.6,1,0.9c-1.9,2-3.9,4.6-5.7,7.1
				c-3.2,0.3-6.3,0.8-9,1.4C711.1,56.8,711,56.1,710.9,55.5L710.9,55.5z M740.1,62.7c-0.7-1.1-1.4-2.3-2-3.4c2.1,0.2,4.3,0.7,6.2,1
				c-0.6,1.8-1.2,3.7-2.1,5.9C741.4,65,740.7,63.8,740.1,62.7L740.1,62.7z M728.1,51.2c1.4,1.5,2.6,3,4,4.8c-2.6-0.1-5.4-0.1-8,0
				C725.4,54.2,726.8,52.5,728.1,51.2L728.1,51.2z M716.1,62.7c-0.7,1.1-1.2,2.3-1.9,3.5c-0.8-1.9-1.6-4-2.1-5.9
				c1.9-0.5,4-0.8,6.2-1C717.5,60.4,716.9,61.6,716.1,62.7z M718.3,80c-2.1-0.2-4.4-0.6-6.3-1c0.6-1.9,1.4-3.9,2.1-6
				c0.6,1.1,1.2,2.4,1.9,3.5C716.9,77.8,717.5,78.9,718.3,80z M728.2,88.1c-1.4-1.4-2.7-3-4.2-4.8c1.2,0,2.6,0.1,4,0.1
				s2.7,0,4.2-0.1C730.8,85.1,729.5,86.8,728.2,88.1z M742,72.9c0.9,2,1.7,4.2,2.3,6c-1.9,0.5-4.2,0.8-6.3,1c0.7-1.1,1.4-2.3,2-3.4
				C740.7,75.4,741.4,74.2,742,72.9L742,72.9z M737.5,75.1c-1,1.8-2,3.5-3.2,5.3c-2,0.1-4.2,0.2-6.2,0.2s-4.2-0.1-6.2-0.2
				c-1.1-1.7-2.3-3.4-3.3-5.3c-1-1.8-1.9-3.6-2.8-5.5c0.9-1.8,1.8-3.6,2.8-5.5l0,0c1-1.8,2.1-3.5,3.3-5.3c2-0.1,4.2-0.2,6.2-0.2
				s4.2,0.1,6.2,0.2c1.1,1.7,2.3,3.4,3.3,5.3c1,1.8,2,3.5,2.9,5.5C739.6,71.5,738.5,73.3,737.5,75.1L737.5,75.1z M743.6,42.8
				c2.3,1.2,3.2,6.6,1.7,13.5c-0.1,0.5-0.2,0.9-0.3,1.4c-2.8-0.7-5.9-1.1-9-1.5c-1.8-2.6-3.7-5.1-5.7-7.2c0.5-0.5,1-0.9,1.6-1.5
				C736.7,43.3,741.4,41.5,743.6,42.8L743.6,42.8z"/>
			<path class="st16" d="M728.1,63.5c3.3,0,6.1,2.7,6.1,6.1c0,3.3-2.7,6.1-6.1,6.1S722,73,722,69.6C722,66.3,724.7,63.5,728.1,63.5"
				/>
		</g>
	</g>
	<g>
		<path class="st17" d="M519.1,79.3c-3.2,0-5.8,0.8-8,1.8c-0.8-1.7-1.7-3-1.8-4.2s-0.4-2-0.1-3.5c0.1-1.4,1.1-3.5,1.1-3.8
			c0-0.1-0.1-0.9-2-0.9c-1.8,0-3.3,0.4-3.5,0.8c-0.1,0.5-0.5,1.6-0.8,2.6c-0.3,1.6-3.5,7.4-5.4,10.4c-0.7-1.2-1.2-2.2-1.2-3
			c-0.1-1.2-0.4-2-0.1-3.5c0.1-1.4,1.1-3.5,1.1-3.8c0-0.1-0.1-0.9-2-0.9c-1.8,0-3.3,0.4-3.5,0.8c-0.1,0.5-0.4,1.6-0.8,2.6
			c-0.4,1.1-4.7,10.8-5.8,13.3c-0.5,1.3-1.1,2.4-1.4,3c-0.4,0.7,0,0,0,0.1c-0.3,0.5-0.5,0.9-0.5,0.9l0,0c-0.3,0.4-0.5,0.8-0.7,0.8
			s-0.3-1.2,0-2.8c0.7-3.3,2.2-8.5,2.2-8.8c0-0.1,0.3-1.1-1.1-1.4c-1.3-0.5-1.7,0.3-1.8,0.3s-0.1,0.3-0.1,0.3s1.4-5.9-2.6-5.9
			c-2.6,0-6,2.8-7.9,5.4c-1.1,0.7-3.4,1.8-5.9,3.3c-0.9,0.5-2,1.1-2.9,1.6l-0.1-0.3c-5-5.3-14.2-9.1-13.8-16.2
			c0.1-2.6,1.1-9.5,17.6-17.6c13.5-6.7,24.5-4.9,26.3-0.8c2.6,5.9-5.8,16.8-20,18.4c-5.4,0.7-8.2-1.4-8.9-2.2s-0.8-0.8-1.2-0.7
			c-0.4,0.3-0.1,0.9,0,1.4c0.4,1.1,2.1,3,5.1,3.9c2.6,0.8,8.9,1.3,16.6-1.6c8.5-3.3,15.2-12.5,13.3-20.2s-15-10.4-27.2-6
			c-7.4,2.6-15.2,6.7-20.9,12c-6.7,6.3-7.9,11.8-7.4,14.1c1.6,8.2,12.9,13.5,17.4,17.5c-0.3,0.1-0.4,0.3-0.7,0.4
			c-2.2,1.1-10.8,5.7-13,10.4c-2.4,5.4,0.4,9.2,2.2,9.7c5.8,1.6,11.7-1.3,15-6c3.2-4.7,2.8-10.9,1.3-13.8v-0.1l1.7-1.1
			c1.2-0.7,2.2-1.3,3.3-1.8c-0.5,1.4-0.9,3.3-1.2,5.9c-0.3,3,1.1,7,2.6,8.5c0.8,0.7,1.6,0.7,2.1,0.7c2,0,2.8-1.6,3.7-3.4
			c1.2-2.4,2.2-5,2.2-5s-1.3,7.2,2.2,7.2c1.3,0,2.6-1.7,3.2-2.5l0,0c0,0,0,0,0.1-0.1c0.1-0.3,0.3-0.4,0.3-0.4l0,0
			c0.5-0.9,1.7-3,3.4-6.4c2.2-4.5,4.3-9.9,4.3-9.9s0.3,1.3,0.8,3.5c0.4,1.3,1.2,2.8,1.8,4.2c-0.5,0.8-0.8,1.2-0.8,1.2l0,0
			c-0.4,0.5-0.9,1.2-1.3,1.7c-1.7,2.1-3.9,4.5-4.2,5.3c-0.4,0.8-0.3,1.4,0.4,2c0.5,0.4,1.3,0.4,2.2,0.4c1.6-0.1,2.8-0.5,3.3-0.8
			c0.9-0.3,1.8-0.8,2.8-1.4c1.7-1.3,2.8-3.2,2.6-5.5c0-1.3-0.5-2.6-1.1-3.9c0.1-0.3,0.3-0.4,0.5-0.7c2.8-3.9,4.9-8.4,4.9-8.4
			s0.3,1.3,0.8,3.5c0.4,1.2,1.1,2.4,1.6,3.5c-2.6,2.1-4.2,4.5-4.7,6.2c-1.1,2.9-0.3,4.3,1.3,4.6c0.7,0.1,1.7-0.1,2.4-0.5
			c0.9-0.3,2-0.8,3-1.6c1.7-1.3,3.4-3,3.3-5.5c0-1.1-0.4-2.2-0.8-3.3c2.2-0.9,5-1.4,8.5-1.1c7.8,0.9,9.2,5.8,8.9,7.8s-2,3.2-2.5,3.4
			c-0.5,0.4-0.7,0.4-0.7,0.7c0.1,0.4,0.3,0.4,0.8,0.3c0.7-0.1,4.1-1.7,4.2-5.4C531.7,84.5,527.1,79.3,519.1,79.3z M459.7,99.4
			c-2.5,2.8-6.2,3.8-7.6,2.9c-1.7-0.9-1.1-5.1,2.1-8c2-1.8,4.3-3.4,6-4.5c0.4-0.3,0.9-0.5,1.6-0.9c0.1-0.1,0.1-0.1,0.1-0.1
			c0.1-0.1,0.3-0.1,0.4-0.3C463.4,92.8,462.3,96.5,459.7,99.4z M478.2,86.8c-0.9,2.1-2.8,7.8-3.9,7.4c-0.9-0.3-1.6-4.5-0.1-8.7
			c0.7-2.1,2.1-4.6,3-5.5c1.4-1.6,2.9-2.1,3.3-1.4C481,79.3,478.9,85.3,478.2,86.8z M493.6,94.1c-0.4,0.1-0.8,0.4-0.9,0.3
			c-0.1-0.1,0.1-0.4,0.1-0.4s2-2.1,2.6-3c0.4-0.5,0.9-1.2,1.4-2v0.3C497.2,91.8,494.8,93.4,493.6,94.1z M505.6,91.4
			c-0.3-0.3-0.3-0.8,0.7-2.9c0.4-0.8,1.2-2.1,2.6-3.4c0.1,0.5,0.3,1.1,0.3,1.4C509.1,89.7,506.9,90.9,505.6,91.4z"/>
	</g>
	<g>
		<g>
			<g>
				<polygon class="st18" points="333.2,95.5 329.4,52.7 371.3,52.7 367.5,95.5 350.4,100.3 				"/>
				<polygon class="st19" points="350.4,96.7 364.2,92.8 367.5,56.2 350.4,56.2 				"/>
				<polygon class="st20" points="350.4,72 343.4,72 342.9,66.7 350.4,66.7 350.4,61.5 350.4,61.5 337.2,61.5 337.3,62.9 
					338.6,77.4 350.4,77.4 				"/>
				<polygon class="st20" points="350.4,85.8 350.4,85.8 344.5,84.2 344.1,80 341.3,80 338.8,80 339.6,88.2 350.4,91.2 350.4,91.2 
									"/>
				<polygon class="st21" points="333.2,41.1 336,41.1 336,43.7 338.4,43.7 338.4,41.1 341.1,41.1 341.1,49 338.4,49 338.4,46.4 
					336,46.4 336,49 333.2,49 				"/>
				<polygon class="st21" points="344.6,43.7 342.2,43.7 342.2,41.1 349.6,41.1 349.6,43.7 347.2,43.7 347.2,49 344.6,49 				"/>
				<polygon class="st21" points="350.8,41.1 353.5,41.1 355.3,43.9 357,41.1 359.7,41.1 359.7,49 357.1,49 357.1,45.1 355.3,47.9 
					355.2,47.9 353.4,45.1 353.4,49 350.8,49 				"/>
				<polygon class="st21" points="361,41.1 363.8,41.1 363.8,46.4 367.5,46.4 367.5,49 361,49 				"/>
				<polygon class="st15" points="350.4,72 350.4,77.4 356.8,77.4 356.1,84.2 350.4,85.8 350.4,91.2 361,88.2 361.2,87.3 
					362.5,73.5 362.6,72 361.2,72 				"/>
				<polygon class="st15" points="350.4,61.5 350.4,64.7 350.4,66.7 350.4,66.7 363,66.7 363,66.7 363,66.7 363.1,65.5 363.3,62.9 
					363.4,61.5 				"/>
			</g>
			<g transform="translate(26.008 5.817)">
				<path class="st22" d="M368.4,44.6h-3.5l3.6,3.9v1.9h-7.4v-2.2h3.6l-3.6-3.9v-1.9h7.3V44.6z M359.6,44.6h-3.5l3.6,3.9v1.9h-7.4
					v-2.2h3.6l-3.6-3.9v-1.9h7.3V44.6z M350.9,44.7h-3.7v3.4h3.7v2.3h-6.4v-8h6.4V44.7z"/>
				<polygon class="st23" points="339.3,96.9 335.5,54.1 377.5,54.1 373.7,96.9 356.4,101.7 				"/>
				<polygon class="st24" points="356.4,98 370.4,94.2 373.7,57.6 356.4,57.6 				"/>
				<g transform="translate(6.274 16.198)">
					<polygon class="st15" points="350.2,56.9 357.1,56.9 357.7,51.6 350.2,51.6 350.2,46.2 350.2,46.2 363.3,46.2 363.2,47.6 
						361.9,62.2 350.2,62.2 					"/>
					<polygon class="st20" points="350.2,70.6 350.2,70.6 344.3,69 344,64.8 341.2,64.8 338.7,64.8 339.4,73.1 350.2,76 350.2,76 
											"/>
					<polygon class="st15" points="356.7,61.9 356.1,69 350.2,70.6 350.2,76 361,73.1 361,72.2 362,61.9 					"/>
					<polygon class="st20" points="350.2,46.2 350.2,49.5 350.2,51.5 350.2,51.6 337.6,51.6 337.6,51.6 337.6,51.6 337.5,50.4 
						337.1,47.6 337,46.2 					"/>
					<polygon class="st20" points="350.2,56.9 350.2,60.2 350.2,62.2 350.2,62.2 344.5,62.2 344.5,62.2 344.5,62.2 344.3,61 
						344.1,58.3 343.9,56.9 					"/>
				</g>
			</g>
		</g>
	</g>
	<g>
		<g>
			<path class="st25" d="M761.6,232.4h-67.7v-67.7h67.7V232.4z"/>
			<path class="st26" d="M761.6,232.4h-33.8v-67.7h33.8V232.4z"/>
			<path class="st27" d="M757.7,228.4h-59.8v-59.8h59.8V228.4z"/>
			<path class="st28" d="M757.7,228.4h-29.9v-59.8h29.9V228.4z"/>
			<path class="st25" d="M716.9,188.7h3.8l8.6,22.6h-4.5l-2.1-5.6h-7.9l-2,5.6h-4.5L716.9,188.7z M721.8,202.5l-3-8.8l-3.3,8.8
				H721.8z"/>
			<g>
				<path class="st26" d="M738.6,211.5c-5.3,0-8.8-3.9-8.8-8.6c0-4.2,2.8-8.7,8.8-8.7c4.2,0,8.7,2.8,8.7,8.6c0,0.2,0,1.2-0.1,1.5
					h-12.9c0.1,0.7,0.8,4.2,4.4,4.2c2.4,0,3.6-1.6,3.9-2.3l3.6,1C745.7,208.5,743.6,211.5,738.6,211.5z M742.9,201.5
					c-0.2-2.7-2.1-4.2-4.4-4.2c-2.3,0-4.1,1.7-4.3,4.2H742.9z"/>
				<polygon class="st26" points="727.8,207.4 727.8,211.3 729.3,211.3 				"/>
			</g>
		</g>
	</g>
	<g>
		<g>
			<path class="st29" d="M400.1,235.5h-67.6v-67.7h67.7L400.1,235.5L400.1,235.5z"/>
			<path class="st30" d="M400.1,235.5h-33.8v-67.7h33.8C400.1,167.8,400.1,235.5,400.1,235.5z"/>
			<path class="st31" d="M396.2,231.6h-59.8v-59.8h59.8V231.6z"/>
			<path class="st32" d="M396.2,231.6h-29.9v-59.8h29.9C396.2,171.8,396.2,231.6,396.2,231.6z"/>
			<path class="st29" d="M359.9,191.9h3.8l8.6,22.6h-4.5l-2.1-5.6h-7.9l-2,5.6h-4.5L359.9,191.9z M364.9,205.6l-3.2-8.8l-3.3,8.8
				H364.9z"/>
			<g>
				<path class="st30" d="M374.4,195.5v-4.2h4.3v4.2H374.4z M374.4,214.4v-16.7h4.3v16.6L374.4,214.4L374.4,214.4z"/>
				<polygon class="st30" points="366.3,198.5 366.3,210.3 367.8,214.4 372.3,214.4 				"/>
			</g>
		</g>
	</g>
	<g>
		<g>
			<path class="st33" d="M520.7,235.1H453v-67.7h67.7V235.1z"/>
			<path class="st34" d="M520.7,235.1h-33.8v-67.7h33.8V235.1z"/>
			<path class="st35" d="M516.8,231.1H457v-59.8h59.8V231.1z"/>
			<path class="st36" d="M516.8,231.1h-29.9v-59.8h29.9V231.1z"/>
			<path class="st33" d="M471.6,214v-22.6h9.6c4.4,0,7.2,4.1,7.2,7.4c0,4.1-3.2,7.4-7,7.4h-5.3v7.6h-4.5V214z M476,202.6h5.1
				c1.6,0,2.8-1.5,2.8-3.6c0-1.9-1.1-3.6-3-3.6H476C476,195.4,476,202.6,476,202.6z"/>
			<g>
				<path class="st34" d="M497.2,214.2c-3.8,0-6.5-1.7-7.6-2.6l1.6-2.7c1,0.7,3.4,2.1,5.9,2.1c1.6,0,2.7-0.7,2.7-1.8
					c0-1.5-2.4-1.9-3.6-2.3c-1.1-0.3-6-1-6-4.6c0-3.5,3-5.5,6.5-5.5c3.6,0,5.6,1.5,6.5,2.3l-1.7,2.6c-0.9-0.7-2.7-1.8-4.9-1.8
					c-1.6,0-2.6,0.7-2.6,1.9c0,1.5,2.7,1.9,3.3,2.1c1.1,0.3,6.4,1.1,6.4,5C504,213.6,499.4,214.2,497.2,214.2z"/>
				<path class="st34" d="M486.9,194.4v9.1c0.9-1.2,1.5-2.9,1.5-4.6C488.3,197.4,487.9,195.7,486.9,194.4z"/>
			</g>
		</g>
	</g>
	<g>
		<path class="st37" d="M641.1,235.1h-67.7v-67.7h67.7V235.1z"/>
		<path class="st38" d="M641.1,235.1h-33.8v-67.7h33.8V235.1z"/>
		<path class="st39" d="M637.1,231.1h-59.8v-59.8h59.8V231.1z"/>
		<path class="st40" d="M637.1,231.1h-29.9v-59.8h29.9V231.1z"/>
		<path class="st37" d="M592.8,191.4l5.6,8.3l5.6-8.3h4.7l-8,11.4l7.8,11.1h-4.7l-5.3-8l-5.4,8h-4.7l7.8-11.1l-8-11.4H592.8z"/>
		<g>
			<path class="st38" d="M616.5,214.2c-4.9,0-7.9-4.1-7.9-8.7c0-5.2,3.5-8.6,7.4-8.6c3.4,0,5.1,2.3,5.6,3.2v-9.5h4.3v18.3
				c0,0.5,0.7,1.2,1,1.2v3.6c-0.8,0.1-1.4,0.2-1.8,0.2c-3,0-2.8-3.2-2.8-3.2C621.6,212.1,619.8,214.2,616.5,214.2z M617.6,210.6
				c2.7,0,3.8-2.4,4.1-2.8v-3.9c-0.2-0.5-1.7-3.3-4.3-3.3c-2.9,0-4.4,2.8-4.4,5.1C613,208.1,614.8,210.6,617.6,210.6z"/>
			<polygon class="st38" points="607.2,191.4 607.2,193.5 608.7,191.4 			"/>
			<polygon class="st38" points="607.2,214 608.5,214 607.2,212.2 			"/>
		</g>
	</g>
	<g id="surface1">
		<path class="st15" d="M828.3,175.8v-12.3H817c-1.2,0-2.2,1-2.2,2.2V177h12.3C827.8,177,828.3,176.4,828.3,175.8"/>
		<path class="st41" d="M863,212.8c-0.3-1.4-0.7-2.6-1.1-3.5l-8-25.1l-3.2-10c-0.2-0.6-0.5-1.1-0.7-1.4c16.2,16,25.8,25.5,31.6,31.2
			v-38.5c0-1.2-1-2.2-2.2-2.2h-51v12.3c0,0.7-0.5,1.2-1.2,1.2h-12.3v51c0,1.2,1,2.2,2.2,2.2h46v-0.1"/>
		<g>
			<defs>
				<rect id="SVGID_1_" x="849.9" y="173" width="31.6" height="57.2"/>
			</defs>
			<clipPath id="SVGID_00000085930428653217907640000016569136255797036977_">
				<use xlink:href="#SVGID_1_"  style="overflow:visible;"/>
			</clipPath>
			<g style="clip-path:url(#SVGID_00000085930428653217907640000016569136255797036977_);">
				<path class="st43" d="M881.6,228v-23.8c-5.7-5.6-15.3-15.2-31.6-31.2c0.3,0.3,0.5,0.7,0.7,1.4l3.2,10l8,25.1
					c0.4,0.9,0.8,2.1,1.1,3.5v17.4h16.4C880.6,230.2,881.6,229.2,881.6,228"/>
			</g>
		</g>
		<path class="st44" d="M850.7,174.4l3.2,10h-3.4c0,0-0.9-9.6-2.2-11.4c0.5-0.4,1.1-0.5,1.6,0c0,0,0.1,0.1,0.1,0.1
			C850.3,173.3,850.5,173.7,850.7,174.4"/>
		<path class="st45" d="M850.5,184.3h-6.4l3.2-10c0.2-0.5,0.5-1.1,1-1.5C849.6,174.7,850.5,184.3,850.5,184.3"/>
		<path class="st46" d="M853.9,184.3l8,25.1c-2.3-5.1-5.5-2.4-7.1,5.4l-4.3-30.5"/>
		<path class="st47" d="M850.5,184.3l4.3,30.5c-3.3-12.8-9.8-8.1-11.7,0c-3.2-12.6-6-8-7.4-4.4l8.4-26.1"/>
		<g>
			<defs>
				<rect id="SVGID_00000151528907717010012320000012552842444422915227_" x="854.7" y="206.6" width="8.4" height="23.6"/>
			</defs>
			<clipPath id="SVGID_00000016753475714179545400000014814649693473529529_">
				<use xlink:href="#SVGID_00000151528907717010012320000012552842444422915227_"  style="overflow:visible;"/>
			</clipPath>
			<g style="clip-path:url(#SVGID_00000016753475714179545400000014814649693473529529_);">
				<path class="st49" d="M863,212.9v17.3h-8.3v-15.4c1.7-7.8,4.9-10.5,7.1-5.4C862.3,210.3,862.7,211.5,863,212.9"/>
			</g>
		</g>
		<g>
			<defs>
				<rect id="SVGID_00000111902732599876012820000017950687961445217449_" x="843" y="206.6" width="12.1" height="23.6"/>
			</defs>
			<clipPath id="SVGID_00000057114335972449342970000013851867176807283129_">
				<use xlink:href="#SVGID_00000111902732599876012820000017950687961445217449_"  style="overflow:visible;"/>
			</clipPath>
			<g style="clip-path:url(#SVGID_00000057114335972449342970000013851867176807283129_);">
				<path class="st51" d="M854.7,214.8v15.4H843v-15.4C844.9,206.7,851.4,202,854.7,214.8"/>
			</g>
		</g>
		<g>
			<defs>
				<rect id="SVGID_00000123439820650086074030000000526218193312596385_" x="834.6" y="206.3" width="8.8" height="24"/>
			</defs>
			<clipPath id="SVGID_00000033369777058271357730000017000655858908233358_">
				<use xlink:href="#SVGID_00000123439820650086074030000000526218193312596385_"  style="overflow:visible;"/>
			</clipPath>
			<g style="clip-path:url(#SVGID_00000033369777058271357730000017000655858908233358_);">
				<path class="st53" d="M843,214.8v15.4h-8.2v-17.2c0,0,0.3-1.2,0.8-2.6l0-0.1C837,206.8,839.8,202.2,843,214.8"/>
			</g>
		</g>
		<path class="st54" d="M822.5,164.9h-2.7l4.1,9.2h2.6L822.5,164.9z"/>
		<path class="st54" d="M816.7,171.2l2.5-5.8l1.1,2v1l-1.1,2.8"/>
		<path class="st54" d="M819.3,174.1l3.1-2.1h-5.6l1.3,2.1H819.3z"/>
	</g>
</g>
</svg>
