<?xml version="1.0" encoding="utf-8"?>
<!-- Generator: Adobe Illustrator 25.0.0, SVG Export Plug-In . SVG Version: 6.00 Build 0)  -->
<svg version="1.1" id="Layer_1" xmlns="http://www.w3.org/2000/svg" xmlns:xlink="http://www.w3.org/1999/xlink" x="0px" y="0px"
	 viewBox="0 0 1500 500" style="enable-background:new 0 0 1500 500;" xml:space="preserve">
<style type="text/css">
	.st0{fill:#F8D9FF;}
	.st1{fill:#F3C0FF;}
	.st2{fill:#723B7F;}
	.st3{fill:#5C3066;}
	.st4{fill:#FEC478;}
	.st5{fill:#FEA832;}
	.st6{fill:#994C0F;}
	.st7{fill:#713708;}
	.st8{fill:#DAFF73;}
	.st9{fill:#AFFC00;}
	.st10{fill:#5D7F00;}
	.st11{fill:#506600;}
	.st12{fill:#F7DF1E;}
	.st13{fill:#CCEFFF;}
	.st14{fill:#ACE3FC;}
	.st15{fill:#57565C;}
	.st16{fill:#3E3D42;}
	.st17{fill:#539E43;}
	.st18{fill:#0C61C6;}
	.st19{fill:#0A4EAF;}
	.st20{fill:#FFFFFF;}
	.st21{fill:#53C1DE;}
	.st22{fill:#CF649A;}
	.st23{fill:#FF80E4;}
	.st24{fill:#FF5AD4;}
	.st25{fill:#7F1363;}
	.st26{fill:#661054;}
	.st27{fill-rule:evenodd;clip-rule:evenodd;fill:url(#SVGID_1_);}
	.st28{fill:url(#SVGID_2_);}
	.st29{fill:url(#SVGID_3_);}
	.st30{fill:url(#SVGID_4_);}
	.st31{fill-rule:evenodd;clip-rule:evenodd;fill:url(#SVGID_5_);}
	.st32{fill:#E44F26;}
	.st33{fill:#F1662A;}
	.st34{fill:#EBEBEB;}
	.st35{fill:#010101;}
	.st36{fill:#131313;}
	.st37{fill:#1572B6;}
	.st38{fill:#33A9DC;}
	.st39{fill-rule:evenodd;clip-rule:evenodd;fill:#439934;}
	.st40{fill-rule:evenodd;clip-rule:evenodd;fill:#45A538;}
	.st41{fill-rule:evenodd;clip-rule:evenodd;fill:#46A037;}
	.st42{fill-rule:evenodd;clip-rule:evenodd;fill:#409433;}
	.st43{fill-rule:evenodd;clip-rule:evenodd;fill:#4FAA41;}
	.st44{fill-rule:evenodd;clip-rule:evenodd;fill:#4AA73C;}
	.st45{fill-rule:evenodd;clip-rule:evenodd;fill:#57AE47;}
	.st46{fill-rule:evenodd;clip-rule:evenodd;fill:#60B24F;}
	.st47{fill-rule:evenodd;clip-rule:evenodd;fill:#A9AA88;}
	.st48{fill-rule:evenodd;clip-rule:evenodd;fill:#B6B598;}
	.st49{fill-rule:evenodd;clip-rule:evenodd;fill:#C2C1A7;}
	.st50{fill-rule:evenodd;clip-rule:evenodd;fill:#CECDB7;}
	.st51{fill-rule:evenodd;clip-rule:evenodd;fill:#DBDAC7;}
	.st52{fill-rule:evenodd;clip-rule:evenodd;fill:#EBE9DC;}
	.st53{fill:#007ACC;}
	.st54{fill-rule:evenodd;clip-rule:evenodd;fill:#181616;}
	.st55{fill:#181616;}
	.st56{fill:none;}
	.st57{fill:#764ABC;}
	.st58{fill-rule:evenodd;clip-rule:evenodd;fill:#FFFFFF;}
	.st59{fill-rule:evenodd;clip-rule:evenodd;fill:#FFFFFF;filter:url(#Adobe_OpacityMaskFilter);}
	.st60{mask:url(#mask0_1_);}
	.st61{fill:#0065A9;}
	.st62{fill:#1F9CF0;}
	.st63{opacity:0.25;}
	.st64{fill-rule:evenodd;clip-rule:evenodd;fill:url(#SVGID_6_);}
</style>
<g>
	<g>
		<path class="st0" d="M733.4,120.5h-60v-60h60V120.5z"/>
		<path class="st1" d="M733.4,120.5h-30v-60h30V120.5z"/>
		<path class="st2" d="M729.9,117h-53V64h53V117z"/>
		<path class="st3" d="M729.9,117h-26.5V64h26.5V117z"/>
		<path class="st0" d="M693.7,81.8h3.4l7.6,20h-4l-1.9-5h-7l-1.8,5h-4L693.7,81.8z M698.1,94l-2.7-7.8l-2.9,7.8H698.1z"/>
		<g>
			<path class="st1" d="M713,102c-4.7,0-7.8-3.5-7.8-7.6c0-3.7,2.5-7.7,7.8-7.7c3.7,0,7.7,2.5,7.7,7.6c0,0.2,0,1.1-0.1,1.3h-11.4
				c0.1,0.6,0.7,3.7,3.9,3.7c2.1,0,3.2-1.4,3.5-2l3.2,0.9C719.3,99.3,717.4,102,713,102z M716.8,93.1c-0.2-2.4-1.9-3.7-3.9-3.7
				s-3.6,1.5-3.8,3.7H716.8z"/>
			<polygon class="st1" points="703.4,98.4 703.4,101.8 704.7,101.8 			"/>
		</g>
	</g>
</g>
<g>
	<g>
		<path class="st4" d="M284.2,124h-60V64h60V124z"/>
		<path class="st5" d="M284.2,124h-30V64h30V124z"/>
		<path class="st6" d="M280.7,120.5h-53v-53h53V120.5z"/>
		<path class="st7" d="M280.7,120.5h-26.5v-53h26.5V120.5z"/>
		<path class="st4" d="M248.5,85.3h3.4l7.6,20h-4l-1.9-5h-7l-1.8,5h-4L248.5,85.3z M253,97.5l-2.8-7.8l-2.9,7.8H253z"/>
		<g>
			<path class="st5" d="M261.4,88.5v-3.7h3.8v3.7H261.4z M261.4,105.3V90.5h3.8v14.7L261.4,105.3L261.4,105.3z"/>
			<polygon class="st5" points="254.2,91.2 254.2,101.6 255.5,105.3 259.5,105.3 			"/>
		</g>
	</g>
</g>
<g>
	<g>
		<path class="st8" d="M847.7,123h-60V63h60V123z"/>
		<path class="st9" d="M847.7,123h-30V63h30V123z"/>
		<path class="st10" d="M844.2,119.5h-53v-53h53V119.5z"/>
		<path class="st11" d="M844.2,119.5h-26.5v-53h26.5V119.5z"/>
		<g>
			<path class="st8" d="M835.9,89.5h3.6l-6.2,14.7h-3.1l-2.5-6.4l-2.5,6.5h-3.1L816,89.6h3.5l4.4,11.2l1.8-4.8l-2.6-6.4h3l1.5,4.5
				l1.6-4.5h3l-2.5,6.3l1.8,4.8L835.9,89.5z"/>
			<path class="st8" d="M797.8,104.3v-20h7.3c5.9,0,9.8,3.9,9.8,10c0,4.9-2.9,10-9.8,10H797.8z M811,94.2c0-4-2.4-6.6-5.9-6.6h-3.4
				v13.2h3.4C808.6,100.8,811,98,811,94.2z"/>
		</g>
		<polygon class="st9" points="835.9,89.5 831.5,100.7 829.7,95.9 832.3,89.5 829.2,89.5 827.7,94.1 826.1,89.5 823.1,89.5 
			825.7,95.9 823.9,100.7 819.5,89.5 817.7,89.5 817.7,93.7 822.1,104.3 825.2,104.3 827.7,97.8 830.2,104.3 833.3,104.3 
			839.4,89.5 		"/>
	</g>
</g>
<g>
	<g>
		<polygon class="st12" points="336.5,220 396.5,220 396.5,280 336.5,280 		"/>
		<path d="M352.2,270.1l4.6-2.8c0.9,1.6,1.7,2.9,3.6,2.9c1.9,0,3-0.7,3-3.5v-19.2h5.6v19.3c0,5.8-3.4,8.5-8.4,8.5
			C356.2,275.3,353.6,273,352.2,270.1 M372.2,269.5l4.6-2.7c1.2,2,2.8,3.4,5.6,3.4c2.3,0,3.8-1.2,3.8-2.8c0-1.9-1.5-2.6-4.1-3.7
			l-1.4-0.6c-4.1-1.7-6.8-3.9-6.8-8.5c0-4.2,3.2-7.5,8.3-7.5c3.6,0,6.2,1.2,8,4.5l-4.4,2.8c-1-1.7-2-2.4-3.6-2.4
			c-1.7,0-2.7,1-2.7,2.4c0,1.7,1,2.4,3.5,3.4l1.4,0.6c4.8,2.1,7.5,4.1,7.5,8.9c0,5.1-4,7.9-9.3,7.9
			C377.2,275.3,373.8,272.8,372.2,269.5"/>
	</g>
</g>
<g>
	<g>
		<path class="st13" d="M621.1,123h-60V63h60V123z"/>
		<path class="st14" d="M621.1,123h-30V63h30V123z"/>
		<path class="st15" d="M617.6,119.5h-53v-53h53V119.5z"/>
		<path class="st16" d="M617.6,119.5h-26.5v-53h26.5V119.5z"/>
		<path class="st13" d="M580,104.3v-20h3.9v16.6h10.2v3.4C594.1,104.3,580,104.3,580,104.3z"/>
		<g>
			<path class="st14" d="M604.9,92.8c-3.3,0-4.6,1.7-5,2.6v8.9h-3.8V89.5h3.5v3.1c0.3-0.5,1.9-3.7,5.3-3.3V92.8L604.9,92.8z"/>
			<rect x="591.1" y="100.8" class="st14" width="3" height="3.4"/>
		</g>
	</g>
</g>
<g>
	<g>
		<path class="st17" d="M591.8,282.9c-0.9,0-1.8-0.2-2.5-0.7l-8-4.7c-1.2-0.7-0.7-0.9-0.2-1c1.7-0.6,2-0.7,3.6-1.7
			c0.2-0.1,0.4,0,0.7,0l6.2,3.7c0.2,0.1,0.6,0.1,0.8,0l24.1-14c0.2-0.1,0.3-0.3,0.3-0.7v-28c0-0.3-0.1-0.6-0.3-0.7l-24.4-13.6
			c-0.2-0.1-0.6-0.1-0.8,0l-24.1,13.9c-0.2,0.1-0.3,0.4-0.3,0.7V264c0,0.2,0.1,0.6,0.3,0.7l6.6,3.9c3.5,1.9,5.8-0.3,5.8-2.4v-27.7
			c0-0.3,0.3-0.8,0.8-0.8h3.1c0.3,0,0.8,0.3,0.8,0.8V266c0,4.7-2.6,7.6-7.2,7.6c-1.4,0-2.4,0-5.5-1.5l-6.4-3.6
			c-1.5-0.9-2.5-2.6-2.5-4.4v-28c0-1.9,1-3.5,2.5-4.4l24-14c1.5-0.9,3.5-0.9,5.1,0l24.1,14c1.5,0.9,2.5,2.6,2.5,4.4V264
			c0,1.9-1,3.5-2.5,4.4l-24.1,14C593.6,282.8,592.7,282.9,591.8,282.9z M599.3,263.8c-10.6,0-12.8-4.8-12.8-8.9
			c0-0.3,0.3-0.8,0.8-0.8h3.2c0.3,0,0.7,0.2,0.7,0.7c0.4,3.2,1.9,4.7,8.3,4.7c5.1,0,7.3-1.1,7.3-3.9c0-1.5-0.7-2.8-8.6-3.5
			c-6.6-0.7-10.7-2.1-10.7-7.4c0-5,4.1-7.8,11-7.8c7.7,0,11.6,2.6,12,8.5c0,0.2,0,0.3-0.2,0.6c-0.1,0.1-0.3,0.2-0.4,0.2h-3.2
			c-0.3,0-0.7-0.2-0.7-0.6c-0.8-3.3-2.6-4.4-7.6-4.4c-5.5,0-6.3,2-6.3,3.4c0,1.8,0.8,2.3,8.3,3.3s11,2.3,11,7.6
			C611.3,260.7,606.9,263.8,599.3,263.8z"/>
	</g>
</g>
<g>
	<g>
		<path class="st13" d="M396.5,123.6h-60v-60h60V123.6z"/>
		<path class="st14" d="M396.5,123.6h-30v-60h30V123.6z"/>
		<path class="st18" d="M393,120.1h-53v-53h53V120.1z"/>
		<path class="st19" d="M393,120.1h-26.5v-53H393V120.1z"/>
		<path class="st13" d="M353,104.9v-20h8.5c3.9,0,6.4,3.6,6.4,6.6c0,3.6-2.8,6.6-6.2,6.6H357v6.7L353,104.9L353,104.9z M356.9,94.8
			h4.5c1.4,0,2.5-1.3,2.5-3.2c0-1.7-1-3.2-2.7-3.2h-4.3C356.9,88.4,356.9,94.8,356.9,94.8z"/>
		<g>
			<path class="st14" d="M375.7,105.1c-3.4,0-5.8-1.5-6.7-2.3l1.4-2.4c0.9,0.6,3,1.9,5.2,1.9c1.4,0,2.4-0.6,2.4-1.6
				c0-1.3-2.1-1.7-3.2-2c-1-0.3-5.3-0.9-5.3-4.1c0-3.1,2.7-4.9,5.8-4.9c3.2,0,5,1.3,5.8,2l-1.5,2.3c-0.8-0.6-2.4-1.6-4.3-1.6
				c-1.4,0-2.3,0.6-2.3,1.7c0,1.3,2.4,1.7,2.9,1.9c1,0.3,5.7,1,5.7,4.4C381.7,104.6,377.6,105.1,375.7,105.1z"/>
			<path class="st14" d="M366.5,87.5v8.1c0.8-1.1,1.3-2.6,1.3-4.1C367.8,90.2,367.4,88.7,366.5,87.5z"/>
		</g>
	</g>
</g>
<g>
	<g>
		<path class="st20" d="M670.7,249.9c0,5,4.9,9.7,12.7,12.4c-1.5,7.8-0.3,14.1,4,16.5c4.4,2.5,10.9,0.8,17-4.6
			c6,5.2,12.1,7.2,16.3,4.8c4.4-2.5,5.7-9.2,4.1-17.3c8.1-2.7,12.7-6.7,12.7-11.8c0-4.9-4.9-9.2-12.6-11.8
			c1.7-8.4,0.2-14.5-4.2-17.1c-4.3-2.5-10.4-0.3-16.5,5c-6.4-5.6-12.4-7.4-16.9-4.8c-4.2,2.5-5.4,8.9-3.9,16.8
			C675.9,240.6,670.7,245,670.7,249.9z"/>
		<path class="st21" d="M723.3,240.7c-0.6-0.2-1.3-0.4-1.9-0.6c0.1-0.4,0.2-0.9,0.3-1.3c1.4-7,0.5-12.7-2.7-14.5
			c-3.1-1.8-8.1,0.1-13.3,4.5c-0.5,0.4-1,0.9-1.5,1.4c-0.3-0.3-0.6-0.6-1-0.9c-5.4-4.8-10.7-6.8-13.9-4.9c-3.1,1.8-4,7.1-2.7,13.7
			c0.1,0.7,0.3,1.3,0.4,2c-0.8,0.2-1.5,0.4-2.2,0.7c-6.3,2.2-10.3,5.6-10.3,9.2c0,3.7,4.3,7.4,10.8,9.6c0.5,0.2,1.1,0.3,1.6,0.5
			c-0.2,0.7-0.3,1.4-0.5,2.1c-1.2,6.5-0.3,11.7,2.8,13.5c3.2,1.8,8.5-0.1,13.7-4.6c0.4-0.4,0.8-0.7,1.2-1.1c0.5,0.5,1.1,1,1.6,1.5
			c5,4.3,10,6.1,13.1,4.3c3.2-1.8,4.2-7.4,2.9-14.2c-0.1-0.5-0.2-1-0.4-1.6c0.4-0.1,0.7-0.2,1.1-0.3c6.8-2.3,11.2-5.9,11.2-9.6
			C733.8,246.3,729.7,242.9,723.3,240.7L723.3,240.7z"/>
		<path class="st20" d="M721.8,257.1c-0.3,0.1-0.7,0.2-1,0.3c-0.8-2.4-1.8-4.9-3-7.5c1.2-2.5,2.2-5,2.9-7.4c0.6,0.2,1.2,0.4,1.8,0.6
			c5.5,1.9,8.8,4.7,8.8,6.8C731.3,252.2,727.7,255.2,721.8,257.1L721.8,257.1z M719.4,261.9c0.6,3,0.7,5.7,0.3,7.8
			c-0.4,1.9-1.1,3.2-1.9,3.7c-1.9,1.1-5.9-0.3-10.2-4c-0.5-0.4-1-0.9-1.5-1.4c1.7-1.8,3.3-4,5-6.3c2.9-0.3,5.6-0.7,8-1.2
			C719.2,261,719.3,261.5,719.4,261.9L719.4,261.9z M694.7,273.3c-1.8,0.6-3.3,0.7-4.2,0.2c-1.9-1.1-2.6-5.2-1.6-10.8
			c0.1-0.7,0.3-1.3,0.4-2c2.4,0.5,5.1,0.9,8,1.2c1.6,2.3,3.4,4.4,5.1,6.3c-0.4,0.4-0.7,0.7-1.1,1
			C699.1,271.1,696.8,272.5,694.7,273.3L694.7,273.3z M686.2,257.1c-2.9-1-5.3-2.3-6.9-3.7c-1.5-1.2-2.2-2.5-2.2-3.5
			c0-2.2,3.2-4.9,8.6-6.8c0.7-0.2,1.4-0.4,2-0.6c0.7,2.4,1.7,4.9,2.9,7.5c-1.2,2.6-2.2,5.2-2.9,7.6
			C687.2,257.4,686.7,257.3,686.2,257.1z M689.1,237.6c-1.1-5.7-0.4-10,1.5-11.1c2-1.1,6.4,0.5,11,4.6c0.3,0.3,0.6,0.5,0.9,0.8
			c-1.7,1.8-3.4,4-5,6.2c-2.8,0.3-5.5,0.7-7.9,1.2C689.3,238.8,689.2,238.2,689.1,237.6L689.1,237.6z M714.6,243.9
			c-0.6-1-1.2-2-1.8-3c1.9,0.2,3.7,0.6,5.4,0.9c-0.5,1.6-1.1,3.3-1.9,5.1C715.8,246,715.2,244.9,714.6,243.9L714.6,243.9z
			 M704.2,233.8c1.2,1.3,2.3,2.7,3.5,4.2c-2.3-0.1-4.7-0.1-7,0C701.8,236.5,703,235,704.2,233.8L704.2,233.8z M693.7,243.9
			c-0.6,1-1.1,2-1.7,3.1c-0.7-1.7-1.4-3.5-1.9-5.1c1.7-0.4,3.5-0.7,5.4-0.9C694.9,241.9,694.3,242.9,693.7,243.9z M695.6,259.1
			c-1.9-0.2-3.8-0.5-5.5-0.9c0.5-1.7,1.2-3.4,1.9-5.2c0.5,1,1.1,2.1,1.7,3.1C694.3,257.1,694.9,258.1,695.6,259.1z M704.3,266.2
			c-1.2-1.2-2.4-2.7-3.6-4.2c1.1,0,2.3,0.1,3.5,0.1s2.4,0,3.6-0.1C706.6,263.5,705.4,265,704.3,266.2z M716.3,252.9
			c0.8,1.8,1.5,3.6,2,5.2c-1.7,0.4-3.6,0.7-5.5,0.9c0.6-1,1.2-2,1.8-3C715.2,255,715.8,253.9,716.3,252.9L716.3,252.9z M712.4,254.7
			c-0.9,1.6-1.8,3.1-2.8,4.6c-1.8,0.1-3.6,0.2-5.4,0.2s-3.6-0.1-5.4-0.2c-1-1.5-2-3-2.9-4.6c-0.9-1.6-1.7-3.2-2.5-4.8
			c0.8-1.6,1.6-3.2,2.5-4.8l0,0c0.9-1.6,1.9-3.1,2.9-4.6c1.8-0.1,3.6-0.2,5.4-0.2s3.6,0.1,5.4,0.2c1,1.5,2,3,2.9,4.6
			c0.9,1.6,1.8,3.1,2.6,4.8C714.2,251.6,713.3,253.2,712.4,254.7L712.4,254.7z M717.7,226.5c2,1.1,2.8,5.8,1.5,11.8
			c-0.1,0.4-0.2,0.8-0.3,1.2c-2.5-0.6-5.1-1-7.9-1.3c-1.6-2.3-3.3-4.4-5-6.3c0.4-0.4,0.9-0.8,1.4-1.3
			C711.7,226.9,715.8,225.4,717.7,226.5L717.7,226.5z"/>
		<path class="st21" d="M704.2,244.6c2.9,0,5.3,2.4,5.3,5.3c0,2.9-2.4,5.3-5.3,5.3c-2.9,0-5.3-2.4-5.3-5.3
			C698.9,247,701.2,244.6,704.2,244.6"/>
	</g>
</g>
<g>
	<path class="st22" d="M839.3,253.7c-2.1,0-3.9,0.5-5.4,1.3c-0.6-1.1-1.1-2.1-1.2-2.8c-0.1-0.8-0.2-1.4-0.1-2.4s0.7-2.4,0.7-2.5
		c0-0.1-0.1-0.6-1.3-0.6c-1.2,0-2.2,0.2-2.4,0.5c-0.1,0.3-0.4,1-0.5,1.8c-0.2,1.1-2.4,5-3.7,7c-0.4-0.8-0.8-1.5-0.8-2.1
		c-0.1-0.8-0.2-1.4-0.1-2.4c0.1-1,0.7-2.4,0.7-2.5c0-0.1-0.1-0.6-1.3-0.6c-1.2,0-2.2,0.2-2.4,0.5c-0.1,0.3-0.2,1.1-0.5,1.8
		c-0.2,0.7-3.2,7.2-3.9,8.9c-0.4,0.9-0.7,1.6-1,2s0,0,0,0.1c-0.2,0.4-0.3,0.6-0.3,0.6v0c-0.2,0.3-0.3,0.6-0.4,0.6
		c-0.1,0-0.2-0.8,0-1.9c0.4-2.3,1.5-5.8,1.5-5.9c0-0.1,0.2-0.7-0.7-1c-0.9-0.3-1.2,0.2-1.2,0.2s-0.1,0.2-0.1,0.2s0.9-4-1.8-4
		c-1.7,0-4.1,1.9-5.3,3.6c-0.7,0.4-2.3,1.3-4,2.2c-0.6,0.4-1.3,0.7-1.9,1.1l-0.1-0.1c-3.3-3.6-9.5-6.1-9.3-10.9
		c0.1-1.7,0.7-6.3,11.9-11.9c9.2-4.6,16.5-3.3,17.8-0.5c1.8,4-3.9,11.4-13.4,12.4c-3.6,0.4-5.5-1-6-1.5c-0.5-0.5-0.6-0.6-0.8-0.5
		c-0.3,0.2-0.1,0.7,0,0.9c0.3,0.7,1.5,2,3.4,2.7c1.7,0.6,6,0.9,11.1-1.1c5.8-2.2,10.3-8.4,8.9-13.6c-1.3-5.3-10.1-7-18.4-4.1
		c-4.9,1.8-10.3,4.5-14.1,8.1c-4.6,4.3-5.3,8-5,9.5c1.1,5.5,8.7,9.1,11.7,11.8c-0.2,0.1-0.3,0.2-0.4,0.2c-1.5,0.7-7.3,3.8-8.8,7
		c-1.6,3.6,0.3,6.2,1.5,6.6c3.9,1.1,7.9-0.9,10.1-4.1c2.2-3.2,1.9-7.4,0.9-9.3l0-0.1l1.2-0.7c0.8-0.5,1.5-0.9,2.2-1.2
		c-0.4,1-0.6,2.2-0.8,4c-0.2,2.1,0.7,4.7,1.8,5.8c0.5,0.5,1.1,0.5,1.4,0.5c1.3,0,1.9-1.1,2.5-2.3c0.8-1.6,1.5-3.4,1.5-3.4
		s-0.9,4.9,1.5,4.9c0.9,0,1.8-1.1,2.2-1.7v0c0,0,0,0,0.1-0.1c0.1-0.1,0.1-0.2,0.1-0.2v0c0.4-0.6,1.1-2,2.3-4.3c1.5-3,3-6.7,3-6.7
		s0.1,0.9,0.6,2.4c0.3,0.9,0.8,1.9,1.3,2.8c-0.4,0.5-0.6,0.8-0.6,0.8l0,0c-0.3,0.4-0.6,0.8-0.9,1.2c-1.2,1.4-2.6,3.1-2.8,3.5
		c-0.2,0.5-0.2,1,0.3,1.3c0.3,0.2,0.9,0.3,1.5,0.2c1.1-0.1,1.8-0.3,2.2-0.5c0.6-0.2,1.3-0.5,1.9-1c1.2-0.9,1.9-2.1,1.8-3.7
		c0-0.9-0.3-1.8-0.7-2.6c0.1-0.2,0.2-0.3,0.3-0.5c1.8-2.7,3.3-5.7,3.3-5.7s0.1,0.9,0.6,2.4c0.2,0.8,0.7,1.6,1.1,2.4
		c-1.7,1.4-2.8,3.1-3.2,4.1c-0.7,2-0.2,2.9,0.9,3.1c0.5,0.1,1.1-0.1,1.6-0.3c0.6-0.2,1.3-0.5,2-1c1.2-0.9,2.3-2.1,2.2-3.7
		c0-0.7-0.2-1.5-0.5-2.2c1.5-0.6,3.4-1,5.8-0.7c5.2,0.6,6.2,3.9,6,5.2s-1.3,2.1-1.6,2.3c-0.4,0.2-0.5,0.3-0.4,0.5
		c0,0.2,0.2,0.2,0.5,0.2c0.4-0.1,2.7-1.1,2.8-3.6C847.8,257.2,844.7,253.7,839.3,253.7z M799.2,267.3c-1.7,1.9-4.1,2.6-5.2,2
		c-1.1-0.6-0.7-3.4,1.4-5.4c1.3-1.2,3-2.3,4.1-3c0.2-0.2,0.6-0.4,1.1-0.6c0.1,0,0.1-0.1,0.1-0.1c0.1,0,0.2-0.1,0.3-0.2
		C801.7,262.8,801,265.3,799.2,267.3z M811.7,258.7c-0.6,1.5-1.9,5.2-2.6,5c-0.7-0.2-1.1-3-0.1-5.8c0.5-1.4,1.5-3.1,2-3.8
		c0.9-1.1,2-1.4,2.2-1C813.6,253.7,812.1,257.8,811.7,258.7z M822.1,263.7c-0.3,0.1-0.5,0.2-0.6,0.2c-0.1,0,0.1-0.2,0.1-0.2
		s1.3-1.4,1.8-2c0.3-0.4,0.6-0.8,1-1.3v0.1C824.5,262.1,822.8,263.2,822.1,263.7z M830.1,261.8c-0.2-0.1-0.2-0.6,0.5-1.9
		c0.2-0.5,0.8-1.4,1.8-2.3c0.1,0.4,0.2,0.7,0.2,1C832.5,260.7,831,261.5,830.1,261.8z"/>
</g>
<g>
	<path class="st23" d="M508.8,123.6h-60v-60h60V123.6z"/>
	<path class="st24" d="M508.8,123.6h-30v-60h30V123.6z"/>
	<path class="st25" d="M505.3,120.1h-53v-53h53V120.1z"/>
	<path class="st26" d="M505.3,120.1h-26.5v-53h26.5V120.1z"/>
	<path class="st23" d="M466,84.9l5,7.4l5-7.4h4.2L473.1,95l6.9,9.8h-4.2l-4.7-7.1l-4.8,7.1h-4.2L469,95l-7.1-10.1
		C461.9,84.9,466,84.9,466,84.9z"/>
	<g>
		<path class="st24" d="M487,105.1c-4.3,0-7-3.6-7-7.7c0-4.6,3.1-7.6,6.6-7.6c3,0,4.5,2,5,2.8v-8.4h3.8v16.2c0,0.4,0.6,1.1,0.9,1.1
			v3.2c-0.7,0.1-1.2,0.2-1.6,0.2c-2.7,0-2.5-2.8-2.5-2.8C491.5,103.2,489.9,105.1,487,105.1z M488,101.9c2.4,0,3.4-2.1,3.6-2.5v-3.5
			c-0.2-0.4-1.5-2.9-3.8-2.9c-2.6,0-3.9,2.5-3.9,4.5C483.9,99.7,485.5,101.9,488,101.9z"/>
		<polygon class="st24" points="478.8,84.9 478.8,86.7 480.1,84.9 		"/>
		<polygon class="st24" points="478.8,104.9 479.9,104.9 478.8,103.3 		"/>
	</g>
</g>
<g>
	<g>
		
			<linearGradient id="SVGID_1_" gradientUnits="userSpaceOnUse" x1="-2.0206" y1="498.2839" x2="-1.3844" y2="497.6771" gradientTransform="matrix(151 0 0 -151 354 75444)">
			<stop  offset="0" style="stop-color:#072142"/>
			<stop  offset="0.5242" style="stop-color:#8C2B7A"/>
			<stop  offset="1" style="stop-color:#FF4D5A"/>
		</linearGradient>
		<path class="st27" d="M139.7,237.2v6.4h4.8c0.9,0,1.6,0.7,1.6,1.6s-0.7,1.6-1.6,1.6h-4.8v6.4h4.8c0.9,0,1.6,0.7,1.6,1.6
			s-0.7,1.6-1.6,1.6h-4.8v6.4h4.8c0.9,0,1.6,0.7,1.6,1.6c0,0.9-0.7,1.6-1.6,1.6h-4.8v6.4h4.8c0.9,0,1.6,0.7,1.6,1.6
			c0,0.9-0.7,1.6-1.6,1.6h-4.8v8c0,4.1-3.9,8-8,8h-8v4.8c0,0.9-0.7,1.6-1.6,1.6c-0.9,0-1.6-0.7-1.6-1.6v-4.8H114v4.8
			c0,0.9-0.7,1.6-1.6,1.6c-0.9,0-1.6-0.7-1.6-1.6v-4.8h-6.4v4.8c0,0.9-0.7,1.6-1.6,1.6s-1.6-0.7-1.6-1.6v-4.8h-6.4v4.8
			c0,0.9-0.7,1.6-1.6,1.6c-0.9,0-1.6-0.7-1.6-1.6v-4.8h-6.4v4.8c0,0.9-0.7,1.6-1.6,1.6s-1.6-0.7-1.6-1.6v-4.8h-6.4v4.8
			c0,0.9-0.7,1.6-1.6,1.6s-1.6-0.7-1.6-1.6v-4.8h-8c-4.1,0-8-3.9-8-8c0-0.9,0.7-1.6,1.6-1.6c0.9,0,1.6,0.7,1.6,1.6
			c0,2.3,2.5,4.8,4.8,4.8h67.2c2.3,0,4.8-2.5,4.8-4.8v-67.2c0-2.3-2.5-4.8-4.8-4.8H64.4c-2.3,0-4.8,2.5-4.8,4.8v60.8
			c0,0.9-0.7,1.6-1.6,1.6c-0.9,0-1.6-0.7-1.6-1.6v-1.6h-4.8c-0.9,0-1.6-0.7-1.6-1.6c0-0.9,0.7-1.6,1.6-1.6h4.8V266h-4.8
			c-0.9,0-1.6-0.7-1.6-1.6c0-0.9,0.7-1.6,1.6-1.6h4.8v-6.4h-4.8c-0.9,0-1.6-0.7-1.6-1.6s0.7-1.6,1.6-1.6h4.8v-6.4h-4.8
			c-0.9,0-1.6-0.7-1.6-1.6s0.7-1.6,1.6-1.6h4.8v-6.4h-4.8c-0.9,0-1.6-0.7-1.6-1.6s0.7-1.6,1.6-1.6h4.8v-6.4h-4.8
			c-0.9,0-1.6-0.7-1.6-1.6s0.7-1.6,1.6-1.6h4.8v-8c0-4.1,3.9-8,8-8h8v-4.8c0-0.9,0.7-1.6,1.6-1.6s1.6,0.7,1.6,1.6v4.8H82v-4.8
			c0-0.9,0.7-1.6,1.6-1.6s1.6,0.7,1.6,1.6v4.8h6.4v-4.8c0-0.9,0.7-1.6,1.6-1.6c0.9,0,1.6,0.7,1.6,1.6v4.8h6.4v-4.8
			c0-0.9,0.7-1.6,1.6-1.6s1.6,0.7,1.6,1.6v4.8h6.4v-4.8c0-0.9,0.7-1.6,1.6-1.6c0.9,0,1.6,0.7,1.6,1.6v4.8h6.4v-4.8
			c0-0.9,0.7-1.6,1.6-1.6c0.9,0,1.6,0.7,1.6,1.6v4.8h8c4.1,0,8,3.9,8,8v8h4.8c0.9,0,1.6,0.7,1.6,1.6s-0.7,1.6-1.6,1.6h-4.8v6.4h4.8
			c0.9,0,1.6,0.7,1.6,1.6s-0.7,1.6-1.6,1.6H139.7L139.7,237.2z M78.8,248.4c0-0.7-0.9-1.6-1.6-1.6c-2.5,0-4.8-2.3-4.8-4.8v-12.8
			c0-2.5,2.3-4.8,4.8-4.8h41.6c2.5,0,4.8,2.3,4.8,4.8v25.6c0,2.5-2.3,4.8-4.8,4.8h-5.1c-0.7,1.9-2.4,3.2-4.5,3.2
			c-2.1,0-3.8-1.3-4.5-3.2H93.2c-2.5,0-4.8-2.3-4.8-4.8v-5.1c-1.9-0.7-3.2-2.4-3.2-4.5c0-2.6,2.2-4.8,4.8-4.8s4.8,2.2,4.8,4.8
			c0,2.1-1.3,3.8-3.2,4.5v5.1c0,0.7,0.9,1.6,1.6,1.6h11.5c0.5-1.4,1.5-2.4,2.9-2.9v-10.2c-1.9-0.7-3.2-2.4-3.2-4.5
			c0-2.6,2.2-4.8,4.8-4.8s4.8,2.2,4.8,4.8c0,2.1-1.3,3.8-3.2,4.5v10.2c1.4,0.5,2.4,1.6,2.9,2.9h5.1c0.7,0,1.6-0.9,1.6-1.6v-25.6
			c0-0.7-0.9-1.6-1.6-1.6H77.2c-0.7,0-1.6,0.9-1.6,1.6V242c0,0.7,0.9,1.6,1.6,1.6c2.5,0,4.8,2.3,4.8,4.8c0,2.5-2.3,4.8-4.8,4.8
			c-0.7,0-1.6,0.9-1.6,1.6v16c0,0.7,0.9,1.6,1.6,1.6h3.2c0.7,0,1.6-0.9,1.6-1.6c0-2.5,2.3-4.8,4.8-4.8h6.4c2.5,0,4.8,2.3,4.8,4.8
			c0,0.7,0.9,1.6,1.6,1.6h14.7c0.7-1.9,2.4-3.2,4.5-3.2c2.6,0,4.8,2.2,4.8,4.8c0,2.6-2.2,4.8-4.8,4.8c-2.1,0-3.8-1.3-4.5-3.2H99.6
			c-2.5,0-4.8-2.3-4.8-4.8c0-0.7-0.9-1.6-1.6-1.6h-6.4c-0.7,0-1.6,0.9-1.6,1.6c0,2.5-2.3,4.8-4.8,4.8h-3.2c-2.5,0-4.8-2.3-4.8-4.8
			v-16c0-2.5,2.3-4.8,4.8-4.8C77.9,250,78.8,249.1,78.8,248.4L78.8,248.4z M117.2,274c0,0.9,0.7,1.6,1.6,1.6s1.6-0.7,1.6-1.6
			s-0.7-1.6-1.6-1.6S117.2,273.1,117.2,274L117.2,274z M88.4,245.2c0,0.9,0.7,1.6,1.6,1.6s1.6-0.7,1.6-1.6s-0.7-1.6-1.6-1.6
			S88.4,244.3,88.4,245.2L88.4,245.2z M107.6,238.8c0,0.9,0.7,1.6,1.6,1.6s1.6-0.7,1.6-1.6s-0.7-1.6-1.6-1.6
			S107.6,237.9,107.6,238.8L107.6,238.8z M110.8,258c0-0.9-0.7-1.6-1.6-1.6s-1.6,0.7-1.6,1.6s0.7,1.6,1.6,1.6S110.8,258.9,110.8,258
			L110.8,258z M128.5,282c0.9,0,1.6-0.7,1.6-1.6c0-0.9-0.7-1.6-1.6-1.6h0c-0.9,0-1.6,0.7-1.6,1.6C126.9,281.3,127.6,282,128.5,282
			L128.5,282z M67.7,282c0.9,0,1.6-0.7,1.6-1.6c0-0.9-0.7-1.6-1.6-1.6h0c-0.9,0-1.6,0.7-1.6,1.6C66.1,281.3,66.8,282,67.7,282
			L67.7,282z M128.5,221.2c0.9,0,1.6-0.7,1.6-1.6c0-0.9-0.7-1.6-1.6-1.6h0c-0.9,0-1.6,0.7-1.6,1.6
			C126.9,220.5,127.6,221.2,128.5,221.2L128.5,221.2z M67.7,221.2c0.9,0,1.6-0.7,1.6-1.6c0-0.9-0.7-1.6-1.6-1.6h0
			c-0.9,0-1.6,0.7-1.6,1.6C66.1,220.5,66.8,221.2,67.7,221.2L67.7,221.2z"/>
	</g>
	<g>
		<g>
			
				<linearGradient id="SVGID_2_" gradientUnits="userSpaceOnUse" x1="-316.4469" y1="101.2529" x2="-214.9899" y2="3.6892" gradientTransform="matrix(1 0 0 -1 354 444)">
				<stop  offset="0" style="stop-color:#072142"/>
				<stop  offset="0.5242" style="stop-color:#8C2B7A"/>
				<stop  offset="1" style="stop-color:#FF4D5A"/>
			</linearGradient>
			<path class="st28" d="M109.5,410c-1,0-1.8,0.8-1.8,1.8s0.8,1.8,1.8,1.8c1,0,1.8-0.8,1.8-1.8S110.5,410,109.5,410z"/>
			
				<linearGradient id="SVGID_3_" gradientUnits="userSpaceOnUse" x1="-307.6635" y1="110.3868" x2="-206.2065" y2="12.8231" gradientTransform="matrix(1 0 0 -1 354 444)">
				<stop  offset="0" style="stop-color:#072142"/>
				<stop  offset="0.5242" style="stop-color:#8C2B7A"/>
				<stop  offset="1" style="stop-color:#FF4D5A"/>
			</linearGradient>
			<path class="st29" d="M136.4,346H60.2c-5.2,0-9.3,4.1-9.3,9.3v56.7c0,5.1,4.1,9.3,9.3,9.3h28.9v8.4h-1.9c-2.5,0-4.8,1-6.6,2.7
				c-1.7,1.7-2.7,4.1-2.7,6.6c0,1,0.8,1.8,1.8,1.8h37c1,0,1.8-0.8,1.8-1.8c0-5.1-4.1-9.3-9.3-9.3h-1.8v-8.5h28.9
				c5.1,0,9.3-4.1,9.3-9.3v-56.6C145.7,350.1,141.6,346,136.4,346z M60.2,349.7h76.3c3.1,0,5.5,2.5,5.5,5.5v47.4h-8.5V360
				c0-1-0.8-1.8-1.8-1.8h-14.8c-1,0-1.8,0.8-1.8,1.8v42.6h-9.3c0-1.9-0.1-3.8-0.1-5.7c-0.3-7.6-1.1-12.6-1.5-14.8
				c3.8-2.8,4.8-8,2.5-12.1l-6.4-11c-0.3-0.6-1-1-1.6-1c-0.6,0-1.3,0.4-1.6,1l-6.4,11.1c-2.2,3.8-1.4,8.8,2,11.7
				c-0.4,2.2-1.2,7.4-1.6,15.2c-0.1,1.8-0.1,3.8-0.1,5.7h-9.3v-27.8c0-0.3-0.1-0.6-0.2-0.8l0,0l-7.4-14.8c-0.3-0.6-1-1-1.7-1
				s-1.3,0.4-1.7,1L63.3,374l0,0c-0.1,0.3-0.2,0.5-0.2,0.8v27.8h-8.5v-47.4C54.6,352.1,57.1,349.7,60.2,349.7z M118.7,402.7v-40.7
				h11.1v3.7H128c-1,0-1.8,0.8-1.8,1.8c0,1,0.8,1.8,1.8,1.8h1.8v5.5H128c-1,0-1.8,0.8-1.8,1.8s0.8,1.8,1.8,1.8h1.8v5.5H128
				c-1,0-1.8,0.8-1.8,1.8s0.8,1.8,1.8,1.8h1.8v7.4H128c-1,0-1.8,0.8-1.8,1.8s0.8,1.8,1.8,1.8h1.8v3.7h-11.1V402.7z M98.6,384
				c0.7,0,1.3-0.1,2-0.2c0.3,2.2,0.8,6.1,1.1,11.5h-6.9c0.3-5.3,0.8-9.3,1.2-11.6C96.9,383.9,97.7,384,98.6,384z M98.6,380.3
				c-4.3,0-6.9-4.6-4.8-8.3l4.8-8.3l4.8,8.3C105.6,375.7,102.9,380.3,98.6,380.3z M94.7,398.9h7.3c0.1,1.2,0.1,2.5,0.1,3.7h-7.4
				C94.6,401.4,94.7,400.2,94.7,398.9z M74.3,402.7v-26H78v25.9L74.3,402.7L74.3,402.7z M66.8,402.7v-26h3.7v25.9L66.8,402.7
				L66.8,402.7z M68,373l4.4-8.8l4.5,8.8H68z M114.7,437.1H82c0.3-0.8,0.7-1.5,1.3-2.1c1.1-1,2.4-1.7,3.9-1.7h22.2
				C111.9,433.4,113.9,434.9,114.7,437.1z M103.9,429.6H92.8v-8.5h11.1L103.9,429.6L103.9,429.6z M136.4,417.4H60.2
				c-3.1,0-5.5-2.5-5.5-5.5v-5.5h87.4v5.5C142,414.9,139.5,417.4,136.4,417.4z"/>
			
				<linearGradient id="SVGID_4_" gradientUnits="userSpaceOnUse" x1="-322.6746" y1="94.7767" x2="-221.2175" y2="-2.787" gradientTransform="matrix(1 0 0 -1 354 444)">
				<stop  offset="0" style="stop-color:#072142"/>
				<stop  offset="0.5242" style="stop-color:#8C2B7A"/>
				<stop  offset="1" style="stop-color:#FF4D5A"/>
			</linearGradient>
			<path class="st30" d="M102,410H90.9c-1,0-1.8,0.8-1.8,1.8s0.8,1.8,1.8,1.8h11.1c1,0,1.8-0.8,1.8-1.8S103,410,102,410z"/>
		</g>
	</g>
	<g>
		
			<linearGradient id="SVGID_5_" gradientUnits="userSpaceOnUse" x1="-2.0379" y1="499.2228" x2="-1.4018" y2="498.616" gradientTransform="matrix(149 0 0 -149 354 74444)">
			<stop  offset="0" style="stop-color:#072142"/>
			<stop  offset="0.5242" style="stop-color:#8C2B7A"/>
			<stop  offset="1" style="stop-color:#FF4D5A"/>
		</linearGradient>
		<path class="st31" d="M50.9,108.2V67.1c0-4.1,3.8-7.9,7.9-7.9h9.5c0.9,0,1.6,0.7,1.6,1.6s-0.7,1.6-1.6,1.6h-9.5
			c-2.3,0-4.7,2.4-4.7,4.7v41.1c0,0.9-0.7,1.6-1.6,1.6C51.6,109.8,50.9,109.1,50.9,108.2L50.9,108.2z M137.8,59.2H122
			c-0.9,0-1.6,0.7-1.6,1.6s0.7,1.6,1.6,1.6h15.8c2.3,0,4.7,2.4,4.7,4.7V124c0,2.3-2.4,4.7-4.7,4.7h-79c-2.3,0-4.7-2.4-4.7-4.7v-7.9
			h83.7c0.9,0,1.6-0.7,1.6-1.6s-0.7-1.6-1.6-1.6H52.5c-0.9,0-1.6,0.7-1.6,1.6v9.5c0,4.1,3.8,7.9,7.9,7.9h79c4.1,0,7.9-3.8,7.9-7.9
			V67.1C145.7,63.1,141.8,59.2,137.8,59.2L137.8,59.2z M95.1,122.4c0,1.7,1.4,3.2,3.2,3.2s3.2-1.4,3.2-3.2s-1.4-3.2-3.2-3.2
			S95.1,120.7,95.1,122.4L95.1,122.4z M115.7,150.9h-1.6v-1.6c0-0.9-0.7-1.6-1.6-1.6c-0.9,0-1.6,0.7-1.6,1.6v1.6h-3.2v-1.6
			c0-0.9-0.7-1.6-1.6-1.6c-0.9,0-1.6,0.7-1.6,1.6v1.6h-3.2v-1.6c0-0.9-0.7-1.6-1.6-1.6c-0.9,0-1.6,0.7-1.6,1.6v1.6h-3.2v-1.6
			c0-0.9-0.7-1.6-1.6-1.6c-0.9,0-1.6,0.7-1.6,1.6v1.6h-3.2v-1.6c0-0.9-0.7-1.6-1.6-1.6s-1.6,0.7-1.6,1.6v1.6h-3.2v-1.6
			c0-0.9-0.7-1.6-1.6-1.6s-1.6,0.7-1.6,1.6v1.6h-3.2v-1.6c0-0.9-0.7-1.6-1.6-1.6c-0.9,0-1.6,0.7-1.6,1.6v1.6h-3.2v-1.6
			c0-0.9-0.7-1.6-1.6-1.6c-0.9,0-1.6,0.7-1.6,1.6v1.6h-3.2v-1.6c0-0.9-0.7-1.6-1.6-1.6c-0.9,0-1.6,0.7-1.6,1.6v1.6h-1.6
			c-0.9,0-1.6,0.7-1.6,1.6c0,0.9,0.7,1.6,1.6,1.6h56.9c0.9,0,1.6-0.7,1.6-1.6C117.2,151.6,116.5,150.9,115.7,150.9L115.7,150.9z
			 M92,143v-6.3c0-0.9-0.7-1.6-1.6-1.6c-0.9,0-1.6,0.7-1.6,1.6v6.3c0,0.9,0.7,1.6,1.6,1.6C91.3,144.5,92,143.8,92,143L92,143z
			 M106.2,144.5c0.9,0,1.6-0.7,1.6-1.6v-6.3c0-0.9-0.7-1.6-1.6-1.6c-0.9,0-1.6,0.7-1.6,1.6v6.3C104.6,143.8,105.3,144.5,106.2,144.5
			L106.2,144.5z M139.4,150.9v1.6c0,0.9-0.7,1.6-1.6,1.6h-12.6c-0.9,0-1.6-0.7-1.6-1.6v-1.6c0-3.5,2.8-6.3,6.3-6.3h3.2
			C136.5,144.5,139.4,147.4,139.4,150.9L139.4,150.9z M136.2,150.9c0-1.7-1.4-3.2-3.2-3.2h-3.2c-1.7,0-3.2,1.4-3.2,3.2H136.2
			L136.2,150.9z M106.2,109.8c0.9,0,1.6-0.7,1.6-1.6V73.9l6.3-10.1l5,8.1h-6.6c-0.9,0-1.6,0.7-1.6,1.6s0.7,1.6,1.6,1.6h9.5
			c0.6,0,1.1-0.3,1.4-0.8c0.3-0.5,0.3-1.1,0-1.6L115.4,60c-0.6-0.9-2.1-0.9-2.7,0l-7.9,12.6c-0.2,0.3-0.2,0.5-0.2,0.8v34.8
			C104.6,109.1,105.3,109.8,106.2,109.8L106.2,109.8z M74.6,109.8h9.5c0.9,0,1.6-0.7,1.6-1.6c0-0.9-0.7-1.6-1.6-1.6h-7.9v-3.2h1.6
			c0.9,0,1.6-0.7,1.6-1.6s-0.7-1.6-1.6-1.6h-1.6v-3.2h1.6c0.9,0,1.6-0.7,1.6-1.6c0-0.9-0.7-1.6-1.6-1.6h-1.6v-3.2h7.9
			c0.9,0,1.6-0.7,1.6-1.6c0-0.9-0.7-1.6-1.6-1.6h-7.9v-3.2h1.6c0.9,0,1.6-0.7,1.6-1.6s-0.7-1.6-1.6-1.6h-1.6v-3.2h1.6
			c0.9,0,1.6-0.7,1.6-1.6S78.6,75,77.7,75h-1.6v-3.2h7.9c0.9,0,1.6-0.7,1.6-1.6c0-0.9-0.7-1.6-1.6-1.6h-7.9v-6.3h22.1v45.8
			c0,0.9,0.7,1.6,1.6,1.6c0.9,0,1.6-0.7,1.6-1.6V60.8c0-0.9-0.7-1.6-1.6-1.6H74.6c-0.9,0-1.6,0.7-1.6,1.6v47.4
			C73,109.1,73.7,109.8,74.6,109.8L74.6,109.8z M122,78.2c-0.9,0-1.6,0.7-1.6,1.6v28.4c0,0.9,0.7,1.6,1.6,1.6c0.9,0,1.6-0.7,1.6-1.6
			V79.8C123.6,78.9,122.9,78.2,122,78.2L122,78.2z M112.5,79.8v28.4c0,0.9,0.7,1.6,1.6,1.6c0.9,0,1.6-0.7,1.6-1.6V79.8
			c0-0.9-0.7-1.6-1.6-1.6C113.2,78.2,112.5,78.9,112.5,79.8L112.5,79.8z"/>
	</g>
</g>
<g>
	<g>
		<g>
			<polygon class="st32" points="228.3,267.3 225.2,232.5 259.3,232.5 256.2,267.3 242.3,271.1 			"/>
			<polygon class="st33" points="242.3,268.2 253.6,265.1 256.2,235.3 242.3,235.3 			"/>
			<polygon class="st34" points="242.3,248.2 236.6,248.2 236.2,243.9 242.3,243.9 242.3,239.6 242.3,239.6 231.6,239.6 
				231.7,240.7 232.7,252.5 242.3,252.5 			"/>
			<polygon class="st34" points="242.3,259.3 242.3,259.3 237.5,258 237.2,254.6 234.9,254.6 232.9,254.6 233.5,261.3 242.3,263.8 
				242.3,263.8 			"/>
			<polygon class="st35" points="228.4,223 230.6,223 230.6,225.1 232.6,225.1 232.6,223 234.7,223 234.7,229.5 232.6,229.5 
				232.6,227.3 230.6,227.3 230.6,229.5 228.4,229.5 			"/>
			<polygon class="st35" points="237.6,225.2 235.7,225.2 235.7,223 241.7,223 241.7,225.2 239.7,225.2 239.7,229.5 237.6,229.5 			
				"/>
			<polygon class="st35" points="242.6,223 244.9,223 246.3,225.3 247.7,223 249.9,223 249.9,229.5 247.8,229.5 247.8,226.3 
				246.3,228.6 246.2,228.6 244.7,226.3 244.7,229.5 242.6,229.5 			"/>
			<polygon class="st35" points="251,223 253.2,223 253.2,227.3 256.2,227.3 256.2,229.5 251,229.5 			"/>
			<polygon class="st20" points="242.3,248.2 242.3,252.5 247.5,252.5 247,258 242.3,259.3 242.3,263.8 251,261.3 251.1,260.6 
				252.1,249.4 252.2,248.2 251,248.2 			"/>
			<polygon class="st20" points="242.3,239.6 242.3,242.2 242.3,243.8 242.3,243.9 252.6,243.9 252.6,243.9 252.6,243.9 
				252.7,242.9 252.9,240.7 253,239.6 			"/>
		</g>
		<g transform="translate(26.008 5.817)">
			<path class="st36" d="M252.1,224.8h-2.8l2.9,3.2v1.5h-6.1v-1.8h2.9l-2.9-3.2V223h6V224.8z M244.9,224.8h-2.8l2.9,3.2v1.5H239
				v-1.8h2.9l-2.9-3.2V223h6V224.8z M237.8,224.9h-3.1v2.8h3.1v1.9h-5.2V223h5.2V224.9z"/>
			<polygon class="st37" points="228.4,267.3 225.3,232.5 259.4,232.5 256.3,267.3 242.4,271.2 			"/>
			<polygon class="st38" points="242.4,268.2 253.7,265.1 256.3,235.3 242.4,235.3 			"/>
			<g transform="translate(6.274 16.198)">
				<polygon class="st20" points="236.1,231.8 241.8,231.8 242.2,227.4 236.1,227.4 236.1,223.1 236.1,223.1 246.8,223.1 
					246.7,224.3 245.7,236 236.1,236 				"/>
				<polygon class="st34" points="236.1,242.8 236.1,242.9 231.4,241.6 231.1,238.2 228.8,238.2 226.8,238.2 227.4,244.9 
					236.1,247.3 236.1,247.3 				"/>
				<polygon class="st20" points="241.4,235.8 240.9,241.6 236.1,242.9 236.1,247.3 244.9,244.9 244.9,244.1 245.7,235.8 				"/>
				<polygon class="st34" points="236.1,223.1 236.1,225.8 236.1,227.4 236.1,227.4 225.8,227.4 225.8,227.4 225.8,227.4 
					225.7,226.4 225.5,224.3 225.4,223.1 				"/>
				<polygon class="st34" points="236.1,231.8 236.1,234.4 236.1,236 236.1,236 231.4,236 231.4,236 231.4,236 231.3,235.1 
					231.1,232.9 231,231.8 				"/>
			</g>
		</g>
	</g>
</g>
<g>
	<path class="st39" d="M1084.7,239.2c0.8,2.2,1.3,4.5,1.5,6.8c0.2,2.9,0.1,5.8-0.5,8.7c0,0.1-0.1,0.2-0.1,0.2c-0.2,0-0.4,0-0.6,0
		c-1.6,0.3-3.2,0.5-4.8,0.8c-1.6,0.3-3.3,0.5-4.9,0.8c-0.6,0.1-1.3,0-1.5,0.8c0,0-0.1,0-0.1,0l0.1-4.8c0-3.9-0.1-7.7-0.1-11.6
		l0.8-0.1c1.3-0.2,2.5-0.4,3.8-0.6c1.5-0.2,3-0.5,4.5-0.7C1083.4,239.4,1084,239.3,1084.7,239.2z"/>
	<path class="st40" d="M1072.1,271.3c-0.8-0.7-1.6-1.4-2.4-2.1c-4.2-3.9-7.2-8.6-8.7-14.1c-0.4-1.5-0.7-3.1-0.8-4.7
		c-0.1-1.1-0.2-2.2-0.1-3.3c0.2-2.9,0.6-5.8,1.5-8.7l0-0.1c0.1,0.1,0.2,0.2,0.2,0.3c0.8,2.5,1.7,5,2.5,7.4
		c2.6,7.8,5.2,15.6,7.8,23.4c0.1,0.2,0.2,0.3,0.3,0.4C1072.5,269.9,1072.1,271.3,1072.1,271.3z"/>
	<path class="st41" d="M1084.7,239.2c-0.7,0.1-1.3,0.2-2,0.3c-1.5,0.2-3,0.5-4.5,0.7c-1.3,0.2-2.5,0.4-3.8,0.6l-0.8,0.1l0-0.5
		c0-0.4-0.1-0.8-0.1-1.2c0-2.6-0.1-5.2-0.1-7.9c0-1.6-0.1-3.3-0.1-4.9c0-1,0-2-0.1-3.1c0-0.5-0.1-1.1-0.1-1.6c0-0.3,0-0.6,0-0.9
		c0.4,0.8,0.8,1.5,1.2,2.3c0.6,1.2,1.6,2.1,2.6,3C1080.6,229.9,1083.1,234.2,1084.7,239.2z"/>
	<path class="st42" d="M1073.7,257.3c0,0,0.1,0,0.1,0c0.2-0.8,1-0.7,1.5-0.8c1.6-0.3,3.3-0.5,4.9-0.8c1.6-0.3,3.2-0.5,4.8-0.8
		c0.2,0,0.4,0,0.6,0c-0.3,1.1-0.5,2.1-0.9,3.2c-0.4,1.2-0.9,2.3-1.5,3.4c-0.8,1.7-1.8,3.2-3,4.7c-0.9,1.1-1.9,2.1-3,3.1
		c-0.6,0.6-1.2,1-1.9,1.5l-0.2-0.1l-0.6-0.5l-0.6-1.3c-0.4-1.5-0.6-3.1-0.7-4.7l0-0.3l0.1-1.2c0-0.4,0.1-0.8,0.1-1.2
		C1073.6,260.2,1073.7,258.8,1073.7,257.3L1073.7,257.3z"/>
	<path class="st43" d="M1073.7,257.3c-0.1,1.4-0.1,2.9-0.2,4.3c0,0.4-0.1,0.8-0.1,1.2l-0.4,0.1c-0.8-2.4-1.6-4.8-2.4-7.1
		c-1.3-3.9-2.6-7.9-3.9-11.8c-1.1-3.2-2.1-6.3-3.2-9.5c-0.1-0.1-0.2-0.3-0.3-0.4l2.3-4.3c0.1,0.1,0.2,0.3,0.2,0.4
		c1.1,3.2,2.2,6.4,3.2,9.6c1.4,4.2,2.8,8.4,4.2,12.5c0.1,0.2,0.1,0.3,0.2,0.5l0.3-0.4C1073.8,254.1,1073.7,255.7,1073.7,257.3z"/>
	<path class="st44" d="M1063.3,234.1c0.1,0.1,0.2,0.2,0.3,0.4c1.1,3.2,2.1,6.3,3.2,9.5c1.3,3.9,2.6,7.9,3.9,11.8
		c0.8,2.4,1.6,4.7,2.4,7.1l0.4-0.1l-0.1,1.2l-0.1,0.3c-0.1,1.3-0.2,2.5-0.4,3.8c-0.1,0.6-0.2,1.3-0.4,1.9c-0.1-0.1-0.2-0.3-0.3-0.4
		c-2.6-7.8-5.2-15.6-7.8-23.4c-0.8-2.5-1.7-5-2.5-7.4c0-0.1-0.2-0.2-0.2-0.3C1062.2,237,1062.7,235.5,1063.3,234.1z"/>
	<path class="st45" d="M1073.8,252.5l-0.3,0.4c-0.1-0.2-0.2-0.3-0.2-0.5c-1.4-4.2-2.8-8.4-4.2-12.5c-1.1-3.2-2.2-6.4-3.2-9.6
		c-0.1-0.2-0.2-0.3-0.2-0.4l2.9-3.8c0.1,0.1,0.2,0.2,0.3,0.4c0.8,2.4,1.6,4.7,2.4,7.1c0.7,2.2,1.5,4.4,2.2,6.6
		c0.1,0.1,0.2,0.3,0.3,0.4l0,0.5C1073.7,244.8,1073.8,248.7,1073.8,252.5z"/>
	<path class="st46" d="M1073.7,240.4c-0.1-0.1-0.3-0.2-0.3-0.4c-0.7-2.2-1.5-4.4-2.2-6.6c-0.8-2.4-1.6-4.7-2.4-7.1
		c0-0.1-0.2-0.2-0.3-0.4c0.9-0.9,1.9-1.9,2.8-2.8c0.9-0.8,1.6-1.6,1.6-2.9c0-0.1,0-0.1,0.1-0.2l0.2,0.6c0,0.3,0,0.6,0,0.9
		c0,0.5,0.1,1.1,0.1,1.6c0,1,0.1,2,0.1,3.1c0,1.6,0.1,3.3,0.1,4.9c0,2.6,0.1,5.2,0.1,7.9C1073.6,239.6,1073.7,240,1073.7,240.4z"/>
	<path class="st47" d="M1072.5,269.9c0.1-0.6,0.3-1.3,0.4-1.9c0.2-1.3,0.3-2.5,0.4-3.8l0,0l0,0c0,1.6,0.3,3.2,0.7,4.7
		c-0.1,0.1-0.2,0.2-0.2,0.3c-0.3,1-0.7,2-1,2.9c0,0.1-0.2,0.2-0.3,0.4l-0.4-1.2C1072.1,271.3,1072.5,269.9,1072.5,269.9z"/>
	<path class="st48" d="M1072.5,272.6c0.1-0.1,0.2-0.2,0.3-0.4c0.3-1,0.7-2,1-2.9c0-0.1,0.2-0.2,0.2-0.3l0.6,1.3
		c-0.1,0.2-0.3,0.3-0.3,0.5l-1.1,3.4c0,0.1-0.2,0.2-0.3,0.3C1072.8,274.5,1072.5,272.6,1072.5,272.6z"/>
	<path class="st49" d="M1072.8,274.5c0.1-0.1,0.3-0.2,0.3-0.3l1.1-3.4c0.1-0.2,0.2-0.3,0.3-0.5l0.6,0.5c-0.3,0.3-0.4,0.6-0.3,1
		l-0.2,0.6c-0.1,0.1-0.2,0.2-0.2,0.3c-0.4,1.1-0.8,2.3-1.2,3.5c-0.1,0.1-0.2,0.3-0.3,0.4C1072.9,275.8,1072.9,275.1,1072.8,274.5
		L1072.8,274.5z"/>
	<path class="st50" d="M1073,276.5c0.1-0.1,0.2-0.2,0.3-0.4c0.4-1.1,0.8-2.3,1.2-3.5c0-0.1,0.2-0.2,0.2-0.3l-0.2,2.7
		c-0.1,0.1-0.2,0.1-0.2,0.2c-0.3,0.8-0.5,1.5-0.8,2.3c-0.1,0.2-0.2,0.3-0.3,0.4c-0.1-0.1-0.2-0.2-0.2-0.3
		C1073,277.3,1073,276.9,1073,276.5z"/>
	<path class="st51" d="M1073.2,278c0.1-0.1,0.2-0.3,0.3-0.4c0.3-0.8,0.5-1.5,0.8-2.3c0-0.1,0.1-0.2,0.2-0.2l0,1.7l-0.6,1.5
		C1073.9,278.2,1073.2,278,1073.2,278z"/>
	<path class="st52" d="M1073.9,278.2l0.6-1.5l0.1,1.8L1073.9,278.2z"/>
	<path class="st50" d="M1074.9,271.7c-0.1-0.4,0.1-0.7,0.3-1l0.2,0.1L1074.9,271.7z"/>
	<path class="st43" d="M1073.4,264.2L1073.4,264.2L1073.4,264.2l0-0.3C1073.4,264,1073.4,264.2,1073.4,264.2z"/>
</g>
<g>
	<g id="original_1_">
		<rect x="459" y="241.3" class="st20" width="47.6" height="35.2"/>
		<path id="original-2_1_" class="st53" d="M448.9,249.4v29.8h59.7v-59.7h-59.7V249.4z M497,247c1.4,0.3,2.7,1.1,3.7,2.1
			c0.6,0.6,1,1.2,1.4,1.9c0,0.1-2.6,1.8-4.1,2.8c-0.1,0-0.3-0.2-0.5-0.6c-0.6-1-1.6-1.6-2.8-1.7c-1.8-0.1-3,0.8-3,2.4
			c0,0.4,0.1,0.8,0.3,1.1c0.4,0.8,1.1,1.3,3.5,2.3c4.3,1.8,6.1,3.1,7.2,4.8c1.3,1.9,1.6,5,0.7,7.3c-1,2.5-3.3,4.2-6.6,4.7
			c-1.5,0.2-3,0.2-4.5,0c-2.3-0.4-4.4-1.5-6.1-3.2c-0.5-0.6-1.6-2.2-1.6-2.3c0.2-0.1,0.4-0.2,0.5-0.3l2.2-1.2l1.7-1l0.4,0.5
			c0.6,0.9,1.4,1.6,2.3,2.2c1.9,1,4.5,0.9,5.8-0.3c0.9-0.9,1-2.3,0.3-3.3c-0.5-0.7-1.4-1.2-4.1-2.4c-3.1-1.3-4.4-2.1-5.6-3.5
			c-0.8-0.9-1.3-1.9-1.6-3c-0.2-1.3-0.3-2.5-0.1-3.8c0.6-3,2.9-5.1,6.1-5.7C494,246.7,495.5,246.8,497,247L497,247z M483,249.5v2.4
			h-7.7V274h-5.5V252H462v-2.4c0-0.8,0-1.6,0.1-2.5c0,0,4.8,0,10.5,0H483L483,249.5z"/>
	</g>
</g>
<g>
	<g id="original_2_">
		<path d="M1014,280.6c-3.8,1-6.2,0-8.3-3.2c-4.8-7.2-10.1-14-15.1-21c-0.7-0.9-1.3-1.8-2.2-2.9c-6,8.1-12,15.9-17.7,23.9
			c-2,2.9-4.1,4.1-7.9,3.1l22.7-30.4l-21.1-27.5c3.6-0.7,6.1-0.3,8.4,2.9c4.9,7.2,10.3,14,15.7,21.2c5.4-7.2,10.8-14,15.8-21.1
			c2-2.9,4.2-4,7.9-2.9c-2.8,3.7-5.5,7.3-8.2,10.8c-3.7,4.8-7.3,9.7-11.1,14.4c-1.4,1.7-1.1,2.8,0.1,4.4
			C999.9,261.7,1006.9,271,1014,280.6z"/>
		<path d="M908.6,249.7c0.6-3,1-6.1,1.9-9.1c5-18,25.7-25.5,40-14.4c8.3,6.6,10.4,15.8,10,26.2h-46.9c-0.7,18.7,12.7,30,29.9,24.2
			c6-2,9.6-6.7,11.3-12.6c0.9-3,2.4-3.4,5.2-2.6c-1.4,7.4-4.6,13.5-11.4,17.4c-10.1,5.8-24.5,3.9-32.1-4.1
			c-4.5-4.7-6.4-10.6-7.2-16.9c-0.1-1-0.4-2-0.6-3C908.6,253.1,908.6,251.4,908.6,249.7z M913.5,248.4H956
			c-0.3-13.5-8.7-23.1-20.2-23.2C923.1,225.1,914.1,234.5,913.5,248.4z"/>
	</g>
</g>
<g>
	<g>
		<path class="st54" d="M1365.4,220.1c-16.6,0-30,13.4-30,30c0,13.3,8.6,24.5,20.5,28.5c1.5,0.3,2-0.7,2-1.4c0-0.7,0-3.1,0-5.6
			c-8.3,1.8-10.1-3.5-10.1-3.5c-1.4-3.5-3.3-4.4-3.3-4.4c-2.7-1.9,0.2-1.8,0.2-1.8c3,0.2,4.6,3.1,4.6,3.1c2.7,4.6,7,3.3,8.7,2.5
			c0.3-1.9,1-3.3,1.9-4c-6.7-0.8-13.7-3.3-13.7-14.8c0-3.3,1.2-6,3.1-8.1c-0.3-0.8-1.3-3.8,0.3-7.9c0,0,2.5-0.8,8.3,3.1
			c2.4-0.7,5-1,7.5-1c2.5,0,5.1,0.3,7.5,1c5.7-3.9,8.2-3.1,8.2-3.1c1.6,4.1,0.6,7.2,0.3,7.9c1.9,2.1,3.1,4.8,3.1,8.1
			c0,11.5-7,14.1-13.7,14.8c1.1,0.9,2,2.8,2,5.6c0,4,0,7.2,0,8.2c0,0.8,0.5,1.7,2.1,1.4c11.9-4,20.5-15.2,20.5-28.5
			C1395.4,233.6,1382,220.1,1365.4,220.1L1365.4,220.1z"/>
		<path class="st55" d="M1346.8,263.2c-0.1,0.1-0.3,0.2-0.5,0.1c-0.2-0.1-0.3-0.3-0.3-0.5c0.1-0.2,0.3-0.2,0.5-0.1
			C1346.8,262.9,1346.9,263.1,1346.8,263.2L1346.8,263.2z M1348,264.6c-0.1,0.1-0.4,0.1-0.6-0.1c-0.2-0.2-0.2-0.5-0.1-0.6
			c0.1-0.1,0.4-0.1,0.6,0.1C1348.1,264.2,1348.2,264.4,1348,264.6L1348,264.6z M1349.2,266.3c-0.2,0.1-0.5,0-0.7-0.3
			c-0.2-0.3-0.2-0.6,0-0.7c0.2-0.1,0.5,0,0.7,0.3C1349.4,265.8,1349.4,266.2,1349.2,266.3L1349.2,266.3z M1350.8,268
			c-0.2,0.2-0.5,0.1-0.8-0.1c-0.3-0.2-0.3-0.6-0.2-0.8c0.2-0.2,0.5-0.1,0.8,0.1C1350.9,267.4,1351,267.8,1350.8,268L1350.8,268z
			 M1353.1,268.9c-0.1,0.2-0.4,0.3-0.8,0.2c-0.3-0.1-0.6-0.4-0.5-0.6c0.1-0.2,0.4-0.3,0.8-0.2
			C1352.9,268.4,1353.1,268.7,1353.1,268.9z M1355.5,269.1c0,0.2-0.3,0.5-0.6,0.5c-0.4,0-0.6-0.2-0.7-0.4c0-0.2,0.3-0.5,0.6-0.5
			C1355.2,268.7,1355.5,268.9,1355.5,269.1L1355.5,269.1z M1357.8,268.7c0,0.2-0.2,0.5-0.6,0.6c-0.3,0.1-0.7-0.1-0.7-0.3
			c0-0.2,0.2-0.5,0.6-0.6C1357.4,268.3,1357.8,268.5,1357.8,268.7L1357.8,268.7z"/>
	</g>
</g>
<g>
	<path class="st56" d="M1133.3,217.6h60v60h-60V217.6z"/>
	<path class="st57" d="M1174.8,258.9c-4.2,8.6-11.6,14.4-21.4,16.3c-1.5,0.4-3,0.5-4.6,0.5c-5.6,0-10.8-2.3-13.3-6.2
		c-3.4-5.1-4.5-16,6.6-24c0.2,1.2,0.7,2.9,1,3.9c-2.2,1.6-4,3.7-5.2,6.1c-2.1,4-1.8,8.1,0.6,11.8c1.7,2.5,4.4,4.1,7.8,4.5
		c4.3,0.5,8.6-0.3,12.4-2.3c6-3.1,9.9-6.9,12.5-12c-0.7-0.8-1.2-1.8-1.2-2.8c-0.1-2.4,1.8-4.3,4.1-4.4h0.2c2.4,0,4.3,1.9,4.3,4.3
		C1178.7,256.9,1177,258.7,1174.8,258.9L1174.8,258.9z M1188.3,249.4c5.7,6.5,5.9,14.1,3.7,18.6c-2.1,4-7.5,8.1-14.8,8.1
		c-3.4-0.1-6.8-0.9-9.8-2.4c1.1-0.8,2.6-2,3.4-2.8c2.4,1,4.9,1.6,7.5,1.6c4.7,0,8.3-2.2,10.5-6.3c1.4-2.7,1.5-5.8,0.2-9
		c-1.6-4-4.4-7.5-8.1-9.8c-4.8-3.2-10.5-5-16.3-5h-1.4c-0.7,1.5-2.1,2.5-3.8,2.6h-0.1c-2.4,0-4.3-2-4.2-4.3c0-2.3,1.8-4.1,4.1-4.2
		h0.2c1.6,0,3,0.9,3.8,2.3h1.2C1173.9,238.9,1182.5,242.6,1188.3,249.4z M1149.5,260.2c-0.1-0.8,0.1-1.6,0.5-2.2
		c-4.3-7.4-6.6-16.8-3.1-26.6c2.5-7.3,8.9-12.3,15.7-12.3c7.3,0,15,6.4,15.9,18.8c-1.1-0.4-2.8-0.9-3.8-1.1c-0.2-4-3.7-14.1-11.8-14
		c-2.9,0.1-7.2,1.5-9.4,4.3c-2.7,3.4-4.3,7.5-4.5,11.8c-0.5,5.9,0.9,11.9,4,16.9c0.2-0.1,0.4-0.1,0.5-0.1h0.1c2.4,0,4.3,1.8,4.4,4.2
		s-1.8,4.3-4.2,4.4h-0.2C1151.5,264.3,1149.6,262.5,1149.5,260.2L1149.5,260.2z"/>
</g>
<g>
	<path class="st58" d="M1280.8,278.7c1,0.4,2.1,0.4,3.1-0.1l12.7-6.1c1.3-0.6,2.2-2,2.2-3.5v-41.5c0-1.5-0.8-2.8-2.2-3.5l-12.7-6.1
		c-1.3-0.6-2.8-0.5-3.9,0.4c-0.2,0.1-0.3,0.2-0.5,0.4l-24.4,22.2l-10.6-8.1c-1-0.7-2.4-0.7-3.3,0.1l-3.4,3.1c-1.1,1-1.1,2.8,0,3.8
		l9.2,8.4l-9.2,8.4c-1.1,1-1.1,2.8,0,3.8l3.4,3.1c0.9,0.8,2.3,0.9,3.3,0.1l10.6-8.1l24.4,22.2
		C1279.9,278.3,1280.3,278.5,1280.8,278.7z M1283.3,234.2l-18.5,14l18.5,14V234.2z"/>
	<defs>
		<filter id="Adobe_OpacityMaskFilter" filterUnits="userSpaceOnUse" x="1236.9" y="217.5" width="61.8" height="61.5">
			<feColorMatrix  type="matrix" values="1 0 0 0 0  0 1 0 0 0  0 0 1 0 0  0 0 0 1 0"/>
		</filter>
	</defs>
	<mask maskUnits="userSpaceOnUse" x="1236.9" y="217.5" width="61.8" height="61.5" id="mask0_1_">
		<path class="st59" d="M1280.8,278.7c1,0.4,2.1,0.4,3.1-0.1l12.7-6.1c1.3-0.6,2.2-2,2.2-3.5v-41.5c0-1.5-0.8-2.8-2.2-3.5l-12.7-6.1
			c-1.3-0.6-2.8-0.5-3.9,0.4c-0.2,0.1-0.3,0.2-0.5,0.4l-24.4,22.2l-10.6-8.1c-1-0.7-2.4-0.7-3.3,0.1l-3.4,3.1c-1.1,1-1.1,2.8,0,3.8
			l9.2,8.4l-9.2,8.4c-1.1,1-1.1,2.8,0,3.8l3.4,3.1c0.9,0.8,2.3,0.9,3.3,0.1l10.6-8.1l24.4,22.2
			C1279.9,278.3,1280.3,278.5,1280.8,278.7z M1283.3,234.2l-18.5,14l18.5,14V234.2z"/>
	</mask>
	<g class="st60">
		<path class="st61" d="M1296.6,224l-12.7-6.1c-1.5-0.7-3.2-0.4-4.4,0.7l-41.7,38c-1.1,1-1.1,2.8,0,3.8l3.4,3.1
			c0.9,0.8,2.3,0.9,3.3,0.1l50.2-38.1c1.7-1.3,4.1-0.1,4.1,2v-0.1C1298.8,226,1297.9,224.7,1296.6,224z"/>
		<g>
			<path class="st53" d="M1296.6,272.5l-12.7,6.1c-1.5,0.7-3.2,0.4-4.4-0.7l-41.7-38c-1.1-1-1.1-2.8,0-3.8l3.4-3.1
				c0.9-0.8,2.3-0.9,3.3-0.1l50.2,38.1c1.7,1.3,4.1,0.1,4.1-2v0.1C1298.8,270.5,1297.9,271.8,1296.6,272.5z"/>
		</g>
		<g>
			<path class="st62" d="M1283.8,278.6c-1.5,0.7-3.2,0.4-4.4-0.7c1.4,1.4,3.9,0.4,3.9-1.6v-56c0-2-2.4-3-3.9-1.6
				c1.2-1.2,2.9-1.5,4.4-0.7l12.7,6.1c1.3,0.6,2.2,2,2.2,3.5V269c0,1.5-0.9,2.8-2.2,3.5L1283.8,278.6z"/>
		</g>
		<g class="st63">
			
				<linearGradient id="SVGID_6_" gradientUnits="userSpaceOnUse" x1="913.8362" y1="226.4648" x2="913.8362" y2="164.9987" gradientTransform="matrix(1 0 0 -1 354 444)">
				<stop  offset="0" style="stop-color:#FFFFFF"/>
				<stop  offset="1" style="stop-color:#FFFFFF;stop-opacity:0"/>
			</linearGradient>
			<path class="st64" d="M1280.8,278.7c1,0.4,2.1,0.4,3.1-0.1l12.7-6.1c1.3-0.6,2.2-2,2.2-3.5v-41.5c0-1.5-0.8-2.8-2.2-3.5
				l-12.7-6.1c-1.3-0.6-2.8-0.5-3.9,0.4c-0.2,0.1-0.3,0.2-0.5,0.4l-24.4,22.2l-10.6-8.1c-1-0.7-2.4-0.7-3.3,0.1l-3.4,3.1
				c-1.1,1-1.1,2.8,0,3.8l9.2,8.4l-9.2,8.4c-1.1,1-1.1,2.8,0,3.8l3.4,3.1c0.9,0.8,2.3,0.9,3.3,0.1l10.6-8.1l24.4,22.2
				C1279.8,278.3,1280.3,278.5,1280.8,278.7z M1283.3,234.2l-18.5,14l18.5,14V234.2z"/>
		</g>
	</g>
</g>
<g>
	<g>
		<path class="st4" d="M280.1,428h-60v-60h60V428z"/>
		<path class="st5" d="M280.1,428h-30v-60h30V428z"/>
		<path class="st6" d="M276.6,424.5h-53v-53h53V424.5z"/>
		<path class="st7" d="M276.6,424.5h-26.5v-53h26.5V424.5z"/>
		<path class="st4" d="M244.4,389.3h3.4l7.6,20h-4l-1.9-5h-7l-1.8,5h-4L244.4,389.3z M248.9,401.5l-2.8-7.8l-2.9,7.8H248.9z"/>
		<g>
			<path class="st5" d="M257.3,392.5v-3.7h3.8v3.7H257.3z M257.3,409.3v-14.8h3.8v14.7h-3.8V409.3z"/>
			<polygon class="st5" points="250.1,395.2 250.1,405.6 251.4,409.3 255.4,409.3 			"/>
		</g>
	</g>
</g>
<g>
	<g>
		<path class="st13" d="M396.4,427.2h-60v-60h60V427.2z"/>
		<path class="st14" d="M396.4,427.2h-30v-60h30V427.2z"/>
		<path class="st18" d="M392.9,423.7h-53v-53h53V423.7z"/>
		<path class="st19" d="M392.9,423.7h-26.5v-53h26.5V423.7z"/>
		<path class="st13" d="M352.9,408.5v-20h8.5c3.9,0,6.4,3.6,6.4,6.6c0,3.6-2.8,6.6-6.2,6.6h-4.7v6.7h-4V408.5z M356.8,398.4h4.5
			c1.4,0,2.5-1.3,2.5-3.2c0-1.7-1-3.2-2.7-3.2h-4.3C356.8,392,356.8,398.4,356.8,398.4z"/>
		<g>
			<path class="st14" d="M375.6,408.7c-3.4,0-5.8-1.5-6.7-2.3l1.4-2.4c0.9,0.6,3,1.9,5.2,1.9c1.4,0,2.4-0.6,2.4-1.6
				c0-1.3-2.1-1.7-3.2-2c-1-0.3-5.3-0.9-5.3-4.1c0-3.1,2.7-4.9,5.8-4.9c3.2,0,5,1.3,5.8,2l-1.5,2.3c-0.8-0.6-2.4-1.6-4.3-1.6
				c-1.4,0-2.3,0.6-2.3,1.7c0,1.3,2.4,1.7,2.9,1.9c1,0.3,5.7,1,5.7,4.4C381.6,408.2,377.5,408.7,375.6,408.7z"/>
			<path class="st14" d="M366.4,391.1v8.1c0.8-1.1,1.3-2.6,1.3-4.1C367.7,393.8,367.3,392.3,366.4,391.1z"/>
		</g>
	</g>
</g>
</svg>
